<?xml version="1.0" encoding="UTF-8"?>
<svg version="1.1" viewBox="0 0 1600 1400" width="860.13137" height="551.74119" xmlns="http://www.w3.org/2000/svg">
<path transform="translate(523 43.1)" d="m0 0c1.42 0.05 1.42 0.05 2.87 0.1 10.4 0.59 19.1 3.82 28.2 8.78 1.55 0.83 1.55 0.83 3.13 1.68 0.62 0.44 1.23 0.87 1.87 1.32v2c1.13 0.39 1.13 0.39 2.28 0.8 7.35 3.23 12.1 10.8 16.7 17.1 0.5 0.67 0.99 1.33 1.5 2.02 3.5 4.85 3.5 4.85 3.5 7.11 0.99 0.32 1.98 0.65 3 1 0.9 1.31 1.8 2.64 2.64 3.99 3.11 4.59 6.82 8.75 10.4 13 0.57 0.68 1.13 1.37 1.71 2.08 2.33 2.81 4.51 5.09 7.35 7.42 2.74 2.32 4.35 4.58 6.33 7.53 4.25 5.18 10.1 9.09 15.5 13.1 0.71 0.61 1.42 1.22 2.15 1.86v2c0.58 0.26 1.15 0.52 1.74 0.79 2.42 1.29 4.29 2.76 6.39 4.52 13.2 10.7 27.2 20.1 41.9 28.7 1.24 0.73 2.48 1.47 3.72 2.21 7.6 4.48 15.4 8.31 23.4 11.9 1.78 0.82 3.54 1.69 5.29 2.57 10.5 5.16 21.3 8.78 32.5 12.3 2.99 0.95 5.97 1.93 8.95 2.91 12.4 4.02 24.8 6.76 37.8 8.71 1.98 0.3 3.95 0.64 5.93 0.98 48.6 8.35 101 3.88 147-10.6 1.01-0.31 2.03-0.62 3.07-0.94 2.98-0.9 5.96-1.82 8.93-2.75 0.88-0.28 1.76-0.55 2.66-0.83 5.64-1.81 11-4 16.3-6.48 1.94-0.88 3.88-1.75 5.82-2.63 2.06-0.93 4.12-1.87 6.18-2.81 1.03-0.47 2.06-0.93 3.12-1.41 8.67-3.95 16.8-8.35 24.8-13.6 5.17-3.39 10.4-6.45 15.9-9.28 2.12-1.23 3.51-2.54 5.2-4.28 2.19-0.69 2.19-0.69 4-1v-2c2.08-1.57 4.15-3.02 6.32-4.44 5.17-3.37 5.17-3.37 9.68-7.56 2.8-2.98 5.49-4.95 9-7 0.71-0.62 1.42-1.24 2.15-1.87 3.5-2.62 7.06-4.15 11.1-5.76 0.77-0.31 1.53-0.61 2.32-0.93 5.09-2 9.97-3.81 15.4-4.44 1.68-0.2 1.68-0.2 3.38-0.4 17.6-1.62 35.2 1.75 49.6 12.4 1.92 1.72 3.71 3.5 5.46 5.39 1.68 1.83 1.68 1.83 4.48 3.92 0.68 0.55 1.36 1.11 2.06 1.69v2c0.99 0.32 1.98 0.65 3 1 5.36 6.68 9.32 13.9 12 22 0.35 1.01 0.7 2.03 1.06 3.08 2.03 6.23 3.39 12.3 4.42 18.8 3.09 18.7 7.03 37.7 14.5 55.2 0.69 1.75 1.38 3.51 2.06 5.26 4.37 11.2 9.1 22.1 15.5 32.3 1.62 2.73 2.96 5.53 4.33 8.39 2.52 5.14 5.48 9.6 8.94 14.2 1.54 2.05 3.03 4.1 4.5 6.21 6.04 8.72 12.7 16.8 19.7 24.7 1.36 1.54 2.71 3.08 4.06 4.62 0.51 0.57 1.02 1.14 1.54 1.73 1.4 1.65 1.4 1.65 2.9 3.79 1.46 2.14 1.46 2.14 4.5 2.86 1.58 1.63 1.58 1.63 3.25 3.68 4.21 4.95 8.71 9.07 14.2 12.6 0.85 0.58 1.69 1.16 2.56 1.76v2c1.65 0.66 3.3 1.31 5 2v2c0.82 0.39 0.82 0.39 1.66 0.78 2.69 1.4 5.22 2.96 7.78 4.59 0.93 0.59 1.85 1.17 2.81 1.77 2.75 1.86 2.75 1.86 5.1 3.78 3.36 2.62 6.91 4.7 10.6 6.82 1.13 0.66 1.13 0.66 2.29 1.33 1.54 0.89 3.07 1.78 4.61 2.67 1.9 1.1 3.78 2.23 5.65 3.37 39.4 23.5 87.6 35.1 133 36.2 18.2 0.47 37.1 2.13 51.4 14.7 0.8 0.68 1.6 1.36 2.43 2.06 15.5 13.5 25.5 29.3 28.6 49.9 0.42 6.74 0.26 13.4-1 20-0.12 0.75-0.24 1.51-0.37 2.28-1.82 10.4-5.88 20.3-12.2 28.8-7.39 10-14.3 20.1-20.4 30.9-0.43 0.73-0.85 1.46-1.29 2.22-3.3 5.73-6.07 11.7-8.82 17.7-1.26 2.75-2.56 5.48-3.9 8.2-20 40.7-25.7 86.6-25 131 0.03 2.04 0.05 4.08 0.06 6.13 0.12 27.5 7.1 60.9 18.7 85.6 1.17 2.51 2.07 4.97 2.9 7.61 1.1 3.45 2.48 6.57 4.15 9.79 1.55 2.96 3 5.96 4.47 8.96 3.62 7.3 7.63 14.4 11.8 21.4 0.49 0.83 0.98 1.66 1.49 2.52 2.97 4.85 6.22 9.51 9.47 14.2 10.6 15.3 18.7 29.3 20 48.3 0.07 0.88 0.13 1.76 0.2 2.67 0.74 18.7-7.41 36.1-19.2 50.3-14.4 15.2-32 22.5-52.7 23.4-1.5 0.08-2.99 0.15-4.48 0.22-1.16 0.06-1.16 0.06-2.35 0.11-25.9 1.28-50.3 4.93-75.5 11.2l-4.92 1.2c-5.83 1.45-11.4 3.12-16.8 5.73-3.88 1.79-7.9 3.23-11.9 4.72-8.2 3.24-16 7.1-23.8 11.2-0.97 0.49-1.94 0.99-2.94 1.5-6.6 3.42-12.6 7.33-18.6 11.7-1.97 1.32-3.95 2.63-5.94 3.93-5.81 3.86-11.4 7.92-17.1 12.1-1.13 0.82-1.13 0.82-2.29 1.66-3.91 2.86-7.31 5.85-10.7 9.34-1.57 1.42-3.16 2.83-4.75 4.24-7.6 6.81-14.6 14-21.2 21.8-0.81 0.92-1.62 1.84-2.45 2.79-7.52 8.61-14.1 17.8-20.6 27.2-0.62 0.92-1.25 1.84-1.89 2.78-1.77 2.71-3.44 5.45-5.11 8.22-0.41 0.67-0.83 1.34-1.26 2.04-9.4 15.2-16.4 31.3-22.7 48-0.39 1.02-0.78 2.04-1.19 3.1-7.6 20.3-12.5 42.1-15.3 63.6-2.18 16-8.26 29.6-19.5 41.3-0.75 0.78-1.49 1.57-2.26 2.38-13.9 13.5-33 19.9-52.2 19.9-22.4-0.45-39.6-10.9-55.4-26-2.47-2.6-3.67-5.15-5.24-8.35-1.31-1.36-2.64-2.69-4-4-0.33-1-0.66-1.99-1-3-0.97-1.03-1.98-2.02-3-3-4.84-5.54-4.84-5.54-6-9-1.14-1.18-2.29-2.36-3.48-3.49-3.64-3.63-6.92-7.62-10.2-11.6-0.53-0.63-1.06-1.26-1.6-1.9-0.47-0.57-0.94-1.13-1.43-1.72-1.24-1.48-1.24-1.48-3.26-2.34v-2c-0.99-0.33-1.98-0.67-3-1v-2h-2c-1.62-1.68-1.62-1.68-3.44-3.88-2.14-2.59-3.73-4.24-6.56-6.12v-2c-0.57-0.26-1.15-0.51-1.74-0.77-2.55-1.4-4.29-3.02-6.38-5.05-7.42-6.78-15.6-12.4-23.9-18.2-0.73-0.52-1.46-1.03-2.22-1.57-47.2-33-103-51.9-160-57.4-0.74-0.08-1.48-0.15-2.24-0.22-77.6-7.13-164 16.2-225 65.2l-6.18 4.56c-5.58 4.17-10.7 8.71-15.8 13.4-16.5 15.1-35.2 24.1-58 23.3-16.2-0.94-31.9-6.37-44-17.3-1.06-0.89-1.06-0.89-2.14-1.79-4.08-3.44-7.72-6.9-10.9-11.2v-3c-0.99-0.33-1.98-0.67-3-1-0.33-1.99-0.66-3.97-1-6-0.99-0.33-1.98-0.67-3-1-1.21-3.46-2-6.33-2-10h-2c-0.11-0.61-0.22-1.21-0.33-1.83-0.9-4.56-1.73-7.53-4.67-11.2-1.51-3.71-2.81-7.45-4.09-11.2-2.31-6.76-4.87-13-8.43-19.2-1.48-2.59-2.8-5.22-4.1-7.91-1.41-2.87-2.87-5.55-4.69-8.18-1.69-2.5-1.69-2.5-1.69-4.5-0.45-0.42-0.91-0.83-1.37-1.26-1.63-1.74-1.63-1.74-2.63-4.87-0.33-0.95-0.66-1.9-1-2.87-0.99-0.33-1.98-0.67-3-1-1.03-1.99-2.03-3.99-3-6-0.98-1.02-1.98-2.03-3-3-0.66-1.34-1.33-2.67-2-4-0.66-0.33-1.32-0.67-2-1v-3c-0.99-0.33-1.98-0.67-3-1-1.46-1.68-1.46-1.68-2.94-3.76-5.22-7.29-11.1-13.4-17.6-19.6-0.7-0.69-1.4-1.38-2.13-2.1-0.64-0.62-1.29-1.25-1.95-1.9-1.41-1.61-1.41-1.61-1.41-3.61-0.62-0.31-1.24-0.62-1.87-0.94-1.38-0.69-2.75-1.38-4.13-2.06v-2c-0.57-0.25-1.14-0.5-1.72-0.76-2.64-1.44-4.48-3.17-6.65-5.24-7.49-6.87-15.8-12.8-24.5-18-1.03-0.67-2.07-1.32-3.13-2v-2c-0.57-0.12-1.14-0.23-1.73-0.34-2.53-0.74-4.3-1.81-6.52-3.23-6.33-3.89-13-7.12-19.6-10.4-1.5-0.74-3-1.49-4.49-2.24-5.9-2.99-11.9-5.76-18-8.37-0.91-0.39-1.83-0.78-2.77-1.19-6.02-2.54-12-4.7-18.3-6.48-2.3-0.67-4.48-1.44-6.7-2.33-8.74-3.33-18-4.87-27.1-6.5-0.91-0.16-1.82-0.32-2.75-0.49-15.9-2.73-31.7-3.88-47.8-4.47-18.3-0.7-35.2-3.79-50.3-15v-2c-0.72-0.23-1.44-0.46-2.18-0.69-6.03-2.81-10.3-8.8-13.8-14.3v-2h-2c-0.99-1.87-1.96-3.75-2.94-5.63-0.54-1.04-1.09-2.09-1.65-3.16-1.37-3.14-2.01-5.83-2.41-9.21h-2c-5.65-18.5-3.74-38.8 5.13-55.8 3.29-5.7 6.98-11.1 10.7-16.5 2.07-3.04 4.04-6.16 6.01-9.26 0.38-0.48 0.76-0.95 1.15-1.44h2c0.24-0.66 0.48-1.33 0.72-2 1.64-3.85 3.71-7.38 5.78-11 7.96-14.1 15.1-28.7 20.5-44l1.71-4.68c3.75-10.3 6.85-20.6 9.29-31.3 0.17-0.63 0.33-1.26 0.5-1.9 0.55-2.32 0.9-4.62 1.22-6.98 0.13-0.92 0.26-1.85 0.39-2.79 0.26-1.94 0.52-3.87 0.79-5.8 0.19-1.38 0.19-1.38 0.38-2.79 0.12-0.84 0.23-1.68 0.35-2.54 0.37-2.2 0.37-2.2 1.37-5.2 4.06-37.3 2.71-76.5-7.17-113-0.83-3.2-0.83-3.2-1.32-6.38-0.48-2.69-1.21-4.45-2.51-6.82-0.46-1.31-0.9-2.62-1.31-3.94-2-6.11-4.32-12.1-6.69-18.1-0.38-0.99-0.38-0.99-0.78-1.99-8.99-22.8-20.3-46.1-36.3-64.8-11.1-13.6-16-31.8-14.9-49.2 1.12-10.3 3.36-19.7 8-29l1.3-2.6c2.15-4.09 4.26-7.27 7.7-10.4 0.93-1.1 1.84-2.21 2.75-3.32 12-13.8 29.2-21.4 47.2-23.7 2.69-0.17 5.36-0.3 8.05-0.4 1.57-0.07 3.14-0.13 4.71-0.2 0.81-0.03 1.63-0.07 2.47-0.11 56.9-2.52 112-18.2 159-51.3 1.24-0.86 2.48-1.71 3.71-2.57 6.82-4.74 13.2-9.78 19.3-15.4 5.64-5 5.64-5 8-5v-2c1.62-1.71 3.3-3.38 5-5 0.56-0.6 1.12-1.2 1.69-1.82 1.31-1.18 1.31-1.18 3.31-1.18v-2c1.54-1.45 1.54-1.45 3.63-3.13 3.6-3.04 6.3-6.19 8.95-10.1 1.42-1.79 1.42-1.79 3.53-3.34 2.18-1.4 2.18-1.4 2.89-4.45 1.31-1.36 2.65-2.69 4-4 0.66-1 1.32-1.99 2-3h2c0.24-0.7 0.48-1.39 0.73-2.1 1.5-3.42 3.49-6.33 5.65-9.34 5.4-7.65 10.2-15.3 14.6-23.6 0.72-1.33 1.43-2.65 2.14-3.97 9.46-17.6 18.2-35.6 23.1-55.1 0.6-2.33 1.24-4.63 1.92-6.94 4.03-13.7 6.78-27.5 7.61-41.8 0.21-2.19 0.21-2.19 1.21-4.18 0.25-2.91 0.44-5.8 0.57-8.71 0.05-0.89 0.09-1.77 0.13-2.69 0.29-6.62 0.35-13.2 0.29-19.8-0.01-1.42-0.01-1.42-0.02-2.86-0.04-3.86-0.08-7.71-0.14-11.6-0.46-31.1-0.46-31.1 7.11-43.4 0.33-0.58 0.67-1.17 1.01-1.77 1-1.73 2.03-3.45 3.05-5.16 0.71-1.25 1.41-2.5 2.11-3.75 7.35-12.6 22.9-24 36.9-28.2 9.69-2.57 18.9-3.26 28.9-2.88zm-74.9 49.9 1 2zm-3 35v5h1v-5h-1zm0 26 1 4zm-2 22v5h1v-5h-1zm-10 50 1 2zm139 49c-3.3 5.89-5.17 11.7-6.87 18.2-2.51 8.36-6.19 16.2-10 24-2.91 6.04-5.74 12.1-8.31 18.3-5.53 13.1-12.9 25.7-20.8 37.5-0.62 1.11-1.23 2.22-1.87 3.37-1.94 3.47-4.28 6.52-6.7 9.67-1.62 2.22-2.92 4.57-4.24 6.98-2.15 3.57-4.69 6.85-7.16 10.2-1.84 2.53-3.57 5.1-5.28 7.72-2.02 3.07-4.06 5.54-6.75 8.07-4.29 4.72-8.38 9.62-12.5 14.5-11.6 13.8-11.6 13.8-17.5 19.5-0.67 0.67-1.34 1.35-2.02 2.05-4.82 4.88-9.77 9.49-15 14-1.23 1.08-2.46 2.16-3.68 3.24-9.18 8.01-18.4 15.7-28.3 22.8-1.81 1.33-3.62 2.66-5.44 4-4.82 3.51-9.75 6.84-14.7 10.1-1.71 1.12-3.41 2.26-5.09 3.42-5.59 3.83-11.4 7.17-17.3 10.5-2.97 1.69-5.9 3.43-8.81 5.2-7.07 4.27-14.5 7.65-22 11.1-3.61 1.68-7.16 3.42-10.7 5.27-4.98 2.53-10.2 4.3-15.4 6.12-3.25 1.16-6.4 2.45-9.57 3.82-5.25 2.24-10.6 3.92-16 5.53-3.06 0.9-3.06 0.9-6.52 2.47-3.96 1.68-7.95 2.73-12.1 3.79-2.21 0.43-2.21 0.43-3.26 1.65 0.29 5.96 1.45 10.5 3.77 16 16.4 40.2 24.3 86.9 24.4 130 0.01 1.81 0.01 1.81 0.02 3.65 0.01 3.86 0.02 7.72 0.02 11.6 0 1.32 0 2.64 0.01 4-0.01 19.7-0.46 39.1-3.26 58.6-0.15 1.1-0.31 2.2-0.47 3.33-1.73 12-4.04 23.8-6.99 35.5-0.59 2.38-1.12 4.77-1.65 7.16-3.24 14.4-7.28 28.5-13 42.1-1.78 4.35-2.5 8.21-2.85 12.9 2.96 0.93 5.92 1.87 8.88 2.81 0.82 0.26 1.64 0.52 2.49 0.79 4.16 1.32 8.33 2.6 12.5 3.81 5.8 1.73 11.4 3.94 17 6.21 1.09 0.44 2.18 0.88 3.31 1.34 10.1 4.08 20 8.41 29.8 13 0.84 0.39 1.68 0.78 2.55 1.18 13.4 6.28 25.9 13.5 38.4 21.3 0.88 0.54 0.88 0.54 1.77 1.1 1.6 0.99 3.2 2 4.79 3 2.27 1.55 2.27 1.55 4.45 1.39v2c1.45 1.3 1.45 1.3 3.36 2.56 0.71 0.49 1.41 0.97 2.13 1.47 0.75 0.51 1.49 1.01 2.26 1.53 0.73 0.5 1.46 1.01 2.21 1.53 3.35 2.29 6.02 4.11 10 4.91v2c0.58 0.24 1.16 0.49 1.75 0.74 2.55 1.42 4.21 3.21 6.25 5.26h2v2c1.79 1.3 1.79 1.3 4.06 2.62 3.31 2.12 5.83 4.15 8.32 7.19 4.21 5.12 9.24 9.33 14.6 13.2h2c0.25 0.61 0.5 1.23 0.75 1.87 1.07 2.26 1.07 2.26 3.25 3.13 2 1 2 1 2.91 2.82 1.23 2.45 2.66 4 4.59 5.92 0.61 0.62 1.22 1.23 1.85 1.86 1.55 1.61 1.55 1.61 3.65 1.4 0.25 0.73 0.49 1.47 0.74 2.23 1.41 3.08 2.92 4.66 5.39 6.95 4.06 3.92 7.58 8.04 11 12.5 1.52 1.93 3.07 3.79 4.7 5.64 3.27 3.77 6.27 7.74 9.3 11.7 3.25 4.27 6.6 8.44 10 12.6 1.78 2.4 3.26 4.89 4.72 7.5 1.94 3.46 4 6.84 6.07 10.2 0.43 0.71 0.85 1.43 1.29 2.16 0.42 0.69 0.84 1.37 1.27 2.08 0.38 0.61 0.75 1.23 1.13 1.86 1.62 1.95 2.91 2.78 5.31 3.59 2.61-1.18 4.84-2.38 7.25-3.88 1.44-0.85 2.89-1.7 4.33-2.55 1.1-0.65 1.1-0.65 2.23-1.32 5.28-3.03 10.8-5.61 16.2-8.29 1.84-0.91 3.66-1.87 5.49-2.82 40.5-21.2 86.4-34.8 131-42.1 0.91-0.16 1.81-0.31 2.75-0.46 21.2-3.46 42.8-4.94 64.2-5.54 0.83-0.03 1.65-0.05 2.5-0.08 28.9-0.68 58 1.52 86.5 6.08 1.21 0.18 2.41 0.37 3.65 0.57 14.8 2.36 29.1 5.38 43.5 9.6 3.04 0.87 6.1 1.67 9.16 2.46 29.1 7.65 56.9 19.8 83.7 33.4 1.13 0.55 1.13 0.55 2.27 1.12 18.7 9.29 36.9 20.6 53.7 32.9 0.55 0.39 1.09 0.79 1.65 1.2 9.67 7.11 9.67 7.11 12.4 9.8h3l1 3c2.95 2.06 5.52 3.21 9 4 0.44-0.99 0.88-1.97 1.33-2.99 3.89-8.56 8.13-16.8 12.8-25 0.49-0.86 0.98-1.72 1.48-2.61 2.83-4.89 5.82-9.62 8.98-14.3 2.03-3.02 3.97-6.09 5.91-9.16 2.94-4.62 5.99-9.1 9.41-13.4 1.3-1.69 1.3-1.69 2.09-4.55 0.98-1.03 1.98-2.02 3-3 3-3.1 3-3.1 4-7h2c1.42-1.75 2.76-3.55 4.06-5.38 4.29-5.9 9-11.3 13.9-16.6 4.19-3.98 4.19-3.98 6-9 0.99-0.34 1.98-0.66 3-1 2.71-2.38 2.71-2.38 5-5v-2h2v-2c0.99-0.34 1.98-0.66 3-1v-2h2v-2c0.99-0.34 1.98-0.66 3-1 1.69-1.65 3.36-3.32 5-5 1.1-0.91 2.2-1.81 3.32-2.69 0.88-0.77 1.77-1.53 2.68-2.31v-2c0.59-0.28 1.18-0.55 1.79-0.83 2.18-1.16 3.76-2.4 5.59-4.05 3.04-2.68 6.25-4.87 9.62-7.12l1.94-1.94c2.36-2.36 4.9-4.09 7.67-5.92 0.46-0.38 0.92-0.75 1.39-1.14v-2c0.62-0.15 1.24-0.29 1.88-0.44 2.16-0.5 2.16-0.5 4.12-1.56v-2c0.77-0.29 1.53-0.58 2.32-0.88 2.83-1.09 2.83-1.09 5.68-3.12v-2c0.68-0.23 1.36-0.46 2.06-0.69 2.95-1.32 5.3-2.99 7.88-4.9 3.21-2.2 6.65-3.94 10.1-5.77 3.02-1.66 5.89-3.47 8.8-5.33 6.8-4.25 13.9-7.77 21.1-11.3 5.07-2.49 10-5.05 15-7.82 5.61-3.05 11.4-5.31 17.4-7.46 3.61-1.3 7.19-2.67 10.8-4.08 13.8-5.43 27.7-10.4 42-14.6-0.54-3.75-1.25-7.03-2.75-10.5-19.8-47.6-26.5-99.6-26.5-151v-3.68c0.01-26.5 1.01-52.7 6.74-78.6 0.55-2.6 1.02-5.21 1.48-7.83 1.62-9.2 3.54-17.9 6.69-26.7 1.65-4.66 2.91-9.42 4.22-14.2 2.23-8.09 4.89-15.9 8.03-23.7 0.43-1.11 0.43-1.11 0.87-2.24 0.26-0.64 0.52-1.28 0.79-1.94 0.54-2.32 0.32-3.66-0.57-5.86-2.65-1.2-2.65-1.2-6-2-1.27-0.42-2.55-0.84-3.82-1.27-0.69-0.23-1.38-0.45-2.09-0.69-29.5-9.78-57.2-21.3-84.5-36.2-0.91-0.49-1.81-0.98-2.74-1.49-5.39-2.95-10.7-6.03-15.9-9.28-1.92-1.27-1.92-1.27-4.01-1.1v-2c-1.99-1.4-3.98-2.68-6.06-3.94-16.9-10.5-34-22.9-47.9-37.1-3.09-3.02-3.09-3.02-7-4v-2c-1.48-1.54-1.48-1.54-3.44-3.13-0.72-0.62-1.44-1.24-2.19-1.87-0.78-0.66-1.56-1.32-2.37-2-1.61-1.37-3.21-2.75-4.81-4.13-0.73-0.62-1.46-1.24-2.21-1.88-2.14-2.16-3.48-4.36-4.98-6.99-1.96-2.3-1.96-2.3-4-4h-2c-0.33-1-0.66-1.99-1-3-1.64-1.69-3.31-3.36-5-5-1.33-1.67-2.66-3.34-4-5-1.13-1.11-1.13-1.11-2.29-2.24-2.95-3.01-5.51-6.18-8.08-9.52-0.48-0.62-0.97-1.24-1.46-1.88-0.96-1.23-1.92-2.46-2.87-3.7-1.09-1.39-2.18-2.78-3.29-4.16-3.88-4.87-7.37-9.94-10.8-15.2-1.57-2.38-3.18-4.71-4.83-7.04-5.92-8.37-11.2-16.9-16-26-1.68-3.12-3.47-6.14-5.33-9.16-3.31-5.47-6.04-11.2-8.74-17-0.95-1.99-1.89-3.98-2.83-5.98-0.65-1.38-0.65-1.38-1.31-2.79-0.96-2.01-1.96-4.01-2.97-6-1.22-2.51-1.8-4.72-2.21-7.47-5.61 1.67-10.8 3.78-16.1 6.31-6.32 3.02-12.7 5.69-19.2 8.23-2.59 1.03-5.06 2.12-7.58 3.29-6.85 3.08-14 5.27-21.2 7.6-1.42 0.47-2.85 0.94-4.27 1.41-2.12 0.7-4.24 1.4-6.37 2.1-3.38 1.11-6.75 2.23-10.1 3.39-8.56 2.95-17.1 5.27-25.9 7.17-0.67 0.14-1.34 0.29-2.04 0.44-16.2 3.51-32.7 5.92-49.2 8.06-0.98 0.12-1.95 0.25-2.96 0.38-43 5.46-87.3 3.31-130-3.38-1.02-0.16-2.04-0.32-3.09-0.48-21.9-3.42-43.2-8.6-64.2-15.6-2.79-0.93-5.59-1.85-8.39-2.76-1.86-0.61-3.71-1.22-5.57-1.83-1.25-0.41-1.25-0.41-2.52-0.83-7.59-2.53-15-5.38-22.3-8.8-3.24-1.5-6.5-2.92-9.82-4.24-9.71-3.87-18.9-8.3-28.1-13.3-2.01-1.09-4.04-2.16-6.07-3.22-7.57-3.95-14.8-8.2-22-12.9-1.71-1.1-3.42-2.2-5.14-3.29-4.13-2.65-8.26-5.29-12.3-8.07-1.07-0.73-2.14-1.46-3.23-2.21-0.96-0.66-1.91-1.32-2.89-2-2.39-1.69-2.39-1.69-5.43-1.43zm-494 240 1 2zm66 150 1 2zm1188 3 1 2zm-1184 19 1 2zm2 17 1 4zm1 16v13h1v-13h-1zm0 16 1 4zm1179 35 1 2zm-1182 1 1 2zm1183 9 1 3zm1 9 1 2zm2 14 1 2zm1 6 1 2zm-913 392 1 2zm4 10 1 2z" fill="#093C24"/>
<path transform="translate(876,515)" d="m0 0c10.4 8.37 16.2 19.8 21 32 0.83 1.92 1.67 3.83 2.5 5.75 5.64 13.7 9.66 27.8 13.1 42.2 0.19 0.81 0.39 1.61 0.59 2.44 5.89 24.7 9.97 49.4 13.4 74.6 0.22 1.56 0.22 1.56 0.44 3.16 0.27 1.96 0.54 3.92 0.8 5.88 0.84 6.03 1.91 12 3.17 17.9 0.89-0.07 1.78-0.14 2.69-0.22 8.4-0.61 16.8-0.91 25.2-0.97 0.94-0.01 1.89-0.02 2.87-0.04 9.29-0.01 19.3 1.03 27.2 6.23 5.77 5.9 7.14 10.7 7.25 18.8-0.1 8.21-1.26 12.3-7 18.3-1.4 1.32-2.81 2.61-4.25 3.88-0.52 0.48-1.05 0.95-1.59 1.44-9.06 7.34-21.9 9.22-32.9 11.7-1.2 0.27-2.41 0.55-3.65 0.83-2.94 0.67-5.89 1.34-8.84 2.01-0.01 0.99-0.02 1.97-0.03 2.99-0.1 9.27-0.2 18.5-0.31 27.8-0.05 4.76-0.11 9.53-0.16 14.3-0.04 4.59-0.1 9.19-0.15 13.8-0.02 1.75-0.04 3.51-0.06 5.27-0.02 2.45-0.05 4.91-0.08 7.36-0.01 0.73-0.02 1.46-0.02 2.22-0.08 5.03-0.08 5.03-1.19 7.26 0.01 2.11 0.02 4.22 0.04 6.33-0.32 22.9-4.52 51.7-20.4 69.2-8.66 7.86-17.7 8.88-29.1 8.69-7.45-0.51-12.8-2.6-18.3-7.69-1.75-2.08-2.23-3.86-2.31-6.56h-2l-1-6h-1c-0.01-1.13-0.01-1.13-0.02-2.28-0.11-9.7-0.23-19.4-0.36-29.1-0.01-0.77-0.02-1.55-0.03-2.35-0.3-23.3-0.86-46.6-1.93-69.9-0.04-0.96-0.09-1.92-0.13-2.91-0.08-1.74-0.16-3.47-0.25-5.21-0.3-6.41-0.32-12.8-0.28-19.2-0.61 0.11-1.23 0.22-1.86 0.33-28.3 4.96-56.7 9.84-85.1 14.3-1.1 0.18-2.21 0.35-3.34 0.53-3.11 0.49-6.21 0.97-9.31 1.45-0.92 0.14-1.83 0.29-2.78 0.44-0.83 0.12-1.67 0.25-2.53 0.38-0.72 0.12-1.45 0.23-2.19 0.34-1.91 0.24-1.91 0.24-4.91 0.24-0.17 0.52-0.34 1.04-0.52 1.58-0.81 2.48-1.64 4.95-2.48 7.42-0.29 0.87-0.58 1.73-0.88 2.62-1.72 4.97-3.68 9.6-6.12 14.3-2.69 5.2-4.48 10.4-6.04 16-1.08 3.5-2.52 6.75-3.96 10.1-0.78 2.36-1.53 4.74-2.25 7.12-12.8 41.6-12.8 41.6-20.8 55.9-0.49 0.9-0.98 1.8-1.48 2.73-4.54 7.81-10.5 15-19.2 18.3-2.48 0.55-4.82 0.85-7.35 1-0.68 0.07-1.35 0.13-2.05 0.2-8.95 0.51-16.3-2.76-23-8.45-5.01-4.6-6.74-8.14-7.91-14.8l1-3h-2c-0.06-3.15-0.09-6.29-0.12-9.44-0.03-1.32-0.03-1.32-0.06-2.66-0.07-10.7 3.07-20.2 6.34-30.3 0.6-1.84 1.19-3.68 1.77-5.52 5.21-16.3 11.2-32.2 17.8-48 1.92-4.62 3.76-9.26 5.6-13.9 7.89-19.8 7.89-19.8 12.8-29.2 2.15-4.19 3.82-8.35 5.32-12.8 2.05-6.02 4.67-11.4 7.77-17 1.84-3.3 3.48-6.6 4.93-10.1 2.25-5.25 4.7-10.4 7.11-15.6 0.29-0.62 0.58-1.25 0.88-1.89 3.59-7.75 7.23-15.4 11.1-23.1 2.16-4.25 4.2-8.54 6.22-12.9 3.32-7.13 6.78-14 10.9-20.7 2.43-4.2 4.54-8.52 6.69-12.9 7.49-15.2 15.8-30 24-44.8 0.59-1.07 1.18-2.14 1.79-3.24 3.07-5.51 6.25-10.8 9.81-16 2.29-3.41 4.36-6.94 6.46-10.5 4.16-6.87 8.5-13.6 13-20.2 0.56-0.84 1.12-1.68 1.7-2.54 0.52-0.76 1.05-1.53 1.59-2.32 0.69-1.02 0.69-1.02 1.4-2.06 0.42-0.48 0.83-0.96 1.25-1.46h2c0.37-1.08 0.37-1.08 0.75-2.19 5.18-11.6 16.7-17.7 28-22 11.9-4.07 26.6-2.71 37.2 4.24zm-36 83c-4.92 9.15-9.75 18.3-14.3 27.7-1.37 2.68-2.79 5.31-4.26 7.94-0.47 0.84-0.94 1.68-1.42 2.54-0.96 1.72-1.93 3.44-2.9 5.15-2.8 5.02-5.19 10-7.21 15.4-1.68 4.24-3.83 8.24-5.91 12.3-4.16 8.12-8.09 16.2-11.6 24.7-1.48 3.48-3.07 6.36-5.4 9.33-0.7 1.86-1.39 3.71-2.04 5.58-1.59 4.01-3.65 7.78-5.66 11.6-1.24 2.69-2.04 4.88-2.3 7.83l2 2c2.44-0.24 2.44-0.24 5.28-1.02 1.13-0.28 2.27-0.55 3.43-0.84 1.25-0.31 2.5-0.63 3.79-0.95 2.7-0.67 5.41-1.32 8.12-1.97 0.73-0.17 1.45-0.35 2.2-0.53 9.9-2.37 19.8-4.45 29.8-6.57 2.77-0.58 5.53-1.17 8.29-1.76 1.67-0.35 3.33-0.7 5-1.05 3.38-0.72 6.74-1.46 10.1-2.31 0.22-6-0.02-11.8-0.89-17.7-1.15-8.22-1.98-16.4-2.8-24.7-2.87-29.7-2.87-29.7-7.68-59.2-0.83-4.44-1.32-8.87-1.63-13.4h-2zm4 16 1 2zm8 60 1 2zm1 10 1 3zm1 11 1 2zm6 89 1 3z" fill="#093C24"/>
<path transform="translate(936,842)" d="m0 0h1v5h-1v-5z" fill="#050F0D"/>
<path transform="translate(1547,517)" d="m0 0h1v5h-1v-5z" fill="#050F0D"/>
</svg>
