<?xml version="1.0" encoding="UTF-8"?>
<svg version="1.1" viewBox="0 0 1600 1424" width="860.13137" height="551.74119" xmlns="http://www.w3.org/2000/svg">
<path transform="translate(516,56)" d="m0 0c5.63 5.04 10.5 10.2 14.5 16.6 1.81 2.86 3.77 5.58 5.76 8.32 1 1.37 1 1.37 2.02 2.77 1.87 2.48 3.92 4.47 6.17 6.6 2.35 2.47 3.86 4.76 5.56 7.69 0.99 1.01 1.99 2.01 3 3 0.99 1.16 1.97 2.33 2.94 3.5 1.75 2.09 3.22 3.62 5.44 5.25 0.53 0.41 1.07 0.83 1.62 1.25v3c0.84 0.37 0.84 0.37 1.69 0.75 4.32 2.34 7.43 5.33 10.6 9.06 3.28 3.88 6.91 6.79 11 9.74 0.57 0.48 1.13 0.96 1.72 1.45v2c0.77 0.33 0.77 0.33 1.55 0.68 3.43 1.85 6.46 4.18 9.57 6.51 1.35 1 2.7 2 4.06 2.99 0.65 0.49 1.31 0.97 1.98 1.47 3.14 2.31 6.33 4.53 9.54 6.75 1.54 1.07 3.06 2.16 4.57 3.26 7.53 5.47 15.6 9.91 23.7 14.3 0.72 0.39 1.43 0.78 2.17 1.18 9.12 4.95 18.3 9.72 27.8 13.8 0.82 0.36 1.64 0.71 2.48 1.08 17.8 7.68 35.8 13.1 54.5 17.9 0.88 0.23 1.76 0.47 2.67 0.71 20.2 5.33 42.4 7.9 63.3 8.29 0.91 0.02 1.83 0.04 2.77 0.06 32.4 0.63 64-2.43 95.4-10.5 0.73-0.18 1.46-0.37 2.21-0.56 37-9.57 72.2-25.1 104-47 1.02-0.68 2.03-1.36 3.08-2.07 9.09-6.14 18.7-12.6 26.4-20.5 7.72-7.63 18.1-12 28.5-14.5 0.67-0.17 1.35-0.35 2.04-0.53 17.4-4.27 38-2.55 53.6 6.47 2.12 1.32 4.23 2.67 6.31 4.06 0.73 0.46 1.46 0.91 2.21 1.38 3.82 2.52 6.62 5.51 9.43 9.07 1.47 1.81 1.47 1.81 4.36 3.55 1.03 1.98 2.03 3.98 3 6l2 2c1.47 2.66 2.71 5.43 4 8.19 0.36 0.74 0.71 1.48 1.08 2.25 2.1 4.47 3.64 8.8 4.92 13.6l1 1c0.32 1.9 0.59 3.82 0.83 5.73 0.24 1.78 0.24 1.78 0.48 3.61 0.16 1.27 0.33 2.54 0.5 3.85 1.21 8.92 2.49 17.5 5.36 26 0.83 2.76 0.83 2.76 1.32 6.49 0.19 3.35 0.19 3.35 2.51 5.27 0.52 1.82 0.97 3.65 1.38 5.5 1.17 4.96 2.68 9.52 4.66 14.2 0.86 2.06 1.64 4.12 2.4 6.23 2.37 6.38 5.29 12.6 8.37 18.6 1.19 2.44 1.19 2.44 1.19 4.44l2 1c0.85 1.49 1.63 3.02 2.38 4.56 0.43 0.9 0.87 1.8 1.32 2.73 0.43 0.89 0.86 1.79 1.3 2.71 2.44 5.37 2.44 5.37 6 10 0.29 0.62 0.58 1.24 0.88 1.88 1.06 2.25 1.06 2.25 3.12 4.12 2.01 2.01 2.78 3.48 4 6 1.29 1.83 2.63 3.63 3.98 5.41 1.02 1.59 1.02 1.59 1.02 3.59 0.99 0.33 1.98 0.66 3 1 1.44 2.19 1.44 2.19 3 5 2.63 4.21 5.4 7.58 9 11 3.27 3.19 6.15 6.44 9 10 1.65 1.69 3.31 3.35 5 5 0.83 0.85 1.65 1.69 2.5 2.56 2.4 2.42 2.4 2.42 4.83 4.28 2.78 2.25 5.33 4.64 7.92 7.1 11.8 11 25.1 20.4 38.8 29.1 0.58 0.37 1.17 0.74 1.77 1.12 4.35 2.74 8.77 5.34 13.2 7.88 0.73 0.42 1.46 0.84 2.21 1.27 23.4 13.3 48.8 22.3 74.8 28.7 0.81 0.21 1.62 0.41 2.46 0.62 5.15 1.29 10.3 2.41 15.5 3.38 0.74 0.14 1.49 0.28 2.26 0.42 15 2.67 30.2 3.24 45.4 3.76 13.5 0.5 25.9 1.94 38.2 8.01 1.21 0.58 1.21 0.58 2.45 1.18 6.08 3.05 11.1 6.6 15.7 11.6 1.12 1.12 2.25 2.23 3.41 3.31 5.98 6.38 9.85 14.9 13.6 22.7 0.51 0.94 1.01 1.88 1.54 2.85 7.01 15.1 6.58 36.2 1.73 51.8-2.88 7.65-6.36 14.6-11.4 21-11.4 14.8-20.3 30.8-28.8 47.4-0.73 1.4-0.73 1.4-1.47 2.82-3.68 7.2-6.79 14.5-9.65 22.1-0.44 1.14-0.88 2.28-1.32 3.46-2.95 7.81-5.51 15.6-7.56 23.7-0.33 1.19-0.67 2.38-1.01 3.61-2.05 7.33-3.71 14.6-4.95 22.1-0.84 4.91-0.84 4.91-2.09 7.25-1.47 3.13-1.39 6.38-1.51 9.78-0.07 1.37-0.13 2.74-0.19 4.11-0.04 0.78-0.07 1.55-0.11 2.36-0.17 3.44-0.42 6.87-0.66 10.3-0.54 8.41-0.68 16.8-0.67 25.2v2.26c0.02 10.5 0.3 21 1 31.6 0.07 1.12 0.14 2.23 0.21 3.38 0.46 5.94 1.44 11.3 3.3 16.9 0.82 2.57 1.22 5.09 1.56 7.76 0.78 5.15 2.07 9.99 3.62 14.9 0.21 0.69 0.43 1.38 0.65 2.1 1.01 3.13 2.01 5.58 3.85 8.34 0.1 1.09 0.21 2.19 0.31 3.31 0.64 6.51 3.38 12.6 5.69 18.7h2c0.31 1.39 0.31 1.39 0.62 2.81 1.23 4.24 3.26 7.83 5.43 11.7 1.53 2.74 2.98 5.51 4.4 8.31 7.9 15.5 16.7 29.7 27.4 43.4 4.54 5.86 7.7 10.3 8.17 17.8h2c2.55 9.56 3.41 19 3.81 28.8 0.06 1.15 0.11 2.29 0.16 3.47 0.66 20.2-7.01 35.3-20 50.1-13.1 13.8-32.2 22.3-51.2 22.9-1 0.03-2 0.05-3.03 0.08-75.9 1.99-147 27-204 77.7-0.55 0.48-1.09 0.97-1.66 1.47-5.48 4.87-10.8 9.76-15.5 15.4-2.25 2.63-4.63 5.12-7.01 7.63-39.6 42.6-61.9 98.8-71.3 155-1.68 10.1-3.53 19.6-7.5 29.1-0.37 0.9-0.73 1.8-1.11 2.72-7.21 16-21.8 28.5-37.9 34.8-18 6.78-36.7 8.34-55 1.47-1.11-0.36-2.21-0.72-3.35-1.1-7.95-2.74-14.1-6.65-20.6-11.9-1.58-1.18-1.58-1.18-3.19-2.38-6.28-5.86-11.1-13-16-20-6.64-9.51-13.9-18.4-21.5-27.1-1.14-1.31-2.25-2.63-3.37-3.95-3.36-3.96-6.91-7.38-10.9-10.7-2.25-1.98-4.32-4.07-6.4-6.22-4.91-4.96-10.2-9.27-15.7-13.6l-5.25-4.38c-12.3-9.98-25.1-18.7-38.8-26.6-0.73-0.43-1.46-0.85-2.21-1.29-29.2-16.9-59.9-29.1-92.8-36.7-1.97-0.48-3.95-0.95-5.92-1.43-62.3-14.6-131-9.69-191 13.4-0.79 0.3-1.58 0.6-2.4 0.9-25.8 9.72-50.2 22.1-72.6 38.1-1.19 0.83-2.39 1.66-3.58 2.48-9.72 6.82-18.6 14.3-27.5 22.1-1.29 1.13-2.59 2.26-3.88 3.38-0.83 0.72-1.66 1.44-2.51 2.18-18.5 15.7-38.4 21.5-62.5 19.8-5.18-0.73-10.1-2.25-15-4-1.57-0.53-1.57-0.53-3.16-1.06-10.2-3.78-18.3-10.2-25.8-17.9-0.65-0.63-1.29-1.25-1.96-1.89-9.73-10.1-14.1-23.1-18.8-36-8.82-24.4-19.8-48.1-35.2-69.1-0.78-1.11-1.56-2.21-2.33-3.32-7.87-11.2-16.4-21.6-25.8-31.6-2.43-2.6-4.78-5.26-7.11-7.96-3.62-4.09-7.57-7.6-11.8-11.1-1.21-1.08-2.42-2.17-3.62-3.25-52.7-45.9-122-71.3-191-73-24.7-0.65-45.2-6.93-63-24.7-9.44-10.1-14.7-20.6-18.1-34-0.69-2.92-0.69-2.92-1.95-4.91-1.46-3.42-1.2-6.96-1.16-10.6 0.01-0.8 0.01-1.61 0.02-2.44 0.18-10.4 1.83-19.6 6.23-29.1 0.63-1.42 0.63-1.42 1.28-2.87 3.11-6.64 6.88-12.3 11.4-18.1 15.8-20.4 29.3-43.9 37.2-68.5 1.18-3.56 1.18-3.56 2.65-6.93 1.81-4.31 3.14-8.64 4.41-13.1 0.25-0.9 0.51-1.8 0.77-2.73 1.93-6.96 3.62-14 5.16-21 0.21-0.94 0.42-1.88 0.63-2.85 0.92-4.31 1.68-8.56 2.13-13 0.43-3.95 0.43-3.95 1.43-5.95 1.02-7.88 1.15-15.8 1.13-23.7 0-1.61 0-1.61 0.01-3.26 0-2.26-0.01-4.51-0.01-6.77 0-3.4 0-6.8 0.01-10.2 0-12-0.22-24-1.14-36h-1c-0.53-3.94-1.05-7.87-1.56-11.8-0.15-1.12-0.31-2.24-0.46-3.4-0.14-1.07-0.28-2.14-0.42-3.25-0.13-0.99-0.26-1.98-0.4-3-0.16-2.54-0.16-2.54 0.84-5.54l-2-1 1-3h-2l1-4h-2c-0.12-0.68-0.24-1.35-0.37-2.05-0.16-0.89-0.33-1.78-0.51-2.7-0.16-0.88-0.32-1.76-0.49-2.67-0.6-2.46-1.49-4.34-2.63-6.58-0.37-2.33-0.71-4.66-1-7-0.62-2.97-1.62-5.46-2.94-8.19-1.82-3.97-2.84-7.76-3.57-12.1-0.16-0.58-0.32-1.15-0.49-1.75l-2-1-1-2 1-2-2-1c-0.87-1.91-0.87-1.91-1.78-4.4-2.17-5.65-4.86-10.9-7.78-16.2-0.53-0.96-1.05-1.92-1.6-2.9-6.68-12-14.2-23.3-22.2-34.5-5.94-8.33-10.4-16.1-12.9-26.1-0.5-2.13-0.5-2.13-2.68-2.93-3.65-11.6-1.68-27.7 2-39 0.51-1.61 0.51-1.61 1.03-3.25 6.57-18.8 20-33.9 37.8-42.7 2.04-0.97 4.09-1.91 6.15-2.84 0.64-0.29 1.28-0.59 1.94-0.89 9.34-4.07 18.7-4.65 28.8-4.86 72.2-2.18 142-26.3 196-74.5 0.94-0.83 1.88-1.66 2.85-2.51 15-13.5 30.2-27.6 41-44.8 1.19-1.68 1.19-1.68 3.19-2.68 0.93-1.61 1.85-3.23 2.74-4.86 1.41-2.4 3-4.63 4.64-6.89 3.68-5.2 6.67-10.6 9.62-16.2 0.71-1.32 1.42-2.63 2.13-3.95 2.33-4.33 4.61-8.68 6.87-13 0.6-1.16 1.2-2.32 1.82-3.51 10.3-20.9 19.1-45.5 21.8-68.7 0.42-2.79 0.42-2.79 1.4-6.04 1.22-4.48 1.67-8.83 2.08-13.4 0.16-1.67 0.31-3.34 0.48-5.01 0.06-0.73 0.13-1.46 0.19-2.21 0.27-2.09 0.27-2.09 0.77-3.99 0.81-3.4 0.89-6.86 1.07-10.4 0.04-0.83 0.08-1.65 0.13-2.51 0.54-11.8 0.33-23.6 0.2-35.4-0.03-3.07-0.04-6.13-0.06-9.2-0.02-1.38-0.02-1.38-0.04-2.78-0.06-15.2 5.48-26.1 13.2-38.8 0.64-1.09 1.28-2.19 1.94-3.31 2.38-3.11 5.06-5.48 8.06-7.98 2.04-1.69 2.04-1.69 3.87-3.67 26.4-25.3 70.2-22.3 97.1-0.04zm-123 81v9h1v-9h-1zm-2 35 1 2zm-4 26 1 2zm137 78c-3.64 6.22-5.95 12.7-8.12 19.5-13.4 41.7-36 80.4-61.9 116-0.79 1.08-1.58 2.16-2.36 3.24-7.6 10.3-15.8 19.9-24.4 29.3-1.54 1.7-3.07 3.4-4.58 5.12-0.78 0.88-1.57 1.77-2.37 2.68-0.7 0.79-1.39 1.58-2.11 2.39-2.14 2.23-2.14 2.23-4.47 4.02-2.3 1.91-4.06 3.74-6 6-3.57 4.16-7.4 7.92-11.4 11.6-0.7 0.65-1.4 1.3-2.12 1.97-5.53 5.11-11.2 9.92-17.1 14.6-0.77 0.64-1.54 1.28-2.33 1.93-7.53 6.21-15.6 11.6-23.7 17.1-1.13 0.76-1.13 0.76-2.29 1.54-13.6 9.06-27.5 17.4-41.7 25.5-0.75 0.43-1.51 0.86-2.28 1.3-29.7 16.7-62 28.6-94.7 37.7-0.04 1.24-0.08 2.48-0.12 3.75-0.04 1.04-0.04 1.04-0.08 2.11 0.23 2.51 1.03 3.91 2.2 6.14 0.87 2.39 1.72 4.78 2.53 7.19 0.36 1.05 0.36 1.05 0.72 2.11 0.5 1.48 0.99 2.96 1.49 4.44 0.75 2.23 1.51 4.45 2.27 6.67 2.49 7.35 4.6 14.4 5.6 22.2 0.37 2.31 0.97 4.2 1.89 6.35 1.9 4.54 2.37 9.25 2.97 14.1 0.36 2.86 0.36 2.86 1.51 4.83 1.14 2.37 1.49 4.33 1.84 6.93 0.12 0.91 0.25 1.82 0.37 2.76 0.13 0.95 0.25 1.89 0.37 2.87 0.25 1.87 0.5 3.75 0.76 5.62 0.1 0.83 0.21 1.65 0.32 2.51 0.37 2.5 0.86 4.95 1.36 7.43 0.36 2.65 0.69 5.29 1 7.94 0.12 1 0.12 1 0.25 2.03 1.37 11.6 1.91 23.2 1.92 34.8 0 1.27 0 2.54 0.01 3.85 0 2.68 0.01 5.36 0.01 8.04 0 4.01 0.02 8.02 0.03 12 0.08 33.6 0.08 33.6-2.22 49.3l-1 1c-0.33 2.56-0.62 5.12-0.88 7.69-0.74 6.85-1.87 13.4-3.44 20.2-0.72 3.17-0.72 3.17-1.15 6.49-2.06 14.2-6.41 28-10.5 41.7-0.21 0.7-0.42 1.41-0.63 2.13-2.4 8.01-5.01 15.8-8.55 23.4-0.95 2.38-0.95 2.38-0.77 4.67 0.84 2 0.84 2 3.12 2.9 0.95 0.28 1.89 0.56 2.87 0.85 1.05 0.33 2.09 0.65 3.17 0.98 1.13 0.33 2.25 0.66 3.41 1l6.96 2.13c2.14 0.64 4.28 1.29 6.42 1.93 19.1 5.82 38.1 13.4 55.7 22.8 2.74 1.46 5.49 2.89 8.24 4.32 13.7 7.19 26.9 14.9 39.8 23.4 1.93 1.27 3.88 2.53 5.82 3.78 16.8 11 32.7 24.1 47.4 37.7 1.71 1.54 3.41 3.09 5.12 4.62 1.24 1.12 1.24 1.12 2.5 2.26 2.16 1.93 4.36 3.81 6.57 5.68 3.35 2.92 6.22 6.09 9.1 9.47 1.66 1.91 3.4 3.69 5.21 5.47 3.71 3.66 7.11 7.54 10.5 11.5 0.93 1.07 1.86 2.13 2.79 3.2 6.41 7.37 12.5 14.9 18.2 22.8 0.39 0.54 0.79 1.08 1.19 1.64 8.8 12.1 17.3 24.4 24.8 37.4 3.88-0.59 6.76-1.76 10.2-3.66 0.98-0.54 1.96-1.08 2.98-1.64 1.56-0.87 1.56-0.87 3.15-1.76l6.57-3.6c1.05-0.58 2.11-1.16 3.21-1.75 21.7-11.8 44.5-21.7 67.9-29.6 0.88-0.3 1.76-0.59 2.66-0.9 29.4-9.84 59.2-16.5 89.8-21.4 0.92-0.15 1.84-0.3 2.78-0.46 20.8-3.17 41.7-3.62 62.7-3.54 2.01 0 4.01 0 6.01-0.01 24.8-0.08 49 1.35 73.5 5.51 0.92 0.15 1.85 0.31 2.8 0.47 15.1 2.52 30 5.3 44.8 9.28 0.94 0.25 0.94 0.25 1.9 0.51 47 12.8 91.7 31.7 133 57.5 0.64 0.4 1.28 0.8 1.95 1.21 15.4 9.58 30.1 20.3 44.3 31.6 1.69 1.41 1.69 1.41 3.77 1.22 0.28-0.57 0.55-1.13 0.84-1.72 10.1-20.7 21.4-40.2 34.2-59.3 0.63-0.95 1.27-1.9 1.92-2.88 8.88-13 18.8-25.3 29.1-37.1 0.61-0.71 1.22-1.42 1.85-2.16 1.7-1.96 3.42-3.9 5.15-5.84 0.72-0.81 1.43-1.62 2.17-2.45 6.14-6.82 12.5-13.4 19-19.9 0.84-0.85 1.68-1.7 2.55-2.57 4.93-4.91 9.97-9.61 15.3-14.1 0.96-0.85 1.93-1.69 2.92-2.56 14.5-12.5 30.1-23.9 46.1-34.4 0.69-0.46 1.38-0.92 2.08-1.39 22.4-14.8 46.4-26.9 70.9-37.6 0.84-0.37 1.68-0.74 2.54-1.13 15.4-6.74 31.4-11.3 47.5-16 2.84-0.78 2.84-0.78 4.94-1.9 0.34-5.72-0.72-9.79-2.88-15.1-0.54-1.37-1.07-2.73-1.61-4.1-0.39-0.98-0.39-0.98-0.79-1.97-1.25-3.24-2.38-6.5-3.22-9.87-0.94-3.75-2.31-7.38-3.56-11-0.84-2.66-1.41-5.23-1.94-7.97-0.5-1.78-1.02-3.55-1.56-5.31-0.27-0.89-0.54-1.77-0.82-2.68-0.2-0.66-0.41-1.33-0.62-2.01h-2c0.31-1.14 0.31-1.14 0.62-2.31 0.71-2.91 0.71-2.91-1.62-5.69l1-2c-0.25-2.39-0.25-2.39-0.81-5-0.26-1.33-0.26-1.33-0.52-2.69-0.52-2.48-0.52-2.48-2.67-4.31-1.01-3.22-1.01-6.22-0.94-9.56 0.07-6.89-0.17-14.6-4.06-20.4-0.41-2.11-0.41-2.11-0.62-4.57-0.09-0.93-0.17-1.87-0.25-2.82-0.08-1.02-0.16-2.03-0.24-3.07-0.08-1.07-0.17-2.13-0.25-3.22-0.83-11.5-0.94-22.9-0.9-34.4 0.01-3.51 0-7.03-0.01-10.6-0.01-14.6 0.72-28.9 2.27-43.4 0.14-1.34 0.28-2.68 0.41-4.02 0.34-3.16 0.71-6.32 1.09-9.48 0.12-1.03 0.23-2.06 0.36-3.12 0.63-5.33 1.63-10.2 3.14-15.4 0.74-4.22 1.28-8.46 1.86-12.7 0.65-4.65 1.56-8.84 3.14-13.3 0.76-3.48 1.44-6.97 2.12-10.5 0.75-3.02 1.75-5.58 3.03-8.4 2.44-6.12 3.95-12.7 5.71-19 1.87-6.49 3.98-12.3 7.29-18.2 0.28-0.63 0.56-1.25 0.85-1.9l-1-2 2-2c-5.16-1.99-10.4-3.82-15.6-5.44-41.2-12.6-81.1-30.7-116-55.5-2.49-1.68-4.96-3.17-7.61-4.58-24.7-13.2-46.6-35.6-66.3-55.2-0.79-0.79-1.59-1.58-2.41-2.4-4.78-4.79-9.32-9.71-13.7-14.8-1-1.14-1.99-2.28-2.99-3.42-5.87-6.75-11.5-13.6-16.7-20.8-1.46-2-2.93-4-4.4-6-6.63-9.06-12.9-18.2-18.9-27.7-0.79-1.21-1.58-2.42-2.38-3.62-3.79-5.79-7.33-11.5-10.3-17.8-2.24-4.37-4.92-8.47-7.55-12.6-1.57-2.65-2.69-5.1-3.77-7.98-0.98-2.26-1.98-4.51-3-6.75-0.52-1.15-1.03-2.3-1.56-3.48-1.15-2.87-1.15-2.87-3.44-3.77 0.08-0.68 0.16-1.36 0.25-2.06-0.35-4.11-2.07-6.46-4.25-9.94-3.79 1.47-7.46 3.12-11.1 4.84-38.6 17.9-78 31.4-120 39.2-1.75 0.34-1.75 0.34-3.54 0.68-49.6 9.57-102 11.1-152 4.32-1.04-0.14-2.08-0.28-3.15-0.42-5.91-0.83-11.8-1.83-17.6-2.96-2.29-0.44-4.57-0.86-6.86-1.27-17.9-3.23-35.3-7.53-52.8-12.8-0.88-0.26-1.76-0.53-2.68-0.8-13-3.9-25.5-8.57-37.9-13.8-1.16-0.48-2.32-0.95-3.52-1.44-18.8-7.73-36.8-16.6-54.5-26.6-1.27-0.71-1.27-0.71-2.56-1.44-10.8-6.08-21.2-12.6-31.4-19.6-1.81-1.21-3.62-2.42-5.44-3.62-1.18-0.8-2.37-1.59-3.56-2.38zm-509 251 1 4zm61 126 1 2zm9 36 1 2zm1 5 1 3zm3 26 1 4zm1 19v12h1v-12h-1zm1212 32v5h1v-5h-1zm1 15v5h1v-5h-1zm1 9v5h1v-5h-1zm4 26 1 4zm1 6 1 3z" fill="#053D25"/>
<path transform="translate(869 540)" d="m0 0c8.17 7.45 8.17 7.45 11.3 11.1v2c0.66 0.66 1.32 1.33 2 2 0.71 1.32 1.37 2.65 2 4 0.67 1.4 1.33 2.8 2 4.19 0.33 0.7 0.66 1.39 1 2.11 0.9 1.88 0.9 1.88 3 2.7 0.51 2.08 1.01 4.17 1.43 6.27 0.82 3.95 1.87 7.84 2.89 11.7 1.75 7.67 1.87 15.2 1.87 23 0 2.03 0.02 4.06 0.04 6.09 0.12 29.5-11.3 56.2-28.1 80.1-1.3 1.88-1.3 1.88-2.13 4.76 1.21-0.21 2.41-0.43 3.65-0.65 22.8-3.77 47.7-4.63 70.4 0.65 0.76 0.17 1.52 0.34 2.3 0.51 18.8 4.2 34.8 13 46.2 28.9 1.52 2.66 2 4.62 2.49 7.61 0.63 1.69 1.3 3.35 2 5 3.14 7.38 3.18 14.1 3.19 22.1 0.01 1.07 0.02 2.14 0.04 3.24 0.02 11.3-1.43 21.3-6.29 31.6-0.4 0.86-0.8 1.72-1.21 2.6-3.62 7.64-7.82 14.6-12.7 21.5-0.57 0.81-0.57 0.81-1.16 1.63-4.87 6.76-10.2 13-15.8 19.2-0.84 0.92-0.84 0.92-1.71 1.87-1.38 1.48-2.83 2.9-4.29 4.31h-2v2h-2c-0.33 1-0.66 1.99-1 3-1.61 1.48-1.61 1.48-3.75 3.07-2.62 1.96-5.23 3.92-7.79 5.98-34.8 27.8-75.1 48-116 64-0.81 0.32-1.62 0.64-2.45 0.97-34.1 13.3-73.8 25.6-111 25.4-0.94-0.01-1.88-0.01-2.84-0.02-13.8-0.24-27.4-3.02-38-12.4-4.13-4.49-6.04-10.2-8.06-15.9h-1c-0.61-9 0.32-16.2 5.94-23.5 1.96-2.24 3.97-4.38 6.06-6.49 0.54-0.53 1.07-1.07 1.62-1.62l1.38-1.38c0.66-0.66 1.32-1.31 2-2 0.99-0.32 1.98-0.66 3-1 1.69-1.99 1.69-1.99 3-4 0.66 0.33 1.32 0.67 2 1 3.17 0 5.81-0.72 8.85-1.51 3.25-0.73 6.47-0.93 9.79-1.13 1.46-0.09 2.93-0.19 4.39-0.29 0.76-0.05 1.52-0.1 2.3-0.15 17.3-1.19 33.8-3.77 50.7-7.92 1.09-0.26 2.18-0.52 3.3-0.79 40.7-9.97 81.6-25.4 116-50.2 0.56-0.4 1.12-0.8 1.69-1.22 14.8-10.8 27.6-22.7 37.2-38.5 0.37-0.61 0.74-1.21 1.12-1.84 2.55-4.34 4.34-8.72 6-13.5-0.66-0.33-1.32-0.65-2-1-0.33-0.33-0.66-0.65-1-1-49.5-10.3-102 0.25-150 10.1-3.57 0.72-7.13 1.44-10.7 2.16-1.05 0.21-1.05 0.21-2.11 0.42-6.04 1.22-12.1 2.43-18.1 3.63-2.31 0.46-4.62 0.93-6.93 1.4-2.9 0.58-5.8 1.16-8.7 1.73-0.81 0.17-1.62 0.33-2.46 0.5-6.66 1.3-13 2.04-19.5-0.41-0.76-0.27-1.52-0.55-2.31-0.84-0.84-0.32-0.84-0.32-1.69-0.66-0.48 3.78-0.96 7.55-1.44 11.3-0.13 1.05-0.26 2.1-0.4 3.19-1.33 10.5-2.2 21-2.75 31.5-2.34 42.6-2.34 42.6-14.6 55.4-5.34 4.57-12.6 3.99-19.2 3.88-7.24-0.64-14.5-3.03-19.9-8.08-5.63-7.41-9.25-16.3-11.7-25.2-0.33-0.61-0.67-1.22-1.02-1.84-4.16-9.13-2.18-22.5-2.17-32.5v-2.49c0.02-14.7 0.46-29.4 1.07-44.1 0.04-0.99 0.08-1.98 0.12-3 0.41-10.4 1.02-20.5 2.53-30.8 0.77-5.23 1.22-10.5 1.68-15.7 0.41-4.23 1.15-7.53 2.79-11.5 0.39-2.42 0.72-4.86 1-7.31 0.57-4.62 1.2-9.13 2.44-13.6 0.73-2.69 1.33-5.4 1.94-8.12 2.65-11.5 5.77-22.8 9.62-33.9 0.48-1.49 0.96-2.99 1.44-4.5 1.47-4.39 3.23-8.65 5.05-12.9 1.16-2.75 2.29-5.5 3.4-8.26 6.15-15.1 6.15-15.1 10.7-21.3 1.61-2.28 2.83-4.65 4.1-7.13 19.2-35.8 52.7-62.1 91.1-74.2 33.6-9.74 78.1-8.27 106 15.2zm-125 71.1c-15.5 18.2-23.3 41-30.2 63.5-0.77 2.45-1.6 4.88-2.44 7.32-1.08 3.23-1.81 6.29-2.22 9.68-1.11 8.02-2.79 15.9-4.45 23.8-0.32 1.56-0.32 1.56-0.65 3.16-0.2 0.94-0.4 1.88-0.6 2.85-0.42 2.6-0.51 5.02-0.43 7.65 3.43 1.72 7.19 0.14 10.8-0.62 1.35-0.28 1.35-0.28 2.72-0.56 2.83-0.6 5.65-1.21 8.47-1.82 0.85-0.17 1.69-0.35 2.57-0.53 25-5.31 51.8-12.3 71.4-29.5 0.73-0.56 1.47-1.13 2.22-1.71 15.3-12.3 22-31.8 24.4-50.7 1.37-13.7 3.42-34.3-5.13-45.9-5.67-6.46-11.4-10.1-20.1-10.9-22-0.53-41.3 8.65-56.4 24.2zm82 5 1 2zm-195 105 1 2zm-4 34 1 3zm65 55 1 3zm-67 26v5h1v-5h-1zm1 13v5h1v-5h-1z" fill="#053D25"/>
<path transform="translate(731 1047)" d="m0 0c2 0 4.01 0 6.01-0.01 24.8-0.08 49 1.36 73.5 5.51 1.38 0.24 1.38 0.24 2.8 0.47 15.1 2.52 30 5.3 44.8 9.28 0.63 0.17 1.25 0.34 1.9 0.52 47 12.8 91.7 31.7 133 57.5 0.64 0.4 1.28 0.8 1.94 1.21 13.6 8.45 26.6 17.7 39.2 27.6 2.87 2.19 5.8 4.18 8.83 6.15l-1 3c-2.75-1.28-5.02-2.68-7.36-4.61-0.61-0.5-1.23-1-1.87-1.52-0.65-0.54-1.29-1.07-1.96-1.62-5.43-4.4-10.9-8.52-16.8-12.2-1.69-1.08-3.37-2.17-5.05-3.26-2.41-1.55-4.82-3.09-7.23-4.64-1.61-1.02-3.21-2.06-4.82-3.09-4.3-2.75-8.6-5.45-13.1-7.93-2.32-1.36-4.54-2.85-6.78-4.33-6.48-4.15-13.3-7.49-20.2-10.8-10.8-5.25-10.8-5.25-14.3-7.46-3.12-1.79-6.35-3.03-9.7-4.34-2.91-1.14-5.79-2.33-8.68-3.53-1.52-0.64-1.52-0.64-3.08-1.29-1.93-0.81-3.85-1.63-5.77-2.46-15.4-6.64-31.4-11.6-47.6-16-2.96-0.85-5.88-1.8-8.81-2.75-7.4-2.29-14.9-3.74-22.5-5.14-1.35-0.25-2.7-0.51-4.05-0.76-2.59-0.49-5.18-0.98-7.77-1.46-2.99-0.56-5.96-1.16-8.93-1.77-4.26-0.86-8.5-1.43-12.8-1.89-5.25-0.57-10.5-1.24-15.7-2.06-16.6-2.38-33.4-2.09-50.2-2.07-3.83 0.01-7.66 0-11.5 0-20.2-0.01-39.7 0.67-59.6 3.88-0.85 0.14-1.69 0.27-2.56 0.41-13.8 2.19-27.6 4.63-41.2 7.84-1.13 0.27-2.26 0.53-3.42 0.8-14.4 3.42-28.6 7.16-42.6 12.2-1.86 0.66-3.71 1.32-5.56 1.98-17.6 6.27-17.6 6.27-34.5 14.1-2.12 1.03-4.26 1.87-6.46 2.7-13.2 5.18-25.7 12.4-38.1 19.2-0.89 0.48-0.89 0.48-1.79 0.98-1.65 0.91-3.3 1.82-4.94 2.74-2.68 1.28-2.68 1.28-5.68 1.28v-2h-2c-0.65-1.27-1.3-2.54-1.94-3.81-0.36-0.71-0.72-1.41-1.09-2.14-0.97-2.05-0.97-2.05-1.97-5.05l-2-1c-1.81-2.69-3.47-5.46-5.15-8.23-1.75-2.62-3.63-4.55-5.85-6.77-1.38-2.21-1.38-2.21-2.56-4.5-1.6-3.06-3.31-5.78-5.44-8.5l1-2c7.49 8.78 13.7 18.4 20 28 0.6 0.92 0.6 0.92 1.22 1.86 5.78 8.79 5.78 8.79 5.78 11.1 6.08-2.44 11.7-5.5 17.4-8.68 24.6-13.5 49.9-25.4 76.6-34.3 0.88-0.29 1.76-0.59 2.66-0.9 29.4-9.84 59.2-16.4 89.8-21.4 1.37-0.22 1.37-0.22 2.78-0.45 20.8-3.18 41.7-3.62 62.7-3.55z"/>
<path transform="translate(211,912)" d="m0 0c27.8 6.22 55.6 16.4 80.7 29.8 2.74 1.46 5.49 2.89 8.24 4.32 13.7 7.19 26.9 14.9 39.8 23.4 1.93 1.27 3.88 2.53 5.82 3.78 16.8 11 32.7 24.1 47.4 37.7 1.69 1.52 3.37 3.04 5.06 4.56 0.82 0.75 1.65 1.49 2.49 2.25 1.6 1.43 3.21 2.85 4.83 4.25 4.34 3.77 8.23 7.62 11.9 12 1.65 1.9 3.38 3.67 5.18 5.43 3.71 3.66 7.11 7.54 10.5 11.5 0.97 1.11 1.93 2.23 2.9 3.34 15.1 17.4 15.1 17.4 15.1 20.7-3.8-1.51-5.69-3.75-8.19-6.94-0.69-0.87-1.39-1.75-2.1-2.65-1.71-2.41-1.71-2.41-2.71-5.41h-2c-0.1-0.64-0.21-1.28-0.31-1.94-0.23-0.68-0.46-1.36-0.69-2.06-0.99-0.33-1.98-0.66-3-1-1.5-1.52-1.5-1.52-3-3.38-1.91-2.33-3.86-4.5-6-6.62-1.03-1.16-2.05-2.33-3.06-3.5-0.62-0.7-1.23-1.41-1.87-2.13-1.46-1.67-2.91-3.34-4.36-5.02-5.76-6.53-11.9-12-18.7-17.4-1.57-1.3-3.14-2.61-4.69-3.94-0.96-0.82-0.96-0.82-1.95-1.65-1.36-1.41-1.36-1.41-1.36-3.41-0.88-0.41-0.88-0.41-1.78-0.83-2.15-1.13-3.83-2.34-5.69-3.89-0.97-0.8-0.97-0.8-1.96-1.62-0.68-0.57-1.37-1.14-2.07-1.72-13-10.7-26.6-20.2-40.8-29.2-1.81-1.14-3.62-2.3-5.42-3.46-8.55-5.49-17.2-10.7-26.3-15.2-1.34-0.74-2.67-1.49-4-2.25-10.4-5.8-21-10.7-32.1-15-3.32-1.29-6.63-2.62-9.93-3.94-1.18-0.47-2.35-0.93-3.56-1.42-2.29-0.92-4.56-1.88-6.81-2.87-4.17-1.75-8.4-3.18-12.7-4.58-1.17-0.39-1.17-0.39-2.36-0.78-2.19-0.72-4.38-1.44-6.58-2.16-4.72-1.55-9.36-3.24-14-5v-2z"/>
<path transform="translate(1332,912)" d="m0 0-1 3c-2.63 1.07-2.63 1.07-6 2-1.68 0.48-1.68 0.48-3.4 0.96-1.75 0.49-1.75 0.49-3.54 0.98-4.88 1.38-9.43 2.96-14.1 5.06-1.64 0.62-3.29 1.22-4.94 1.81-1.42 0.52-1.42 0.52-2.88 1.05-2.22 0.8-4.45 1.59-6.67 2.38-34.9 12.6-67.8 31.4-98.2 52.4-2.26 1.4-2.26 1.4-4.26 1.4-0.49 1.49-0.49 1.49-1 3-1.37 0.96-2.74 1.9-4.15 2.79-10 6.55-19.1 15-28 22.9-2.81 2.31-2.81 2.31-4.81 2.31-0.49 1.49-0.49 1.49-1 3-3.44 3-3.44 3-6 3-0.37 0.87-0.37 0.87-0.75 1.75-1.43 2.58-3.03 4.31-5.25 6.25h-2c-0.49 1.48-0.49 1.48-1 3h-2c-0.23 0.56-0.45 1.11-0.69 1.69-1.68 2.97-3.86 4.92-6.31 7.31-1.77 2.06-3.52 4.14-5.25 6.23-1.75 1.77-1.75 1.77-3.84 2.76-2.47 1.31-2.75 2.49-3.91 5.01-1.46 1.95-2.96 3.86-4.5 5.75-0.79 0.98-1.59 1.97-2.41 2.98-0.69 0.75-1.38 1.5-2.09 2.27h-2c-0.23 0.7-0.45 1.4-0.69 2.12-1.63 3.57-3.74 5.92-6.31 8.88l-1 2h-2c-0.23 0.69-0.45 1.37-0.69 2.08-1.64 3.66-3.84 6.53-6.31 9.67-0.45 0.59-0.9 1.18-1.37 1.79-3.36 4.33-3.36 4.33-5.63 5.46 7.52-15.9 20.6-29.8 32-43 0.61-0.72 1.23-1.43 1.86-2.17 1.7-1.96 3.41-3.9 5.14-5.83 0.7-0.8 1.41-1.59 2.13-2.41 6.31-7.02 12.9-13.7 19.6-20.4 1.33-1.35 1.33-1.35 2.7-2.72 5.04-5.03 10.2-9.85 15.6-14.5 1.45-1.27 1.45-1.27 2.92-2.56 14.5-12.5 30.1-23.9 46.1-34.4 0.69-0.46 1.38-0.92 2.08-1.39 22.4-14.8 46.4-26.9 70.9-37.6 0.84-0.37 1.68-0.74 2.54-1.13 38.4-16.9 38.4-16.9 52.5-16.9z"/>
<path transform="translate(893,812)" d="m0 0c0 3 0 3-2.2 5.34-0.96 0.86-1.93 1.71-2.92 2.6-1.43 1.28-1.43 1.28-2.89 2.59-2.9 2.39-5.82 4.45-8.99 6.47-0.57 0.36-1.14 0.73-1.72 1.11-2.41 1.54-4.83 3.08-7.24 4.62-2.42 1.55-4.8 3.09-7.07 4.84-2.63 1.91-5.43 3.25-8.35 4.68-1.25 0.62-2.51 1.23-3.76 1.85-0.64 0.32-1.28 0.63-1.94 0.95-1.84 0.91-3.67 1.84-5.49 2.79-6.71 3.44-13.4 6.45-20.5 9.02-2.96 1.09-2.96 1.09-5.71 2.57-3.26 1.58-6.47 2.77-9.92 3.91-0.63 0.21-1.25 0.42-1.9 0.63-1.32 0.44-2.64 0.88-3.97 1.31-1.97 0.65-3.95 1.3-5.93 1.96-22.9 7.6-22.9 7.6-33.5 9.76-1.07 0.24-2.14 0.47-3.24 0.71-6.79 1.5-13.6 2.81-20.4 3.86-2.34 0.32-2.34 0.32-4.33 1.43-2.61 0.25-5.21 0.45-7.83 0.61-1.62 0.12-3.24 0.23-4.86 0.35-2.55 0.18-5.09 0.35-7.63 0.51-16.9 1.08-31.7 3.89-44.7 15.5l-2-1c0.58-0.48 1.15-0.96 1.75-1.46 0.74-0.63 1.49-1.26 2.25-1.92 0.74-0.62 1.49-1.25 2.25-1.89 0.58-0.57 1.15-1.14 1.75-1.73v-2c0.76-0.25 1.53-0.5 2.31-0.75 2.93-1.36 3.99-2.57 5.69-5.25l2 1c3.17 0 5.81-0.73 8.85-1.51 3.25-0.74 6.47-0.93 9.79-1.13 1.46-0.1 2.93-0.2 4.39-0.3 0.76-0.05 1.52-0.1 2.3-0.15 17.3-1.18 33.8-3.77 50.7-7.91 1.09-0.26 2.18-0.53 3.3-0.8 44.2-10.8 99.4-28.8 132-63.2z"/>
<path transform="translate(904 697)" d="m0 0h2.25c11.6 0.01 22.7 0.6 34.1 3.25 0.76 0.17 1.52 0.33 2.3 0.5 17.1 3.83 34.2 11.8 44.7 26.5v2h-2c-1.22-1.57-1.22-1.57-2.62-3.69-2.8-3.91-5.63-6.05-9.84-8.3-0.76-0.5-0.76-0.5-1.54-1.01v-2c-0.8-0.23-1.61-0.45-2.43-0.69-2.91-1.07-5.05-2.15-7.66-3.72-4.86-2.74-9.61-4.1-15-5.28-0.93-0.2-1.86-0.41-2.82-0.63-2.68-0.58-5.37-1.14-8.06-1.68-1.8-0.38-1.8-0.38-3.64-0.76-18.8-3.16-39-2.34-57.6 1.1-3.71 0.66-3.71 0.66-7.71 0.66v-2c2.54-0.48 5.09-0.96 7.63-1.44 0.71-0.13 1.42-0.27 2.16-0.41 0.7-0.13 1.4-0.26 2.13-0.4 0.64-0.12 1.27-0.24 1.93-0.36 0.71-0.13 1.42-0.26 2.15-0.39 0.93-0.18 1.86-0.35 2.81-0.53 6.24-0.91 12.6-0.71 18.9-0.72z"/>
<path transform="translate(807,688)" d="m0 0c0 3 0 3-2.02 5.23-14.4 13-31.2 21.8-49.8 27.2-0.73 0.21-1.46 0.42-2.21 0.63-2.32 0.67-4.65 1.33-6.98 1.99-0.77 0.22-1.54 0.44-2.33 0.67-8.96 2.54-17.9 4.71-27.1 6.21-0.8 0.13-1.6 0.26-2.42 0.4-3.69 0.55-6.56 0.79-10.1-0.28 3.1-1.74 5.84-2.45 9.35-3.01 1.06-0.18 2.13-0.35 3.23-0.54 1.72-0.28 1.72-0.28 3.48-0.57 9.96-1.75 19.6-3.98 29.3-6.88 1.07-0.32 2.14-0.64 3.25-0.97 16.7-5.14 33-11.5 46.4-23 1.15-0.99 1.15-0.99 2.32-1.99 1.91-1.66 3.8-3.32 5.68-5.01z" fill="#000100"/>
<path transform="translate(693,885)" d="m0 0 2 1zm-13 1 2 1c3.74 0 7.29-0.51 11-1l1 2c-0.83 0.23-1.67 0.46-2.53 0.7-9.9 2.87-17.8 6.4-25.5 13.3l-2-1c0.58-0.48 1.15-0.96 1.75-1.46 0.74-0.63 1.49-1.26 2.25-1.92 0.74-0.62 1.49-1.25 2.25-1.89 0.58-0.57 1.15-1.14 1.75-1.73v-2c1.14-0.37 1.14-0.37 2.31-0.75 2.93-1.36 3.99-2.57 5.69-5.25z" fill="#000402"/>
<path transform="translate(1501,910)" d="m0 0c4.56 4.25 8.12 9.01 11.8 14.1 0.59 0.8 1.18 1.61 1.79 2.43 0.56 0.78 1.12 1.56 1.69 2.36 0.51 0.7 1.02 1.4 1.54 2.12 1.23 2.03 1.79 3.71 2.23 6.03-7.26-6.82-17.1-17-19-27z"/>
<path transform="translate(672,892)" d="m0 0h6c-3.59 3.89-7.74 6.9-12 10l-2-1c0.58-0.48 1.15-0.96 1.75-1.46 1.11-0.95 1.11-0.95 2.25-1.92 0.74-0.62 1.49-1.25 2.25-1.89 0.58-0.57 1.15-1.14 1.75-1.73v-2z"/>
<path transform="translate(1527,511)" d="m0 0h1v16h-1v-16z" fill="#000100"/>
<path transform="translate(1527,961)" d="m0 0h1v13h-1v-13z"/>
<path transform="translate(226,630)" d="m0 0c0.99 1.49 0.99 1.49 2 3l-1 2-1-5z"/>
<path transform="translate(1460,813)" d="m0 0 1 4z"/>
<path transform="translate(236,680)" d="m0 0 1 4z" fill="#000100"/>
<path transform="translate(669,893)" d="m0 0c3 1 3 1 3 1z" fill="#02140C"/>
</svg>
