<?xml version="1.0" encoding="UTF-8"?>
<svg version="1.1" viewBox="0 0 1600 1448" width="860.13137" height="551.74119" xmlns="http://www.w3.org/2000/svg">
<path transform="translate(486,41)" d="m0 0h16v2c0.89-0.25 1.77-0.49 2.69-0.75 11.6-1.58 26.4 7.25 35.7 13.6 0.86 0.72 1.73 1.45 2.62 2.19v2c1.1 0.36 1.1 0.36 2.23 0.72 9.07 4.19 15.3 15.9 20.5 24 2.82 4.08 5.93 7.86 9.11 11.7 0.59 0.72 1.19 1.45 1.81 2.19 1.76 2.13 3.54 4.25 5.31 6.37 0.54 0.65 1.08 1.3 1.64 1.97 2.6 3.09 5.16 5.91 8.3 8.47 3.52 2.99 6.5 6.22 9.49 9.73 7.15 8.34 15.7 15.4 24.7 21.7 2.56 1.84 5.06 3.75 7.54 5.7 24.5 19.2 54 37.2 83.8 46.6 2.2 0.72 4.28 1.52 6.39 2.46 3.38 1.46 6.64 2.44 10.2 3.38v2c1.07 0.1 2.14 0.19 3.25 0.29 5.75 0.72 11.2 2.43 16.8 4.02 11.8 3.32 23.7 5.58 35.9 7.32 2.13 0.37 2.13 0.37 5.13 1.37 2.73 0.37 5.45 0.7 8.19 1 0.71 0.08 1.42 0.16 2.15 0.25 14.1 1.56 28.2 1.96 42.4 1.94 0.83 0 1.67 0 2.53-0.01 12.7-0.03 25.2-0.32 37.8-2.18 1.14-0.17 2.28-0.33 3.45-0.5 21.3-3.2 41.6-7.73 62-14.5 0.63-0.21 1.27-0.42 1.92-0.63 8.36-2.78 16.5-5.9 24.6-9.37 1.78-0.74 3.56-1.48 5.34-2.21 8.65-3.61 17-7.23 25-12.2 2.79-1.71 5.63-3.26 8.52-4.81 3.86-2.08 7.49-4.34 11.1-6.81 1.05-0.58 2.1-1.16 3.19-1.75 6.21-3.49 12-7.91 17.5-12.4 2.35-1.81 2.35-1.81 5.35-2.81l2-3c1.33-0.67 2.67-1.33 4-2 1.9-1.79 3.67-3.64 5.44-5.56 2-1.85 4.22-3.05 6.56-4.44 1.73-1.15 3.46-2.29 5.19-3.44 12.5-7.96 27.2-11.8 42-11.7 0.71-0.01 1.42-0.01 2.15-0.02 3.16 0.01 5.65 0.14 8.66 1.14 0.71 0.08 1.41 0.17 2.14 0.25 16 1.95 33.1 13 43.9 24.8 0.68 1.66 1.35 3.33 2 5 0.99 0.33 1.98 0.66 3 1 2.03 2.78 3.45 5.93 5 9 0.49 0.86 0.98 1.72 1.48 2.61 6.43 12.2 7.95 26.2 10.2 39.6 4.75 27.1 13.4 53.6 26.3 77.9 1 1.92 1.95 3.85 2.88 5.8 9.08 18.9 21 38.9 35.8 53.8 2.84 2.84 4.61 5.76 6.19 9.44 0.91 1.95 0.91 1.95 2.89 2.66 2.67 1.41 4.04 3.09 5.98 5.4 4.03 4.59 8.29 8.83 12.8 13 0.62 0.58 1.23 1.16 1.86 1.75 3.76 3.49 7.65 6.64 11.8 9.67 2.19 1.62 4.27 3.34 6.36 5.08 9.58 7.7 20.1 14.2 30.6 20.5 2.25 1.37 4.45 2.78 6.65 4.23 17.2 10.6 37 18.5 56.2 24.5 1.11 0.35 2.22 0.7 3.37 1.06 1.52 0.47 1.52 0.47 3.07 0.94 1.01 0.31 2.02 0.62 3.06 0.94 1.15 0.35 2.31 0.7 3.5 1.06 0.73 0.23 1.47 0.47 2.23 0.71 24.3 7.55 49.8 10.3 75.1 11 25 0.68 25 0.68 36.7 6.34 1.58 0.66 1.58 0.66 3.19 1.32 17.8 7.89 30.9 23.1 38.8 40.7 0.37 0.73 0.74 1.46 1.12 2.21 7.3 15.6 6.54 37.7 0.85 53.7-2.61 6.65-5.79 12.4-9.97 18.1-1.15 1.62-2.29 3.25-3.44 4.88-0.88 1.24-0.88 1.24-1.77 2.51-2.47 3.6-4.8 7.28-7.11 11-1.47 2.3-2.99 4.52-4.56 6.75-4.64 6.94-8.31 14.5-12.1 21.9-0.5 0.96-0.5 0.96-1.01 1.95-8.39 16.3-14.8 33.2-20 50.8-0.68 2.27-1.41 4.52-2.17 6.76-3.78 11.4-5.5 23.1-7.21 34.9-0.1 0.69-0.2 1.38-0.3 2.09-0.28 1.91-0.55 3.82-0.82 5.73-0.49 2.78-0.49 2.78-1.49 3.78-2.59 23-1.9 47.2 0.38 70.2 0.18 1.91 0.18 1.91 0.38 3.86 0.66 6.17 1.65 12 3.24 18 0.69 3.99 1.23 8.01 1.77 12 0.74 5.12 2.09 9.23 4.23 14 1 3.08 1.87 6.2 2.75 9.31 5.07 17.3 12.2 33.6 20.2 49.7 0.39 0.8 0.78 1.6 1.18 2.42 4.03 8.26 8.73 16 13.8 23.6 1.05 1.65 2.1 3.3 3.15 4.95 3.24 5.11 6.56 10.1 10.2 15 13.7 18.7 16.3 39.2 13.4 61.6-1.89 10.1-6.61 19.3-12.7 27.4-0.58 0.8-1.16 1.59-1.76 2.41-3.1 4.14-6.05 7.51-10.2 10.6-1.18 1.21-1.18 1.21-2.38 2.44-15.2 14.8-37 17-57.2 18-5.13 0.26-10.2 0.58-15.4 0.9-0.99 0.06-1.98 0.12-3 0.18-27.5 1.69-54.3 7.75-80.1 17.5-0.9 0.34-1.81 0.68-2.74 1.03-2.43 0.93-4.85 1.88-7.26 2.85-0.84 0.33-1.69 0.67-2.56 1.02-7.36 2.98-14.4 6.41-21.4 10.1-1.02 0.51-2.05 1.02-3.1 1.55-2.5 1.25-4.96 2.54-7.4 3.89-0.71 0.39-1.42 0.78-2.16 1.18-2.86 1.68-5.58 3.54-8.34 5.38-2.06 1.26-4.12 2.51-6.19 3.75-7.04 4.29-13.7 9.06-20.2 14.1-0.72 0.55-1.43 1.09-2.17 1.66-0.62 0.48-1.24 0.97-1.88 1.47-1.56 1.03-1.56 1.03-3.56 1.03-0.25 0.64-0.49 1.28-0.75 1.94-1.25 2.06-1.25 2.06-3.31 2.62-0.64 0.15-1.28 0.29-1.94 0.44l-1 3c-1.48 1.25-1.48 1.25-3.41 2.55-5.52 3.99-10.2 8.75-15 13.6-0.9 0.9-1.8 1.79-2.73 2.71-0.86 0.86-1.72 1.73-2.6 2.62-0.78 0.77-1.55 1.55-2.35 2.36-1.79 2.02-2.83 3.76-3.94 6.19-0.98 1.02-1.98 2.02-3 3l-2 3h-2c-0.25 0.56-0.5 1.12-0.75 1.69-1.46 2.7-3.23 4.88-5.19 7.25-2.12 2.57-4.02 4.98-5.69 7.88-0.45 0.72-0.9 1.44-1.37 2.18h-2c-0.12 0.58-0.24 1.17-0.36 1.77-0.67 2.33-1.54 3.88-2.9 5.88-0.46 0.69-0.91 1.38-1.38 2.08-0.49 0.73-0.98 1.46-1.48 2.21-4.72 7.16-8.99 14.4-12.9 22.1-0.32 0.61-0.63 1.22-0.96 1.85-7.7 15-14.3 30-19.4 46-0.71 2.19-1.45 4.38-2.19 6.56-4.84 14.6-7.82 29.2-9.96 44.3-2.07 14.6-4.28 27.7-12.5 40.3-0.57 0.89-0.57 0.89-1.15 1.8-9.67 14.7-25.8 27.6-43.2 31.4-0.97 0.19-1.94 0.39-2.94 0.59-1.01 0.21-2.03 0.42-3.07 0.64-9.65 1.91-18.7 2.72-28.3 0.17-1.78-0.47-3.57-0.86-5.38-1.21-10.8-2.16-20.4-6.42-29-13.4v-2c-0.54-0.23-1.07-0.45-1.62-0.69-9.72-5.37-17-15.8-22.4-25.3v-2c-0.99-0.33-1.98-0.66-3-1-1.39-1.82-1.39-1.82-2.81-4.12-3.28-5.11-7.03-9.49-11.1-14-0.63-0.7-1.26-1.41-1.91-2.14-0.59-0.64-1.17-1.29-1.77-1.95-1.42-1.8-1.42-1.8-2.42-4.8-1.32-0.68-2.66-1.35-4-2-1.61-1.66-1.61-1.66-3.19-3.62-3.36-4.02-7.08-7.36-11.1-10.7-0.57-0.55-1.13-1.09-1.72-1.66v-2c-0.59-0.26-1.18-0.52-1.79-0.79-2.99-1.64-4.93-3.88-7.23-6.36-2.46-2.3-5.17-3.99-7.98-5.85-1.98-1.62-3.94-3.27-5.88-4.94-3.47-2.96-6.94-5.72-10.9-8.06-1.07-0.66-2.14-1.32-3.25-2v-2c-0.89-0.25-1.77-0.49-2.69-0.75-3.52-1.33-5.38-2.91-8.31-5.25-2.76-1.57-5.56-3.06-8.38-4.54-2.62-1.46-2.62-1.46-4.59-2.96-2.52-1.86-5.15-3.14-7.97-4.5-2.94-1.43-5.81-2.85-8.62-4.54-2.47-1.48-4.94-2.67-7.56-3.84-0.97-0.43-1.93-0.86-2.92-1.3-0.98-0.44-1.95-0.87-2.96-1.32-1.81-0.83-3.63-1.67-5.44-2.5-12.2-5.53-24.4-10.3-37.2-13.9-2.02-0.58-4.05-1.16-6.07-1.74-1.03-0.3-2.06-0.59-3.12-0.89-2.05-0.61-4.1-1.26-6.13-1.93-9.42-3.12-18.9-4.68-28.7-6.12-0.85-0.13-1.71-0.26-2.59-0.4-21.2-3.18-42.3-5.02-63.7-4.48-1.23 0.02-1.23 0.02-2.48 0.04-37.2 0.7-76.7 6.84-111 21-4.3 1.74-8.71 3.18-13.1 4.68-3 1.17-5.48 2.55-8.2 4.25-1.34 0.63-2.7 1.24-4.06 1.81-15.3 6.69-30 14.9-43.9 24.2-2.61 1.74-5.26 3.41-7.93 5.06-7.6 4.76-14.3 10.1-21.1 16-4.74 4-4.74 4-7 4-0.25 0.6-0.5 1.2-0.76 1.82-1.41 2.47-2.72 3.51-5.05 5.12-2.47 1.76-4.53 3.4-6.69 5.56-12.2 12.2-30.1 19.5-47.4 19.7-17.9-0.03-33.6-3.03-48.1-14.2-0.9-0.61-1.81-1.21-2.74-1.84-7.11-4.81-12.2-10.3-17.3-17.2-0.55-0.72-1.11-1.44-1.68-2.18-6.3-8.66-9.65-19.2-12.6-29.4-8.37-26.9-24.2-53.8-40.8-76.4-0.43-0.59-0.85-1.17-1.29-1.78-6.13-8.46-12.5-16.4-19.7-24-1.98-2.26-1.98-2.26-1.98-4.26-0.99-0.33-1.98-0.66-3-1-1.44-1.5-1.44-1.5-3-3.44-5.24-6.18-11.2-12.1-18-16.6v-2c-0.54-0.23-1.07-0.45-1.62-0.69-3.14-1.73-5.66-3.99-8.38-6.31l-3-2v-2c-0.73-0.26-1.46-0.52-2.22-0.79-2.86-1.24-4.87-2.68-7.28-4.65-3.05-2.48-6.09-4.59-9.5-6.56-1.58-0.94-3.17-1.87-4.75-2.81-0.78-0.46-1.56-0.92-2.36-1.4-1.63-1.01-3.25-2.04-4.82-3.13-5.89-4.07-12-7.21-18.4-10.2-0.96-0.46-1.92-0.91-2.92-1.38-12.6-6.03-12.6-6.03-25.5-11.2-1.77-0.66-3.53-1.34-5.29-2.04-5.59-2.23-11-4.27-16.9-5.32-2-0.46-2-0.46-4.32-1.39-22.7-9.03-49.7-10.7-73.8-11.6-19.6-0.75-39.9-1.52-55.9-14.5-0.51-0.4-1.01-0.81-1.53-1.22-6.36-5.12-12.6-10.2-17.5-16.8v-2h-2c-6.44-9.05-10.3-19-12-30-0.21-1.09-0.41-2.19-0.62-3.31-0.57-5.55-0.65-11.1-0.38-16.7l1-1c-0.02-1.01-0.04-2.03-0.06-3.07 0.06-4.16 0.86-7.78 2-11.7 0.27-1 0.27-1 0.55-2.02 0.69-2.49 1.35-4.86 2.51-7.17h2c0.09-0.69 0.18-1.38 0.27-2.1 0.91-3.6 2.51-6.19 4.48-9.34 0.54-0.86 0.54-0.86 1.09-1.75 1.84-2.89 3.72-5.66 5.97-8.25 2.3-2.69 3.64-5.39 5.19-8.56l2-1c0.71-1.67 0.71-1.67 1.44-3.38 1.43-3.33 2.15-4.24 4.56-6.62 0.88-1.38 1.7-2.78 2.49-4.21 0.45-0.83 0.91-1.65 1.38-2.5 0.48-0.88 0.95-1.76 1.44-2.67 0.49-0.9 0.99-1.8 1.49-2.73 3.7-6.85 7.11-13.7 10.2-20.9 0.52-1.19 1.05-2.39 1.59-3.62 2.64-6.07 5.23-12.1 7.41-18.4 0.36-0.99 0.71-1.99 1.08-3.01 2.72-7.85 5.01-15.8 7.11-23.8 0.25-0.96 0.5-1.91 0.75-2.89 1.37-5.33 2.59-10.7 3.62-16.1 0.45-2.26 0.96-4.49 1.5-6.73 0.91-4 1.36-7.96 1.69-12 0.25-2.46 0.25-2.46 0.75-5.2 0.51-3.33 0.71-6.55 0.82-9.92 0.04-1.27 0.08-2.54 0.12-3.85 0.04-1.32 0.08-2.63 0.12-3.99 0.07-1.93 0.07-1.93 0.13-3.9 0.82-25.6 0.89-52.4-6.07-77.3-0.62-2.29-0.62-2.29-1.12-5.98-0.53-3.54-1.56-6.62-2.75-9.98-0.95-2.96-1.56-5.94-2.13-8.99-0.69-2.61-1.73-4.99-2.82-7.46-1.34-3.15-2.39-6.39-3.49-9.63-7.14-20.5-16.6-39.5-27.7-58.1-0.74-1.25-0.74-1.25-1.51-2.54-2.02-3.33-3.99-6.44-6.46-9.46-1.65-2.12-1.65-2.12-1.65-5.12h-2c-4-5.41-4-5.41-4-8h-2c-4.34-5.79-7.06-12.1-9-19-0.35-1.09-0.7-2.19-1.06-3.31-4.5-17.7-5.5-37 3.6-53.5 1.15-1.74 2.3-3.48 3.46-5.21l0.94-1.88c1.95-3.9 3.97-7.06 7.06-10.1 0.92-1.12 1.84-2.24 2.75-3.38 2.6-3.07 5.33-5.27 8.66-7.5 1.76-1.17 1.76-1.17 3.65-3.18 8.29-8.29 20.3-10.9 31.5-12.8 1.12-0.19 1.12-0.19 2.25-0.38 4.46-0.65 8.77-0.85 13.3-0.81 7.69 0.07 15.3-0.5 23-1.19 0.74-0.06 1.48-0.13 2.23-0.2 29.6-2.69 58.3-8.8 85.7-20.6 4.16-1.7 7.42-3 12-3v-2c0.78-0.33 0.78-0.33 1.57-0.67 12.4-5.31 24-11.3 35.4-18.3l2-1c2.63-1.76 5.22-3.55 7.81-5.38 1.73-1.2 3.46-2.41 5.19-3.62 0.63-0.44 1.27-0.89 1.92-1.35 3.85-2.65 3.85-2.65 6.08-2.65v-2c0.64-0.1 1.28-0.21 1.94-0.31 1.02-0.34 1.02-0.34 2.06-0.69l1-3c1.33-0.67 2.67-1.33 4-2 1.69-1.64 3.35-3.31 5-5 4.65-4 4.65-4 7-4 0.26-0.6 0.52-1.2 0.79-1.82 1.28-2.31 2.47-3.48 4.52-5.12 2.3-1.88 4.45-3.78 6.5-5.94 2.19-2.12 2.19-2.12 4.19-2.12 0.1-0.64 0.21-1.28 0.31-1.94 0.23-0.68 0.46-1.36 0.69-2.06 0.99-0.33 1.98-0.66 3-1 0.68-1.32 1.35-2.66 2-4l3-2c0.68-1.03 1.36-2.06 2.06-3.12 0.64-0.95 1.28-1.9 1.94-2.88h2c0.46-0.93 0.46-0.93 0.94-1.88 0.68-1.37 1.37-2.74 2.06-4.12h2l1-4h2c0.26-0.74 0.53-1.48 0.8-2.24 1.19-2.75 2.49-4.6 4.39-6.88 3.38-4.23 6.28-8.62 9.13-13.2 1.48-2.35 3.03-4.64 4.62-6.92 6.86-10.3 12-21.6 17.2-32.8 1.58-3.41 3.25-6.76 4.97-10.1 1.66-3.5 2.76-7.18 3.89-10.9 0.35-1.14 0.71-2.28 1.07-3.46 0.99-3.18 1.96-6.36 2.93-9.54h2c0.18-1.71 0.18-1.71 0.36-3.46 0.56-4.53 1.71-8.78 2.95-13.2 2.92-10.7 4.9-21.5 6.69-32.4 0.11-0.69 0.23-1.38 0.35-2.09 2.94-18 2.75-35.8 2.55-53.9-0.33-34.1-0.33-34.1 5.04-46.8 0.25-0.66 0.5-1.31 0.76-1.98 1.38-3.47 3-6.29 5.3-9.21l1-3 2-1c1.01-1.66 2.01-3.33 3-5 10.3-13.7 27.8-23.9 44.7-26.4 2.11-0.25 4.22-0.44 6.33-0.61v-1zm66 245c-0.42 1.2-0.42 1.2-0.85 2.43-3.27 9.27-6.76 18.4-10.4 27.6-0.67 1.72-1.34 3.43-2.01 5.15-1.73 4.4-3.61 8.62-5.77 12.8-0.29 0.73-0.58 1.46-0.88 2.21-1.38 3.43-2.93 6.76-4.5 10.1-0.43 0.94-0.43 0.94-0.88 1.9-3.5 7.48-7.2 14.8-11.4 21.8-0.43 0.74-0.87 1.47-1.31 2.22-1.33 2.24-2.67 4.48-4 6.72-0.4 0.67-0.8 1.34-1.21 2.03-2.23 3.74-4.47 7.48-6.72 11.2-0.71 1.17-1.41 2.34-2.11 3.5-4.1 6.86-8.4 13.4-13.2 19.8-1.8 2.41-1.8 2.41-3.24 5-1.59 2.56-3.38 4.33-5.52 6.44-2.03 2.71-3.96 5.47-5.9 8.25-2.17 2.85-4.56 5.22-7.1 7.75-2.1 2.48-4.11 5.02-6.12 7.56-8.41 10.5-17.2 20.6-27.4 29.4-2.49 2.2-4.9 4.4-7.25 6.75-2.29 2.29-4.72 4.23-7.25 6.25-0.74 0.75-1.48 1.5-2.25 2.27-2.99 2.96-6.1 5.7-9.31 8.42-0.57 0.48-1.13 0.97-1.71 1.47-2.8 2.37-5.43 4.26-8.73 5.84-1.01 0.99-2.01 1.99-3 3-1.71 1.3-3.44 2.56-5.19 3.81-3.3 2.38-6.58 4.77-9.81 7.25-7.17 5.4-14.9 9.95-22.6 14.5-2.93 1.76-5.8 3.59-8.67 5.44-1.69 0.98-1.69 0.98-4.69 1.98-1.01 0.99-2.01 1.99-3 3-1.81 1.13-1.81 1.13-3.85 2.2-0.76 0.4-1.52 0.8-2.31 1.21-1.22 0.63-1.22 0.63-2.46 1.28-0.85 0.44-1.69 0.88-2.56 1.33-7.58 3.91-15.2 7.59-23 11.2-1.6 0.73-3.2 1.48-4.8 2.22-10.5 4.89-21.2 9.13-32.3 12.7-2.47 0.83-4.83 1.77-7.23 2.8-6.08 2.51-12.4 4.26-18.7 6.1-0.85 0.25-1.69 0.5-2.56 0.75-0.77 0.22-1.53 0.44-2.32 0.67-1.96 0.56-1.96 0.56-3.9 1.6 0.46 8.14 2.91 15.1 5.69 22.7 0.92 2.6 1.83 5.2 2.74 7.81 0.34 0.96 0.34 0.96 0.68 1.95 5.61 16.2 9.16 32.9 12.4 49.8 0.52 2.73 1.06 5.45 1.6 8.18 0.17 0.81 0.33 1.62 0.5 2.45 0.21 1.07 0.21 1.07 0.43 2.16 1.55 7.79 2.32 15.5 2.66 23.4 0.1 3.93 0.1 3.93 1.34 7.61 1.17 8.75 1.17 17.6 1.2 26.4 0.01 1.38 0.02 2.75 0.02 4.12 0.02 4.36 0.03 8.73 0.03 13.1v2.25c0.03 28.2-0.54 56.3-6.25 84.1-0.28 1.43-0.56 2.87-0.83 4.3-1.95 9.99-4.1 19.9-6.67 29.7-0.53 2.09-1.03 4.19-1.54 6.28-0.17 0.71-0.34 1.43-0.52 2.16-0.47 1.97-0.94 3.95-1.41 5.92-1.06 3.71-2.49 7.08-4.03 10.6-0.54 1.82-1.04 3.66-1.5 5.5-1.14 4.38-2.69 8.34-4.5 12.5-1.07 3.31-2.05 6.65-3 10 5.88 2.53 11.8 4.63 17.9 6.5 6.43 1.98 12.8 4.12 19.1 6.5l4.68 1.71c11.3 4.17 22.2 8.86 33 14.2 2.37 1.15 4.76 2.26 7.16 3.36 10.1 4.65 19.8 9.78 29.2 15.6 1.86 1.14 3.73 2.27 5.61 3.39 5.39 3.25 10.6 6.56 15.6 10.5 2.17 1.61 4.46 2.94 6.78 4.32 1.57 1.07 3.14 2.15 4.69 3.25 2.59 1.83 5.18 3.66 7.79 5.45 7.18 4.91 13.9 10.3 20.5 16 2.64 2.55 2.64 2.55 6.04 3.32l1 3c1.69 1.54 3.45 3.01 5.25 4.44 0.95 0.76 1.91 1.52 2.89 2.31 1.84 1.44 3.68 2.89 5.53 4.32 2.04 1.69 3.67 3.32 5.33 5.37 3.14 3.75 6.42 7.2 10.1 10.4 4.18 3.6 7.71 6.98 10.8 11.6 1.73 2.48 3.94 4.46 6.1 6.57 2.71 2.97 5.35 5.98 8 9 0.51 0.57 1.01 1.13 1.53 1.71 4.84 5.5 9.12 11.4 13.5 17.3 1.06 1.42 2.12 2.83 3.19 4.25 0.69 0.93 0.69 0.93 1.4 1.87 1.01 1.35 2.04 2.7 3.07 4.04 0.55 0.71 1.09 1.42 1.65 2.15 0.49 0.64 0.98 1.27 1.49 1.93 1.2 1.76 1.2 1.76 2.2 4.76 0.43 0.43 0.87 0.85 1.31 1.29 2.39 2.42 3.94 5.18 5.69 8.09 0.68 1.12 1.36 2.24 2.06 3.39 1.94 3.23 1.94 3.23 3.38 6.14 1.37 2.31 1.37 2.31 3.87 2.61 3.41-0.66 5.74-2.01 8.69-3.83 1.01-0.62 2.02-1.23 3.06-1.87 0.97-0.6 1.94-1.2 2.94-1.82 3.9-2.41 7.9-4.53 12-6.56 0.69-0.35 1.38-0.69 2.1-1.04 2.3-1.14 4.6-2.27 6.9-3.4 0.8-0.39 1.59-0.78 2.41-1.19 14-6.84 28.2-13 42.6-18.8 0.73-0.3 1.46-0.6 2.21-0.91 11.6-4.75 23.7-8 35.8-11.3 2.66-0.73 5.32-1.47 7.98-2.22 13-3.69 26-7.11 39.3-9.16 2.48-0.4 4.91-0.9 7.36-1.43 6.63-1.36 13.4-2 20.1-2.75 4.76-0.54 9.5-1.17 14.2-1.79 10-1.21 20.1-1.73 30.2-2.02 0.7-0.02 1.4-0.04 2.12-0.06 57.8-1.67 57.8-1.67 70.7 2.62 2.25 0.27 4.5 0.51 6.75 0.72 0.65 0.06 1.31 0.12 1.98 0.19 2.09 0.2 4.18 0.4 6.27 0.59l8.25 0.78c1.22 0.12 2.44 0.23 3.7 0.35 3.05 0.37 3.05 0.37 6.05 1.37 1.87 0.33 3.75 0.64 5.62 0.94 4.43 0.72 8.79 1.55 13.2 2.56 2.46 0.55 4.93 1.03 7.41 1.5 2.89 0.56 5.44 1.22 8.25 2.19 2.64 1.11 2.64 1.11 5.56-0.19l1 2c1.99 0.38 3.99 0.7 6 1 3.79 1 7.49 2.16 11.2 3.44 3.35 1.14 6.69 2.01 10.2 2.79 6.92 1.72 13.5 4.18 20.1 6.79 1.99 0.79 3.99 1.56 5.98 2.33 7.35 2.86 14.5 5.93 21.7 9.28 2.55 1.2 5.11 2.36 7.69 3.5 0.71 0.32 1.41 0.63 2.15 0.95 0.68 0.31 1.36 0.61 2.07 0.92 14 6.22 27.2 13.6 40.4 21.4 3.35 1.98 6.74 3.86 10.1 5.75 7.83 4.46 15.2 9.61 22.5 14.8 1.22 0.86 2.45 1.72 3.67 2.57 1.17 0.83 2.35 1.66 3.52 2.49 0.56 0.4 1.13 0.8 1.71 1.22 2.97 2.12 5.85 4.3 8.69 6.6 0.58 0.47 1.16 0.94 1.76 1.42 1.11 0.9 2.21 1.81 3.3 2.74 2.36 1.91 3.94 2.93 6.99 3.17 3.54-1.82 4.57-4.78 6.11-8.27 0.69-1.48 1.39-2.95 2.09-4.43 0.36-0.75 0.72-1.51 1.08-2.29 3.03-6.24 6.59-12.2 10.1-18.2 0.48-0.82 0.95-1.63 1.44-2.47 5.77-9.87 11.6-19.4 18.6-28.5 3.12-4.06 3.12-4.06 4-9 0.59-0.24 1.19-0.47 1.8-0.72 2.69-1.57 3.75-3.17 5.45-5.78 4.63-6.88 9.77-13.3 15.2-19.5 2.71-2.61 2.71-2.61 2.5-5 0.99-0.33 1.98-0.66 3-1 1.85-1.75 1.85-1.75 3.62-3.88 0.62-0.69 1.23-1.39 1.86-2.11 1.71-2.03 1.71-2.03 2.52-5.01 1.33-0.67 2.67-1.33 4-2l1-3h2c0.41-0.72 0.83-1.44 1.25-2.19 1.58-2.54 2.66-3.7 4.94-5.5 0.93-0.76 1.85-1.52 2.81-2.31v-2c0.99-0.33 1.98-0.66 3-1v-2c0.68-0.16 1.36-0.33 2.06-0.5 3.71-1.89 5.63-4.4 8.19-7.62 1.83-1.96 3.35-2.77 5.75-3.88 1.69-1.64 3.35-3.31 5-5 2.85-2.58 5.29-4.76 9-6v-2c1.66-1.02 3.32-2.02 5-3l1-2c2.06-1.13 2.06-1.13 4-2v-2c0.71-0.25 1.43-0.5 2.16-0.76 3.12-1.36 5.51-3.06 8.22-5.12 3.05-2.27 6.01-4.45 9.37-6.24 3.34-1.78 3.34-1.78 6.09-4.48 5.44-4.73 11.8-8.12 18-11.7 1.3-0.76 2.61-1.52 3.91-2.28 12.1-7.01 24.3-14 37.2-19.4 2.33-1 4.67-2 7-3 1.11-0.47 2.23-0.95 3.38-1.44 2.67-1.15 5.33-2.32 7.99-3.5 13-5.8 25.9-11.1 39.6-15.1 1.59-0.47 3.18-0.94 4.77-1.41 4.08-1.21 8.15-2.4 12.2-3.59-0.53-4.8-1.51-8.67-3.5-13.1-1.42-3.15-2.47-5.77-3.03-9.19-0.22-2.89-0.22-2.89-2.47-4.75-1.63-4.27-2.85-8.68-4.12-13.1-0.2-0.67-0.4-1.34-0.6-2.03-7.51-25.9-12.6-53-15.3-79.9-0.09-0.8-0.17-1.61-0.26-2.43-4.85-47.8-3.51-100 8.3-147 0.86-3.41 1.59-6.81 2.27-10.3 1.62-7.59 3.75-15 6.03-22.4 0.66-2.15 1.31-4.3 1.95-6.45 2-6.56 4.15-13 6.79-19.3 1.67-4.34 3.07-8.82 3.92-13.4l-1-2c-2.52-0.8-5.01-1.48-7.56-2.12-7.76-2.06-15.4-4.41-23-6.94-1-0.33-2-0.66-3.03-1-5.97-2-11.7-4.27-17.4-6.94-0.99-0.46-1.98-0.91-3-1.38l-5.13-2.37c-2.18-0.95-4.4-1.8-6.63-2.6-4.72-1.75-9.07-4.07-13.5-6.46-1.69-0.91-3.38-1.81-5.07-2.71-0.81-0.43-1.62-0.86-2.45-1.31-2.76-1.45-5.55-2.81-8.35-4.17-15.7-7.79-30.5-17.6-45-27.5-0.93-0.63-1.85-1.25-2.81-1.89-7.8-5.32-15.2-11-22.5-17-4.45-3.66-8.94-7.26-13.5-10.8-1.81-1.5-3.44-3.05-5.09-4.73-1.94-1.71-3.9-3.4-5.87-5.09-1.55-1.39-3.05-2.83-4.52-4.3-2.26-2.26-4.58-4.42-6.96-6.55-5.86-5.27-11.2-10.7-16.1-16.9-1.15-1.42-2.34-2.81-3.54-4.18h-2v-2h-2c-0.25-0.56-0.49-1.11-0.75-1.69-1.48-2.73-3.18-4.99-5.25-7.31h-2c-0.27-0.58-0.55-1.17-0.83-1.77-1.13-2.16-2.37-3.98-3.85-5.91-0.53-0.7-1.06-1.39-1.61-2.11-3.54-4.57-7.1-9.13-10.7-13.7-3.2-4.09-6.22-8.19-9.04-12.5-0.75-1.11-1.51-2.23-2.26-3.34-4.38-6.48-8.65-13-12.7-19.7-0.36-0.61-0.73-1.22-1.1-1.84-2.16-3.63-4.08-7.33-5.96-11.1-0.88-1.47-1.78-2.93-2.69-4.38-6.74-11.1-12.1-23.1-17.6-34.9-1.53-3.27-3.13-6.51-4.76-9.74-5.19 1.59-10 3.39-14.9 5.91-7.66 3.9-15.7 6.95-23.7 10.1-4.01 1.59-7.98 3.22-11.9 5.03-5.05 2.27-10.3 3.91-15.6 5.53-1.88 0.59-3.75 1.17-5.62 1.76-0.91 0.28-1.82 0.56-2.76 0.85-2.42 0.77-4.83 1.56-7.24 2.37-25.1 8.4-51 13.6-77.1 17.3-0.73 0.1-1.45 0.2-2.2 0.31-15 2.12-29.9 2.97-45 2.98-1.72 0-3.44 0-5.16 0.01-3.6 0-7.2 0.01-10.8 0.01-3.64 0-7.28 0-10.9 0.02-39.4 0.14-39.4 0.14-57.1-2.21-0.77-0.1-1.55-0.2-2.34-0.3-5.34-0.68-10.7-1.48-16-2.32-0.8-0.13-1.6-0.26-2.42-0.39-17-2.7-33.6-6.59-50.3-11-0.67-0.18-1.34-0.35-2.03-0.53-10.2-2.7-20.1-5.78-30.1-9.43-3.03-1.09-6.09-2.1-9.15-3.1-4.36-1.44-8.55-3.07-12.8-4.94-1.5-0.59-3-1.17-4.5-1.75-6.26-2.49-12.3-5.39-18.4-8.27-2.15-1.02-4.3-2.03-6.46-3.03-3.6-1.69-7.19-3.38-10.8-5.08-1.51-0.72-3.02-1.43-4.53-2.14-16.6-8.01-34.7-18.1-48.9-29.8-4-3.08-8.31-5.88-13.4-5.88zm-520 235v6h1v-6h-1zm1341 97 1 2zm-10 34 1 2zm-1254 116 1 4zm-6 57 1 2z" fill="#053C24"/>
<path transform="translate(1082,555)" d="m0 0c0.71 0.2 1.41 0.4 2.14 0.61 11.5 3.58 22.8 8.73 32.9 15.4 0.65 0.42 1.29 0.85 1.96 1.28 2.21 1.46 4.41 2.93 6.6 4.41 0.72 0.47 1.43 0.95 2.17 1.44 0.67 0.46 1.34 0.91 2.02 1.38 0.91 0.61 0.91 0.61 1.83 1.23 1.42 1.26 1.42 1.26 2.42 4.26 1.31 0.72 2.65 1.38 4 2 10.3 7.57 17.8 18.6 25 29 0.66 0.93 0.66 0.93 1.33 1.87 5.98 8.96 11 19.7 14 30.1 0.6 1.95 1.34 3.85 2.08 5.75 1.64 4.34 2.71 8.71 3.68 13.2 0.17 0.74 0.34 1.49 0.52 2.26 1.85 8.46 2.51 16.8 2.49 25.4 0 1.33 0 1.33 0.01 2.69 0 1.87-0.01 3.74-0.01 5.61 0 2.82 0 5.64 0.01 8.46 0.01 24.1 0.01 24.1-1.68 30.8-0.59 2-0.59 2-0.34 4.78 0.05 4.46-1.07 8.54-2.13 12.8-0.81 3.35-1.51 6.72-2.2 10.1-0.21 1.05-0.42 2.11-0.64 3.19-0.43 2.11-0.85 4.22-1.26 6.33-1.03 5.08-2.2 9.87-4.14 14.7-0.79 2.01-1.46 4.03-2.11 6.09-2.8 8.82-5.97 17.2-10 25.5-1.08 2.24-2.1 4.51-3.06 6.81-1.64 3.73-3.54 7.15-5.61 10.6-2.72 4.56-2.72 4.56-4.92 9.38-1.38 3.37-3.34 6.29-5.33 9.31-0.81 1.24-1.62 2.48-2.43 3.72-0.39 0.6-0.78 1.19-1.18 1.8-1.38 2.14-2.7 4.31-4.02 6.48-2.06 3.19-2.06 3.19-4.06 4.19-1.02 1.66-2.01 3.33-3 5-1.63 2.32-3.34 4.56-5.06 6.81-0.45 0.6-0.9 1.2-1.36 1.81-1.14 1.5-2.36 2.95-3.58 4.38h-2c-0.27 0.59-0.54 1.18-0.82 1.79-2.88 5.41-7.68 10.1-12.2 14.2h-2c-0.23 0.56-0.46 1.13-0.7 1.71-1.64 2.88-3.65 4.7-6.11 6.91-0.85 0.78-1.71 1.56-2.58 2.36-2.61 2.02-2.61 2.02-5.37 3.11-0.74 0.3-1.48 0.6-2.24 0.91l-1 3c-1.71 1.36-1.71 1.36-3.94 2.75-3.33 2.13-6.59 4.32-9.81 6.63-12.3 8.62-26.3 18.2-41 22-2.3 0.66-4.28 1.54-6.43 2.58-24.7 11.4-58.5 13.7-84.8 8.06-0.79-0.16-1.57-0.31-2.38-0.47-11.9-2.39-22.1-5.55-32.6-11.5-1.01-0.5-2.01-1-3.05-1.52-8.03-4.04-14.9-9.04-21.5-15.2-1.61-1.5-3.25-2.98-4.92-4.42-10.3-8.89-18.7-19.1-25.5-30.9-0.66-1.09-1.31-2.18-1.99-3.3-23.1-38.9-29.1-92.6-18.3-136 1-3.81 2.12-7.57 3.27-11.3 0.32-1.1 0.64-2.19 0.97-3.32 2.13-6.88 5.08-13.3 8.19-19.8 1.53-3.21 2.94-6.47 4.32-9.75 3.54-8.4 7.77-16.3 12.3-24.2 1.86-3.26 3.59-6.58 5.23-9.96h2c0.27-0.72 0.54-1.44 0.81-2.19 1.19-2.81 1.19-2.81 2.79-4.92 1.99-4.12 1.44-7.48 1.02-12-1.39-19.6 3.28-33.9 14.4-49.9 0.62-0.92 1.23-1.84 1.87-2.79 0.62-0.92 1.24-1.83 1.88-2.77 0.57-0.85 1.14-1.7 1.73-2.57 0.75-0.93 0.75-0.93 1.52-1.87h2c0.23-0.72 0.45-1.44 0.69-2.19 1.56-3.36 3.61-5.37 6.31-7.81 0.77-0.72 1.54-1.44 2.34-2.18 7.43-6.82 7.43-6.82 11-9.07 2.77-1.66 2.77-1.66 4.94-4.06 6.88-6.73 16.3-13.4 25.8-15.8 0.99-0.29 1.98-0.58 3-0.88 0.5-1.49 0.5-1.49 1-3 2.62-1.25 2.62-1.25 6-2.44 4-1.45 7.94-2.92 11.8-4.68 7.19-3.23 13.6-5.28 21.5-6.35 2.66-0.37 2.66-0.37 4.56-1.52 2.62-1.22 4.77-1.42 7.66-1.64 1.09-0.09 2.17-0.17 3.29-0.26 1.17-0.08 2.33-0.15 3.53-0.23 1.81-0.13 1.81-0.13 3.65-0.26 25.1-1.62 48.8-0.61 73 6.38zm-111 82c-0.53 2.17-0.97 4.36-1.38 6.56-1.81 8.85-3.8 15.3-10.6 21.4-1.24 1.49-1.24 1.49-2.5 3-2.5 3-2.5 3-5 5.38-3.12 3.27-5.2 6.74-7.5 10.6-0.67 1.09-1.34 2.17-2.04 3.29-5.53 8.99-10.4 18.2-15 27.7-0.53 1.1-1.07 2.2-1.62 3.34-10 21.1-16 43.6-21.8 66.2-0.53 2.05-1.08 4.08-1.64 6.11-7.14 26.3-6.18 60.6 6.91 84.8 3.74 6.44 7.25 11.3 13.7 15.2 0.61 0.38 1.22 0.76 1.85 1.15 8.23 4.97 17 7.82 26.6 8.16 1.2 0.05 2.4 0.1 3.63 0.16 23 0.66 41.4-4.8 61.4-16.2 0.78-0.44 1.56-0.88 2.36-1.33 1.55-0.88 3.1-1.77 4.64-2.67v-2c0.84-0.39 0.84-0.39 1.69-0.79 2.59-1.35 4.91-2.91 7.31-4.59 0.85-0.58 1.69-1.17 2.56-1.77 2.37-1.8 4.37-3.73 6.44-5.85 0.87-0.64 1.73-1.28 2.62-1.94 2.62-2.27 3.13-3.91 4.38-7.06 0.93-0.45 0.93-0.45 1.88-0.91 2.51-1.29 3.46-2.59 5.06-4.9 1.7-2.45 3.36-4.49 5.48-6.61 15-15 24.5-35.7 33.6-54.6 0.32-0.66 0.63-1.31 0.96-1.99 4.64-9.75 7.79-19.5 10.5-30 0.77-2.86 1.73-5.66 2.67-8.48 6.7-22 9.25-51.8 0.88-73.6-0.36-0.95-0.72-1.9-1.1-2.88-2.37-5.97-5.08-11.4-8.49-16.9-1.25-1.99-2.37-4-3.47-6.06-2.04-3.36-4.04-5.55-6.94-8.19-0.67-0.63-1.35-1.26-2.04-1.91-27.6-25.3-87.7-30.4-116-2.09z" fill="#053C24"/>
<path transform="translate(667 585)" d="m0 0c1.23-0.01 2.46-0.03 3.73-0.04 8.06-0.01 15.7 0.77 23.6 2.23v2c1.07 0.02 2.14 0.04 3.24 0.06 8.24 1.01 16.5 6.7 21.8 12.9 0.66 0.72 1.31 1.44 2 2.19 5.74 8.07 8.26 14.8 7 24.8-1.78 6.28-6.68 9.63-12 13-9.37 4.92-19.8 7.51-30 10-0.83 0.2-1.65 0.4-2.5 0.61-15.6 3.68-31.4 5.68-47.3 7.7-1.06 0.14-2.12 0.27-3.21 0.41-3.05 0.39-6.09 0.76-9.14 1.14-1.39 0.17-1.39 0.17-2.8 0.35-4.05 0.49-8 0.94-12.1 0.79-0.16 1.08-0.16 1.08-0.31 2.19-2.85 20.5-5.95 40.9-9.85 61.2-1.21 6.53-2.26 13.1-3.34 19.6-1.47 8.88-2.98 17.8-4.69 26.6-0.73 3.85-1.38 7.7-2.04 11.6-0.33 1.95-0.33 1.95-0.67 3.94-0.44 2.6-0.87 5.2-1.3 7.8-0.21 1.2-0.41 2.4-0.62 3.64-0.27 1.62-0.27 1.62-0.55 3.26-0.63 3.21-0.63 3.21-1.64 6.64-1.03 3.7-1.63 7.28-2.14 11.1-0.21 1.45-0.41 2.9-0.61 4.35-0.31 2.23-0.62 4.47-0.92 6.7-1.19 8.78-2.68 17.4-4.8 26-1.85 7.57-3.14 15.2-4.39 22.9-0.39 2.41-0.79 4.83-1.2 7.24-0.25 1.55-0.51 3.1-0.76 4.65-0.12 0.71-0.24 1.43-0.36 2.16-0.52 3.24-0.81 6.21-0.81 9.51 1.89 0.02 3.79 0.04 5.68 0.06 1.59 0.02 1.59 0.02 3.2 0.04 2.98 0 2.98 0 5.27-0.57 3.81-0.71 7.62-0.9 11.5-1.1 0.84-0.05 1.68-0.09 2.54-0.14 1.78-0.09 3.57-0.19 5.35-0.28 2.66-0.13 5.33-0.29 8-0.44 8.31-0.44 16.6-0.7 24.9-0.27 1.02 0.05 1.02 0.05 2.06 0.09 5.77 0.38 11 1.93 15.5 5.61 0.67 1.33 1.34 2.66 2 4 0.99 0.33 1.98 0.66 3 1 3.83 6.35 4.55 12.7 4 20h-2c-0.23 0.62-0.46 1.23-0.69 1.87-1.69 2.74-3.31 3.18-6.31 4.13v2c-7.56 4.36-15.4 8.21-23.2 12.1-1.53 0.76-3.05 1.55-4.56 2.33-7.21 3.74-14.7 6.68-22.3 9.59-0.98 0.37-0.98 0.37-1.97 0.75-4.66 1.79-9.35 3.53-14 5.25-0.69 0.25-1.37 0.5-2.08 0.76-9.96 3.68-20 6.83-30.3 9.53-2.98 0.79-5.95 1.6-8.93 2.4-21.3 5.7-42.8 10.4-64.7 13.3-0.75 0.1-1.5 0.21-2.28 0.31-11.7 1.57-23.4 1.91-35.2 1.98-1.62 0.01-3.24 0.03-4.86 0.05-2.3 0.02-4.6 0.03-6.89 0.02-0.69 0.01-1.37 0.02-2.08 0.03-8.23-0.08-14.1-3.64-19.7-9.39-5.37-6.98-4.4-16.6-4-25 0.32-0.66 0.66-1.32 1-2 0.09-1.24 0.09-1.24 0.18-2.5 2.02-8.68 8.29-16.6 14.8-22.5 8.5-5.3 17.9-8.04 27.4-10.7l3.99-1.14c7.2-2.05 14.4-3.88 21.7-5.53 3.56-0.81 7.07-1.72 10.6-2.71 1.76-0.48 1.76-0.48 3.55-0.97 2.84-0.66 2.84-0.66 3.71-2.96 0.33-2.57 0.61-5.13 0.86-7.7 0.12-1.17 0.12-1.17 0.24-2.36 0.17-1.68 0.34-3.35 0.51-5.02 0.43-4.35 0.89-8.69 1.34-13 0.09-0.86 0.18-1.71 0.27-2.6 0.72-6.87 1.51-13.7 2.4-20.6 0.11-0.88 0.22-1.75 0.34-2.65 0.62-4.73 1.5-9.33 2.58-14 1.94-8.75 2.68-17.8 3.7-26.7 1.27-11 2.94-21.8 4.88-32.7 2.07-11.8 4.08-23.5 5.32-35.4 0.54-4.52 1.45-8.94 2.38-13.4 2.25-11 4.08-22 5.86-33l1.83-11.2c0.13-0.85 0.27-1.69 0.41-2.57 0.96-5.89 0.96-5.89 2.08-8.11 0.06-1.38 0.08-2.75 0.06-4.13-0.02-1.28-0.04-2.56-0.06-3.87-1.25-0.02-2.49-0.04-3.78-0.06-4.66-0.08-9.33-0.17-14-0.26-2.01-0.04-4.02-0.07-6.03-0.1-27.8-0.45-27.8-0.45-36.6-5.89-0.96-0.58-1.91-1.15-2.9-1.74-6.92-4.95-8.82-8.94-10.4-17.2-0.89-9.02 0.64-17.7 6.32-24.9 9.96-11.8 20.5-16.4 35.3-19.9 1.23-0.35 2.47-0.7 3.74-1.07 5.29-1.33 10.8-1.77 16.2-2.37 2.77-0.34 5.45-0.84 8.17-1.48 6.52-1.5 13.1-2.43 19.7-3.39 0.72-0.11 1.44-0.22 2.18-0.33 13.2-1.93 26.5-3.54 39.8-5.05 0.9-0.1 1.8-0.2 2.73-0.31 10-1.14 20.1-2.18 30.2-3.11 0.87-0.08 1.75-0.16 2.65-0.24 15.4-1.39 30.9-1.75 46.3-1.84zm-260 373 1 2z" fill="#053C24"/>
<path transform="translate(1121 123)" d="m0 0c0.71-0 1.42-0.01 2.15-0.01 3.16 0 5.65 0.13 8.66 1.13 1.71 0.29 3.42 0.56 5.13 0.82 5.41 0.94 10 2.7 14.9 5.18v2l3 2c2.03 1.64 4.01 3.32 6 5-0.33 1-0.66 1.98-1 3h5c0.06 0.79 0.13 1.57 0.19 2.38 0.27 0.87 0.54 1.73 0.81 2.62 2.35 1.13 2.35 1.13 5 2 2.19 2.01 2.19 2.01 4 4l2 2c0.7 1.32 1.37 2.66 2 4 0.37 0.75 0.74 1.49 1.13 2.26 0.29 0.57 0.57 1.15 0.87 1.74h-2v-2c-1.98-0.65-3.96-1.31-6-2v-2c-0.66-0.32-1.32-0.65-2-1-0.62-2.06-0.62-2.06-1-4-4.06-0.77-7.86-1.09-12-1-0.99-1.97-1.98-3.96-3-6-0.66 0.07-1.32 0.13-2 0.19-3.96-0.24-7.46-1.38-11-3.19-0.33-0.65-0.66-1.31-1-2-0.99-0.32-1.98-0.65-3-1v2c-0.89-0.49-0.89-0.49-1.81-1-3.47-1.58-5.98-0.83-9.5 0.13-4.21 0.98-6.68 0.65-10.7-1.13-3.85-1.36-7.05-0.95-11 0-1.2 1.82-1.2 1.82-2 4-4.44 4-4.44 4-7 4v-3h-3c0.11 0.93 0.21 1.86 0.31 2.82-0.31 3.19-0.31 3.19-2.5 5.06-2.86 1.15-4.76 1.39-7.81 1.12l-1 2c-1.65-0.65-3.3-1.31-5-2-0.66 1-1.32 1.98-2 3-2 1.34-4 2.67-6 4v2.5 2.5c-3 2-3 2-4.87 2.44-2.29 0.49-2.29 0.49-4.56 2.13-2.82 1.58-4.4 1.71-7.57 1.43-0.33 1-0.66 1.98-1 3-1.49 1.22-1.49 1.22-3.31 2.38-2.56 1.72-3.96 2.97-5.94 5.44-0.86 1.08-0.86 1.08-1.75 2.18h-3c-0.33 1-0.66 1.98-1 3-3.46 0.5-3.46 0.5-7 1-0.33 1-0.66 1.99-1 3-2.85 1.84-5.68 2.45-9 3v2h-2v2c-3.03 2.03-4.19 2.33-7.69 2.63-1.21 0.11-1.21 0.11-2.44 0.23-0.62 0.05-1.23 0.09-1.87 0.14v2l-8 1v2c-1.55 0.85-3.12 1.68-4.69 2.5-1.3 0.7-1.3 0.7-2.63 1.41-2.8 1.14-4.69 1.31-7.68 1.09 0.33 1 0.66 1.99 1 3-3.28 0.8-4.71 1.1-8 0v2c-1.45 0.53-2.91 1.05-4.37 1.57-0.81 0.29-1.63 0.58-2.46 0.88-2.17 0.55-2.17 0.55-4.17-0.45v-4h-11v2h2c-0.33 1-0.66 1.99-1 3h-7l2 1v2c-6.4 1.24-6.4 1.24-9.43 0.07-0.52-0.35-1.04-0.7-1.57-1.07v-2h-3l-1 2h-3c-3.13 1.53-4.89 2.87-7.06 5.63-2.02 2.48-2.83 3.04-5.94 3.37l-1-3v1 2c-8.03 2.28-8.03 2.28-12 1-0.33 1-0.66 1.99-1 3v-2c-6.59 0.64-9.54 2.33-14 7-1.65-0.65-3.3-1.31-5-2l-1 2c-0.95-0.65-1.9-1.31-2.87-2-2.79-2.17-2.79-2.17-5.13-2l-1 4c-0.72-0.07-1.45-0.14-2.19-0.21-4.14-0.4-8.21-0.79-12.4-0.79-2.44 0-2.44 0-4.44-1v-2c-0.56 0.15-1.13 0.29-1.71 0.44-0.74 0.19-1.47 0.37-2.22 0.56-0.74 0.19-1.47 0.38-2.22 0.57-1.85 0.43-1.85 0.43-2.85 0.43-0.99 0.33-1.98 0.66-3 1-1.49 0.12-3 0.18-4.5 0.19-0.77 0.02-1.54 0.03-2.34 0.05-2.16-0.24-2.16-0.24-5.16-2.24-0.57 0.33-1.15 0.66-1.75 1-2.25 1-2.25 1-6.25 1-0.99-1.98-1.98-3.95-3-6-0.59 0.09-1.18 0.17-1.79 0.26-4.33 0.56-7.94 0.93-12.2-0.26-1.39-0.27-1.39-0.27-2.81-0.56-0.72-0.14-1.44-0.29-2.19-0.44v-2c-0.84 0.16-1.68 0.32-2.55 0.48-1.1 0.19-2.19 0.39-3.32 0.59-1.09 0.19-2.18 0.39-3.31 0.6-2.82 0.33-2.82 0.33-4.82-0.67v-2h-14l-1-3c-0.99 0.33-1.98 0.66-3 1-1.66-0.43-3.33-0.87-4.97-1.39-2.16-0.65-4.32-1.13-6.53-1.61-3.88-0.83-7.68-1.89-11.5-3-0.88-0.14-1.77-0.28-2.69-0.43-2.31-0.57-2.31-0.57-4.14-2.06-2.55-1.77-4.1-1.95-7.17-2.13-2.5-0.16-4.76-0.31-7.19-0.96-1.89-0.64-1.89-0.64-3.81 0.58-2.12-0.43-2.12-0.43-4-1v-2h-2l-1-3c-2.54-0.88-4.95-1.57-7.56-2.18-0.71-0.18-1.42-0.36-2.15-0.54-1.76-0.44-3.52-0.86-5.29-1.28v-2c-0.66-0.32-1.32-0.65-2-1l-1-3c-1.48 0.5-1.48 0.5-3 1-2.03-0.21-4.05-0.51-6.06-0.87-1.6-0.27-1.6-0.27-3.22-0.55-2.72-0.58-2.72-0.58-4.72-1.58v-2c-0.66-0.32-1.32-0.65-2-1 0.5-1.48 0.5-1.48 1-3-1.17-0.07-1.17-0.07-2.37-0.14-1.01-0.08-2.02-0.15-3.06-0.23-1.01-0.07-2.02-0.14-3.06-0.21-0.83-0.14-1.66-0.27-2.51-0.42-0.33-0.65-0.66-1.31-1-2 0.99-0.32 1.98-0.65 3-1-2.62-2.15-4.64-3.4-8-4v-2c-0.86 0.5-0.86 0.5-1.75 1-2.25 1-2.25 1-6.25 1l1-5c-0.99-0.32-1.98-0.65-3-1v-2c-0.76-0.1-1.52-0.2-2.31-0.31-2.91-0.74-3.89-1.34-5.69-3.69-0.33-0.99-0.66-1.97-1-3-3.71-2.01-6.83-2.19-11-2-0.27-0.76-0.53-1.52-0.81-2.31-1.15-2.59-2.18-3.77-4.19-5.69v-2c-0.95-0.08-1.9-0.16-2.87-0.24-3.13-0.76-3.13-0.76-4.5-2.82-0.21-0.64-0.42-1.28-0.63-1.94h-6c-0.33-0.99-0.66-1.97-1-3-0.66-0.32-1.32-0.65-2-1v-6h3l1 4 4 1v2c2.65 1.08 5.29 2.1 8 3l5 5c0.72 0.33 1.45 0.66 2.19 1 2.59 1.43 2.95 3.27 3.81 6h2v2c3.31 1.13 6.59 2.22 10 3v2l5 1c0.33 1 0.66 1.98 1 3h4c1.03 1.32 2.03 2.65 3 4h3c3.25 1.28 3.98 1.97 6 5 0.87 0.13 1.73 0.25 2.63 0.38 3.95 0.73 6.28 2.3 9.54 4.57 1.91 1.31 1.91 1.31 4.83 1.05 0.33-0.65 0.66-1.31 1-2 0.52 0.26 1.03 0.51 1.56 0.77 13.2 6.45 13.2 6.45 27 11.5 2.17 0.68 4.19 1.46 6.25 2.39 3.38 1.46 6.65 2.43 10.2 3.37v2c1.07 0.1 2.15 0.2 3.25 0.3 5.75 0.72 11.2 2.42 16.8 4.02 11.9 3.31 23.7 5.58 35.9 7.32 2.13 0.36 2.13 0.36 5.13 1.36 2.73 0.38 5.45 0.71 8.19 1 0.71 0.09 1.42 0.17 2.15 0.26 14.1 1.55 28.2 1.95 42.4 1.93h2.53c12.7-0.03 25.2-0.33 37.8-2.19 1.14-0.16 2.28-0.33 3.45-0.5 21.3-3.19 41.6-7.73 62-14.5 0.64-0.2 1.27-0.41 1.92-0.63 8.36-2.78 16.5-5.89 24.6-9.37 1.78-0.73 3.56-1.47 5.35-2.21 8.65-3.61 17-7.23 25-12.2 2.79-1.72 5.63-3.27 8.52-4.81 3.86-2.09 7.49-4.34 11.1-6.82 1.05-0.57 2.11-1.15 3.19-1.74 6.22-3.49 12-7.91 17.5-12.4 2.35-1.82 2.35-1.82 5.35-2.82 0.66-0.99 1.32-1.97 2-3 1.34-0.66 2.67-1.33 4-2 1.9-1.78 3.67-3.64 5.44-5.56 2-1.84 4.22-3.04 6.56-4.44 1.73-1.14 3.46-2.29 5.19-3.43 12.5-7.96 27.2-11.8 42-11.7z" fill="#083A24"/>
<path transform="translate(819,1079)" d="m0 0c2.25 0.27 4.5 0.51 6.75 0.72 0.65 0.06 1.31 0.12 1.98 0.19 2.09 0.2 4.18 0.4 6.27 0.59l8.25 0.78c1.22 0.12 2.44 0.23 3.7 0.35 3.05 0.37 3.05 0.37 6.05 1.37 1.3 0.12 2.6 0.25 3.94 0.38 4.83 0.49 9.38 1.63 14.1 2.86 2.78 0.71 5.56 1.29 8.38 1.82 3.67 0.71 7.07 1.76 10.6 2.94 1.64 0.35 3.29 0.68 4.94 1 5.56 1.07 10.9 2.59 16.2 4.44 3.35 1.14 6.69 2.01 10.2 2.79 6.92 1.72 13.5 4.18 20.1 6.79 1.99 0.79 3.99 1.56 5.98 2.33 7.35 2.86 14.5 5.93 21.7 9.28 2.55 1.2 5.11 2.36 7.69 3.5 0.71 0.32 1.41 0.63 2.15 0.95 0.68 0.31 1.36 0.61 2.07 0.92 14 6.22 27.2 13.6 40.4 21.4 3.35 1.98 6.74 3.86 10.1 5.75 7.83 4.46 15.2 9.61 22.5 14.8 1.22 0.86 2.45 1.72 3.67 2.57 4.72 3.34 9.42 6.68 14 10.3 0.59 0.46 1.18 0.93 1.78 1.41 1.12 0.89 2.23 1.78 3.34 2.69 3.14 2.51 4.06 3.05 8.26 3.05l8-16 2 2 2-1 1 7h2v5l-2 1c0.49 0.41 0.99 0.83 1.5 1.25 1.5 1.75 1.5 1.75 1.5 5.75l-4 1 1 4c-5.75 1-5.75 1-8 1v2c-2.97 0.99-5.94 1.98-9 3v-2l-2-1 2-1v-2h-4l-1-4c-0.91 0.06-1.82 0.12-2.75 0.19-3.54-0.21-4.7-0.84-7.25-3.19l-1 2-1-7c-0.63-0.03-1.25-0.05-1.9-0.08-1.22-0.08-1.22-0.08-2.48-0.17-0.81-0.05-1.62-0.09-2.46-0.14-2.16-0.61-2.16-0.61-3.32-2.61-0.41-0.99-0.41-0.99-0.84-2-2.05-0.81-2.05-0.81-4-1v-2l-5-1v-3h2l-1-3c-0.99-0.33-1.98-0.66-3-1l-1 2-2-2c-2.02 0.6-4.02 1.27-6 2l-1 2c-2-2-2-2-3-4l2-2-2-2h-2l1 3h-3c-0.35-0.95-0.7-1.9-1.06-2.88-1.71-3.46-1.71-3.46-5.63-4.5-1.09-0.2-2.18-0.41-3.31-0.62v-4l-5-1v2c-2.5-0.83-4.67-1.79-7-3v-2c-0.99-0.33-1.98-0.66-3-1-0.12-0.8-0.25-1.61-0.38-2.44-0.2-0.84-0.41-1.69-0.62-2.56l-2-1-2 1c-1.54 0.07-3.08 0.08-4.62 0.06-0.82-0.01-1.64-0.02-2.48-0.02-0.63-0.02-1.25-0.03-1.9-0.04-1.26-2.91-2-4.8-2-8-2.85-0.95-5.21-1.29-8.19-1.56-0.9-0.09-1.8-0.17-2.73-0.26-1.03-0.09-1.03-0.09-2.08-0.18v-2h2v-2l-4 1-1-3c-1.24-0.14-2.48-0.29-3.75-0.44-2.82-0.35-5.52-0.76-8.25-1.56l-1-4v2c-0.99-0.33-1.98-0.66-3-1v-2c-3.58-1-3.58-1-7 0v-2c-0.96 0.02-1.93 0.05-2.92 0.07-1.27 0.02-2.53 0.04-3.83 0.05-1.25 0.03-2.51 0.05-3.8 0.08-3.18-0.18-4.82-0.51-7.45-2.2l2-2c-0.32-2.6-0.32-2.6-1-5h-6v3c-0.56-0.14-1.11-0.29-1.69-0.44-1.14-0.28-1.14-0.28-2.31-0.56-0.74-0.21-1.49-0.41-2.25-0.62-3.76-0.52-7 0.05-10.8 0.62v-2h-2v-4l2-1v-2c-0.99 0.33-1.98 0.66-3 1-2.34-0.04-4.67-0.15-7-0.31-1.24-0.08-2.48-0.16-3.75-0.24-3.25-0.45-3.25-0.45-6.25-2.45-1.99-0.24-1.99-0.24-4.06-0.12-1.98 0.06-3.96 0.12-5.94 0.12l-2 1-1-5c-1.44-0.2-2.87-0.38-4.31-0.56-0.8-0.11-1.6-0.21-2.43-0.32-2.43-0.27-2.43-0.27-5.26 0.88-2.57 0.07-5.12 0.09-7.69 0.06-0.7 0-1.4-0.01-2.12-0.01-1.73-0.01-3.46-0.03-5.19-0.05v-2c-0.94 0.05-0.94 0.05-1.91 0.11-6.19 0.19-10.4-0.71-16.1-3.11-2.87-0.12-2.87-0.12-5.06 0.5-4.31 0.73-8.58 0.57-12.9 0.5-2.6 0-5.05 0.17-7.62 0.44-0.89 0.09-1.77 0.18-2.67 0.27-1.76 0.19-3.51 0.39-5.26 0.61-0.79 0.1-1.58 0.2-2.39 0.3-1.06 0.15-1.06 0.15-2.15 0.29-1.91 0.09-1.91 0.09-4.91-0.91-0.72-0.24-1.45-0.47-2.19-0.72-0.78-0.26-1.57-0.51-2.37-0.78-0.79-0.26-1.57-0.52-2.38-0.78-2.06-0.72-2.06-0.72-4.06-1.72l-1 2c-2 0.33-4 0.67-6 1l-1 2c-1.13-0.08-2.26-0.17-3.43-0.25-1.48-0.11-2.96-0.21-4.45-0.31-0.74-0.06-1.49-0.11-2.26-0.17-4.05-0.4-4.05-0.4-7.86 0.73-0.5-1.48-0.5-1.48-1-3-3.76-1.81-8.04-0.59-12 0-0.5 1.48-0.5 1.48-1 3-1.07-0.21-2.14-0.41-3.25-0.62-3.56-0.7-3.56-0.7-5.75 0.62-3.18 1.59-5.64 0.8-9 0-1.94-1.56-1.94-1.56-3-3-0.5 0.49-0.5 0.49-1 1-5.02 0.23-9.26-0.42-14-2l-1 1c-3 1-3 1-6 0v2c-3.43 0.3-4.96 0.02-8.06-1.62-2.76-1.7-2.76-1.7-5-0.69-0.96 0.65-0.96 0.65-1.94 1.31-3.43 1.55-5.12 2-9 2 0.99 1.32 1.98 2.64 3 4-1.05-0.04-2.1-0.08-3.19-0.12-3.55 0.11-5.66 0.59-8.81 2.12v-2h-3l-1 2c-4 0-4 0-7-2-2.33-0.08-4.67-0.09-7 0l-1-2h-7v-2c14.6-4.18 29.3-8.25 44.3-10.6 2.48-0.4 4.91-0.9 7.36-1.43 6.63-1.36 13.4-2 20.1-2.75 4.76-0.54 9.5-1.17 14.2-1.79 10-1.21 20.1-1.73 30.2-2.02 0.7-0.02 1.4-0.04 2.12-0.06 57.8-1.67 57.8-1.67 70.7 2.62z" fill="#083A24"/>
<path transform="translate(1102 564)" d="m0 0c1.24 1.5 1.24 1.5 1.24 3.5 1.12 0.41 2.23 0.83 3.38 1.25 3.3 1.39 4.19 2.45 5.62 5.75 1.98 0.66 1.98 0.66 4 1l2 2c0.58 0.1 1.16 0.21 1.75 0.31 4.32 1.32 7.43 4.55 10 8.13 2.31 2.62 4.17 3.75 7.19 5.44 4.83 2.73 7.22 5.39 10.1 10.1l-1 2 3 3c-1.77 0.08-3.54 0.14-5.31 0.19-0.99 0.03-1.97 0.07-2.99 0.1-2.7-0.29-2.7-0.29-4.53-1.59-1.17-1.7-1.17-1.7-1.54-5.08-0.77-4.42-2.23-5.8-5.63-8.62l-2-1-1 3c2.97 0.5 2.97 0.5 6 1l-4 4-2-1 1-1c-2.97 0.5-2.97 0.5-6 1v-3c-0.95-0.29-1.9-0.58-2.87-0.88-3.13-1.12-3.13-1.12-5.13-3.12-3.48-3.27-3.48-3.27-8-4l-1-2h2v-2c-0.99-0.33-1.98-0.66-3-1l-1-3h4l1-1c-0.88-0.14-1.77-0.29-2.69-0.44-2.03-0.34-4.05-0.73-6.06-1.18-2.28-0.61-2.28-0.61-4.25 0.62l-1-2h-5v-3h-2v-2h-6v-2c-1.17 0.03-1.17 0.03-2.37 0.06-2.63-0.06-2.63-0.06-4.63-1.06-0.99 0.33-1.98 0.66-3 1-2.69-0.44-2.69-0.44-5-1l-1 2c-0.99-0.33-1.98-0.66-3-1-3.07-0.96-3.8-1.07-7 0v-2c-2.31 0.33-4.62 0.66-7 1v2c-4.16 0.08-8.14 0.15-12.2-0.56-2.65-0.6-2.65-0.6-4.87 0.03-3.91 0.72-7.72 0.64-11.7 0.59-1.18 0-1.18 0-2.39-0.01-1.93-0.01-3.86-0.03-5.8-0.05v-3l-2-1-1-2c-2.12-0.47-2.12-0.47-4.56-0.62-0.83-0.08-1.65-0.15-2.5-0.23-0.64-0.05-1.28-0.1-1.94-0.15l-2 6-5-1v2h-2l-1 2c-6 4-6 4-10 4v-3h-5v3h-2v3c-3.15 0.94-5.96 1.11-9.25 1.06-0.89-0.01-1.78-0.02-2.7-0.02-0.68-0.02-1.35-0.03-2.05-0.04-0.99 2.31-1.98 4.62-3 7l2 2c-1.82 0.19-1.82 0.19-3.69 0.38-3.39 0.41-6.17 1.22-9.31 2.62-1.32 0.36-2.66 0.7-4 1v2h-8v4c-1.63 1.38-3.3 2.71-5 4-1.1 2.79-1.1 2.79-1 5h-5l-1-3v6h-4c-0.49 0.99-0.49 0.99-1 2-1.98-0.66-3.96-1.32-6-2-0.25 0.58-0.49 1.15-0.75 1.75-1.43 2.58-3.03 4.31-5.25 6.25h-2v2h-2l-1 4h-2c0.99 3.47 0.99 3.47 2 7-1.17 0.09-1.17 0.09-2.37 0.19-1.3 0.4-1.3 0.4-2.63 0.81-0.29 0.8-0.58 1.61-0.87 2.44-1.13 2.56-1.13 2.56-4.63 3.94-3.5 0.62-3.5 0.62-5.5-0.38l-1 5c-1.94-0.56-1.94-0.56-4-2-1.12-3.06-1.12-3.06-1-7 1.62-3.29 3.79-6.09 6-9 1.26-1.79 2.51-3.58 3.75-5.38 0.57-0.81 1.15-1.62 1.74-2.46 1.19-1.7 2.36-3.43 3.51-5.16h2c0.34-1.08 0.34-1.08 0.69-2.19 1.57-3.36 3.61-5.37 6.31-7.81 0.77-0.72 1.55-1.44 2.34-2.18 7.43-6.82 7.43-6.82 11-9.07 2.77-1.66 2.77-1.66 4.94-4.06 6.89-6.73 16.3-13.4 25.8-15.8 0.99-0.29 1.98-0.58 3-0.88 0.5-1.49 0.5-1.49 1-3 2.63-1.25 2.63-1.25 6-2.44 4-1.45 7.94-2.92 11.8-4.68 7.19-3.23 13.6-5.28 21.5-6.35 2.66-0.37 2.66-0.37 4.56-1.52 2.63-1.22 4.78-1.42 7.66-1.64 1.09-0.09 2.18-0.17 3.3-0.26 1.16-0.08 2.32-0.15 3.52-0.23 1.81-0.13 1.81-0.13 3.66-0.26 26.6-1.72 70.7-3.98 92.8 14.9z" fill="#083A24"/>
<path transform="translate(667 585)" d="m0 0c1.23-0.01 2.46-0.03 3.73-0.04 8.06-0.01 15.7 0.77 23.6 2.23v2c1.17 0.08 2.35 0.16 3.56 0.25 4.63 0.57 7.61 2.09 11.4 4.75 1 3 1 3 1 5 0.99 0.33 1.98 0.66 3 1 3.14 3.32 4 4.29 4 9h2v2c0.99 0.33 1.98 0.66 3 1 2.28 3.24 2.17 6.12 2 10-1.15-0.79-2.3-1.58-3.44-2.38-0.64-0.44-1.28-0.88-1.94-1.33-1.62-1.29-1.62-1.29-2.62-3.29-3.03-0.66-3.03-0.66-6-1v-2c-0.91-0.04-1.82-0.08-2.76-0.13-3.24-0.87-3.24-0.87-5.62-3.81-1.62-3.06-1.62-3.06-1.62-5.06-6.13-1.3-11.5-2.22-17.8-1.26-3.54 0.4-7.07 0.28-10.6 0.19-2.65 0.07-5.02 0.54-7.61 1.07-1.34-0.32-2.68-0.65-4-1-1 0.33-1.99 0.66-3 1-2.4 0.07-4.8 0.08-7.19 0.06-1.27-0.01-2.55-0.02-3.86-0.03-1.46-0.01-1.46-0.01-2.95-0.03v2c-2.51-0.84-4.67-1.8-7-3-0.34 0.99-0.66 1.98-1 3-4.02 0.84-7.02 1.05-11 0v-2c-6.06-1.07-6.06-1.07-12 0-0.75 0.74-0.75 0.74-1.5 1.5-2.16 2.16-3.45 2.43-6.5 2.5-2.53-1.13-4.67-2.49-7-4-0.34 0.99-0.66 1.98-1 3h-9c-0.34 0.66-0.66 1.32-1 2v-2h-2v-2c-3.94 0.57-3.94 0.57-7 3-0.65 2.07-0.65 2.07-1 4-2.61 0.33-5.21 0.67-7.82 1-0.74 0.09-1.47 0.19-2.23 0.29-3.01 0.38-5.92 0.71-8.95 0.71-1.12 0.35-2.23 0.7-3.38 1.06-3.6 0.93-5.13 0.74-8.62-0.06l-2 2c-2.47 0.41-2.47 0.41-5.38 0.62-0.96 0.08-1.91 0.15-2.9 0.23-2.24 0.12-4.48 0.15-6.72 0.15-1.92 0.15-3.84 0.32-5.76 0.5-0.98 0.09-1.96 0.18-2.98 0.28-1.12 0.11-1.12 0.11-2.26 0.22-0.34-0.99-0.66-1.98-1-3-3-1.34-3-1.34-6 0h-4c-2.02 0.62-4.02 1.28-6 2v-2c-1 0.33-1.99 0.66-3 1v3 3h-2v2c-6.76 3-6.76 3-9 3-0.67 0.99-1.32 1.98-2 3l-4-1c-0.33 1.32-0.67 2.64-1 4h-2v2c-1.3 0.5-2.59 1-3.88 1.5-0.72 0.28-1.44 0.55-2.18 0.84-1.94 0.66-1.94 0.66-3.94 0.66 0.02 0.88 0.04 1.77 0.06 2.69-0.06 2.93-0.4 5.46-1.06 8.31h-2c-1-3.47-1-3.47-2-7-0.67 0.99-1.32 1.98-2 3-0.04-0.7-0.08-1.4-0.12-2.12-0.06-0.91-0.13-1.82-0.2-2.76-0.06-0.9-0.11-1.81-0.17-2.74-0.3-2.74-0.3-2.74-3.51-4.38 0.74-8.1 6.22-12.6 12-17.8 8.11-6.42 17-8.87 27-11.2 1.23-0.35 2.47-0.7 3.74-1.07 5.29-1.33 10.8-1.77 16.2-2.37 2.77-0.34 5.45-0.84 8.17-1.48 6.52-1.5 13.1-2.43 19.7-3.39 0.72-0.11 1.44-0.22 2.18-0.33 13.2-1.93 26.5-3.54 39.8-5.05 0.9-0.1 1.8-0.2 2.73-0.31 10-1.14 20.1-2.18 30.2-3.11 0.87-0.08 1.75-0.16 2.65-0.24 15.4-1.39 30.9-1.75 46.3-1.84z" fill="#083A24"/>
<path transform="translate(1377,940)" d="m0 0c2.19 1.88 2.19 1.88 4 4 0 3 0 3-1.5 4.69-3.62 1.9-6.44 1.51-10.5 1.31-0.15 0.96-0.15 0.96-0.31 1.94-0.23 0.68-0.46 1.36-0.69 2.06-0.99 0.33-1.98 0.66-3 1v3c-3.78 1.84-5.95 2.16-10 1l-1 2c-2.39 0.61-4.54 1-7 1v2c-1.98 0.5-1.98 0.5-4 1v3c-1.22 0.29-2.43 0.58-3.69 0.88-2.49 0.61-4.73 1.29-7.12 2.24-2.5 1.01-4.53 0.88-7.19 0.88l1 4c-2.37 0.7-4.07 0.99-6.56 0.81-2.61-0.08-2.61-0.08-4.25 2.19-0.39 0.66-0.79 1.32-1.19 2l-4-1c-0.45 0.83-0.91 1.65-1.38 2.5-0.53 0.83-1.07 1.65-1.62 2.5h-2v2c-8.57 1.29-8.57 1.29-12 0 0.03 1.42 0.03 1.42 0.06 2.88-0.06 3.12-0.06 3.12-1.06 5.12h-3l-1 2v-2h-2v2c-0.55 0.1-1.09 0.2-1.65 0.3-5.7 1.13-11.4 2.48-16.4 5.7-1.21 2.61-1.21 2.61-1 5-0.78 0.12-1.57 0.25-2.38 0.38-2.76 0.41-2.76 0.41-4.62 2.62-4 0-4 0-7-1-0.23 0.95-0.45 1.9-0.69 2.88-1.31 3.12-1.31 3.12-3.87 4.24-0.81 0.29-1.61 0.58-2.44 0.88-0.89 2.04-0.89 2.04-1 4-3.2 0-5.09-0.74-8-2l-1 2h-3l-2 5h-4v6c-0.56 0.23-1.11 0.45-1.69 0.69-2.94 1.67-4.99 3.86-7.31 6.31l-1-2-2 3h-2v8h-2c-0.49 1.98-0.49 1.98-1 4h-3l-1.94 1.94c-2.16 2.16-3.1 2.68-6.06 3.06h-3l-1 2h-4c-0.29 0.8-0.58 1.61-0.88 2.44-1.12 2.56-1.12 2.56-3.12 3.56l-2 2c-0.99 0.33-1.98 0.66-3 1-0.81 2.11-0.81 2.11-1.19 4.56-0.24 1.24-0.24 1.24-0.48 2.51-0.11 0.63-0.22 1.27-0.33 1.93-2.97-0.99-2.97-0.99-6-2 0.01 0.63 0.02 1.25 0.04 1.9 0 0.82 0.01 1.63 0.02 2.48 0.01 0.81 0.03 1.62 0.04 2.46-0.1 2.16-0.1 2.16-1.1 4.16h-2l-2 4h-3l-3 3h-3c-1.67 0.31-3.34 0.64-5 1-0.14 1.13-0.29 2.27-0.44 3.44-0.56 3.56-0.56 3.56-1.56 4.56-1.67 0.04-3.33 0.04-5 0-0.06 0.62-0.12 1.24-0.19 1.88-0.81 2.12-0.81 2.12-3.12 3.37-2.69 0.75-2.69 0.75-6.69 0.75-0.47 0.49-0.95 0.99-1.44 1.5-1.56 1.5-1.56 1.5-4.25 1.69-0.76-0.06-1.52-0.13-2.31-0.19 1.63-9.89 13-21.1 20-28 1.14-1.26 2.26-2.53 3.38-3.81 0.61-0.71 1.22-1.41 1.85-2.14 1.49-1.73 2.95-3.47 4.39-5.24 2.34-2.77 4.71-5.36 7.38-7.81h2c0.23-0.72 0.45-1.44 0.69-2.19 1.57-3.37 3.52-5.37 6.31-7.81h2v-2c5.48-5 5.48-5 8-5 0.23-0.56 0.45-1.11 0.69-1.69 2.27-3.99 4.93-6.85 9.31-8.31l2.44-2.44c2.26-2.26 3.79-3.18 6.56-4.56 0.49-1.48 0.49-1.48 1-3 1.32-0.7 2.65-1.37 4-2 1.54-1.37 1.54-1.37 3-3 3.66-3.89 3.66-3.89 7-5 1.02-0.98 2.01-1.99 3-3 1.5-1.11 3.02-2.19 4.56-3.25 0.88-0.61 1.76-1.21 2.66-1.84 1.38-0.94 1.38-0.94 2.78-1.91 2.66-1.87 5.31-3.74 7.97-5.62 2.03-1.38 2.03-1.38 4.03-2.38 0.74-0.6 1.48-1.2 2.25-1.82 2.83-2.24 5.72-4.12 8.8-6.01 0.57-0.35 1.14-0.7 1.73-1.06 1.84-1.12 3.69-2.24 5.53-3.36 0.63-0.38 1.26-0.76 1.9-1.15 8.38-5.09 16.8-9.91 25.7-14.1 3.23-1.61 6.1-3.53 9.1-5.54 2.42-1.12 2.42-1.12 4.75-2 0.86-0.33 1.72-0.66 2.61-1 0.87-0.33 1.74-0.66 2.64-1 1.69-0.66 3.38-1.33 5.06-2 0.74-0.29 1.47-0.58 2.23-0.88 3.13-1.29 6.22-2.67 9.32-4.05 12.3-5.47 24.5-10.3 37.4-14.1 1.03-0.33 2.05-0.66 3.11-1 1.34-0.44 1.34-0.44 2.7-0.88 0.75-0.24 1.5-0.48 2.27-0.74 1.92-0.38 1.92-0.38 4.92 0.62z" fill="#083A24"/>
<path transform="translate(356,333)" d="m0 0 1 2h4l1-2c1.19 2.19 1.19 2.19 2 5-1.31 2.56-1.31 2.56-3 5-0.16 0.7-0.33 1.4-0.5 2.12-0.5 1.88-0.5 1.88-1.96 3.05-2.32 2.76-2.31 5.48-2.73 9.02-0.16 1.27-0.31 2.54-0.48 3.85-0.11 0.98-0.22 1.95-0.33 2.96l-4-1v-2c-4.22 2.8-7.91 5.25-10.3 9.81-1.69 3.19-1.69 3.19-4.69 4.19l-1 2h-2v2h-2c-0.12 0.95-0.25 1.9-0.38 2.88-0.62 3.12-0.62 3.12-2.62 5.12v-3l-3 2v4h-2l-1 3-3 2v-2l-3 3 1 2h-2l-1 3c-0.74-0.08-1.49-0.17-2.25-0.25-2.9-0.04-2.9-0.04-4.69 2.31-0.68 0.64-1.36 1.28-2.06 1.94-3.25-0.25-3.25-0.25-6-1v2h-2v5h-4v3h-2c-0.21 0.62-0.41 1.24-0.62 1.88-1.94 2.99-4 3.28-7.38 4.12h-2v2h-2c-0.29 0.64-0.58 1.28-0.88 1.94-1.12 2.06-1.12 2.06-3.12 3.06-2 0.04-4 0.04-6 0-0.5 1.98-0.5 1.98-1 4-6.75 2-6.75 2-9 2v2c-0.78 0.1-1.57 0.21-2.38 0.31-2.95 0.47-2.95 0.47-4.62 3.69-1.88 0.66-1.88 0.66-4.12 1.06-0.8 0.16-1.6 0.32-2.42 0.48-0.81 0.15-1.62 0.3-2.46 0.46-2.75 0.54-5.31 1.18-8 2-0.5 1.49-0.5 1.49-1 3h-2v-2c-3.12 0.65-3.12 0.65-4 3-3.82 0.78-6.27 1.24-10 0l1 6c-7.84 1.71-13.3 2.33-21 0v-2c-0.74 0.5-0.74 0.5-1.5 1-3.59 1.44-6.64 1.13-10.5 1l-1-2c2.97-0.99 5.94-1.98 9-3l-4-1c2.95-2.44 5.58-3.72 9.22-4.87 1.01-0.32 2.02-0.65 3.06-0.99 1.06-0.33 2.12-0.67 3.22-1.02 7.61-2.46 15-4.96 22.3-8.31 2.17-0.81 2.17-0.81 6.17-0.81v-2c0.52-0.22 1.03-0.44 1.57-0.67 12.4-5.31 24-11.3 35.4-18.3l2-1c2.63-1.76 5.22-3.55 7.81-5.38 1.73-1.2 3.46-2.41 5.19-3.62 0.63-0.44 1.27-0.89 1.92-1.35 3.85-2.65 3.85-2.65 6.08-2.65v-2c0.96-0.15 0.96-0.15 1.94-0.31 0.68-0.23 1.36-0.46 2.06-0.69l1-3c1.33-0.67 2.67-1.33 4-2 1.69-1.64 3.35-3.31 5-5 4.65-4 4.65-4 7-4 0.26-0.6 0.52-1.2 0.79-1.82 1.28-2.31 2.47-3.48 4.52-5.12 2.3-1.88 4.45-3.78 6.5-5.94 2.19-2.12 2.19-2.12 4.19-2.12 0.15-0.96 0.15-0.96 0.31-1.94 0.34-1.02 0.34-1.02 0.69-2.06 0.99-0.33 1.98-0.66 3-1 0.68-1.32 1.35-2.66 2-4l3-2c0.68-1.03 1.36-2.06 2.06-3.12 0.96-1.43 0.96-1.43 1.94-2.88h2l0.94-1.88c0.68-1.37 1.37-2.74 2.06-4.12h2l1-4h2l2-4z" fill="#083A24"/>
<path transform="translate(1271,360)" d="m0 0c1.51 0.95 3 1.91 4.5 2.88 1.25 0.8 1.25 0.8 2.53 1.61 0.65 0.5 1.3 1 1.97 1.51v2c1.37 1.54 1.37 1.54 3 3l2 2 3 2-1 2h5c0.23 0.62 0.45 1.24 0.69 1.88 1.69 2.74 3.36 2.99 6.31 4.12l1 3c0.99 0.33 1.98 0.66 3 1 0.68 1.66 1.35 3.33 2 5l3 2 2-1c3 2 3 2 4 5l5 1v3c0.99 0.33 1.98 0.66 3 1-0.49 0.99-0.49 0.99-1 2l8 1v2c0.7 0.21 1.4 0.41 2.12 0.62 2.71 1.3 3.78 2.18 5.76 4.32 3.09 3.27 5.91 4.5 10.1 6.06 1.33 0.67 2.67 1.33 4 2 1.48 0.5 1.48 0.5 3 1v3c0.7 0.06 1.4 0.12 2.12 0.18 1.36 0.13 1.36 0.13 2.76 0.26 1.35 0.12 1.35 0.12 2.74 0.24 2.38 0.32 2.38 0.32 4.38 1.32v2c2.31 0.33 4.62 0.66 7 1l1-2c0.65 0.26 1.3 0.51 1.97 0.78 2.99 1.18 5.98 2.36 8.97 3.53 1.02 0.41 2.04 0.81 3.09 1.23 8.05 3.16 16.1 5.93 24.4 8.46 1.51 0.46 1.51 0.46 3.06 0.94 1.15 0.35 2.31 0.7 3.5 1.06 0.73 0.23 1.47 0.47 2.23 0.71 24.3 7.55 49.8 10.3 75.1 11 25 0.68 25 0.68 36.7 6.34 1.15 0.45 2.31 0.91 3.5 1.38 3.23 2.1 3.68 3.93 4.5 7.62l2-1v2c0.72 0.04 1.44 0.08 2.19 0.12 4.09 1.28 5.33 3.41 7.81 6.88v2c0.99 0.33 1.98 0.66 3 1v2h2v5h3v2h-4l-1-4-5 2-1-4h-2l1-3-2-1v-2h-8l-1 4h-4l-2-5h-5l-1-7c-1.79 0.31-1.79 0.31-3.62 0.62-3.94 0.52-6.69-0.05-10.4-1.62v-3c-2.31-0.33-4.62-0.66-7-1l-2 9c-4.57-0.55-8.67-1.42-13-3v-2l-4-1v-4h-4l1 2-1 2c-2.27-1.02-3.77-1.7-5.31-3.69-1.8-1.71-1.8-1.71-5.19-0.93-1.73 0.3-1.73 0.3-3.5 0.62-0.99-0.33-1.98-0.66-3-1-4.9-1.37-8.89-2.12-14-2-2.68-0.43-4.68-1.31-7.19-2.44-3.57-1.6-7.14-2.35-11-3.03-0.6-0.18-1.2-0.35-1.82-0.53l-1-2c-1.18 0.23-2.35 0.45-3.56 0.69-6.8 0.76-14-0.48-20.4-2.69-0.68-1.33-1.35-2.66-2-4-2.93-0.89-2.93-0.89-6.31-1.19-1.13-0.14-2.26-0.27-3.43-0.42-1.07-0.13-2.15-0.26-3.26-0.39-0.92-0.2-1.84-0.4-2.79-0.61-2.24-0.62-2.24-0.62-4.21 0.61 0.49-1.98 0.49-1.98 1-4-3.85-1.81-6.65-2.15-10.9-1.94-5.25 0.11-8.53-0.56-13.1-3.06v-2l-2-1c1.18 0.28 1.18 0.28 2.38 0.56 2.59 0.7 2.59 0.7 4.62-0.56-3.47-0.75-3.47-0.75-7-1l-2-2c-1.67 0.29-3.34 0.63-5 1l-2-1v-2c-0.78-0.08-1.57-0.17-2.38-0.25-0.86-0.25-1.73-0.5-2.62-0.75-0.31-0.64-0.62-1.28-0.94-1.94-0.95-2.4-0.95-2.4-4.06-3.25-0.99-0.27-1.98-0.53-3-0.81l-2-1c0.49-0.99 0.49-0.99 1-2h-2v-2l-5-1v-2h-2c-3-4.38-3-4.38-3-7-1.08-0.15-1.08-0.15-2.19-0.31-3.71-0.91-6.59-2.41-9.25-5.19-1.64-1.74-1.64-1.74-4.62-2.94-3.21-1.7-3.52-2.41-4.94-5.56-2.03-1.27-2.03-1.27-4-2v-2l-5-1-1-3h-2l-1-3c-0.83-0.5-1.65-0.99-2.5-1.5-2.5-1.5-2.5-1.5-3.5-4.5-3.3-2.09-3.3-2.09-7-3-0.25-0.91-0.49-1.81-0.75-2.75-1.3-3.39-2.69-4.78-5.25-7.25v-3z" fill="#083A24"/>
<path transform="translate(1066,836)" d="m0 0c0.99 0.5 0.99 0.5 2 1 0.68 0.12 1.36 0.25 2.06 0.38 0.64 0.2 1.28 0.41 1.94 0.62l1 3c0.99 0.33 1.98 0.66 3 1l-2 3c-0.37 3.63 0.15 5.87 2 9h-3l-1 2-3 2 1 2c-1.38 3.15-2.56 5.56-5 8-0.99 0.33-1.98 0.66-3 1-1.67 1.5-1.67 1.5-3 3l-1-2h-6c0.06 1.26 0.12 2.52 0.19 3.81 0 3.9 0 3.9-1.5 6.19-1.69 1-1.69 1-4.69 1v5c-3.84 1.48-6.06 2.22-10 1-1.48 0.5-1.48 0.5-3 1l-1 3c-0.72 0.06-1.44 0.12-2.19 0.19-3.71 1.07-5.24 2.97-7.81 5.81l-4 4-5-2v2l2 1c-1 2-1 2-3 2.85-0.8 0.26-1.61 0.51-2.44 0.77-1.2 0.4-1.2 0.4-2.43 0.79-2.13 0.59-2.13 0.59-4.13 0.59v2l-4 1v2c-0.75 0.06-1.5 0.12-2.27 0.18-0.98 0.09-1.97 0.17-2.98 0.26-0.97 0.08-1.95 0.16-2.95 0.24-2.72 0.25-2.72 0.25-5 0.89-2.44 0.59-4.36-0.07-6.8-0.57-0.99 0.33-1.98 0.66-3 1v-2c-2.59 1.07-3.81 1.69-5.31 4.12-1.69 1.88-1.69 1.88-5.38 2.13-1.09-0.08-2.18-0.16-3.31-0.25-0.5-0.99-0.5-0.99-1-2-3.34-0.07-5.8-0.07-9 1v-3c-1.24 0.09-1.24 0.09-2.5 0.19-3.68-0.2-6.11-1.08-9.46-2.46-3-1.08-5.88-1.4-9.04-1.73v-1h5l-2-3-2-5h11l-1-2c1.02 0.02 1.02 0.02 2.07 0.05 28.4 0.56 50.3-2.58 74.7-17.8 2.26-1.29 2.26-1.29 4.26-1.29v-2c2.03-1.52 4.07-2.93 6.19-4.31 4.43-2.9 8.05-5.92 11.8-9.69h2c0.49-1.49 0.49-1.49 1-3h2c0.23-0.72 0.45-1.44 0.69-2.19 1.58-3.39 3.61-5.23 6.31-7.81 1.24-1.49 1.24-1.49 2.5-3 2.37-2.84 4.89-5.39 7.5-8 1.03-1.31 2.04-2.64 3-4z" fill="#083A24"/>
<path transform="translate(627,1097)" d="m0 0v2c1.24-0.04 2.48-0.08 3.75-0.12 3.27-0.02 5.46 0.26 8.25 2.12-1.98 0.66-3.96 1.32-6 2v3c-0.99-0.33-1.98-0.66-3-1-0.45 0.49-0.91 0.99-1.38 1.5-1.62 1.5-1.62 1.5-3.62 1.5v2c-0.57 0.11-1.13 0.22-1.71 0.33-0.74 0.16-1.47 0.32-2.23 0.48-0.73 0.15-1.46 0.3-2.21 0.46-0.92 0.36-0.92 0.36-1.85 0.73l-1 3c-1.44 1.69-1.44 1.69-3 3h-2v2l-2-1c-0.6 0.31-1.2 0.62-1.81 0.94-2.66 1.29-4.26 1.35-7.19 1.06-2.81-1-2.81-1-5-2-0.19 1.21-0.19 1.21-0.38 2.44-0.2 0.84-0.41 1.69-0.62 2.56l-2 1v-2h-2l-2 5c-0.6 0.06-1.21 0.12-1.83 0.18-0.8 0.09-1.6 0.17-2.42 0.26-0.79 0.08-1.58 0.16-2.39 0.24-2.34 0.27-2.34 0.27-4.52 0.88-2.24 0.54-3.67 0.14-5.84-0.56v3h-2l2 4c-0.8 0.12-1.61 0.25-2.44 0.38-0.84 0.2-1.69 0.41-2.56 0.62-0.5 0.99-0.5 0.99-1 2-1.11-0.06-2.23-0.12-3.38-0.19-1.79 0.1-1.79 0.1-3.62 0.19l-2 3c-2.21 1.13-2.21 1.13-4.81 2.12-0.85 0.34-1.71 0.67-2.58 1.01-2.53 0.84-4.99 1.41-7.61 1.87l-1 4c-10.4 3-10.4 3-14 3l-1 1c-2.33 0.34-4.67 0.67-7 1-0.99 0.49-0.99 0.49-2 1-1.49 0.49-1.49 0.49-3 1l-1 2c-3.38-0.25-3.38-0.25-7-1-2.09-2.66-2.45-5.7-3-9h-3c-0.62-2.38-0.62-2.38-1-5l2-2c0.33 0.51 0.65 1.01 0.99 1.53 0.44 0.65 0.87 1.3 1.32 1.97 0.43 0.65 0.86 1.3 1.3 1.97 0.46 0.5 0.92 1.01 1.39 1.53h3c-0.5-1.48-0.5-1.48-1-3 1.13-0.37 2.27-0.74 3.44-1.12 3.18-1.2 5.79-2.61 8.56-4.57 5.83-4.03 12.1-7.02 18.5-10.1 2.75-1.33 5.5-2.69 8.25-4.04 14.2-6.94 28.6-13.3 43.2-19.2 0.77-0.31 1.53-0.61 2.32-0.93 7.52-2.98 15.1-5.61 22.9-7.95 1.06-0.32 1.06-0.32 2.14-0.65 3.65-1.06 6.87-1.72 10.7-1.47z" fill="#083A24"/>
<path transform="translate(229,942)" d="m0 0c4.72-0.25 8.79 0.53 13.3 1.66 2.79 0.49 2.79 0.49 6.03-0.25 4.37-0.49 6.7 0.37 10.8 2.03 1.42 0.56 2.83 1.13 4.24 1.69 0.75 0.31 1.5 0.61 2.27 0.93 2.46 0.98 4.93 1.9 7.41 2.81 11.2 4.11 21.9 8.76 32.6 14 2.37 1.15 4.76 2.26 7.16 3.36 10.1 4.65 19.8 9.78 29.2 15.6 1.86 1.14 3.73 2.27 5.61 3.39 17 10.3 17 10.3 19.3 16.8 2.67 2.78 5.31 4.77 9 6v3l5 1v2c0.74 0.08 1.49 0.16 2.25 0.25 3.31 0.9 4.43 2.29 6.75 4.75 0.72 0.35 1.44 0.7 2.19 1.06 1.81 0.94 1.81 0.94 2.81 3.94 0.58 0.14 1.17 0.29 1.77 0.43 3.09 0.79 4.66 2.48 6.98 4.63 1.2 1.1 1.2 1.1 2.42 2.23 0.61 0.56 1.21 1.13 1.83 1.71l-3 2h5v4h5l1 2-1 2 2 1c-1.88 1.06-1.88 1.06-4 2l-2-1v2h-4c-1-5.75-1-5.75-1-8l-4-1v-3l-5-1v-3l-5-1v-2h-5l-1-7h-3v-2c-2.97-0.5-2.97-0.5-6-1l-1-3c-3.29-0.8-4.71-1.1-8 0-0.43-0.5-0.87-0.99-1.31-1.5-1.69-1.83-1.69-1.83-4.69-1.5v-3h-3v-2c-2.97 0.5-2.97 0.5-6 1-3.15-3.42-3.56-6.44-4-11h-2v-2l-5 1c-1.46-2.65-2-3.89-2-7-1.62-0.36-3.25-0.71-4.88-1.06-0.9-0.2-1.8-0.4-2.74-0.6-2.39-0.57-2.39-0.57-4.38 0.66-0.08-0.78-0.17-1.57-0.25-2.38-0.48-2.77-0.48-2.77-2.81-3.93-0.64-0.23-1.28-0.46-1.94-0.69v-2c-0.56 0.35-1.11 0.7-1.69 1.06-3.58 1.46-6.07 0.42-9.56-0.94-1.75-1.12-1.75-1.12-2.75-4.12-3.51-1.23-3.51-1.23-7-2v-2l-7-2v-2c-6.02-1.47-10.9-2.33-17-1v-2c-0.93 0.06-1.86 0.12-2.81 0.19-3.19-0.19-3.19-0.19-5.07-1.63-1.12-1.56-1.12-1.56-1.12-2.56-6.23-1.98-12.5-3-19-4l1-4c-2.51-1.51-4.1-2.01-7.06-2.19-5.63-0.64-10.6-4.39-14.9-7.81v-2z" fill="#083A24"/>
<path transform="translate(165,452)" d="m0 0v2l-2 2-2 3c0.5 0.99 0.5 0.99 1 2-0.93 0.18-1.85 0.36-2.81 0.55-1.2 0.25-2.39 0.5-3.63 0.76-1.79 0.37-1.79 0.37-3.62 0.74-0.97 0.31-1.94 0.63-2.94 0.95l-1 3c-1.49 0.5-1.49 0.5-3 1l-2-1v2c-9.7 4.29-9.7 4.29-16 3-1.48 0.5-1.48 0.5-3 1-3.8 0-5.63-0.5-9-2l-2 4c-0.6-0.19-1.2-0.37-1.81-0.56-2.35-0.66-2.35-0.66-5.19 0.56l-1-1c-2.95-1.16-2.95-1.16-6-1l1-2h-2v-4h-3l-1 2c-1 1-1 1-2.85 1.1-2.05-0.03-4.1-0.07-6.15-0.1-0.83 3.33-1.28 5.75 0 9l2 1c-3.98 2.66-6.21 3-11 3-1.63 1.46-1.63 1.46-3 3l-4-4-2 2h-3v2c-0.64 0.25-1.28 0.5-1.94 0.75-2.22 1.05-2.22 1.05-2.75 3.19-0.1 0.68-0.2 1.36-0.31 2.06l-1 3h-4l-1 7c-3.63 0.99-7.26 1.98-11 3-0.5-1.49-0.5-1.49-1-3l1-2h-2l-1 2c0.38-2.94 0.38-2.94 1-6 0.99-0.5 0.99-0.5 2-1 1.08-1.95 1.98-3.96 2.9-5.99 1.15-2.1 2.37-3.38 4.1-5.01 0.92-1.12 1.84-2.24 2.75-3.38 2.6-3.07 5.33-5.27 8.66-7.5 1.76-1.17 1.76-1.17 3.65-3.18 8.29-8.29 20.3-10.9 31.5-12.8 1.12-0.19 1.12-0.19 2.25-0.38 4.44-0.65 8.72-0.85 13.2-0.8 7.36 0.07 14.6-0.51 21.9-1.18 2.23-0.21 4.47-0.4 6.71-0.59 6.91-0.61 13.7-1.3 20.4-2.96 1.89-0.28 1.89-0.28 4.89 0.72z" fill="#083A24"/>
<path transform="translate(486,41)" d="m0 0h16v2c1.05-0.19 2.1-0.37 3.19-0.56 3.38-0.39 5.57-0.32 8.81 0.56 0.5 1.48 0.5 1.48 1 3 1.96 1.17 1.96 1.17 4.31 2.06 2.96 1.22 5.84 2.48 8.69 3.94v2h4v4c0.66 0.04 1.32 0.08 2 0.12 8.69 2.54 15.2 10.6 20 17.9-2.99-1-4.7-1.62-6.69-4.12-3.68-2.99-7.74-2.19-12.3-1.88v-5c-0.83-0.12-1.66-0.24-2.52-0.37-1.09-0.16-2.17-0.33-3.29-0.51-1.08-0.16-2.16-0.32-3.27-0.49-2.92-0.63-2.92-0.63-5.92-2.63v-2c-2.87-1.6-5.24-2.35-8.5-2.69-1.13-0.13-1.13-0.13-2.28-0.26-2.3-0.05-4.01 0.38-6.22 0.95-1.75 0.07-3.5 0.09-5.25 0.06-0.89-0.01-1.78-0.02-2.7-0.02-0.68-0.02-1.35-0.03-2.05-0.04v2c-2.32 0.69-3.95 1.01-6.38 0.75-3.35 0.32-4.47 1.91-6.86 4.14-3.29 2.08-7.02 1.48-10.8 1.11v2h-2v2c-3-1-3-1-5-2l-4 5c-0.72-0.27-1.44-0.54-2.19-0.81-3.05-0.53-3.05-0.53-5.62 2.12-2.4 2.37-2.4 2.37-2.19 4.69-0.8 0.25-1.61 0.5-2.44 0.75-2.73 0.97-2.73 0.97-3.37 3.37-0.06 0.62-0.13 1.24-0.19 1.88h-4l-2 6c-2.48 0.5-2.48 0.5-5 1v-2h-3c0.51-2.17 1-4 2-6h3l-1-4h2l-2-2c0-4.93 1.81-7.63 5.03-11.1 13.9-13.5 29.5-22.3 49-23.9v-1z" fill="#083A24"/>
<path transform="translate(494,916)" d="m0 0v2h2v-2h4v3c0.99 0.33 1.98 0.66 3 1-0.45 0.43-0.91 0.87-1.38 1.31-1.82 1.8-1.82 1.8-3.62 4.69h-7c-5.7 1.31-11.4 2.89-16 6.62-3.42 2.35-7.94 1.38-12 1.38v2.31 7.69c-3.73 0.57-7.21 1-11 1l-2 2c-2.5-0.38-2.5-0.38-5-1h-2l-1 2c-1.18-0.25-1.18-0.25-2.38-0.5-2.5-0.56-2.5-0.56-4.62-0.5l-1 6h-5c0.04 0.72 0.08 1.44 0.12 2.19-0.13 3.02-0.87 5.08-2.12 7.81h-6v2c-1.13 0.43-2.27 0.87-3.44 1.31-2.01 0.99-2.01 0.99-3.56 2.69-0.93 3.67-1.05 7.22-1 11h3v-4c0.99 0.33 1.98 0.66 3 1-0.51 2.17-1 4-2 6-2.06 0.62-2.06 0.62-4 1-0.18-0.57-0.36-1.13-0.55-1.71-0.25-0.74-0.5-1.47-0.76-2.23-0.25-0.73-0.49-1.46-0.74-2.21-0.86-2.21-0.86-2.21-3.95-2.85v-3c0.99-0.5 0.99-0.5 2-1 0.73-2.94 0.73-2.94 1.19-6.38 0.18-1.16 0.36-2.32 0.54-3.52 0.48-3.13 0.48-3.13-0.73-6.1-0.5-1.49-0.5-1.49-1-3 1.51-2.56 1.51-2.56 3.69-5.44 0.7-0.94 1.41-1.89 2.13-2.87 8.55-10.6 21-13.9 33.6-17.4 1.33-0.38 2.66-0.76 3.98-1.14 7.21-2.05 14.4-3.87 21.8-5.51 4.72-1.1 9.31-2.55 13.9-3.99 2.9-0.67 2.9-0.67 5.9 0.33z" fill="#083A24"/>
<path transform="translate(640,905)" d="m0 0c0.97 0.31 1.94 0.62 2.94 0.94 5.33 1.85 7.3 4.25 10.1 9.06 0.52 0.5 1.03 0.99 1.56 1.5 2.8 2.92 3.42 5.84 3.56 9.81-0.04 0.89-0.08 1.78-0.12 2.69h-2c-0.59-1.89-0.59-1.89-1.19-3.81-1.13-3.03-1.71-4.1-4.25-6.25-2.86-1.05-3.79-1.1-6.56 0.06-0.68 0.37-1.36 0.74-2.06 1.12-1.94 0.88-1.94 0.88-4.94-0.12v-2l-2-1 1-2h-2v2c-3.88-0.88-3.88-0.88-5-2-0.31 0.96-0.31 0.96-0.62 1.94-1.38 2.06-1.38 2.06-4.19 2.75-1.05 0.1-2.11 0.2-3.19 0.31-0.87 0.19-1.73 0.37-2.62 0.56-2.38 0.44-2.38 0.44-6.38 0.44-0.76 0.19-1.53 0.37-2.31 0.56-3.41 0.56-6.3 0.01-9.69-0.56h-3c-2.01-0.63-4.01-1.29-6-2l-1 2h-8l-1-2c-2.55-0.31-5-0.51-7.56-0.62-0.71-0.04-1.42-0.08-2.16-0.12-1.76-0.1-3.52-0.18-5.28-0.26-0.62-1.88-0.62-1.88-1-4l2-2c-0.66-0.45-1.32-0.91-2-1.38-0.66-0.53-1.32-1.07-2-1.62v-2c0.94 0.22 0.94 0.22 1.9 0.44 1.22 0.28 1.22 0.28 2.48 0.56 0.81 0.19 1.62 0.37 2.46 0.56 2.12 0.51 2.12 0.51 4.16 0.44v-2l-2-2c10.2-1.9 20.3-2.54 30.6-3.01 2.7-0.12 5.39-0.25 8.08-0.38 1.74-0.08 3.48-0.16 5.22-0.24 1.19-0.06 1.19-0.06 2.4-0.12 15-0.66 15-0.66 21.7 3.75z" fill="#083A24"/>
<path transform="translate(1014,1141)" d="m0 0c18.5 9.13 35.6 21 52 33.5 4.61 3.5 9.31 6.8 14.1 9.99 1.86 1.51 1.86 1.51 2.86 4.51-3 1-3 1-6.44-0.19-3.33-1.69-5.05-3.14-7.56-5.81-1.66-1.01-3.33-2.01-5-3-1.02-0.98-2.02-1.98-3-3-0.72-0.52-1.44-1.03-2.19-1.56-0.89-0.71-0.89-0.71-1.81-1.44v-2c-0.78-0.08-1.57-0.16-2.38-0.25-0.86-0.25-1.73-0.49-2.62-0.75-0.31-0.64-0.62-1.28-0.94-1.94-0.94-2.41-0.94-2.41-4.12-3.12-0.97-0.31-1.94-0.62-2.94-0.94-0.49-1.48-0.49-1.48-1-3-0.99 0.33-1.98 0.66-3 1-3.14-1.05-3.79-1.71-6-4-3.58-3.07-7.36-5.49-11.4-7.85-0.52-0.38-1.03-0.76-1.57-1.15v-2c-2.97-0.33-5.94-0.66-9-1l-1-3h2l1-3z" fill="#053C24"/>
<path transform="translate(311,968)" d="m0 0c11.5 4.38 22.5 10.6 33 17 1.1 0.66 2.21 1.32 3.35 2 6.13 3.71 12 7.53 17.6 12l-1 3c-3-1-3-1-5-3-1.18 0.03-1.18 0.03-2.38 0.06-3.17-0.07-4.29-0.99-6.62-3.06l1-2c-0.76 0.08-1.53 0.16-2.31 0.25-2.69-0.25-2.69-0.25-4.5-2.13-1.19-2.12-1.19-2.12-1.19-4.12-0.97-0.12-1.94-0.25-2.94-0.38-1.51-0.3-1.51-0.3-3.06-0.62l-1-2c-2.33-0.67-4.67-1.34-7-2-1.69-0.96-3.36-1.96-5-3-0.82-0.33-1.65-0.66-2.5-1-3.96-1.58-7.88-3.55-10.5-7v-4z" fill="#053C24"/>
<path transform="translate(945,1109)" d="m0 0c3.68 0.62 6.83 1.65 10.2 3.12 3.58 1.54 7.16 3.05 10.8 4.49 8.4 3.33 16.4 7.04 24.3 11.4 2.49 1.37 5.01 2.66 7.57 3.9 0.63 0.31 1.27 0.62 1.92 0.94 1.74 0.84 3.49 1.67 5.24 2.5 2.85 1.6 4.77 3.22 6.93 5.64-3 1-3 1-5.09 0.04-0.75-0.47-1.51-0.93-2.29-1.42-3.26-2.01-5.88-2.88-9.62-3.62l-2-2c-2.08-1.15-4.14-2.05-6.38-2.88-2.62-1.12-2.62-1.12-5.62-3.24-3.1-1.94-4.44-2.3-8-1.88-0.23-0.63-0.47-1.27-0.71-1.92-1.11-2.26-1.11-2.26-3.45-2.91-0.82-0.14-1.63-0.28-2.46-0.42-0.82-0.15-1.64-0.3-2.48-0.45-0.63-0.1-1.25-0.2-1.9-0.3v-2c-0.72-0.19-1.45-0.39-2.2-0.59-4.98-1.34-9.93-2.7-14.8-4.41v-4z" fill="#053C24"/>
<path transform="translate(575,104)" d="m0 0c1.17 0.95 2.34 1.91 3.5 2.88 0.97 0.8 0.97 0.8 1.97 1.61 0.5 0.5 1.01 1 1.53 1.51v2h2c0.34 1.18 0.34 1.18 0.69 2.38 1.05 2.86 1.05 2.86 3.87 3.56 0.81 0.35 1.61 0.7 2.44 1.06 0.81 3.12 0.81 3.12 1 6h4l2 6h3l1 3-11 1c-1-5-1-5-1-8-3.96 0.5-3.96 0.5-8 1v-7h-2c-4-6.5-4-6.5-4-11-0.61-1.69-1.27-3.36-2-5l1-1z" fill="#083A24"/>
<path transform="translate(1126,1113)" d="m0 0c3.63 0.66 7.26 1.32 11 2v3h-2v8h-6l1 3-1 2h-3v-2l-7 4c0.65-3.49 2.1-6.03 4-9h-2c-0.29 0.8-0.58 1.61-0.88 2.44-1.12 2.56-1.12 2.56-3.12 3.56 0.62-3.72 2.29-6.05 4.5-9.06 2-2.73 3.43-4.72 4.5-7.94z" fill="#083A24"/>
<path transform="translate(1038,548)" d="m0 0c0.49 1.49 0.49 1.49 1 3-3.11 0.92-5.83 1.09-9.06 1.03-0.96-0.01-1.93-0.03-2.92-0.04-2.01-0.03-4.03-0.07-6.04-0.12-0.97-0.01-1.93-0.02-2.92-0.03-0.87-0.02-1.75-0.03-2.65-0.05-2.61 0.23-4.1 1.05-6.41 2.21-3.75-0.38-3.75-0.38-7-1v-4c12-0.8 24-1.13 36-1z" fill="#063C24"/>
<path transform="translate(245,654)" d="m0 0c2.1 3.15 2.72 5.41 3.56 9.06 0.91 4.09 0.91 4.09 2.44 7.94 0.1 1.48 0.13 2.96 0.12 4.44 0.01 0.78 0.01 1.56 0.01 2.37-0.13 2.19-0.13 2.19-1.13 5.19-2-1-2-1-3.12-2.94-1.05-3.65-0.91-6.79-0.82-10.6-0.08-3.37-1.06-6.3-2.06-9.5-0.19-2.88-0.19-2.88 0-5l1-1z" fill="#093A24"/>
<path transform="translate(739,208)" d="m0 0c18.7 3.44 18.7 3.44 24 7v2c-3.84 1.28-5.39 0.45-9.19-0.81-4.91-1.59-9.78-3.01-14.8-4.19v-4z" fill="#053C24"/>
<path transform="translate(1461 453)" d="m0 0c1.22 0.1 2.45 0.2 3.71 0.3 4.19 0.38 8.36 0.82 12.5 1.32 0.33 1 0.66 1.99 1 3-2.85 0.03-5.71 0.05-8.56 0.07-1.2 0.01-1.2 0.01-2.43 0.02-13.5 0.06-13.5 0.06-18-4.09 4.07-1.02 7.58-0.96 11.8-0.62z" fill="#053C24"/>
<path transform="translate(712 197)" d="m0 0c0.83 0.27 1.66 0.55 2.52 0.83 0.88 0.29 1.76 0.58 2.67 0.88 3.26 1.18 6.41 2.51 9.58 3.93 0.99 0.33 1.98 0.66 3 1v2h3l-1 2c-20.9-3.96-20.9-3.96-25-9 3-2 3-2 5.23-1.64z" fill="#053C24"/>
<path transform="translate(1376,429)" d="m0 0c3.47 1.23 6.92 2.49 10.4 3.75 0.98 0.35 1.96 0.7 2.98 1.05 0.94 0.35 1.88 0.7 2.85 1.06 1.3 0.47 1.3 0.47 2.64 0.95 2.53 1.4 3.15 2.53 4.15 5.19-5.31-1.16-9.95-2.76-14.9-5.05-2.65-1.19-5.35-2.1-8.12-2.95v-4z" fill="#053C24"/>
<path transform="translate(273,952)" d="m0 0c4.1 0.54 7.78 1.95 11.6 3.44 1.13 0.43 2.26 0.86 3.42 1.31 2.96 1.25 2.96 1.25 5.96 3.25v2c-5.19-0.43-7.92-0.71-12-4-1.18-0.33-2.35-0.66-3.56-1-3.22-0.93-4.45-1.42-6.44-4l1-1z" fill="#053C24"/>
<path transform="translate(689,189)" d="m0 0c6.98 0.31 12.1 3.5 18 7l-1 2c-6.62-0.75-6.62-0.75-10-3-1.55-0.58-3.11-1.12-4.69-1.62-0.81-0.27-1.61-0.53-2.45-0.79-0.61-0.2-1.23-0.39-1.86-0.59l2-1v-2z" fill="#053C24"/>
<path transform="translate(1506,458)" d="m0 0c1.89 0.07 3.79 0.08 5.69 0.06 0.99-0.01 1.99-0.02 3.01-0.02 0.76-0.02 1.52-0.03 2.3-0.04-3.13 1.83-5.38 2.24-8.98 2.2-0.94-0.01-1.87-0.02-2.84-0.02-0.96-0.02-1.93-0.04-2.93-0.06-0.98 0-1.97-0.01-2.98-0.02-2.42-0.03-4.85-0.06-7.27-0.1v-1h-2.81-10.2v-2c19.1-1.64 19.1-1.64 27 1z" fill="#053D25"/>
<path transform="translate(1192,191)" d="m0 0c2.44 3.66 2.67 6.93 3.12 11.2 0.09 0.75 0.18 1.5 0.27 2.27 0.21 1.85 0.41 3.69 0.61 5.54-3 0-3 0-4.69-1.44-2.5-4.88-1.76-9.97-0.31-15.1 0.33-0.81 0.66-1.61 1-2.44z" fill="#093A24"/>
<path transform="translate(92,458)" d="m0 0c5.94 0.33 11.9 0.66 18 1-4 3-4 3-8 3v2c-3.63-0.66-7.26-1.32-11-2l2-2-1-2z" fill="#053D25"/>
<path transform="translate(913,889)" d="m0 0c0.5 0.58 0.99 1.15 1.5 1.75 3.19 2.87 6.63 4.48 10.5 6.25v2c1.98-0.33 3.96-0.66 6-1l-1 3c-1.61-0.09-3.21-0.2-4.81-0.31-1.34-0.09-1.34-0.09-2.71-0.18-2.81-0.58-3.79-1.23-5.48-3.51v-2c-0.62-0.27-1.24-0.54-1.88-0.81-2.12-1.19-2.12-1.19-4.12-4.19l2-1z" fill="#093A24"/>
<path transform="translate(781 218)" d="m0 0c0.62 0.52 1.24 1.03 1.88 1.56v2c-5.01-0.61-10-1.27-15-2v-2c-1-0.33-1.99-0.66-3-1 5.35-1.78 11-0.9 16.1 1.44z" fill="#053C24"/>
<path transform="translate(439,1065)" d="m0 0c4.66 3.58 7.74 7.11 11 12-2.9 0.89-3.7 1.12-6.62-0.06-2.99-2.43-3.55-4.23-4.38-7.94v-4z" fill="#083A24"/>
<path transform="translate(1074 553)" d="m0 0c0.87 0.17 1.74 0.33 2.63 0.5 2.25 0.94 2.25 0.94 3.55 3.03 0.23 0.63 0.46 1.26 0.7 1.91-5.51-0.59-10.6-1.57-16-3 3.21-2.94 4.87-3.35 9.12-2.44z" fill="#053C24"/>
<path transform="translate(58,936)" d="m0 0 2 1-1 2h2v6c-1.81 0.69-1.81 0.69-4 1-1.81-1.19-1.81-1.19-3-3 0.17-2.66 0.79-3.76 2.56-5.75 0.48-0.41 0.95-0.83 1.44-1.25z" fill="#083A24"/>
<path transform="translate(252,693)" d="m0 0h2c0.53 2.25 1.05 4.5 1.56 6.75 0.29 1.25 0.58 2.51 0.88 3.8 0.49 3.04 0.64 4.63-0.44 7.45-3.19-3.19-3.9-7.07-4.12-11.5 0-2.18 0.03-4.36 0.12-6.54z" fill="#093A24"/>
<path transform="translate(797,221)" d="m0 0c1.75 0.14 3.5 0.29 5.25 0.44 1.46 0.12 1.46 0.12 2.95 0.24 2.36 0.27 4.52 0.67 6.8 1.32v2c-2.1 0.05-4.21 0.09-6.31 0.12-1.76 0.04-1.76 0.04-3.55 0.08-3.14-0.2-3.14-0.2-6.14-2.2l1-2z" fill="#053C24"/>
<path transform="translate(1076,827)" d="m0 0c3.69-0.31 3.69-0.31 7 0l-2 7c-0.91-0.23-1.82-0.45-2.75-0.69-3.25-0.64-3.25-0.64-5.63 1.13-0.53 0.51-1.07 1.03-1.62 1.56 0.65-1.34 1.32-2.67 2-4 0.59-1.36 0.59-1.36 1.19-2.75 0.6-0.74 1.19-1.49 1.81-2.25z" fill="#093A24"/>
<path transform="translate(1401,439)" d="m0 0c4.39 0.66 7.98 2.19 12 4l-1 3c-1.48-0.28-2.96-0.58-4.44-0.88-0.82-0.16-1.64-0.32-2.49-0.49-0.69-0.21-1.37-0.41-2.07-0.63l-1-2 1-2-2-1z" fill="#053C24"/>
<path transform="translate(297,961)" d="m0 0 10 5-1 2c-3.28 0.95-4.7 1.1-8 0l-1-7z" fill="#053C24"/>
<path transform="translate(635,910)" d="m0 0h6l1 3 5 1v3c-4.69-1.22-8.71-2.7-13-5l1-2z" fill="#053D25"/>
<path transform="translate(1416,444)" d="m0 0 10 2v4l-10-2v-4z" fill="#053C24"/>
<path transform="translate(1441,450)" d="m0 0 2 3c-3.24 1.08-4.38 0.92-7.62 0.19-1.2-0.26-1.2-0.26-2.42-0.52-1.96-0.67-1.96-0.67-2.96-2.67 3.83-1.38 7.08-0.87 11 0z" fill="#053D25"/>
<path transform="translate(901,1094)" d="m0 0c1.82 0.42 3.63 0.86 5.44 1.31 1.01 0.25 2.02 0.49 3.06 0.74 0.82 0.31 1.65 0.63 2.5 0.95l1 3c-1.46-0.14-2.92-0.29-4.38-0.44-1.21-0.12-1.21-0.12-2.46-0.24-2.16-0.32-2.16-0.32-4.16-1.32-0.62-2.06-0.62-2.06-1-4z" fill="#053C24"/>
<path transform="translate(929,1102)" d="m0 0c1.68 0.63 3.35 1.29 5 2-3 2-3 2-6.56 1.69-3.44-0.69-3.44-0.69-5.44-1.69v-2c2.73-1.37 4.07-0.75 7 0z" fill="#053C24"/>
<path transform="translate(907,218)" d="m0 0c5.54-0.37 5.54-0.37 7.88 1.5 0.37 0.5 0.74 0.99 1.12 1.5-3.31 1.12-3.31 1.12-7 2l-3-2 1-3z" fill="#053C24"/>
<path transform="translate(827,1080)" d="m0 0c4.29 0.66 8.58 1.32 13 2l-1 2c-1.62 0.05-3.25 0.09-4.88 0.12-0.9 0.03-1.8 0.05-2.74 0.08-2.38-0.2-2.38-0.2-4.38-2.2v-2z" fill="#053C24"/>
<path transform="translate(722,1078)" d="m0 0c8.19-0.47 8.19-0.47 11.6 1.5 0.48 0.49 0.95 0.99 1.44 1.5-3.51 1.17-5.43 0.76-9 0l-2-1-1 2-2-2 1-2z" fill="#053C24"/>
<path transform="translate(940,1106)" d="m0 0c1.88 1.56 1.88 1.56 3 3-4 1.6-7.05 0.29-11-1v-2c2.94-1.47 4.87-0.77 8 0z" fill="#053C24"/>
<path transform="translate(449,1078)" d="m0 0c2.48 0.99 2.48 0.99 5 2v2c0.99 0.33 1.98 0.66 3 1v5c-0.6-0.64-1.2-1.28-1.81-1.94-2.1-2.26-2.1-2.26-5.19-3.06l-1-5z" fill="#083A24"/>
<path transform="translate(417,1046)" d="m0 0c1.94 0.38 1.94 0.38 4 1l1 2 3 2-1 3c-1.98-0.66-3.96-1.32-6-2l-1-6z" fill="#093A24"/>
<path transform="translate(1e3 549)" d="m0 0c3.31-0.25 3.31-0.25 7 0 1.94 2 1.94 2 3 4-3.58 1.24-6.34 0.75-10 0v-4z" fill="#053C24"/>
<path transform="translate(1134,125)" d="m0 0c1.46 0.06 2.92 0.15 4.38 0.25 1.21 0.07 1.21 0.07 2.46 0.14 0.71 0.2 1.42 0.4 2.16 0.61l2 4c-5.94-0.99-5.94-0.99-12-2l1-3z" fill="#053C24"/>
<path transform="translate(41,960)" d="m0 0 4 1c-0.59 6.15-0.59 6.15-1 8-0.99 0.5-0.99 0.5-2 1l-1-3 1-2h-2l-1 2c0.88-4.75 0.88-4.75 2-7z" fill="#083A24"/>
<path transform="translate(849,728)" d="m0 0c0.99 0.33 1.98 0.66 3 1v5h-3l-1 2-3-2c1.15-2.47 2.05-4.05 4-6z" fill="#093A24"/>
<path transform="translate(937,214)" d="m0 0v2c-6.29 2.43-6.29 2.43-10 1v-3c3.58-1.24 6.34-0.75 10 0z" fill="#053C24"/>
<path transform="translate(261,947)" d="m0 0c3.95 0.44 6.73 1.76 10 4v1c-5.37 0.35-5.37 0.35-8 0-2-2-2-2-3-4l1-1z" fill="#053C24"/>
<path transform="translate(880,1089)" d="m0 0c2.34 0.29 4.67 0.62 7 1v4c-3.69-0.5-5.6-1.1-8-4l1-1z" fill="#053C24"/>
<path transform="translate(805,1078)" d="m0 0c1.42 0.12 2.83 0.24 4.25 0.38 0.79 0.06 1.58 0.13 2.39 0.21 2.36 0.41 2.36 0.41 6.36 2.41h-14l1-3z" fill="#053D25"/>
<path transform="translate(859,712)" d="m0 0h8l-1 4c-0.99-0.33-1.98-0.66-3-1v-2h-3l-1 5-2-2 2-4z" fill="#083A24"/>
<path transform="translate(31,986)" d="m0 0h1v5h-1v-5z" fill="#063B24"/>
<path transform="translate(1581,997)" d="m0 0 1 4z" fill="#050F0D"/>
<path transform="translate(106,798)" d="m0 0 1 4z" fill="#063C24"/>
<path transform="translate(1581,532)" d="m0 0 1 4z" fill="#050F0D"/>
<path transform="translate(850,1082)" d="m0 0 2 1z" fill="#093A24"/>
</svg>
