<?xml version="1.0" encoding="UTF-8"?>
<svg xmlns="http://www.w3.org/2000/svg" xmlns:xlink="http://www.w3.org/1999/xlink" width="860px" height="551px" viewBox="0 0 738 551" version="1.1">
<defs>
<filter id="alpha" filterUnits="objectBoundingBox" x="0%" y="0%" width="100%" height="100%">
  <feColorMatrix type="matrix" in="SourceGraphic" values="0 0 0 0 1 0 0 0 0 1 0 0 0 0 1 0 0 0 1 0"/>
</filter>
<mask id="mask0">
  <g filter="url(#alpha)">
<rect x="0" y="0" width="738" height="551" style="fill:rgb(0%,0%,0%);fill-opacity:0.4;stroke:none;"/>
  </g>
</mask>
<clipPath id="clip1">
  <rect x="0" y="0" width="738" height="551"/>
</clipPath>
<g id="surface5" clip-path="url(#clip1)">
<path style=" stroke:none;fill-rule:nonzero;fill:rgb(0%,0%,0%);fill-opacity:1;" d="M 216.855469 199.390625 C 248.074219 230.632812 248.074219 281.289062 216.855469 312.535156 C 185.636719 343.777344 135.023438 343.777344 103.804688 312.535156 C 72.585938 281.289062 72.585938 230.632812 103.804688 199.390625 C 135.023438 168.144531 185.636719 168.144531 216.855469 199.390625 Z M 216.855469 199.390625 "/>
</g>
<mask id="mask1">
  <g filter="url(#alpha)">
<rect x="0" y="0" width="738" height="551" style="fill:rgb(0%,0%,0%);fill-opacity:0.2;stroke:none;"/>
  </g>
</mask>
<clipPath id="clip2">
  <rect x="0" y="0" width="738" height="551"/>
</clipPath>
<g id="surface8" clip-path="url(#clip2)">
<path style=" stroke:none;fill-rule:nonzero;fill:rgb(0%,0%,0%);fill-opacity:1;" d="M 171.625 189.734375 C 208.167969 195.972656 232.742188 230.683594 226.507812 267.257812 C 220.273438 303.835938 185.59375 328.429688 149.050781 322.1875 C 112.503906 315.949219 87.929688 281.242188 94.164062 244.664062 C 100.398438 208.089844 135.078125 183.496094 171.625 189.734375 Z M 171.625 189.734375 "/>
</g>
<mask id="mask2">
  <g filter="url(#alpha)">
<rect x="0" y="0" width="738" height="551" style="fill:rgb(0%,0%,0%);fill-opacity:0.4;stroke:none;"/>
  </g>
</mask>
<clipPath id="clip3">
  <rect x="0" y="0" width="738" height="551"/>
</clipPath>
<g id="surface11" clip-path="url(#clip3)">
<path style=" stroke:none;fill-rule:nonzero;fill:rgb(0%,0%,0%);fill-opacity:1;" d="M 169.785156 193.386719 C 205.375 195.878906 232.207031 226.777344 229.71875 262.394531 C 227.226562 298.015625 196.355469 324.871094 160.765625 322.375 C 125.171875 319.882812 98.339844 288.988281 100.832031 253.367188 C 103.324219 217.746094 134.195312 190.894531 169.785156 193.386719 Z M 169.785156 193.386719 "/>
</g>
<mask id="mask3">
  <g filter="url(#alpha)">
<rect x="0" y="0" width="738" height="551" style="fill:rgb(0%,0%,0%);fill-opacity:0.701961;stroke:none;"/>
  </g>
</mask>
<clipPath id="clip4">
  <rect x="0" y="0" width="738" height="551"/>
</clipPath>
<g id="surface14" clip-path="url(#clip4)">
<path style=" stroke:none;fill-rule:nonzero;fill:rgb(100%,100%,100%);fill-opacity:1;" d="M 186.875 249.804688 L 191.082031 268.046875 C 191.445312 269.457031 191.199219 270.949219 190.402344 272.167969 C 189.632812 273.414062 188.394531 274.292969 186.964844 274.605469 L 170.9375 278.3125 L 173.886719 291.152344 C 174.238281 292.554688 173.980469 294.039062 173.179688 295.242188 C 172.410156 296.46875 171.160156 297.3125 169.738281 297.578125 C 168.316406 297.933594 166.808594 297.699219 165.5625 296.925781 C 164.320312 296.195312 163.441406 294.972656 163.140625 293.558594 L 160.191406 280.574219 L 144.292969 284.253906 C 142.910156 284.585938 141.449219 284.339844 140.25 283.574219 C 139.003906 282.839844 138.121094 281.621094 137.8125 280.203125 C 137.476562 278.808594 137.71875 277.335938 138.492188 276.128906 C 139.230469 274.890625 140.449219 274.019531 141.859375 273.71875 L 179.054688 265.136719 L 177.3125 257.558594 L 140.21875 266.113281 C 138.832031 266.464844 137.359375 266.238281 136.144531 265.476562 C 134.902344 264.730469 134.027344 263.488281 133.742188 262.066406 L 129.546875 243.894531 C 128.875 240.988281 130.6875 238.082031 133.59375 237.410156 L 149.414062 233.761719 L 146.464844 220.910156 C 146.117188 219.535156 146.339844 218.082031 147.082031 216.875 C 147.871094 215.570312 149.183594 214.664062 150.683594 214.394531 C 152.0625 214.058594 153.519531 214.304688 154.714844 215.074219 C 155.9375 215.828125 156.804688 217.050781 157.105469 218.457031 L 160.058594 231.292969 L 176.292969 227.570312 C 177.710938 227.226562 179.210938 227.480469 180.441406 228.265625 C 181.6875 228.984375 182.574219 230.1875 182.890625 231.589844 C 183.539062 234.5625 181.695312 237.507812 178.742188 238.222656 L 141.546875 246.804688 L 143.171875 254.339844 L 180.234375 245.785156 C 181.652344 245.441406 183.152344 245.691406 184.382812 246.480469 C 185.648438 247.183594 186.554688 248.390625 186.875 249.804688 Z M 186.875 249.804688 "/>
</g>
<mask id="mask4">
  <g filter="url(#alpha)">
<rect x="0" y="0" width="738" height="551" style="fill:rgb(0%,0%,0%);fill-opacity:0.4;stroke:none;"/>
  </g>
</mask>
<clipPath id="clip5">
  <rect x="0" y="0" width="738" height="551"/>
</clipPath>
<g id="surface17" clip-path="url(#clip5)">
<path style=" stroke:none;fill-rule:nonzero;fill:rgb(0%,0%,0%);fill-opacity:1;" d="M 324.316406 113.644531 C 347.851562 133.550781 350.804688 168.78125 330.917969 192.335938 C 311.027344 215.890625 275.824219 218.851562 252.289062 198.945312 C 228.753906 179.039062 225.800781 143.808594 245.6875 120.253906 C 265.578125 96.699219 300.78125 93.742188 324.316406 113.644531 Z M 324.316406 113.644531 "/>
</g>
<mask id="mask5">
  <g filter="url(#alpha)">
<rect x="0" y="0" width="738" height="551" style="fill:rgb(0%,0%,0%);fill-opacity:0.2;stroke:none;"/>
  </g>
</mask>
<clipPath id="clip6">
  <rect x="0" y="0" width="738" height="551"/>
</clipPath>
<g id="surface20" clip-path="url(#clip6)">
<path style=" stroke:none;fill-rule:nonzero;fill:rgb(0%,0%,0%);fill-opacity:1;" d="M 318.15625 120.117188 C 338.097656 136.617188 340.898438 166.167969 324.414062 186.128906 C 307.929688 206.085938 278.398438 208.890625 258.457031 192.390625 C 238.515625 175.890625 235.714844 146.335938 252.199219 126.378906 C 268.683594 106.421875 298.214844 103.617188 318.15625 120.117188 Z M 318.15625 120.117188 "/>
</g>
<mask id="mask6">
  <g filter="url(#alpha)">
<rect x="0" y="0" width="738" height="551" style="fill:rgb(0%,0%,0%);fill-opacity:0.4;stroke:none;"/>
  </g>
</mask>
<clipPath id="clip7">
  <rect x="0" y="0" width="738" height="551"/>
</clipPath>
<g id="surface23" clip-path="url(#clip7)">
<path style=" stroke:none;fill-rule:nonzero;fill:rgb(0%,0%,0%);fill-opacity:1;" d="M 317.40625 123.523438 C 337.140625 138.617188 340.910156 166.867188 325.828125 186.617188 C 310.746094 206.367188 282.519531 210.140625 262.785156 195.046875 C 243.050781 179.953125 239.28125 151.703125 254.363281 131.953125 C 269.445312 112.203125 297.671875 108.429688 317.40625 123.523438 Z M 317.40625 123.523438 "/>
</g>
<mask id="mask7">
  <g filter="url(#alpha)">
<rect x="0" y="0" width="738" height="551" style="fill:rgb(0%,0%,0%);fill-opacity:0.701961;stroke:none;"/>
  </g>
</mask>
<clipPath id="clip8">
  <rect x="0" y="0" width="738" height="551"/>
</clipPath>
<g id="surface26" clip-path="url(#clip8)">
<path style=" stroke:none;fill-rule:nonzero;fill:rgb(100%,100%,100%);fill-opacity:1;" d="M 306.742188 160.875 L 303.570312 173.550781 C 303.335938 174.523438 302.703125 175.355469 301.828125 175.839844 C 300.941406 176.378906 299.875 176.53125 298.875 176.269531 L 287.820312 173.476562 L 285.578125 182.339844 C 285.347656 183.320312 284.714844 184.15625 283.835938 184.644531 C 282.988281 185.167969 281.964844 185.324219 281 185.074219 C 280.007812 184.839844 279.152344 184.214844 278.625 183.34375 C 278.085938 182.492188 277.925781 181.453125 278.183594 180.476562 L 280.441406 171.46875 L 269.371094 168.765625 C 268.402344 168.53125 267.570312 167.914062 267.066406 167.050781 C 266.527344 166.203125 266.367188 165.171875 266.625 164.199219 C 266.847656 163.21875 267.46875 162.371094 268.335938 161.867188 C 269.195312 161.339844 270.230469 161.191406 271.199219 161.453125 L 297.03125 167.9375 L 298.359375 162.679688 L 272.601562 156.207031 C 271.628906 155.988281 270.789062 155.375 270.285156 154.507812 C 269.746094 153.65625 269.59375 152.613281 269.871094 151.644531 L 273.03125 139.011719 C 273.269531 138.039062 273.890625 137.203125 274.75 136.691406 C 275.609375 136.179688 276.636719 136.03125 277.605469 136.28125 L 288.558594 139.027344 L 290.800781 130.164062 C 291.019531 129.152344 291.652344 128.28125 292.542969 127.753906 C 293.433594 127.230469 294.503906 127.101562 295.496094 127.402344 C 296.457031 127.625 297.28125 128.242188 297.769531 129.101562 C 298.296875 129.953125 298.449219 130.984375 298.195312 131.953125 L 295.953125 140.816406 L 307.171875 143.636719 C 308.164062 143.875 309.019531 144.507812 309.53125 145.394531 C 310.074219 146.234375 310.246094 147.261719 310.003906 148.230469 C 309.753906 149.226562 309.117188 150.078125 308.234375 150.59375 C 307.351562 151.144531 306.285156 151.304688 305.28125 151.039062 L 279.4375 144.550781 L 278.136719 149.78125 L 303.878906 156.238281 C 304.875 156.476562 305.726562 157.109375 306.242188 157.996094 C 306.816406 158.835938 307 159.886719 306.742188 160.875 Z M 306.742188 160.875 "/>
</g>
<mask id="mask8">
  <g filter="url(#alpha)">
<rect x="0" y="0" width="738" height="551" style="fill:rgb(0%,0%,0%);fill-opacity:0.101961;stroke:none;"/>
  </g>
</mask>
<clipPath id="clip9">
  <rect x="0" y="0" width="738" height="551"/>
</clipPath>
<g id="surface29" clip-path="url(#clip9)">
<path style=" stroke:none;fill-rule:nonzero;fill:rgb(0%,0%,0%);fill-opacity:1;" d="M 150.9375 493.707031 L 152.410156 493.707031 L 152.410156 510.382812 L 150.9375 510.382812 Z M 150.9375 493.707031 "/>
</g>
<mask id="mask9">
  <g filter="url(#alpha)">
<rect x="0" y="0" width="738" height="551" style="fill:rgb(0%,0%,0%);fill-opacity:0.101961;stroke:none;"/>
  </g>
</mask>
<clipPath id="clip10">
  <rect x="0" y="0" width="738" height="551"/>
</clipPath>
<g id="surface32" clip-path="url(#clip10)">
<path style=" stroke:none;fill-rule:nonzero;fill:rgb(0%,0%,0%);fill-opacity:1;" d="M 585.589844 361.570312 L 587.0625 361.570312 L 587.0625 384.421875 L 585.589844 384.421875 Z M 585.589844 361.570312 "/>
</g>
<mask id="mask10">
  <g filter="url(#alpha)">
<rect x="0" y="0" width="738" height="551" style="fill:rgb(0%,0%,0%);fill-opacity:0.101961;stroke:none;"/>
  </g>
</mask>
<clipPath id="clip11">
  <rect x="0" y="0" width="738" height="551"/>
</clipPath>
<g id="surface35" clip-path="url(#clip11)">
<path style=" stroke:none;fill-rule:nonzero;fill:rgb(0%,0%,0%);fill-opacity:1;" d="M 585.589844 396.417969 L 587.0625 396.417969 L 587.0625 408.8125 L 585.589844 408.8125 Z M 585.589844 396.417969 "/>
</g>
<mask id="mask11">
  <g filter="url(#alpha)">
<rect x="0" y="0" width="738" height="551" style="fill:rgb(0%,0%,0%);fill-opacity:0.2;stroke:none;"/>
  </g>
</mask>
<clipPath id="clip12">
  <rect x="0" y="0" width="738" height="551"/>
</clipPath>
<g id="surface38" clip-path="url(#clip12)">
<path style=" stroke:none;fill-rule:nonzero;fill:rgb(0%,0%,0%);fill-opacity:1;" d="M 178.316406 262.476562 L 559.699219 262.476562 C 571.96875 262.476562 581.914062 272.433594 581.914062 284.710938 L 581.914062 508.140625 C 581.914062 520.417969 571.96875 530.371094 559.699219 530.371094 L 178.316406 530.371094 C 166.046875 530.371094 156.101562 520.417969 156.101562 508.140625 L 156.101562 284.710938 C 156.101562 272.433594 166.046875 262.476562 178.316406 262.476562 Z M 178.316406 262.476562 "/>
</g>
<mask id="mask12">
  <g filter="url(#alpha)">
<rect x="0" y="0" width="738" height="551" style="fill:rgb(0%,0%,0%);fill-opacity:0.301961;stroke:none;"/>
  </g>
</mask>
<clipPath id="clip13">
  <rect x="0" y="0" width="738" height="551"/>
</clipPath>
<g id="surface41" clip-path="url(#clip13)">
<path style=" stroke:none;fill-rule:nonzero;fill:rgb(100%,100%,100%);fill-opacity:1;" d="M 207.039062 355.75 L 272.675781 355.75 C 277.957031 355.75 282.242188 360.035156 282.242188 365.320312 L 282.242188 408.265625 C 282.242188 413.550781 277.957031 417.835938 272.675781 417.835938 L 207.039062 417.835938 C 201.757812 417.835938 197.472656 413.550781 197.472656 408.265625 L 197.472656 365.320312 C 197.472656 360.035156 201.757812 355.75 207.039062 355.75 Z M 207.039062 355.75 "/>
</g>
<mask id="mask13">
  <g filter="url(#alpha)">
<rect x="0" y="0" width="738" height="551" style="fill:rgb(0%,0%,0%);fill-opacity:0.301961;stroke:none;"/>
  </g>
</mask>
<clipPath id="clip14">
  <rect x="0" y="0" width="738" height="551"/>
</clipPath>
<g id="surface44" clip-path="url(#clip14)">
<path style=" stroke:none;fill-rule:nonzero;fill:rgb(100%,100%,100%);fill-opacity:1;" d="M 204.25 293.824219 L 318.09375 293.824219 C 321.835938 293.824219 324.867188 296.855469 324.867188 300.597656 C 324.867188 304.339844 321.835938 307.371094 318.09375 307.371094 L 204.25 307.371094 C 200.507812 307.371094 197.472656 304.339844 197.472656 300.597656 C 197.472656 296.855469 200.507812 293.824219 204.25 293.824219 Z M 204.25 293.824219 "/>
</g>
<mask id="mask14">
  <g filter="url(#alpha)">
<rect x="0" y="0" width="738" height="551" style="fill:rgb(0%,0%,0%);fill-opacity:0.301961;stroke:none;"/>
  </g>
</mask>
<clipPath id="clip15">
  <rect x="0" y="0" width="738" height="551"/>
</clipPath>
<g id="surface47" clip-path="url(#clip15)">
<path style=" stroke:none;fill-rule:nonzero;fill:rgb(100%,100%,100%);fill-opacity:1;" d="M 207.40625 448.652344 L 258.609375 448.652344 C 264.097656 448.652344 268.542969 453.101562 268.542969 458.59375 L 268.542969 467.882812 C 268.542969 473.375 264.097656 477.828125 258.609375 477.828125 L 207.40625 477.828125 C 201.921875 477.828125 197.472656 473.375 197.472656 467.882812 L 197.472656 458.59375 C 197.472656 453.101562 201.921875 448.652344 207.40625 448.652344 Z M 207.40625 448.652344 "/>
</g>
<mask id="mask15">
  <g filter="url(#alpha)">
<rect x="0" y="0" width="738" height="551" style="fill:rgb(0%,0%,0%);fill-opacity:0.301961;stroke:none;"/>
  </g>
</mask>
<clipPath id="clip16">
  <rect x="0" y="0" width="738" height="551"/>
</clipPath>
<g id="surface50" clip-path="url(#clip16)">
<path style=" stroke:none;fill-rule:nonzero;fill:rgb(100%,100%,100%);fill-opacity:1;" d="M 298.0625 448.652344 L 349.265625 448.652344 C 354.753906 448.652344 359.199219 453.101562 359.199219 458.59375 L 359.199219 467.882812 C 359.199219 473.375 354.753906 477.828125 349.265625 477.828125 L 298.0625 477.828125 C 292.578125 477.828125 288.128906 473.375 288.128906 467.882812 L 288.128906 458.59375 C 288.128906 453.101562 292.578125 448.652344 298.0625 448.652344 Z M 298.0625 448.652344 "/>
</g>
<mask id="mask16">
  <g filter="url(#alpha)">
<rect x="0" y="0" width="738" height="551" style="fill:rgb(0%,0%,0%);fill-opacity:0.301961;stroke:none;"/>
  </g>
</mask>
<clipPath id="clip17">
  <rect x="0" y="0" width="738" height="551"/>
</clipPath>
<g id="surface53" clip-path="url(#clip17)">
<path style=" stroke:none;fill-rule:nonzero;fill:rgb(100%,100%,100%);fill-opacity:1;" d="M 388.734375 448.652344 L 439.9375 448.652344 C 445.421875 448.652344 449.871094 453.101562 449.871094 458.59375 L 449.871094 467.882812 C 449.871094 473.375 445.421875 477.828125 439.9375 477.828125 L 388.734375 477.828125 C 383.246094 477.828125 378.800781 473.375 378.800781 467.882812 L 378.800781 458.59375 C 378.800781 453.101562 383.246094 448.652344 388.734375 448.652344 Z M 388.734375 448.652344 "/>
</g>
<mask id="mask17">
  <g filter="url(#alpha)">
<rect x="0" y="0" width="738" height="551" style="fill:rgb(0%,0%,0%);fill-opacity:0.301961;stroke:none;"/>
  </g>
</mask>
<clipPath id="clip18">
  <rect x="0" y="0" width="738" height="551"/>
</clipPath>
<g id="surface56" clip-path="url(#clip18)">
<path style=" stroke:none;fill-rule:nonzero;fill:rgb(100%,100%,100%);fill-opacity:1;" d="M 479.390625 448.652344 L 530.59375 448.652344 C 536.078125 448.652344 540.527344 453.101562 540.527344 458.59375 L 540.527344 467.882812 C 540.527344 473.375 536.078125 477.828125 530.59375 477.828125 L 479.390625 477.828125 C 473.902344 477.828125 469.457031 473.375 469.457031 467.882812 L 469.457031 458.59375 C 469.457031 453.101562 473.902344 448.652344 479.390625 448.652344 Z M 479.390625 448.652344 "/>
</g>
<mask id="mask18">
  <g filter="url(#alpha)">
<rect x="0" y="0" width="738" height="551" style="fill:rgb(0%,0%,0%);fill-opacity:0.701961;stroke:none;"/>
  </g>
</mask>
<clipPath id="clip19">
  <rect x="0" y="0" width="738" height="551"/>
</clipPath>
<g id="surface59" clip-path="url(#clip19)">
<path style=" stroke:none;fill-rule:nonzero;fill:rgb(100%,100%,100%);fill-opacity:1;" d="M 436.617188 158.421875 C 439.964844 168.230469 420.277344 197.082031 420.277344 197.082031 L 401.472656 186.609375 C 404.675781 177.605469 408.460938 168.824219 412.808594 160.3125 C 419.390625 147.847656 432.941406 147.65625 436.617188 158.421875 Z M 436.617188 158.421875 "/>
</g>
<mask id="mask19">
  <g filter="url(#alpha)">
<rect x="0" y="0" width="738" height="551" style="fill:rgb(0%,0%,0%);fill-opacity:0.309804;stroke:none;"/>
  </g>
</mask>
<clipPath id="clip20">
  <rect x="0" y="0" width="738" height="551"/>
</clipPath>
<g id="surface62" clip-path="url(#clip20)">
<path style=" stroke:none;fill-rule:nonzero;fill:rgb(9.803922%,52.941176%,32.941176%);fill-opacity:1;" d="M 436.894531 159.648438 C 432.675781 157.625 427.820312 159.324219 422.695312 167.417969 C 417.574219 175.515625 413.222656 189.03125 412.75 192.886719 L 420.289062 197.066406 C 420.289062 197.066406 438.460938 170.417969 436.894531 159.648438 Z M 436.894531 159.648438 "/>
</g>
<mask id="mask20">
  <g filter="url(#alpha)">
<rect x="0" y="0" width="738" height="551" style="fill:rgb(0%,0%,0%);fill-opacity:0.701961;stroke:none;"/>
  </g>
</mask>
<clipPath id="clip21">
  <rect x="0" y="0" width="738" height="551"/>
</clipPath>
<g id="surface65" clip-path="url(#clip21)">
<path style=" stroke:none;fill-rule:nonzero;fill:rgb(100%,100%,100%);fill-opacity:1;" d="M 423.878906 150.917969 C 423.878906 150.917969 409.824219 183.992188 419.953125 245.578125 L 478.476562 245.578125 C 479.199219 236.582031 475.066406 192.722656 485.207031 150.359375 C 478.761719 149.101562 472.246094 148.273438 465.691406 147.875 C 457.410156 147.402344 449.105469 147.402344 440.820312 147.875 C 435.105469 148.457031 429.441406 149.476562 423.878906 150.917969 Z M 423.878906 150.917969 "/>
</g>
<mask id="mask21">
  <g filter="url(#alpha)">
<rect x="0" y="0" width="738" height="551" style="fill:rgb(0%,0%,0%);fill-opacity:0.701961;stroke:none;"/>
  </g>
</mask>
<clipPath id="clip22">
  <rect x="0" y="0" width="738" height="551"/>
</clipPath>
<g id="surface68" clip-path="url(#clip22)">
<path style=" stroke:none;fill-rule:nonzero;fill:rgb(0%,0%,0%);fill-opacity:1;" d="M 419.953125 245.578125 C 419.953125 245.578125 408.425781 325.4375 404.496094 368.898438 C 401.339844 403.773438 476.6875 507.753906 476.6875 507.753906 L 491.257812 494.03125 C 491.257812 494.03125 436.230469 400.804688 440.46875 361.984375 C 444.570312 324.386719 458.476562 245.535156 458.476562 245.535156 Z M 419.953125 245.578125 "/>
</g>
<mask id="mask22">
  <g filter="url(#alpha)">
<rect x="0" y="0" width="738" height="551" style="fill:rgb(0%,0%,0%);fill-opacity:0.2;stroke:none;"/>
  </g>
</mask>
<clipPath id="clip23">
  <rect x="0" y="0" width="738" height="551"/>
</clipPath>
<g id="surface71" clip-path="url(#clip23)">
<path style=" stroke:none;fill-rule:nonzero;fill:rgb(0%,0%,0%);fill-opacity:1;" d="M 440.46875 362.027344 C 442.578125 342.660156 447.300781 312.320312 451.359375 287.472656 C 449.234375 283.308594 443.273438 274.871094 443.273438 274.871094 C 437.929688 293.351562 426.3125 363.015625 442.886719 457.101562 C 460.15625 484.960938 476.6875 507.800781 476.6875 507.800781 L 478.945312 471.875 C 462.992188 441.828125 437.53125 388.867188 440.46875 362.027344 Z M 440.46875 362.027344 "/>
</g>
<mask id="mask23">
  <g filter="url(#alpha)">
<rect x="0" y="0" width="738" height="551" style="fill:rgb(0%,0%,0%);fill-opacity:0.701961;stroke:none;"/>
  </g>
</mask>
<clipPath id="clip24">
  <rect x="0" y="0" width="738" height="551"/>
</clipPath>
<g id="surface74" clip-path="url(#clip24)">
<path style=" stroke:none;fill-rule:nonzero;fill:rgb(0%,0%,0%);fill-opacity:1;" d="M 440.761719 245.578125 C 440.761719 245.578125 439.730469 329.261719 441.5 360.625 C 443.433594 394.953125 453.175781 508.699219 453.175781 508.699219 L 473.21875 508.699219 C 473.21875 508.699219 472.613281 397.730469 473.796875 363.757812 C 475.109375 326.824219 478.503906 245.578125 478.503906 245.578125 Z M 440.761719 245.578125 "/>
</g>
<mask id="mask24">
  <g filter="url(#alpha)">
<rect x="0" y="0" width="738" height="551" style="fill:rgb(0%,0%,0%);fill-opacity:0.309804;stroke:none;"/>
  </g>
</mask>
<clipPath id="clip25">
  <rect x="0" y="0" width="738" height="551"/>
</clipPath>
<g id="surface77" clip-path="url(#clip25)">
<path style=" stroke:none;fill-rule:nonzero;fill:rgb(9.803922%,52.941176%,32.941176%);fill-opacity:1;" d="M 472.128906 160.816406 C 470.917969 167.789062 472.527344 184.453125 478.503906 203.746094 C 478.972656 187.214844 480.894531 170.757812 484.246094 154.566406 L 484.246094 154.480469 C 480.410156 154.09375 473.292969 154.273438 472.128906 160.816406 Z M 472.128906 160.816406 "/>
</g>
<mask id="mask25">
  <g filter="url(#alpha)">
<rect x="0" y="0" width="738" height="551" style="fill:rgb(0%,0%,0%);fill-opacity:0.6;stroke:none;"/>
  </g>
</mask>
<clipPath id="clip26">
  <rect x="0" y="0" width="738" height="551"/>
</clipPath>
<g id="surface80" clip-path="url(#clip26)">
<path style=" stroke:none;fill-rule:nonzero;fill:rgb(100%,100%,100%);fill-opacity:1;" d="M 492.144531 493.234375 L 475.804688 508.640625 L 470.535156 502.984375 L 489.234375 485.9375 Z M 492.144531 493.234375 "/>
</g>
<mask id="mask26">
  <g filter="url(#alpha)">
<rect x="0" y="0" width="738" height="551" style="fill:rgb(0%,0%,0%);fill-opacity:0.6;stroke:none;"/>
  </g>
</mask>
<clipPath id="clip27">
  <rect x="0" y="0" width="738" height="551"/>
</clipPath>
<g id="surface83" clip-path="url(#clip27)">
<path style=" stroke:none;fill-rule:nonzero;fill:rgb(100%,100%,100%);fill-opacity:1;" d="M 474.015625 508.699219 L 452.363281 508.699219 L 451.167969 501.09375 L 475.066406 502.273438 Z M 474.015625 508.699219 "/>
</g>
<mask id="mask27">
  <g filter="url(#alpha)">
<rect x="0" y="0" width="738" height="551" style="fill:rgb(0%,0%,0%);fill-opacity:0.701961;stroke:none;"/>
  </g>
</mask>
<clipPath id="clip28">
  <rect x="0" y="0" width="738" height="551"/>
</clipPath>
<g id="surface86" clip-path="url(#clip28)">
<path style=" stroke:none;fill-rule:nonzero;fill:rgb(100%,100%,100%);fill-opacity:1;" d="M 485.207031 150.359375 C 495.539062 151.835938 506.121094 187.761719 506.121094 187.761719 L 483.980469 200.050781 C 483.980469 200.050781 474.992188 182.976562 470.695312 170.300781 C 466.195312 157.019531 474.148438 148.734375 485.207031 150.359375 Z M 485.207031 150.359375 "/>
</g>
<mask id="mask28">
  <g filter="url(#alpha)">
<rect x="0" y="0" width="738" height="551" style="fill:rgb(0%,0%,0%);fill-opacity:0.2;stroke:none;"/>
  </g>
</mask>
<clipPath id="clip29">
  <rect x="0" y="0" width="738" height="551"/>
</clipPath>
<g id="surface89" clip-path="url(#clip29)">
<path style=" stroke:none;fill-rule:nonzero;fill:rgb(0%,0%,0%);fill-opacity:1;" d="M 448.054688 154.507812 L 443.625 159.222656 L 445.796875 163.769531 L 449.324219 163.933594 L 452.335938 159.589844 Z M 448.054688 154.507812 "/>
</g>
<mask id="mask29">
  <g filter="url(#alpha)">
<rect x="0" y="0" width="738" height="551" style="fill:rgb(0%,0%,0%);fill-opacity:0.2;stroke:none;"/>
  </g>
</mask>
<clipPath id="clip30">
  <rect x="0" y="0" width="738" height="551"/>
</clipPath>
<g id="surface92" clip-path="url(#clip30)">
<path style=" stroke:none;fill-rule:nonzero;fill:rgb(0%,0%,0%);fill-opacity:1;" d="M 446.179688 162.957031 C 446.179688 162.957031 437.78125 197.777344 437.457031 205.015625 C 437 214.972656 441.160156 231.972656 441.160156 231.972656 C 441.160156 231.972656 447.066406 217.835938 448.277344 204.703125 C 449.484375 191.570312 448.585938 170.328125 449.132812 162.957031 Z M 446.179688 162.957031 "/>
</g>
<mask id="mask30">
  <g filter="url(#alpha)">
<rect x="0" y="0" width="738" height="551" style="fill:rgb(0%,0%,0%);fill-opacity:0.6;stroke:none;"/>
  </g>
</mask>
<clipPath id="clip31">
  <rect x="0" y="0" width="738" height="551"/>
</clipPath>
<g id="surface95" clip-path="url(#clip31)">
<path style=" stroke:none;fill-rule:nonzero;fill:rgb(100%,100%,100%);fill-opacity:1;" d="M 448.054688 154.507812 C 449.738281 157.234375 450.710938 160.335938 450.886719 163.535156 C 450.886719 163.535156 469.308594 157.035156 468.4375 147.507812 C 468.4375 147.507812 465.824219 145.957031 464.171875 144.699219 C 464.171875 144.699219 463.550781 150.699219 448.054688 154.507812 Z M 448.054688 154.507812 "/>
</g>
<mask id="mask31">
  <g filter="url(#alpha)">
<rect x="0" y="0" width="738" height="551" style="fill:rgb(0%,0%,0%);fill-opacity:0.6;stroke:none;"/>
  </g>
</mask>
<clipPath id="clip32">
  <rect x="0" y="0" width="738" height="551"/>
</clipPath>
<g id="surface98" clip-path="url(#clip32)">
<path style=" stroke:none;fill-rule:nonzero;fill:rgb(100%,100%,100%);fill-opacity:1;" d="M 448.054688 154.507812 C 446.363281 157.089844 445.140625 159.949219 444.453125 162.957031 C 444.453125 162.957031 436.113281 157.316406 438.621094 147.90625 C 440.152344 147.289062 441.726562 146.796875 443.332031 146.429688 C 443.332031 146.429688 442.238281 152.515625 448.054688 154.507812 Z M 448.054688 154.507812 "/>
</g>
</defs>
<g id="surface1">
<path style=" stroke:none;fill-rule:nonzero;fill:rgb(90.196078%,90.196078%,90.196078%);fill-opacity:1;" d="M 0 484 L 1269.554688 484 L 1269.554688 1299.039062 L 0 1299.039062 Z M 0 484 "/>
<path style=" stroke:none;fill-rule:nonzero;fill:rgb(90.196078%,90.196078%,90.196078%);fill-opacity:1;" d="M 506.652344 499.644531 L 557.425781 499.644531 L 557.425781 500.015625 L 506.652344 500.015625 Z M 506.652344 499.644531 "/>
<path style=" stroke:none;fill-rule:nonzero;fill:rgb(90.196078%,90.196078%,90.196078%);fill-opacity:1;" d="M 135.320312 499.820312 L 163.894531 499.820312 L 163.894531 500.191406 L 135.320312 500.191406 Z M 135.320312 499.820312 "/>
<path style=" stroke:none;fill-rule:nonzero;fill:rgb(90.196078%,90.196078%,90.196078%);fill-opacity:1;" d="M 312.558594 498.964844 L 370.476562 498.964844 L 370.476562 499.335938 L 312.558594 499.335938 Z M 312.558594 498.964844 "/>
<path style=" stroke:none;fill-rule:nonzero;fill:rgb(90.196078%,90.196078%,90.196078%);fill-opacity:1;" d="M 285.191406 493.707031 L 311.082031 493.707031 L 311.082031 494.074219 L 285.191406 494.074219 Z M 285.191406 493.707031 "/>
<path style=" stroke:none;fill-rule:nonzero;fill:rgb(90.196078%,90.196078%,90.196078%);fill-opacity:1;" d="M 548.4375 493.882812 L 626.652344 493.882812 L 626.652344 494.253906 L 548.4375 494.253906 Z M 548.4375 493.882812 "/>
<path style=" stroke:none;fill-rule:nonzero;fill:rgb(90.196078%,90.196078%,90.196078%);fill-opacity:1;" d="M 349.8125 418.117188 L 64.8125 418.117188 C 60.164062 418.109375 56.398438 414.335938 56.398438 409.683594 L 56.398438 8.722656 C 56.4375 4.097656 60.191406 0.371094 64.8125 0.363281 L 349.8125 0.363281 C 354.464844 0.363281 358.238281 4.136719 358.238281 8.796875 L 358.238281 409.683594 C 358.238281 414.339844 354.464844 418.117188 349.8125 418.117188 Z M 64.8125 0.65625 C 60.367188 0.664062 56.765625 4.273438 56.765625 8.722656 L 56.765625 409.683594 C 56.765625 414.132812 60.367188 417.738281 64.8125 417.75 L 349.8125 417.75 C 354.257812 417.738281 357.863281 414.132812 357.871094 409.683594 L 357.871094 8.722656 C 357.863281 4.273438 354.257812 0.664062 349.8125 0.65625 Z M 64.8125 0.65625 "/>
<path style=" stroke:none;fill-rule:nonzero;fill:rgb(90.196078%,90.196078%,90.196078%);fill-opacity:1;" d="M 669.085938 418.117188 L 384.070312 418.117188 C 379.417969 418.109375 375.648438 414.335938 375.640625 409.683594 L 375.640625 8.722656 C 375.691406 4.097656 379.449219 0.371094 384.070312 0.363281 L 669.085938 0.363281 C 673.699219 0.378906 677.445312 4.105469 677.484375 8.722656 L 677.484375 409.683594 C 677.484375 414.328125 673.730469 418.101562 669.085938 418.117188 Z M 384.070312 0.65625 C 379.621094 0.664062 376.019531 4.273438 376.011719 8.722656 L 376.011719 409.683594 C 376.019531 414.132812 379.621094 417.738281 384.070312 417.75 L 669.085938 417.75 C 673.53125 417.738281 677.136719 414.132812 677.144531 409.683594 L 677.144531 8.722656 C 677.136719 4.273438 673.53125 0.664062 669.085938 0.65625 Z M 384.070312 0.65625 "/>
<path style=" stroke:none;fill-rule:nonzero;fill:rgb(87.843137%,87.843137%,87.843137%);fill-opacity:1;" d="M 423.242188 27.882812 L 624.390625 27.882812 L 624.390625 262.464844 L 423.242188 262.464844 Z M 423.242188 27.882812 "/>
<path style=" stroke:none;fill-rule:nonzero;fill:rgb(96.078431%,96.078431%,96.078431%);fill-opacity:1;" d="M 425.796875 27.882812 L 629.851562 27.882812 L 629.851562 262.464844 L 425.796875 262.464844 Z M 425.796875 27.882812 "/>
<path style=" stroke:none;fill-rule:nonzero;fill:rgb(87.843137%,87.843137%,87.843137%);fill-opacity:1;" d="M 423.242188 262.449219 L 624.390625 262.449219 L 624.390625 275.597656 L 423.242188 275.597656 Z M 423.242188 262.449219 "/>
<path style=" stroke:none;fill-rule:nonzero;fill:rgb(96.078431%,96.078431%,96.078431%);fill-opacity:1;" d="M 462.753906 262.449219 L 654.855469 262.449219 L 654.855469 275.597656 L 462.753906 275.597656 Z M 462.753906 262.449219 "/>
<path style=" stroke:none;fill-rule:nonzero;fill:rgb(98.039216%,98.039216%,98.039216%);fill-opacity:1;" d="M 622.207031 37.824219 L 622.207031 252.507812 L 433.457031 252.507812 L 433.457031 37.824219 Z M 622.207031 37.824219 "/>
<path style=" stroke:none;fill-rule:nonzero;fill:rgb(100%,100%,100%);fill-opacity:1;" d="M 460.601562 252.507812 L 505.53125 37.824219 L 564.421875 37.824219 L 519.492188 252.507812 Z M 460.601562 252.507812 "/>
<path style=" stroke:none;fill-rule:nonzero;fill:rgb(100%,100%,100%);fill-opacity:1;" d="M 529.027344 252.507812 L 573.941406 37.824219 L 600.539062 37.824219 L 555.625 252.507812 Z M 529.027344 252.507812 "/>
<path style=" stroke:none;fill-rule:nonzero;fill:rgb(87.843137%,87.843137%,87.843137%);fill-opacity:1;" d="M 417.5 27.542969 L 417.5 111.0625 L 439.640625 111.0625 C 439.640625 111.0625 479.300781 85.167969 488.347656 31.886719 C 488.78125 29.316406 488.066406 26.6875 486.390625 24.695312 C 484.710938 22.703125 482.242188 21.550781 479.640625 21.546875 L 423.554688 21.546875 C 421.953125 21.535156 420.417969 22.160156 419.28125 23.285156 C 418.144531 24.410156 417.503906 25.941406 417.5 27.542969 Z M 417.5 27.542969 "/>
<path style=" stroke:none;fill-rule:nonzero;fill:rgb(87.843137%,87.843137%,87.843137%);fill-opacity:1;" d="M 417.5 244.945312 L 417.5 117.800781 L 439.640625 117.800781 C 439.640625 117.800781 452.335938 143.472656 464.984375 172.988281 C 471.820312 188.941406 470.183594 207.261719 460.636719 221.75 C 451.085938 236.238281 434.902344 244.953125 417.558594 244.945312 Z M 417.5 244.945312 "/>
<path style=" stroke:none;fill-rule:nonzero;fill:rgb(96.078431%,96.078431%,96.078431%);fill-opacity:1;" d="M 418.3125 111.0625 L 438.933594 111.0625 C 440.15625 111.0625 441.148438 112.054688 441.148438 113.28125 L 441.148438 115.585938 C 441.148438 116.808594 440.15625 117.800781 438.933594 117.800781 L 418.3125 117.800781 C 417.089844 117.800781 416.097656 116.808594 416.097656 115.585938 L 416.097656 113.28125 C 416.097656 112.054688 417.089844 111.0625 418.3125 111.0625 Z M 418.3125 111.0625 "/>
<path style=" stroke:none;fill-rule:nonzero;fill:rgb(87.843137%,87.843137%,87.843137%);fill-opacity:1;" d="M 636.15625 27.542969 L 636.15625 111.0625 L 614.015625 111.0625 C 614.015625 111.0625 574.339844 85.167969 565.308594 31.886719 C 564.875 29.320312 565.589844 26.691406 567.265625 24.703125 C 568.9375 22.710938 571.402344 21.554688 574 21.546875 L 630.089844 21.546875 C 631.691406 21.53125 633.230469 22.152344 634.371094 23.28125 C 635.507812 24.40625 636.152344 25.941406 636.15625 27.542969 Z M 636.15625 27.542969 "/>
<path style=" stroke:none;fill-rule:nonzero;fill:rgb(87.843137%,87.843137%,87.843137%);fill-opacity:1;" d="M 636.304688 244.972656 L 636.304688 117.828125 L 614.164062 117.828125 C 614.164062 117.828125 601.46875 143.488281 588.804688 173.019531 C 582.019531 188.972656 583.675781 207.273438 593.21875 221.746094 C 602.761719 236.21875 618.917969 244.941406 636.246094 244.972656 Z M 636.304688 244.972656 "/>
<path style=" stroke:none;fill-rule:nonzero;fill:rgb(96.078431%,96.078431%,96.078431%);fill-opacity:1;" d="M 635.300781 117.800781 L 614.679688 117.800781 C 613.457031 117.800781 612.464844 116.808594 612.464844 115.585938 L 612.464844 113.28125 C 612.464844 112.054688 613.457031 111.0625 614.679688 111.0625 L 635.300781 111.0625 C 636.523438 111.0625 637.515625 112.054688 637.515625 113.28125 L 637.515625 115.585938 C 637.515625 116.808594 636.523438 117.800781 635.300781 117.800781 Z M 635.300781 117.800781 "/>
<path style=" stroke:none;fill-rule:nonzero;fill:rgb(87.843137%,87.843137%,87.843137%);fill-opacity:1;" d="M 207.910156 131.226562 L 296.511719 131.226562 L 296.511719 228.296875 L 207.910156 228.296875 Z M 207.910156 131.226562 "/>
<path style=" stroke:none;fill-rule:nonzero;fill:rgb(98.039216%,98.039216%,98.039216%);fill-opacity:1;" d="M 212.707031 131.226562 L 308.972656 131.226562 L 308.972656 228.296875 L 212.707031 228.296875 Z M 212.707031 131.226562 "/>
<path style=" stroke:none;fill-rule:nonzero;fill:rgb(100%,100%,100%);fill-opacity:1;" d="M 299.039062 141.167969 L 299.039062 218.367188 L 222.625 218.367188 L 222.625 141.167969 Z M 299.039062 141.167969 "/>
<path style=" stroke:none;fill-rule:nonzero;fill:rgb(96.078431%,96.078431%,96.078431%);fill-opacity:1;" d="M 240.589844 179.769531 C 240.597656 169.699219 248.753906 161.539062 258.816406 161.539062 L 262.917969 161.539062 C 272.976562 161.546875 281.125 169.707031 281.132812 179.769531 C 281.132812 189.835938 272.980469 198 262.917969 198 L 258.816406 198 C 248.75 198.007812 240.589844 189.84375 240.589844 179.769531 Z M 240.589844 179.769531 "/>
<path style=" stroke:none;fill-rule:nonzero;fill:rgb(87.843137%,87.843137%,87.843137%);fill-opacity:1;" d="M 136.144531 154.390625 C 110.46875 154.390625 89.652344 133.558594 89.652344 107.859375 C 89.652344 82.160156 110.46875 61.328125 136.144531 61.328125 L 144.542969 61.328125 L 144.542969 154.390625 Z M 136.144531 154.390625 "/>
<path style=" stroke:none;fill-rule:nonzero;fill:rgb(98.039216%,98.039216%,98.039216%);fill-opacity:1;" d="M 191.007812 107.886719 C 191.007812 133.570312 170.207031 154.390625 144.542969 154.390625 C 118.882812 154.390625 98.082031 133.570312 98.082031 107.886719 C 98.082031 82.207031 118.882812 61.386719 144.542969 61.386719 C 170.207031 61.386719 191.007812 82.207031 191.007812 107.886719 Z M 191.007812 107.886719 "/>
<path style=" stroke:none;fill-rule:nonzero;fill:rgb(100%,100%,100%);fill-opacity:1;" d="M 179.585938 107.886719 C 179.585938 127.257812 163.898438 142.957031 144.542969 142.957031 C 125.191406 142.957031 109.503906 127.257812 109.503906 107.886719 C 109.503906 88.519531 125.191406 72.820312 144.542969 72.820312 C 163.898438 72.820312 179.585938 88.519531 179.585938 107.886719 Z M 179.585938 107.886719 "/>
<path style=" stroke:none;fill-rule:nonzero;fill:rgb(87.843137%,87.843137%,87.843137%);fill-opacity:1;" d="M 158.980469 121.003906 L 141.769531 108.980469 L 147.230469 82.421875 L 152.101562 83.425781 L 147.304688 106.78125 L 161.828125 116.914062 Z M 158.980469 121.003906 "/>
<path style=" stroke:none;fill-rule:nonzero;fill:rgb(87.843137%,87.843137%,87.843137%);fill-opacity:1;" d="M 456.71875 317.960938 L 520.054688 317.960938 L 520.054688 489.230469 L 456.71875 489.230469 Z M 456.71875 317.960938 "/>
<path style=" stroke:none;fill-rule:nonzero;fill:rgb(98.039216%,98.039216%,98.039216%);fill-opacity:1;" d="M 503.140625 489.230469 L 520.054688 489.230469 L 520.054688 460.867188 L 485.414062 460.867188 Z M 503.140625 489.230469 "/>
<path style=" stroke:none;fill-rule:nonzero;fill:rgb(87.843137%,87.843137%,87.843137%);fill-opacity:1;" d="M 77.019531 317.960938 L 140.351562 317.960938 L 140.351562 489.230469 L 77.019531 489.230469 Z M 77.019531 317.960938 "/>
<path style=" stroke:none;fill-rule:nonzero;fill:rgb(98.039216%,98.039216%,98.039216%);fill-opacity:1;" d="M 125.59375 317.960938 L 520.070312 317.960938 L 520.070312 479.464844 L 125.59375 479.464844 Z M 125.59375 317.960938 "/>
<path style=" stroke:none;fill-rule:nonzero;fill:rgb(98.039216%,98.039216%,98.039216%);fill-opacity:1;" d="M 142.507812 489.230469 L 125.59375 489.230469 L 125.59375 460.867188 L 160.234375 460.867188 Z M 142.507812 489.230469 "/>
<path style=" stroke:none;fill-rule:nonzero;fill:rgb(94.117647%,94.117647%,94.117647%);fill-opacity:1;" d="M 138.714844 331.847656 L 506.945312 331.847656 L 506.945312 391.292969 L 138.714844 391.292969 Z M 138.714844 331.847656 "/>
<path style=" stroke:none;fill-rule:nonzero;fill:rgb(94.117647%,94.117647%,94.117647%);fill-opacity:1;" d="M 138.714844 405.664062 L 506.945312 405.664062 L 506.945312 465.109375 L 138.714844 465.109375 Z M 138.714844 405.664062 "/>
<path style=" stroke:none;fill-rule:nonzero;fill:rgb(87.843137%,87.843137%,87.843137%);fill-opacity:1;" d="M 138.714844 331.847656 L 452.953125 331.847656 L 452.953125 391.292969 L 138.714844 391.292969 Z M 138.714844 331.847656 "/>
<path style=" stroke:none;fill-rule:nonzero;fill:rgb(98.039216%,98.039216%,98.039216%);fill-opacity:1;" d="M 235.480469 339.871094 L 216.367188 339.871094 C 216.367188 339.871094 219.6875 351.347656 219.6875 358.097656 C 219.6875 364.847656 205.148438 391.304688 225.929688 391.304688 C 246.714844 391.304688 232.160156 364.847656 232.160156 358.097656 C 232.160156 351.347656 235.480469 339.871094 235.480469 339.871094 Z M 235.480469 339.871094 "/>
<path style=" stroke:none;fill-rule:nonzero;fill:rgb(94.117647%,94.117647%,94.117647%);fill-opacity:1;" d="M 160.234375 359.8125 L 160.234375 370.253906 C 160.234375 381.835938 171.421875 391.304688 185.089844 391.304688 L 197.414062 391.304688 C 211.082031 391.304688 222.269531 381.835938 222.269531 370.253906 L 222.269531 359.8125 Z M 160.234375 359.8125 "/>
<path style=" stroke:none;fill-rule:nonzero;fill:rgb(87.843137%,87.843137%,87.843137%);fill-opacity:1;" d="M 138.714844 405.664062 L 452.953125 405.664062 L 452.953125 465.109375 L 138.714844 465.109375 Z M 138.714844 405.664062 "/>
<path style=" stroke:none;fill-rule:nonzero;fill:rgb(100%,100%,100%);fill-opacity:1;" d="M 344.632812 464.027344 L 315.199219 464.027344 L 315.199219 414.972656 L 344.632812 414.972656 Z M 344.632812 464.027344 "/>
<path style=" stroke:none;fill-rule:nonzero;fill:rgb(90.196078%,90.196078%,90.196078%);fill-opacity:1;" d="M 342.046875 464.796875 L 340.039062 464.796875 L 340.039062 415.738281 L 342.046875 415.738281 Z M 342.046875 464.796875 "/>
<path style=" stroke:none;fill-rule:nonzero;fill:rgb(92.156863%,92.156863%,92.156863%);fill-opacity:1;" d="M 347.332031 465.167969 L 342.195312 465.167969 C 341.804688 465.167969 341.488281 464.847656 341.488281 464.457031 L 341.488281 416.0625 C 341.488281 415.671875 341.804688 415.355469 342.195312 415.355469 L 347.332031 415.355469 C 347.722656 415.355469 348.039062 415.671875 348.039062 416.0625 L 348.039062 464.457031 C 348.039062 464.847656 347.722656 465.167969 347.332031 465.167969 Z M 347.332031 465.167969 "/>
<path style=" stroke:none;fill-rule:nonzero;fill:rgb(100%,100%,100%);fill-opacity:1;" d="M 348.039062 438.371094 L 341.488281 438.371094 L 341.488281 426.730469 L 348.039062 426.730469 Z M 348.039062 438.371094 "/>
<path style=" stroke:none;fill-rule:nonzero;fill:rgb(100%,100%,100%);fill-opacity:1;" d="M 348.039062 449.140625 L 341.488281 449.140625 L 341.488281 441.960938 L 348.039062 441.960938 Z M 348.039062 449.140625 "/>
<path style=" stroke:none;fill-rule:nonzero;fill:rgb(92.156863%,92.156863%,92.156863%);fill-opacity:1;" d="M 340.21875 465.167969 L 313.695312 465.167969 C 313.304688 465.167969 312.984375 464.847656 312.984375 464.457031 L 312.984375 416.0625 C 312.984375 415.671875 313.304688 415.355469 313.695312 415.355469 L 340.21875 415.355469 C 340.609375 415.355469 340.925781 415.671875 340.925781 416.0625 L 340.925781 464.457031 C 340.925781 464.847656 340.609375 465.167969 340.21875 465.167969 Z M 340.21875 465.167969 "/>
<path style=" stroke:none;fill-rule:nonzero;fill:rgb(100%,100%,100%);fill-opacity:1;" d="M 333.308594 463.910156 L 300.839844 463.910156 L 300.839844 409.785156 L 333.308594 409.785156 Z M 333.308594 463.910156 "/>
<path style=" stroke:none;fill-rule:nonzero;fill:rgb(90.196078%,90.196078%,90.196078%);fill-opacity:1;" d="M 330.476562 464.753906 L 328.277344 464.753906 L 328.277344 410.628906 L 330.476562 410.628906 Z M 330.476562 464.753906 "/>
<path style=" stroke:none;fill-rule:nonzero;fill:rgb(94.117647%,94.117647%,94.117647%);fill-opacity:1;" d="M 336.304688 465.167969 L 330.640625 465.167969 C 330.207031 465.167969 329.855469 464.816406 329.855469 464.382812 L 329.855469 410.996094 C 329.855469 410.566406 330.207031 410.214844 330.640625 410.214844 L 336.304688 410.214844 C 336.738281 410.214844 337.089844 410.566406 337.089844 410.996094 L 337.089844 464.382812 C 337.089844 464.816406 336.738281 465.167969 336.304688 465.167969 Z M 336.304688 465.167969 "/>
<path style=" stroke:none;fill-rule:nonzero;fill:rgb(100%,100%,100%);fill-opacity:1;" d="M 337.089844 429.59375 L 329.855469 429.59375 L 329.855469 427.71875 L 337.089844 427.71875 Z M 337.089844 429.59375 "/>
<path style=" stroke:none;fill-rule:nonzero;fill:rgb(100%,100%,100%);fill-opacity:1;" d="M 337.089844 435.03125 L 329.855469 435.03125 L 329.855469 433.15625 L 337.089844 433.15625 Z M 337.089844 435.03125 "/>
<path style=" stroke:none;fill-rule:nonzero;fill:rgb(100%,100%,100%);fill-opacity:1;" d="M 337.089844 440.453125 L 329.855469 440.453125 L 329.855469 438.578125 L 337.089844 438.578125 Z M 337.089844 440.453125 "/>
<path style=" stroke:none;fill-rule:nonzero;fill:rgb(94.117647%,94.117647%,94.117647%);fill-opacity:1;" d="M 328.453125 465.167969 L 299.199219 465.167969 C 298.769531 465.167969 298.417969 464.816406 298.417969 464.382812 L 298.417969 410.996094 C 298.417969 410.566406 298.769531 410.214844 299.199219 410.214844 L 328.453125 410.214844 C 328.886719 410.214844 329.238281 410.566406 329.238281 410.996094 L 329.238281 464.382812 C 329.238281 464.816406 328.886719 465.167969 328.453125 465.167969 Z M 328.453125 465.167969 "/>
<path style=" stroke:none;fill-rule:nonzero;fill:rgb(98.039216%,98.039216%,98.039216%);fill-opacity:1;" d="M 260.839844 446.316406 C 260.847656 450.921875 257.125 454.65625 252.523438 454.664062 C 247.925781 454.667969 244.191406 450.941406 244.191406 446.335938 C 244.1875 441.734375 247.914062 438 252.515625 438 C 257.105469 438 260.832031 441.722656 260.839844 446.316406 Z M 260.839844 446.316406 "/>
<path style=" stroke:none;fill-rule:nonzero;fill:rgb(98.039216%,98.039216%,98.039216%);fill-opacity:1;" d="M 246.65625 450.292969 C 246.65625 453.890625 243.738281 456.804688 240.144531 456.804688 C 236.550781 456.804688 233.636719 453.890625 233.636719 450.292969 C 233.636719 446.691406 236.550781 443.777344 240.144531 443.777344 C 243.738281 443.785156 246.644531 446.695312 246.65625 450.292969 Z M 246.65625 450.292969 "/>
<path style=" stroke:none;fill-rule:nonzero;fill:rgb(98.039216%,98.039216%,98.039216%);fill-opacity:1;" d="M 275.082031 450.292969 C 275.082031 454.890625 271.355469 458.621094 266.757812 458.621094 C 262.160156 458.621094 258.433594 454.890625 258.433594 450.292969 C 258.433594 445.691406 262.160156 441.960938 266.757812 441.960938 C 271.351562 441.96875 275.074219 445.691406 275.082031 450.292969 Z M 275.082031 450.292969 "/>
<path style=" stroke:none;fill-rule:nonzero;fill:rgb(98.039216%,98.039216%,98.039216%);fill-opacity:1;" d="M 288.71875 447.855469 C 288.71875 452.453125 284.992188 456.183594 280.394531 456.183594 C 275.796875 456.183594 272.070312 452.453125 272.070312 447.855469 C 272.070312 443.253906 275.796875 439.523438 280.394531 439.523438 C 284.992188 439.523438 288.71875 443.253906 288.71875 447.855469 Z M 288.71875 447.855469 "/>
<path style=" stroke:none;fill-rule:nonzero;fill:rgb(96.078431%,96.078431%,96.078431%);fill-opacity:1;" d="M 217.238281 448.933594 C 217.238281 448.933594 218.375 465.179688 262.167969 465.179688 C 305.960938 465.179688 307.097656 448.933594 307.097656 448.933594 Z M 217.238281 448.933594 "/>
<path style=" stroke:none;fill-rule:nonzero;fill:rgb(100%,100%,100%);fill-opacity:1;" d="M 340.039062 375.058594 C 340.039062 375.058594 341.855469 391.304688 411.257812 391.304688 C 480.660156 391.304688 482.460938 375.058594 482.460938 375.058594 Z M 340.039062 375.058594 "/>
<path style=" stroke:none;fill-rule:nonzero;fill:rgb(96.078431%,96.078431%,96.078431%);fill-opacity:1;" d="M 655.179688 533.988281 C 655.179688 524.753906 527.054688 517.269531 369 517.269531 C 210.945312 517.269531 82.820312 524.753906 82.820312 533.988281 C 82.820312 543.226562 210.945312 550.710938 369 550.710938 C 527.054688 550.710938 655.179688 543.226562 655.179688 533.988281 Z M 655.179688 533.988281 "/>
<path style=" stroke:none;fill-rule:nonzero;fill:rgb(9.803922%,52.941176%,32.941176%);fill-opacity:1;" d="M 216.855469 199.390625 C 248.074219 230.632812 248.074219 281.289062 216.855469 312.535156 C 185.636719 343.777344 135.023438 343.777344 103.804688 312.535156 C 72.585938 281.289062 72.585938 230.632812 103.804688 199.390625 C 135.023438 168.144531 185.636719 168.144531 216.855469 199.390625 Z M 216.855469 199.390625 "/>
<use xlink:href="#surface5" mask="url(#mask0)"/>
<use xlink:href="#surface8" mask="url(#mask1)"/>
<path style=" stroke:none;fill-rule:nonzero;fill:rgb(9.803922%,52.941176%,32.941176%);fill-opacity:1;" d="M 169.785156 193.386719 C 205.375 195.878906 232.207031 226.777344 229.71875 262.394531 C 227.226562 298.015625 196.355469 324.871094 160.765625 322.375 C 125.171875 319.882812 98.339844 288.988281 100.832031 253.367188 C 103.324219 217.746094 134.195312 190.894531 169.785156 193.386719 Z M 169.785156 193.386719 "/>
<use xlink:href="#surface11" mask="url(#mask2)"/>
<path style=" stroke:none;fill-rule:nonzero;fill:rgb(9.803922%,52.941176%,32.941176%);fill-opacity:1;" d="M 186.875 249.804688 L 191.082031 268.046875 C 191.445312 269.457031 191.199219 270.949219 190.402344 272.167969 C 189.632812 273.414062 188.394531 274.292969 186.964844 274.605469 L 170.9375 278.3125 L 173.886719 291.152344 C 174.238281 292.554688 173.980469 294.039062 173.179688 295.242188 C 172.410156 296.46875 171.160156 297.3125 169.738281 297.578125 C 168.316406 297.933594 166.808594 297.699219 165.5625 296.925781 C 164.320312 296.195312 163.441406 294.972656 163.140625 293.558594 L 160.191406 280.574219 L 144.292969 284.253906 C 142.910156 284.585938 141.449219 284.339844 140.25 283.574219 C 139.003906 282.839844 138.121094 281.621094 137.8125 280.203125 C 137.476562 278.808594 137.71875 277.335938 138.492188 276.128906 C 139.230469 274.890625 140.449219 274.019531 141.859375 273.71875 L 179.054688 265.136719 L 177.3125 257.558594 L 140.21875 266.113281 C 138.832031 266.464844 137.359375 266.238281 136.144531 265.476562 C 134.902344 264.730469 134.027344 263.488281 133.742188 262.066406 L 129.546875 243.894531 C 128.875 240.988281 130.6875 238.082031 133.59375 237.410156 L 149.414062 233.761719 L 146.464844 220.910156 C 146.117188 219.535156 146.339844 218.082031 147.082031 216.875 C 147.871094 215.570312 149.183594 214.664062 150.683594 214.394531 C 152.0625 214.058594 153.519531 214.304688 154.714844 215.074219 C 155.9375 215.828125 156.804688 217.050781 157.105469 218.457031 L 160.058594 231.292969 L 176.292969 227.570312 C 177.710938 227.226562 179.210938 227.480469 180.441406 228.265625 C 181.6875 228.984375 182.574219 230.1875 182.890625 231.589844 C 183.539062 234.5625 181.695312 237.507812 178.742188 238.222656 L 141.546875 246.804688 L 143.171875 254.339844 L 180.234375 245.785156 C 181.652344 245.441406 183.152344 245.691406 184.382812 246.480469 C 185.648438 247.183594 186.554688 248.390625 186.875 249.804688 Z M 186.875 249.804688 "/>
<use xlink:href="#surface14" mask="url(#mask3)"/>
<path style=" stroke:none;fill-rule:nonzero;fill:rgb(9.803922%,52.941176%,32.941176%);fill-opacity:1;" d="M 324.316406 113.644531 C 347.851562 133.550781 350.804688 168.78125 330.917969 192.335938 C 311.027344 215.890625 275.824219 218.851562 252.289062 198.945312 C 228.753906 179.039062 225.800781 143.808594 245.6875 120.253906 C 265.578125 96.699219 300.78125 93.742188 324.316406 113.644531 Z M 324.316406 113.644531 "/>
<use xlink:href="#surface17" mask="url(#mask4)"/>
<use xlink:href="#surface20" mask="url(#mask5)"/>
<path style=" stroke:none;fill-rule:nonzero;fill:rgb(9.803922%,52.941176%,32.941176%);fill-opacity:1;" d="M 317.40625 123.523438 C 337.140625 138.617188 340.910156 166.867188 325.828125 186.617188 C 310.746094 206.367188 282.519531 210.140625 262.785156 195.046875 C 243.050781 179.953125 239.28125 151.703125 254.363281 131.953125 C 269.445312 112.203125 297.671875 108.429688 317.40625 123.523438 Z M 317.40625 123.523438 "/>
<use xlink:href="#surface23" mask="url(#mask6)"/>
<path style=" stroke:none;fill-rule:nonzero;fill:rgb(9.803922%,52.941176%,32.941176%);fill-opacity:1;" d="M 306.742188 160.875 L 303.570312 173.550781 C 303.335938 174.523438 302.703125 175.355469 301.828125 175.839844 C 300.941406 176.378906 299.875 176.53125 298.875 176.269531 L 287.820312 173.476562 L 285.578125 182.339844 C 285.347656 183.320312 284.714844 184.15625 283.835938 184.644531 C 282.988281 185.167969 281.964844 185.324219 281 185.074219 C 280.007812 184.839844 279.152344 184.214844 278.625 183.34375 C 278.085938 182.492188 277.925781 181.453125 278.183594 180.476562 L 280.441406 171.46875 L 269.371094 168.765625 C 268.402344 168.53125 267.570312 167.914062 267.066406 167.050781 C 266.527344 166.203125 266.367188 165.171875 266.625 164.199219 C 266.847656 163.21875 267.46875 162.371094 268.335938 161.867188 C 269.195312 161.339844 270.230469 161.191406 271.199219 161.453125 L 297.03125 167.9375 L 298.359375 162.679688 L 272.601562 156.207031 C 271.628906 155.988281 270.789062 155.375 270.285156 154.507812 C 269.746094 153.65625 269.59375 152.613281 269.871094 151.644531 L 273.03125 139.011719 C 273.269531 138.039062 273.890625 137.203125 274.75 136.691406 C 275.609375 136.179688 276.636719 136.03125 277.605469 136.28125 L 288.558594 139.027344 L 290.800781 130.164062 C 291.019531 129.152344 291.652344 128.28125 292.542969 127.753906 C 293.433594 127.230469 294.503906 127.101562 295.496094 127.402344 C 296.457031 127.625 297.28125 128.242188 297.769531 129.101562 C 298.296875 129.953125 298.449219 130.984375 298.195312 131.953125 L 295.953125 140.816406 L 307.171875 143.636719 C 308.164062 143.875 309.019531 144.507812 309.53125 145.394531 C 310.074219 146.234375 310.246094 147.261719 310.003906 148.230469 C 309.753906 149.226562 309.117188 150.078125 308.234375 150.59375 C 307.351562 151.144531 306.285156 151.304688 305.28125 151.039062 L 279.4375 144.550781 L 278.136719 149.78125 L 303.878906 156.238281 C 304.875 156.476562 305.726562 157.109375 306.242188 157.996094 C 306.816406 158.835938 307 159.886719 306.742188 160.875 Z M 306.742188 160.875 "/>
<use xlink:href="#surface26" mask="url(#mask7)"/>
<path style=" stroke:none;fill-rule:nonzero;fill:rgb(9.803922%,52.941176%,32.941176%);fill-opacity:1;" d="M 150.9375 493.707031 L 152.410156 493.707031 L 152.410156 510.382812 L 150.9375 510.382812 Z M 150.9375 493.707031 "/>
<use xlink:href="#surface29" mask="url(#mask8)"/>
<path style=" stroke:none;fill-rule:nonzero;fill:rgb(9.803922%,52.941176%,32.941176%);fill-opacity:1;" d="M 585.589844 361.570312 L 587.0625 361.570312 L 587.0625 384.421875 L 585.589844 384.421875 Z M 585.589844 361.570312 "/>
<path style=" stroke:none;fill-rule:nonzero;fill:rgb(9.803922%,52.941176%,32.941176%);fill-opacity:1;" d="M 585.589844 396.417969 L 587.0625 396.417969 L 587.0625 408.8125 L 585.589844 408.8125 Z M 585.589844 396.417969 "/>
<use xlink:href="#surface32" mask="url(#mask9)"/>
<use xlink:href="#surface35" mask="url(#mask10)"/>
<path style=" stroke:none;fill-rule:nonzero;fill:rgb(9.803922%,52.941176%,32.941176%);fill-opacity:1;" d="M 178.316406 262.476562 L 559.699219 262.476562 C 571.96875 262.476562 581.914062 272.433594 581.914062 284.710938 L 581.914062 508.140625 C 581.914062 520.417969 571.96875 530.371094 559.699219 530.371094 L 178.316406 530.371094 C 166.046875 530.371094 156.101562 520.417969 156.101562 508.140625 L 156.101562 284.710938 C 156.101562 272.433594 166.046875 262.476562 178.316406 262.476562 Z M 178.316406 262.476562 "/>
<use xlink:href="#surface38" mask="url(#mask11)"/>
<path style=" stroke:none;fill-rule:nonzero;fill:rgb(9.803922%,52.941176%,32.941176%);fill-opacity:1;" d="M 512.984375 355.765625 C 528.203125 355.765625 540.539062 343.417969 540.539062 328.183594 C 540.539062 312.953125 528.203125 300.605469 512.984375 300.605469 L 477.414062 300.605469 C 462.191406 300.605469 449.855469 312.953125 449.855469 328.183594 C 449.855469 343.417969 462.191406 355.765625 477.414062 355.765625 Z M 512.984375 355.765625 "/>
<path style=" stroke:none;fill-rule:nonzero;fill:rgb(9.803922%,52.941176%,32.941176%);fill-opacity:1;" d="M 207.039062 355.75 L 272.675781 355.75 C 277.957031 355.75 282.242188 360.035156 282.242188 365.320312 L 282.242188 408.265625 C 282.242188 413.550781 277.957031 417.835938 272.675781 417.835938 L 207.039062 417.835938 C 201.757812 417.835938 197.472656 413.550781 197.472656 408.265625 L 197.472656 365.320312 C 197.472656 360.035156 201.757812 355.75 207.039062 355.75 Z M 207.039062 355.75 "/>
<use xlink:href="#surface41" mask="url(#mask12)"/>
<path style=" stroke:none;fill-rule:nonzero;fill:rgb(9.803922%,52.941176%,32.941176%);fill-opacity:1;" d="M 204.25 293.824219 L 318.09375 293.824219 C 321.835938 293.824219 324.867188 296.855469 324.867188 300.597656 C 324.867188 304.339844 321.835938 307.371094 318.09375 307.371094 L 204.25 307.371094 C 200.507812 307.371094 197.472656 304.339844 197.472656 300.597656 C 197.472656 296.855469 200.507812 293.824219 204.25 293.824219 Z M 204.25 293.824219 "/>
<use xlink:href="#surface44" mask="url(#mask13)"/>
<path style=" stroke:none;fill-rule:nonzero;fill:rgb(9.803922%,52.941176%,32.941176%);fill-opacity:1;" d="M 207.40625 448.652344 L 258.609375 448.652344 C 264.097656 448.652344 268.542969 453.101562 268.542969 458.59375 L 268.542969 467.882812 C 268.542969 473.375 264.097656 477.828125 258.609375 477.828125 L 207.40625 477.828125 C 201.921875 477.828125 197.472656 473.375 197.472656 467.882812 L 197.472656 458.59375 C 197.472656 453.101562 201.921875 448.652344 207.40625 448.652344 Z M 207.40625 448.652344 "/>
<use xlink:href="#surface47" mask="url(#mask14)"/>
<path style=" stroke:none;fill-rule:nonzero;fill:rgb(9.803922%,52.941176%,32.941176%);fill-opacity:1;" d="M 298.0625 448.652344 L 349.265625 448.652344 C 354.753906 448.652344 359.199219 453.101562 359.199219 458.59375 L 359.199219 467.882812 C 359.199219 473.375 354.753906 477.828125 349.265625 477.828125 L 298.0625 477.828125 C 292.578125 477.828125 288.128906 473.375 288.128906 467.882812 L 288.128906 458.59375 C 288.128906 453.101562 292.578125 448.652344 298.0625 448.652344 Z M 298.0625 448.652344 "/>
<use xlink:href="#surface50" mask="url(#mask15)"/>
<path style=" stroke:none;fill-rule:nonzero;fill:rgb(9.803922%,52.941176%,32.941176%);fill-opacity:1;" d="M 388.734375 448.652344 L 439.9375 448.652344 C 445.421875 448.652344 449.871094 453.101562 449.871094 458.59375 L 449.871094 467.882812 C 449.871094 473.375 445.421875 477.828125 439.9375 477.828125 L 388.734375 477.828125 C 383.246094 477.828125 378.800781 473.375 378.800781 467.882812 L 378.800781 458.59375 C 378.800781 453.101562 383.246094 448.652344 388.734375 448.652344 Z M 388.734375 448.652344 "/>
<use xlink:href="#surface53" mask="url(#mask16)"/>
<path style=" stroke:none;fill-rule:nonzero;fill:rgb(9.803922%,52.941176%,32.941176%);fill-opacity:1;" d="M 479.390625 448.652344 L 530.59375 448.652344 C 536.078125 448.652344 540.527344 453.101562 540.527344 458.59375 L 540.527344 467.882812 C 540.527344 473.375 536.078125 477.828125 530.59375 477.828125 L 479.390625 477.828125 C 473.902344 477.828125 469.457031 473.375 469.457031 467.882812 L 469.457031 458.59375 C 469.457031 453.101562 473.902344 448.652344 479.390625 448.652344 Z M 479.390625 448.652344 "/>
<use xlink:href="#surface56" mask="url(#mask17)"/>
<path style=" stroke:none;fill-rule:nonzero;fill:rgb(89.411765%,53.72549%,48.235294%);fill-opacity:1;" d="M 432.46875 165.542969 C 428.96875 175.425781 425.089844 184.984375 420.96875 194.542969 C 416.800781 204.261719 412.019531 213.703125 406.652344 222.816406 C 405.929688 223.980469 405.175781 225.148438 404.394531 226.316406 L 403.820312 227.1875 L 403.035156 228.265625 C 402.503906 228.945312 402.003906 229.535156 401.5625 230.113281 C 399.699219 232.1875 397.730469 234.160156 395.65625 236.023438 C 391.714844 239.671875 387.699219 242.980469 383.640625 246.242188 C 375.496094 252.714844 367.167969 258.769531 358.550781 264.515625 L 353.398438 258.121094 L 375.097656 236.714844 C 378.683594 233.15625 382.238281 229.566406 385.5625 225.976562 C 387.199219 224.1875 388.792969 222.355469 390.105469 220.671875 C 390.429688 220.257812 390.710938 219.847656 390.960938 219.492188 L 391.273438 218.988281 L 391.699219 218.222656 C 392.277344 217.203125 392.882812 216.210938 393.441406 215.164062 C 397.960938 206.667969 401.945312 197.4375 405.78125 188.070312 C 409.621094 178.707031 413.308594 169.265625 416.851562 159.902344 Z M 432.46875 165.542969 "/>
<path style=" stroke:none;fill-rule:nonzero;fill:rgb(9.803922%,52.941176%,32.941176%);fill-opacity:1;" d="M 436.617188 158.421875 C 439.964844 168.230469 420.277344 197.082031 420.277344 197.082031 L 401.472656 186.609375 C 404.675781 177.605469 408.460938 168.824219 412.808594 160.3125 C 419.390625 147.847656 432.941406 147.65625 436.617188 158.421875 Z M 436.617188 158.421875 "/>
<use xlink:href="#surface59" mask="url(#mask18)"/>
<use xlink:href="#surface62" mask="url(#mask19)"/>
<path style=" stroke:none;fill-rule:nonzero;fill:rgb(9.803922%,52.941176%,32.941176%);fill-opacity:1;" d="M 423.878906 150.917969 C 423.878906 150.917969 409.824219 183.992188 419.953125 245.578125 L 478.476562 245.578125 C 479.199219 236.582031 475.066406 192.722656 485.207031 150.359375 C 478.761719 149.101562 472.246094 148.273438 465.691406 147.875 C 457.410156 147.402344 449.105469 147.402344 440.820312 147.875 C 435.105469 148.457031 429.441406 149.476562 423.878906 150.917969 Z M 423.878906 150.917969 "/>
<use xlink:href="#surface65" mask="url(#mask20)"/>
<path style=" stroke:none;fill-rule:nonzero;fill:rgb(89.411765%,53.72549%,48.235294%);fill-opacity:1;" d="M 499.199219 507.960938 L 490.535156 515.730469 L 474.015625 498.535156 L 482.695312 490.765625 Z M 499.199219 507.960938 "/>
<path style=" stroke:none;fill-rule:nonzero;fill:rgb(89.411765%,53.72549%,48.235294%);fill-opacity:1;" d="M 469.484375 524.136719 L 458.550781 524.136719 L 457.132812 498.773438 L 468.070312 498.773438 Z M 469.484375 524.136719 "/>
<path style=" stroke:none;fill-rule:nonzero;fill:rgb(80.784314%,43.529412%,39.215686%);fill-opacity:1;" d="M 474.03125 498.535156 L 482.535156 507.398438 L 491.210938 499.628906 L 482.710938 490.765625 Z M 474.03125 498.535156 "/>
<path style=" stroke:none;fill-rule:nonzero;fill:rgb(80.784314%,43.529412%,39.215686%);fill-opacity:1;" d="M 468.070312 498.789062 L 457.132812 498.789062 L 457.871094 511.859375 L 468.808594 511.859375 Z M 468.070312 498.789062 "/>
<path style=" stroke:none;fill-rule:nonzero;fill:rgb(9.803922%,52.941176%,32.941176%);fill-opacity:1;" d="M 419.953125 245.578125 C 419.953125 245.578125 408.425781 325.4375 404.496094 368.898438 C 401.339844 403.773438 476.6875 507.753906 476.6875 507.753906 L 491.257812 494.03125 C 491.257812 494.03125 436.230469 400.804688 440.46875 361.984375 C 444.570312 324.386719 458.476562 245.535156 458.476562 245.535156 Z M 419.953125 245.578125 "/>
<use xlink:href="#surface68" mask="url(#mask21)"/>
<use xlink:href="#surface71" mask="url(#mask22)"/>
<path style=" stroke:none;fill-rule:nonzero;fill:rgb(9.803922%,52.941176%,32.941176%);fill-opacity:1;" d="M 440.761719 245.578125 C 440.761719 245.578125 439.730469 329.261719 441.5 360.625 C 443.433594 394.953125 453.175781 508.699219 453.175781 508.699219 L 473.21875 508.699219 C 473.21875 508.699219 472.613281 397.730469 473.796875 363.757812 C 475.109375 326.824219 478.503906 245.578125 478.503906 245.578125 Z M 440.761719 245.578125 "/>
<use xlink:href="#surface74" mask="url(#mask23)"/>
<path style=" stroke:none;fill-rule:nonzero;fill:rgb(14.901961%,19.607843%,21.960784%);fill-opacity:1;" d="M 457.972656 522.882812 L 470.269531 522.882812 C 470.695312 522.863281 471.054688 523.191406 471.082031 523.621094 L 471.683594 533.355469 C 471.695312 534.421875 470.835938 535.296875 469.765625 535.304688 C 465.484375 535.230469 463.433594 534.980469 458.03125 534.980469 C 454.710938 534.980469 440.570312 535.335938 435.980469 535.335938 C 431.390625 535.335938 431.554688 530.785156 433.457031 530.371094 C 442.179688 528.523438 453 525.9375 456.097656 523.546875 C 456.632812 523.125 457.292969 522.890625 457.972656 522.882812 Z M 457.972656 522.882812 "/>
<path style=" stroke:none;fill-rule:nonzero;fill:rgb(14.901961%,19.607843%,21.960784%);fill-opacity:1;" d="M 488.144531 512.628906 L 498.679688 505.523438 C 499.035156 505.242188 499.539062 505.242188 499.890625 505.523438 L 507.949219 513.664062 C 508.269531 514.027344 508.410156 514.511719 508.335938 514.988281 C 508.261719 515.464844 507.980469 515.882812 507.566406 516.128906 C 500.835938 521.316406 495.980469 525.230469 492.144531 529.542969 C 487.714844 534.582031 485.324219 535.304688 474.992188 535.304688 C 470.210938 535.304688 467.507812 531.273438 469.457031 530.652344 C 486.667969 525.199219 482.0625 522.820312 486.253906 514.832031 C 486.691406 513.949219 487.339844 513.195312 488.144531 512.628906 Z M 488.144531 512.628906 "/>
<path style=" stroke:none;fill-rule:nonzero;fill:rgb(89.411765%,53.72549%,48.235294%);fill-opacity:1;" d="M 355.878906 256.746094 L 344.46875 257.144531 L 346.859375 266.097656 C 346.859375 266.097656 358.785156 267.160156 359.847656 263.558594 Z M 355.878906 256.746094 "/>
<path style=" stroke:none;fill-rule:nonzero;fill:rgb(89.411765%,53.72549%,48.235294%);fill-opacity:1;" d="M 332.160156 262.476562 L 340.160156 267.144531 L 346.859375 266.097656 L 344.46875 257.144531 Z M 332.160156 262.476562 "/>
<use xlink:href="#surface77" mask="url(#mask24)"/>
<path style=" stroke:none;fill-rule:nonzero;fill:rgb(89.411765%,53.72549%,48.235294%);fill-opacity:1;" d="M 464.203125 119.839844 C 462.355469 127.84375 460.277344 142.527344 465.679688 147.90625 C 465.679688 147.90625 463.347656 154.539062 448.46875 154.539062 C 432.113281 154.539062 440.808594 147.90625 440.808594 147.90625 C 449.8125 145.777344 449.8125 139.144531 448.46875 132.925781 Z M 464.203125 119.839844 "/>
<path style=" stroke:none;fill-rule:nonzero;fill:rgb(9.803922%,52.941176%,32.941176%);fill-opacity:1;" d="M 448.054688 154.507812 L 443.625 159.222656 L 445.796875 163.769531 L 449.324219 163.933594 L 452.335938 159.589844 Z M 448.054688 154.507812 "/>
<path style=" stroke:none;fill-rule:nonzero;fill:rgb(80.784314%,43.529412%,39.215686%);fill-opacity:1;" d="M 457.796875 125.171875 L 448.484375 132.882812 C 448.816406 134.339844 449.023438 135.820312 449.101562 137.3125 C 452.527344 136.828125 457.339844 133.074219 457.824219 129.5 C 458.085938 128.066406 458.078125 126.601562 457.796875 125.171875 Z M 457.796875 125.171875 "/>
<path style=" stroke:none;fill-rule:nonzero;fill:rgb(14.901961%,19.607843%,21.960784%);fill-opacity:1;" d="M 444.792969 92.6875 C 439.199219 94.59375 434.726562 109.4375 441.25 113.367188 C 447.773438 117.296875 455.417969 89.070312 444.792969 92.6875 Z M 444.792969 92.6875 "/>
<path style=" stroke:none;fill-rule:nonzero;fill:rgb(89.411765%,53.72549%,48.235294%);fill-opacity:1;" d="M 467.699219 111.449219 C 464.363281 121.789062 462.949219 128.039062 456.21875 132.277344 C 451.792969 135.125 446.152344 135.277344 441.578125 132.679688 C 437.003906 130.082031 434.246094 125.160156 434.417969 119.898438 C 434.550781 109.957031 439.980469 94.652344 451.417969 92.730469 C 456.4375 91.761719 461.589844 93.539062 464.945312 97.398438 C 468.300781 101.253906 469.351562 106.609375 467.699219 111.449219 Z M 467.699219 111.449219 "/>
<path style=" stroke:none;fill-rule:nonzero;fill:rgb(14.901961%,19.607843%,21.960784%);fill-opacity:1;" d="M 475.964844 94.164062 C 472.628906 102.230469 480.394531 95.496094 478.386719 105.066406 C 477.085938 111.300781 465.839844 126.234375 461.5 124.875 C 457.160156 123.515625 457.207031 112.925781 462.742188 105.4375 C 465.929688 101.136719 459.035156 96.261719 443.554688 96.78125 C 428.070312 97.296875 418.710938 88.582031 439.289062 82.183594 C 439.289062 82.183594 431.699219 86.617188 436.203125 88.09375 C 442.578125 90.472656 482.652344 78.003906 475.964844 94.164062 Z M 475.964844 94.164062 "/>
<path style=" stroke:none;fill-rule:nonzero;fill:rgb(14.901961%,19.607843%,21.960784%);fill-opacity:1;" d="M 473.015625 97.859375 C 472.851562 97.859375 476.480469 96.957031 478.414062 90.472656 C 478.414062 90.574219 477.78125 100.132812 473.015625 97.859375 Z M 473.015625 97.859375 "/>
<path style=" stroke:none;fill-rule:nonzero;fill:rgb(14.901961%,19.607843%,21.960784%);fill-opacity:1;" d="M 444.039062 83.617188 C 434.519531 86.570312 438.460938 89.894531 442.402344 90.722656 L 451.433594 87.175781 C 437.707031 88.996094 444.039062 83.617188 444.039062 83.617188 Z M 444.039062 83.617188 "/>
<path style=" stroke:none;fill-rule:nonzero;fill:rgb(89.411765%,53.72549%,48.235294%);fill-opacity:1;" d="M 469.53125 124.078125 C 467.550781 126.003906 464.910156 127.097656 462.148438 127.136719 C 458.503906 127.136719 457.722656 123.679688 459.683594 120.785156 C 461.425781 118.183594 465.414062 115.050781 468.628906 116.457031 C 471.847656 117.859375 471.949219 121.699219 469.53125 124.078125 Z M 469.53125 124.078125 "/>
<path style=" stroke:none;fill-rule:nonzero;fill:rgb(14.901961%,19.607843%,21.960784%);fill-opacity:1;" d="M 450.886719 110.871094 C 450.667969 111.730469 450.03125 112.347656 449.414062 112.203125 C 448.792969 112.054688 448.570312 111.269531 448.792969 110.414062 C 449.015625 109.558594 449.648438 108.9375 450.269531 109.097656 C 450.886719 109.261719 451.109375 110.015625 450.886719 110.871094 Z M 450.886719 110.871094 "/>
<path style=" stroke:none;fill-rule:nonzero;fill:rgb(14.901961%,19.607843%,21.960784%);fill-opacity:1;" d="M 441.148438 108.730469 C 440.925781 109.585938 440.289062 110.207031 439.671875 110.058594 C 439.050781 109.910156 438.828125 109.144531 439.050781 108.285156 C 439.273438 107.429688 439.890625 106.808594 440.527344 106.957031 C 441.160156 107.105469 441.324219 107.875 441.148438 108.730469 Z M 441.148438 108.730469 "/>
<path style=" stroke:none;fill-rule:nonzero;fill:rgb(87.058824%,34.117647%,32.54902%);fill-opacity:1;" d="M 444.128906 109.839844 C 442.449219 112.230469 440.464844 114.390625 438.222656 116.265625 C 439.222656 117.375 440.660156 117.984375 442.152344 117.933594 Z M 444.128906 109.839844 "/>
<path style=" stroke:none;fill-rule:nonzero;fill:rgb(14.901961%,19.607843%,21.960784%);fill-opacity:1;" d="M 445.753906 121.050781 C 445.140625 121.050781 444.53125 120.980469 443.9375 120.84375 C 443.800781 120.808594 443.714844 120.671875 443.746094 120.53125 C 443.78125 120.398438 443.917969 120.3125 444.054688 120.339844 C 446.257812 120.832031 448.5625 120.289062 450.3125 118.863281 C 450.414062 118.765625 450.578125 118.765625 450.683594 118.863281 C 450.78125 118.96875 450.78125 119.128906 450.683594 119.234375 C 449.3125 120.414062 447.558594 121.058594 445.753906 121.050781 Z M 445.753906 121.050781 "/>
<path style=" stroke:none;fill-rule:nonzero;fill:rgb(14.901961%,19.607843%,21.960784%);fill-opacity:1;" d="M 454.753906 108.40625 C 454.550781 108.410156 454.363281 108.285156 454.285156 108.09375 C 453.792969 106.890625 452.746094 106.003906 451.480469 105.714844 C 451.339844 105.699219 451.214844 105.625 451.132812 105.515625 C 451.050781 105.402344 451.015625 105.261719 451.035156 105.125 C 451.082031 104.84375 451.34375 104.648438 451.625 104.683594 C 453.242188 105.011719 454.589844 106.117188 455.226562 107.636719 C 455.285156 107.761719 455.292969 107.90625 455.242188 108.035156 C 455.191406 108.164062 455.089844 108.265625 454.960938 108.316406 C 454.902344 108.359375 454.832031 108.390625 454.753906 108.40625 Z M 454.753906 108.40625 "/>
<path style=" stroke:none;fill-rule:nonzero;fill:rgb(14.901961%,19.607843%,21.960784%);fill-opacity:1;" d="M 437.855469 104.492188 C 437.738281 104.488281 437.621094 104.449219 437.53125 104.371094 C 437.308594 104.1875 437.277344 103.859375 437.457031 103.632812 C 438.511719 102.320312 440.113281 101.574219 441.796875 101.609375 C 441.933594 101.621094 442.0625 101.6875 442.148438 101.792969 C 442.238281 101.898438 442.28125 102.035156 442.269531 102.171875 C 442.261719 102.308594 442.195312 102.441406 442.089844 102.53125 C 441.984375 102.621094 441.847656 102.660156 441.707031 102.644531 C 440.363281 102.628906 439.085938 103.242188 438.253906 104.296875 C 438.15625 104.421875 438.011719 104.492188 437.855469 104.492188 Z M 437.855469 104.492188 "/>
<path style=" stroke:none;fill-rule:nonzero;fill:rgb(89.411765%,53.72549%,48.235294%);fill-opacity:1;" d="M 488.039062 157.90625 C 489.191406 159.695312 490.148438 161.273438 491.125 162.988281 C 492.097656 164.703125 493.027344 166.355469 493.945312 168.070312 C 495.742188 171.480469 497.441406 174.96875 498.992188 178.527344 C 502.242188 185.816406 504.683594 193.441406 506.269531 201.261719 L 506.414062 202.015625 L 506.488281 202.386719 L 506.59375 203.003906 C 506.71875 203.832031 506.78125 204.667969 506.785156 205.503906 C 506.769531 206.902344 506.621094 208.296875 506.34375 209.667969 C 505.84375 211.929688 505.121094 214.136719 504.1875 216.257812 C 502.53125 219.96875 500.554688 223.535156 498.28125 226.90625 C 493.988281 233.320312 489.105469 239.320312 483.699219 244.824219 L 477.28125 239.671875 C 480.851562 233.4375 484.410156 226.964844 487.390625 220.628906 C 488.855469 217.597656 490.109375 214.46875 491.140625 211.261719 C 491.558594 209.925781 491.847656 208.550781 491.996094 207.15625 C 492.046875 206.699219 492.046875 206.238281 491.996094 205.78125 C 491.996094 205.648438 491.996094 205.53125 491.90625 205.515625 C 491.816406 205.503906 491.90625 205.515625 491.90625 205.441406 L 491.816406 205.148438 L 491.640625 204.542969 C 490.707031 201.285156 489.597656 198.078125 488.320312 194.941406 C 487.019531 191.734375 485.574219 188.542969 484.054688 185.367188 C 482.535156 182.191406 480.894531 179.058594 479.214844 175.929688 C 478.386719 174.363281 477.515625 172.8125 476.644531 171.273438 L 474.046875 166.84375 Z M 488.039062 157.90625 "/>
<path style=" stroke:none;fill-rule:nonzero;fill:rgb(100%,100%,100%);fill-opacity:1;" d="M 454.105469 524.773438 C 453.371094 524.847656 452.632812 524.640625 452.039062 524.195312 C 451.699219 523.820312 451.578125 523.296875 451.714844 522.808594 C 451.78125 522.480469 452.007812 522.207031 452.320312 522.082031 C 453.664062 521.550781 456.75 523.679688 457.101562 523.914062 C 457.191406 523.972656 457.234375 524.078125 457.207031 524.179688 C 457.191406 524.28125 457.113281 524.363281 457.015625 524.386719 C 456.0625 524.617188 455.085938 524.746094 454.105469 524.773438 Z M 452.820312 522.511719 C 452.71875 522.496094 452.613281 522.496094 452.511719 522.511719 C 452.359375 522.566406 452.25 522.703125 452.230469 522.867188 C 452.121094 523.179688 452.191406 523.53125 452.410156 523.78125 C 452.910156 524.285156 454.34375 524.34375 456.304688 523.960938 C 455.261719 523.234375 454.074219 522.746094 452.820312 522.527344 Z M 452.820312 522.511719 "/>
<path style=" stroke:none;fill-rule:nonzero;fill:rgb(100%,100%,100%);fill-opacity:1;" d="M 456.953125 524.402344 L 456.820312 524.402344 C 455.730469 523.753906 454.105469 521.449219 454.355469 520.265625 C 454.445312 519.820312 454.832031 519.496094 455.285156 519.484375 C 455.679688 519.433594 456.078125 519.5625 456.363281 519.839844 C 457.472656 520.917969 457.21875 524.0625 457.21875 524.195312 C 457.210938 524.285156 457.152344 524.363281 457.074219 524.402344 Z M 455.480469 519.972656 L 455.359375 519.972656 C 454.992188 519.972656 454.902344 520.191406 454.875 520.339844 C 454.710938 521.125 455.789062 522.851562 456.734375 523.648438 C 456.871094 522.449219 456.621094 521.242188 456.023438 520.191406 C 455.875 520.046875 455.671875 519.96875 455.464844 519.972656 Z M 455.480469 519.972656 "/>
<path style=" stroke:none;fill-rule:nonzero;fill:rgb(100%,100%,100%);fill-opacity:1;" d="M 481.058594 518.566406 C 480.785156 518.574219 480.511719 518.527344 480.261719 518.421875 C 479.867188 518.261719 479.574219 517.917969 479.480469 517.503906 C 479.402344 517.25 479.464844 516.976562 479.640625 516.78125 C 480.628906 515.582031 485.8125 515.9375 486.402344 515.984375 C 486.515625 515.984375 486.609375 516.066406 486.636719 516.175781 C 486.660156 516.285156 486.613281 516.394531 486.519531 516.457031 C 484.871094 517.542969 483.007812 518.261719 481.058594 518.566406 Z M 484.1875 516.410156 C 482.371094 516.410156 480.46875 516.589844 480.039062 517.105469 C 479.988281 517.1875 479.988281 517.289062 480.039062 517.371094 C 480.089844 517.628906 480.265625 517.847656 480.511719 517.949219 C 481.339844 518.289062 483.199219 517.726562 485.546875 516.46875 Z M 484.1875 516.410156 "/>
<path style=" stroke:none;fill-rule:nonzero;fill:rgb(100%,100%,100%);fill-opacity:1;" d="M 486.386719 516.5 C 484.910156 516.5 481.589844 515.363281 481.339844 514.179688 C 481.339844 513.886719 481.339844 513.472656 482.046875 513.132812 C 484.585938 511.933594 486.546875 515.953125 486.636719 516.085938 C 486.671875 516.171875 486.671875 516.265625 486.636719 516.351562 C 486.585938 516.445312 486.492188 516.5 486.386719 516.5 Z M 482.976562 513.441406 C 482.726562 513.4375 482.480469 513.496094 482.253906 513.605469 C 481.945312 513.753906 481.796875 513.914062 481.824219 514.0625 C 481.972656 514.757812 484.363281 515.730469 485.929688 515.9375 C 485.457031 515.140625 484.320312 513.441406 482.976562 513.441406 Z M 482.976562 513.441406 "/>
<path style=" stroke:none;fill-rule:nonzero;fill:rgb(89.411765%,53.72549%,48.235294%);fill-opacity:1;" d="M 480.203125 237.277344 L 469.367188 235.371094 L 474.960938 248 C 474.960938 248 484.894531 248 484.453125 242.800781 Z M 480.203125 237.277344 "/>
<path style=" stroke:none;fill-rule:nonzero;fill:rgb(89.411765%,53.72549%,48.235294%);fill-opacity:1;" d="M 461.175781 241.707031 L 466.296875 251.917969 L 474.902344 247.988281 L 469.308594 235.371094 Z M 461.175781 241.707031 "/>
<path style=" stroke:none;fill-rule:nonzero;fill:rgb(9.803922%,52.941176%,32.941176%);fill-opacity:1;" d="M 492.144531 493.234375 L 475.804688 508.640625 L 470.535156 502.984375 L 489.234375 485.9375 Z M 492.144531 493.234375 "/>
<use xlink:href="#surface80" mask="url(#mask25)"/>
<path style=" stroke:none;fill-rule:nonzero;fill:rgb(9.803922%,52.941176%,32.941176%);fill-opacity:1;" d="M 474.015625 508.699219 L 452.363281 508.699219 L 451.167969 501.09375 L 475.066406 502.273438 Z M 474.015625 508.699219 "/>
<use xlink:href="#surface83" mask="url(#mask26)"/>
<path style=" stroke:none;fill-rule:nonzero;fill:rgb(9.803922%,52.941176%,32.941176%);fill-opacity:1;" d="M 485.207031 150.359375 C 495.539062 151.835938 506.121094 187.761719 506.121094 187.761719 L 483.980469 200.050781 C 483.980469 200.050781 474.992188 182.976562 470.695312 170.300781 C 466.195312 157.019531 474.148438 148.734375 485.207031 150.359375 Z M 485.207031 150.359375 "/>
<use xlink:href="#surface86" mask="url(#mask27)"/>
<use xlink:href="#surface89" mask="url(#mask28)"/>
<path style=" stroke:none;fill-rule:nonzero;fill:rgb(9.803922%,52.941176%,32.941176%);fill-opacity:1;" d="M 446.179688 162.957031 C 446.179688 162.957031 437.78125 197.777344 437.457031 205.015625 C 437 214.972656 441.160156 231.972656 441.160156 231.972656 C 441.160156 231.972656 447.066406 217.835938 448.277344 204.703125 C 449.484375 191.570312 448.585938 170.328125 449.132812 162.957031 Z M 446.179688 162.957031 "/>
<use xlink:href="#surface92" mask="url(#mask29)"/>
<path style=" stroke:none;fill-rule:nonzero;fill:rgb(9.803922%,52.941176%,32.941176%);fill-opacity:1;" d="M 448.054688 154.507812 C 449.738281 157.234375 450.710938 160.335938 450.886719 163.535156 C 450.886719 163.535156 469.308594 157.035156 468.4375 147.507812 C 468.4375 147.507812 465.824219 145.957031 464.171875 144.699219 C 464.171875 144.699219 463.550781 150.699219 448.054688 154.507812 Z M 448.054688 154.507812 "/>
<use xlink:href="#surface95" mask="url(#mask30)"/>
<path style=" stroke:none;fill-rule:nonzero;fill:rgb(9.803922%,52.941176%,32.941176%);fill-opacity:1;" d="M 448.054688 154.507812 C 446.363281 157.089844 445.140625 159.949219 444.453125 162.957031 C 444.453125 162.957031 436.113281 157.316406 438.621094 147.90625 C 440.152344 147.289062 441.726562 146.796875 443.332031 146.429688 C 443.332031 146.429688 442.238281 152.515625 448.054688 154.507812 Z M 448.054688 154.507812 "/>
<use xlink:href="#surface98" mask="url(#mask31)"/>
</g>
</svg>
