<?xml version="1.0" encoding="UTF-8"?>
<svg xmlns="http://www.w3.org/2000/svg" xmlns:xlink="http://www.w3.org/1999/xlink" width="763px" height="458px" viewBox="0 0 763 458" version="1.1">
<g id="surface1">
<path style=" stroke:none;fill-rule:nonzero;fill:rgb(94.901961%,94.901961%,94.901961%);fill-opacity:1;" d="M 48 96 C 21.492188 96 0 74.507812 0 48 C 0 21.492188 21.492188 0 48 0 C 74.507812 0 96 21.492188 96 48 C 95.96875 74.496094 74.496094 95.96875 48 96 Z M 48 2 C 22.59375 2 2 22.59375 2 48 C 2 73.40625 22.59375 94 48 94 C 73.40625 94 94 73.40625 94 48 C 93.972656 22.605469 73.394531 2.027344 48 2 Z M 48 2 "/>
<path style=" stroke:none;fill-rule:nonzero;fill:rgb(94.901961%,94.901961%,94.901961%);fill-opacity:1;" d="M 374 68 C 360.746094 68 350 57.253906 350 44 C 350 30.746094 360.746094 20 374 20 C 387.253906 20 398 30.746094 398 44 C 397.984375 57.25 387.25 67.984375 374 68 Z M 374 22 C 361.851562 22 352 31.851562 352 44 C 352 56.148438 361.851562 66 374 66 C 386.148438 66 396 56.148438 396 44 C 395.984375 31.855469 386.144531 22.015625 374 22 Z M 374 22 "/>
<path style=" stroke:none;fill-rule:nonzero;fill:rgb(94.901961%,94.901961%,94.901961%);fill-opacity:1;" d="M 543 185 C 528.089844 185 516 172.910156 516 158 C 516 143.089844 528.089844 131 543 131 C 557.910156 131 570 143.089844 570 158 C 569.984375 172.90625 557.90625 184.984375 543 185 Z M 543 133 C 529.191406 133 518 144.191406 518 158 C 518 171.808594 529.191406 183 543 183 C 556.808594 183 568 171.808594 568 158 C 567.984375 144.199219 556.800781 133.015625 543 133 Z M 543 133 "/>
<path style=" stroke:none;fill-rule:nonzero;fill:rgb(80%,80%,80%);fill-opacity:1;" d="M 762.058594 458 L 537.058594 458 C 536.503906 458 536.058594 457.550781 536.058594 457 C 536.058594 456.449219 536.503906 456 537.058594 456 L 762.058594 456 C 762.609375 456 763.058594 456.449219 763.058594 457 C 763.058594 457.550781 762.609375 458 762.058594 458 Z M 762.058594 458 "/>
<path style=" stroke:none;fill-rule:nonzero;fill:rgb(100%,72.156863%,72.156863%);fill-opacity:1;" d="M 665.476562 128.6875 C 665.476562 142.25 654.480469 153.246094 640.917969 153.246094 C 627.351562 153.246094 616.355469 142.25 616.355469 128.6875 C 616.355469 115.121094 627.351562 104.125 640.917969 104.125 C 654.480469 104.125 665.476562 115.121094 665.476562 128.6875 Z M 665.476562 128.6875 "/>
<path style=" stroke:none;fill-rule:nonzero;fill:rgb(100%,72.156863%,72.156863%);fill-opacity:1;" d="M 643.464844 420.34375 L 631.855469 424.285156 L 611.125 381.386719 L 628.257812 375.566406 Z M 643.464844 420.34375 "/>
<path style=" stroke:none;fill-rule:nonzero;fill:rgb(18.431373%,18.039216%,25.490196%);fill-opacity:1;" d="M 622.4375 423.785156 L 644.828125 416.179688 L 649.613281 430.277344 L 613.128906 442.667969 C 610.484375 434.882812 614.652344 426.429688 622.4375 423.785156 Z M 622.4375 423.785156 "/>
<path style=" stroke:none;fill-rule:nonzero;fill:rgb(100%,72.156863%,72.156863%);fill-opacity:1;" d="M 669.695312 444.574219 L 657.449219 445.191406 L 649.25 398.253906 L 667.320312 397.347656 Z M 669.695312 444.574219 "/>
<path style=" stroke:none;fill-rule:nonzero;fill:rgb(18.431373%,18.039216%,25.490196%);fill-opacity:1;" d="M 648.527344 442.132812 L 672.140625 440.945312 L 672.890625 455.8125 L 634.40625 457.746094 C 633.996094 449.535156 640.316406 442.542969 648.527344 442.132812 Z M 648.527344 442.132812 "/>
<path style=" stroke:none;fill-rule:nonzero;fill:rgb(100%,72.156863%,72.156863%);fill-opacity:1;" d="M 596.828125 288.628906 C 599.050781 286.652344 600.285156 283.789062 600.191406 280.816406 C 600.101562 277.839844 598.699219 275.058594 596.359375 273.21875 L 608.035156 239.445312 L 590.042969 244.042969 L 581.714844 275.410156 C 578.820312 279.636719 579.542969 285.359375 583.398438 288.730469 C 587.257812 292.105469 593.023438 292.0625 596.828125 288.628906 Z M 596.828125 288.628906 "/>
<path style=" stroke:none;fill-rule:nonzero;fill:rgb(18.431373%,18.039216%,25.490196%);fill-opacity:1;" d="M 668.550781 430.425781 C 668.390625 430.421875 668.234375 430.414062 668.074219 430.398438 L 651.457031 428.636719 C 649.351562 428.425781 647.683594 426.769531 647.457031 424.664062 L 634.613281 310.15625 L 625.316406 341.492188 L 642.648438 403.074219 C 643.003906 404.34375 642.785156 405.703125 642.050781 406.800781 C 641.316406 407.894531 640.140625 408.613281 638.828125 408.761719 L 621.980469 410.699219 C 619.765625 410.945312 617.699219 409.535156 617.117188 407.382812 L 598.710938 338.082031 C 598.558594 337.511719 598.519531 336.917969 598.597656 336.332031 L 606.871094 274.132812 L 668.585938 279.082031 L 673.046875 425.785156 C 673.085938 427.003906 672.628906 428.183594 671.78125 429.058594 C 670.933594 429.929688 669.765625 430.421875 668.550781 430.425781 Z M 668.550781 430.425781 "/>
<path style=" stroke:none;fill-rule:nonzero;fill:rgb(18.039216%,64.313725%,38.039216%);fill-opacity:1;" d="M 647.21875 289.71875 C 626.542969 289.71875 603.132812 281.730469 601.714844 281.238281 L 601.304688 281.097656 L 624.628906 161.414062 L 625.058594 161.429688 C 634.300781 161.804688 659.527344 162 659.78125 162 L 660.234375 162.003906 L 669.957031 267.621094 L 671.695312 283.070312 L 671.480469 283.242188 C 665.535156 288.050781 656.660156 289.71875 647.21875 289.71875 Z M 647.21875 289.71875 "/>
<path style=" stroke:none;fill-rule:nonzero;fill:rgb(18.431373%,18.039216%,25.490196%);fill-opacity:1;" d="M 609.863281 279.375 L 595.273438 273.5 L 602.710938 183.554688 C 603.074219 179.0625 605.453125 174.980469 609.183594 172.453125 L 616.863281 167.226562 C 616.421875 165.730469 616.726562 164.109375 617.683594 162.875 C 618.636719 161.640625 620.128906 160.9375 621.691406 160.988281 L 623.886719 161.058594 C 624.742188 160.480469 625.867188 160.488281 626.710938 161.078125 C 627.558594 161.667969 627.957031 162.714844 627.714844 163.71875 L 627.234375 173.246094 Z M 609.863281 279.375 "/>
<path style=" stroke:none;fill-rule:nonzero;fill:rgb(18.431373%,18.039216%,25.490196%);fill-opacity:1;" d="M 602.503906 263.25 L 583.453125 262.449219 L 589.625 222.757812 L 594.738281 185.40625 C 594.941406 182.691406 596.375 180.214844 598.628906 178.6875 C 600.886719 177.160156 603.714844 176.746094 606.316406 177.5625 C 610.441406 178.855469 613.042969 182.921875 612.488281 187.210938 L 607.308594 227.675781 Z M 602.503906 263.25 "/>
<path style=" stroke:none;fill-rule:nonzero;fill:rgb(18.431373%,18.039216%,25.490196%);fill-opacity:1;" d="M 632.664062 280.75 L 632.535156 280.351562 C 632.445312 280.074219 623.863281 252.539062 638.226562 219.679688 L 645.429688 183.851562 L 651.585938 161.359375 C 651.820312 160.542969 652.425781 159.886719 653.214844 159.585938 C 654.15625 159.257812 655.199219 159.527344 655.867188 160.265625 C 660.15625 159.003906 664.769531 159.46875 668.726562 161.550781 L 677.371094 166.105469 C 681.324219 168.1875 683.371094 172.675781 682.351562 177.027344 L 670.535156 227.449219 L 676.28125 274.546875 Z M 632.664062 280.75 "/>
<path style=" stroke:none;fill-rule:nonzero;fill:rgb(100%,72.156863%,72.156863%);fill-opacity:1;" d="M 645.246094 261.335938 C 648.203125 261.660156 651.152344 260.652344 653.296875 258.589844 C 655.445312 256.527344 656.566406 253.621094 656.363281 250.652344 L 683.117188 230.832031 L 673.765625 226.398438 L 644.914062 241.261719 C 639.839844 241.949219 636.078125 246.324219 636.164062 251.445312 C 636.246094 256.566406 640.148438 260.816406 645.246094 261.335938 Z M 645.246094 261.335938 "/>
<path style=" stroke:none;fill-rule:nonzero;fill:rgb(18.431373%,18.039216%,25.490196%);fill-opacity:1;" d="M 662.019531 252.464844 L 652.984375 235.597656 L 675.269531 220.929688 L 664.394531 181.917969 C 663.511719 178.761719 663.984375 175.378906 665.699219 172.585938 C 667.410156 169.789062 670.210938 167.835938 673.421875 167.1875 C 679.234375 166.027344 685.003906 169.347656 686.921875 174.949219 L 701.597656 218.085938 C 702.21875 219.910156 701.609375 221.921875 700.085938 223.097656 Z M 662.019531 252.464844 "/>
<path style=" stroke:none;fill-rule:nonzero;fill:rgb(18.431373%,18.039216%,25.490196%);fill-opacity:1;" d="M 642.65625 133.894531 C 639.710938 134.277344 637.488281 131.265625 636.460938 128.480469 C 635.429688 125.695312 634.644531 122.453125 632.085938 120.949219 C 628.585938 118.894531 624.113281 121.367188 620.113281 120.6875 C 615.597656 119.921875 612.660156 115.136719 612.429688 110.5625 C 612.199219 105.988281 614.019531 101.585938 615.808594 97.367188 L 616.429688 102.609375 C 616.261719 98.996094 617.984375 95.554688 620.972656 93.523438 L 620.171875 101.214844 C 620.515625 99.074219 621.699219 97.15625 623.464844 95.886719 C 625.226562 94.621094 627.421875 94.105469 629.5625 94.460938 L 629.4375 99.042969 C 634.652344 98.421875 639.914062 97.800781 645.148438 98.273438 C 650.378906 98.746094 655.648438 100.402344 659.613281 103.847656 C 665.542969 109.003906 667.710938 117.488281 666.984375 125.3125 C 666.257812 133.136719 663.027344 140.488281 659.660156 147.589844 C 658.8125 149.375 657.640625 151.390625 655.675781 151.617188 C 653.914062 151.824219 652.296875 150.347656 651.75 148.660156 C 651.328125 146.925781 651.34375 145.113281 651.796875 143.386719 C 652.292969 140.75 652.917969 138.054688 652.453125 135.410156 C 651.984375 132.769531 650.085938 130.15625 647.421875 129.832031 C 644.757812 129.511719 642.03125 132.554688 643.3125 134.914062 Z M 642.65625 133.894531 "/>
<path style=" stroke:none;fill-rule:nonzero;fill:rgb(90.196078%,90.196078%,90.196078%);fill-opacity:1;" d="M 321.308594 403.578125 L 311.75 399.550781 L 305.191406 351.625 L 217.851562 351.625 L 210.742188 399.355469 L 202.1875 403.632812 C 201.34375 404.054688 200.902344 405 201.121094 405.914062 C 201.335938 406.832031 202.15625 407.480469 203.097656 407.480469 L 320.523438 407.480469 C 321.488281 407.480469 322.320312 406.800781 322.511719 405.851562 C 322.703125 404.902344 322.199219 403.953125 321.308594 403.578125 Z M 321.308594 403.578125 "/>
<path style=" stroke:none;fill-rule:nonzero;fill:rgb(80%,80%,80%);fill-opacity:1;" d="M 476.519531 358 L 47.480469 358 C 42.792969 357.988281 39 354.1875 39 349.5 L 39 289 L 485 289 L 485 349.5 C 485 354.1875 481.207031 357.988281 476.519531 358 Z M 476.519531 358 "/>
<path style=" stroke:none;fill-rule:nonzero;fill:rgb(24.705882%,23.921569%,33.72549%);fill-opacity:1;" d="M 485.449219 317.59375 L 38.609375 317.59375 L 38.609375 58.726562 C 38.613281 53.070312 43.199219 48.488281 48.855469 48.480469 L 475.203125 48.480469 C 480.859375 48.488281 485.441406 53.070312 485.449219 58.726562 Z M 485.449219 317.59375 "/>
<path style=" stroke:none;fill-rule:nonzero;fill:rgb(100%,100%,100%);fill-opacity:1;" d="M 458.761719 298.804688 L 65.296875 298.804688 C 60.9375 298.800781 57.402344 295.265625 57.398438 290.90625 L 57.398438 75.167969 C 57.402344 70.808594 60.933594 67.273438 65.296875 67.269531 L 458.761719 67.269531 C 463.121094 67.273438 466.65625 70.808594 466.660156 75.167969 L 466.660156 290.90625 C 466.65625 295.265625 463.121094 298.800781 458.761719 298.804688 Z M 458.761719 298.804688 "/>
<path style=" stroke:none;fill-rule:nonzero;fill:rgb(80%,80%,80%);fill-opacity:1;" d="M 455.058594 407.980469 L 74.058594 407.980469 C 73.503906 407.980469 73.058594 407.53125 73.058594 406.980469 C 73.058594 406.429688 73.503906 405.980469 74.058594 405.980469 L 455.058594 405.980469 C 455.609375 405.980469 456.058594 406.429688 456.058594 406.980469 C 456.058594 407.53125 455.609375 407.980469 455.058594 407.980469 Z M 455.058594 407.980469 "/>
<path style=" stroke:none;fill-rule:nonzero;fill:rgb(24.705882%,23.921569%,33.72549%);fill-opacity:1;" d="M 421.796875 272 L 102.261719 272 C 101.707031 272 101.261719 271.550781 101.261719 271 L 101.261719 117.847656 C 101.261719 117.292969 101.707031 116.847656 102.261719 116.847656 C 102.8125 116.847656 103.261719 117.292969 103.261719 117.847656 L 103.261719 270 L 421.796875 270 C 422.347656 270 422.796875 270.449219 422.796875 271 C 422.796875 271.550781 422.347656 272 421.796875 272 Z M 421.796875 272 "/>
<path style=" stroke:none;fill-rule:nonzero;fill:rgb(18.039216%,64.313725%,38.039216%);fill-opacity:1;" d="M 170.53125 261 L 141.46875 261 C 139.828125 261 138.5 259.671875 138.5 258.03125 L 138.5 217.96875 C 138.5 216.328125 139.828125 215 141.46875 215 L 170.53125 215 C 172.171875 215 173.496094 216.328125 173.5 217.96875 L 173.5 258.03125 C 173.496094 259.671875 172.171875 261 170.53125 261 Z M 170.53125 261 "/>
<path style=" stroke:none;fill-rule:nonzero;fill:rgb(18.039216%,64.313725%,38.039216%);fill-opacity:1;" d="M 223.53125 261 L 194.46875 261 C 192.828125 261 191.5 259.671875 191.5 258.03125 L 191.5 179.96875 C 191.5 178.328125 192.828125 177 194.46875 177 L 223.53125 177 C 225.171875 177 226.496094 178.328125 226.5 179.96875 L 226.5 258.03125 C 226.496094 259.671875 225.171875 261 223.53125 261 Z M 223.53125 261 "/>
<path style=" stroke:none;fill-rule:nonzero;fill:rgb(18.039216%,64.313725%,38.039216%);fill-opacity:1;" d="M 276.53125 261 L 247.46875 261 C 245.828125 261 244.5 259.671875 244.5 258.03125 L 244.5 217.96875 C 244.5 216.328125 245.828125 215 247.46875 215 L 276.53125 215 C 278.171875 215 279.496094 216.328125 279.5 217.96875 L 279.5 258.03125 C 279.496094 259.671875 278.171875 261 276.53125 261 Z M 276.53125 261 "/>
<path style=" stroke:none;fill-rule:nonzero;fill:rgb(18.039216%,64.313725%,38.039216%);fill-opacity:1;" d="M 329.53125 261 L 300.46875 261 C 298.867188 261.035156 297.539062 259.765625 297.5 258.167969 L 297.5 164.832031 C 297.539062 163.234375 298.867188 161.964844 300.46875 162 L 329.53125 162 C 331.132812 161.964844 332.460938 163.234375 332.5 164.832031 L 332.5 258.167969 C 332.460938 259.765625 331.132812 261.035156 329.53125 261 Z M 329.53125 261 "/>
<path style=" stroke:none;fill-rule:nonzero;fill:rgb(18.039216%,64.313725%,38.039216%);fill-opacity:1;" d="M 382.53125 261 L 353.46875 261 C 351.828125 261 350.5 259.671875 350.5 258.03125 L 350.5 137.96875 C 350.5 136.328125 351.828125 135 353.46875 135 L 382.53125 135 C 384.171875 135 385.496094 136.328125 385.5 137.96875 L 385.5 258.03125 C 385.496094 259.671875 384.171875 261 382.53125 261 Z M 382.53125 261 "/>
<path style=" stroke:none;fill-rule:nonzero;fill:rgb(24.705882%,23.921569%,33.72549%);fill-opacity:1;" d="M 162 197 C 162 200.3125 159.3125 203 156 203 C 152.6875 203 150 200.3125 150 197 C 150 193.6875 152.6875 191 156 191 C 159.3125 191 162 193.6875 162 197 Z M 162 197 "/>
<path style=" stroke:none;fill-rule:nonzero;fill:rgb(24.705882%,23.921569%,33.72549%);fill-opacity:1;" d="M 215 158 C 215 161.3125 212.3125 164 209 164 C 205.6875 164 203 161.3125 203 158 C 203 154.6875 205.6875 152 209 152 C 212.3125 152 215 154.6875 215 158 Z M 215 158 "/>
<path style=" stroke:none;fill-rule:nonzero;fill:rgb(24.705882%,23.921569%,33.72549%);fill-opacity:1;" d="M 268 197 C 268 200.3125 265.3125 203 262 203 C 258.6875 203 256 200.3125 256 197 C 256 193.6875 258.6875 191 262 191 C 265.3125 191 268 193.6875 268 197 Z M 268 197 "/>
<path style=" stroke:none;fill-rule:nonzero;fill:rgb(24.705882%,23.921569%,33.72549%);fill-opacity:1;" d="M 321 139 C 321 142.3125 318.3125 145 315 145 C 311.6875 145 309 142.3125 309 139 C 309 135.6875 311.6875 133 315 133 C 318.3125 133 321 135.6875 321 139 Z M 321 139 "/>
<path style=" stroke:none;fill-rule:nonzero;fill:rgb(24.705882%,23.921569%,33.72549%);fill-opacity:1;" d="M 374 117 C 374 120.3125 371.3125 123 368 123 C 364.6875 123 362 120.3125 362 117 C 362 113.6875 364.6875 111 368 111 C 371.3125 111 374 113.6875 374 117 Z M 374 117 "/>
<path style=" stroke:none;fill-rule:nonzero;fill:rgb(24.705882%,23.921569%,33.72549%);fill-opacity:1;" d="M 262.125 198.34375 L 209 158.550781 L 156.601562 197.800781 L 155.398438 196.199219 L 209 156.054688 L 261.875 195.65625 L 314.414062 138.15625 L 314.625 138.070312 L 367.625 116.71875 L 368.375 118.574219 L 315.585938 139.84375 Z M 262.125 198.34375 "/>
</g>
</svg>
