<?xml version="1.0" encoding="UTF-8"?>
<svg xmlns="http://www.w3.org/2000/svg" xmlns:xlink="http://www.w3.org/1999/xlink" width="763px" height="458px" viewBox="0 0 568 458" version="1.1">
<defs>
<filter id="alpha" filterUnits="objectBoundingBox" x="0%" y="0%" width="100%" height="100%">
  <feColorMatrix type="matrix" in="SourceGraphic" values="0 0 0 0 1 0 0 0 0 1 0 0 0 0 1 0 0 0 1 0"/>
</filter>
<mask id="mask0">
  <g filter="url(#alpha)">
<rect x="0" y="0" width="568" height="458" style="fill:rgb(0%,0%,0%);fill-opacity:0.101961;stroke:none;"/>
  </g>
</mask>
<clipPath id="clip1">
  <rect x="0" y="0" width="568" height="458"/>
</clipPath>
<g id="surface5" clip-path="url(#clip1)">
<path style=" stroke:none;fill-rule:nonzero;fill:rgb(18.039216%,64.313725%,38.039216%);fill-opacity:1;" d="M 567.125 265.839844 C 565.089844 247.578125 559.167969 230.300781 551.445312 214.863281 C 534.023438 179.984375 507.617188 153.960938 479.074219 135.320312 C 478.800781 135.136719 478.5 134.964844 478.242188 134.785156 C 481.394531 131.050781 483.648438 126.644531 484.828125 121.898438 C 493.609375 85.917969 434.390625 40.566406 352.601562 20.613281 C 286.964844 4.621094 226.722656 9.824219 200.945312 31.101562 C 140.808594 27.320312 78.070312 64.328125 36.378906 121.328125 C 21.476562 141.726562 8.867188 165.824219 3.335938 193.070312 C -3.394531 226.066406 0.628906 261.574219 10.070312 293.417969 C 17.34375 317.941406 27.96875 340.914062 41.332031 360.59375 C 42.28125 361.992188 43.246094 363.375 44.226562 364.742188 C 45.910156 367.101562 47.628906 369.394531 49.382812 371.621094 C 60.386719 385.636719 72.917969 397.539062 86.695312 406.542969 C 94.523438 411.675781 102.929688 415.871094 111.738281 419.039062 C 135.238281 427.453125 160.457031 427.804688 183.679688 419.039062 C 187.574219 417.574219 191.371094 415.867188 195.050781 413.929688 C 197.09375 412.863281 199.109375 411.71875 201.105469 410.492188 C 204.949219 408.128906 208.726562 405.492188 212.476562 402.753906 C 217.675781 398.945312 222.792969 394.933594 228.015625 391.1875 L 228.460938 390.859375 C 234.59375 386.457031 240.800781 382.425781 247.273438 379.527344 C 251.582031 377.542969 256.144531 376.160156 260.832031 375.417969 C 267.769531 374.429688 274.839844 374.980469 281.542969 377.027344 C 282.8125 377.394531 284.085938 377.8125 285.347656 378.269531 C 289.445312 379.785156 293.417969 381.628906 297.222656 383.78125 C 313.753906 392.953125 329.570312 407.574219 345.804688 419.039062 C 348.097656 420.679688 350.453125 422.253906 352.789062 423.738281 C 373.5 436.882812 396.277344 443.292969 418.8125 449.503906 C 444.363281 456.554688 471.40625 463.398438 496.125 452.421875 C 510.453125 446.066406 522.863281 434.011719 532.808594 419.039062 C 537.164062 412.441406 540.988281 405.503906 544.238281 398.292969 C 545.851562 394.726562 547.363281 391.097656 548.769531 387.402344 C 556.945312 365.90625 561.695312 342.289062 564.972656 318.617188 C 567.402344 301.191406 569.054688 283.347656 567.125 265.839844 Z M 567.125 265.839844 "/>
</g>
<mask id="mask1">
  <g filter="url(#alpha)">
<rect x="0" y="0" width="568" height="458" style="fill:rgb(0%,0%,0%);fill-opacity:0.101961;stroke:none;"/>
  </g>
</mask>
<mask id="mask2">
  <g filter="url(#alpha)">
<rect x="0" y="0" width="568" height="458" style="fill:rgb(0%,0%,0%);fill-opacity:0.101961;stroke:none;"/>
  </g>
</mask>
<clipPath id="clip3">
  <rect x="0" y="0" width="568" height="458"/>
</clipPath>
<g id="surface9" clip-path="url(#clip3)">
<path style=" stroke:none;fill-rule:nonzero;fill:rgb(0%,0%,0%);fill-opacity:1;" d="M 76.5 149.414062 C 80.707031 162.207031 89.113281 173.207031 100.347656 180.625 C 89.71875 210.070312 103.496094 242.742188 132 255.683594 C 160.503906 268.625 194.164062 257.488281 209.332031 230.101562 C 224.496094 202.714844 216.074219 168.273438 189.984375 150.972656 C 194.402344 138.746094 74.402344 142.988281 76.5 149.414062 Z M 76.5 149.414062 "/>
</g>
<clipPath id="clip2">
  <rect x="0" y="0" width="568" height="458"/>
</clipPath>
<g id="surface11" clip-path="url(#clip2)">
<path style=" stroke:none;fill-rule:nonzero;fill:rgb(24.705882%,23.921569%,33.72549%);fill-opacity:1;" d="M 178.46875 305.628906 C 178.648438 306.136719 178.832031 306.628906 179.042969 307.113281 C 182.820312 304.152344 186.484375 301.09375 190.023438 297.941406 C 192.144531 296.996094 193.894531 295.386719 195.011719 293.355469 C 196.03125 292.390625 197.046875 291.40625 198.050781 290.425781 C 197.617188 289.9375 197.148438 289.480469 196.65625 289.054688 C 193.261719 286.082031 189.066406 284.832031 185.234375 286.097656 C 181.398438 287.363281 178.78125 290.867188 177.824219 295.269531 C 177.109375 298.71875 177.335938 302.292969 178.46875 305.628906 Z M 178.46875 305.628906 "/>
<path style=" stroke:none;fill-rule:nonzero;fill:rgb(24.705882%,23.921569%,33.72549%);fill-opacity:1;" d="M 172.175781 286.585938 C 173.25 289.929688 175.195312 292.925781 177.8125 295.269531 C 181.203125 298.234375 185.394531 299.488281 189.234375 298.214844 C 189.496094 298.125 189.75 298.027344 190.011719 297.921875 C 192.132812 296.980469 193.882812 295.371094 195 293.335938 C 195.769531 292 196.324219 290.546875 196.644531 289.039062 C 197.992188 282.027344 195.605469 274.816406 190.339844 269.996094 C 186.941406 267.019531 182.75 265.773438 178.917969 267.039062 C 175.082031 268.304688 172.464844 271.808594 171.507812 276.210938 C 170.796875 279.667969 171.03125 283.25 172.175781 286.585938 Z M 172.175781 286.585938 "/>
<path style=" stroke:none;fill-rule:nonzero;fill:rgb(24.705882%,23.921569%,33.72549%);fill-opacity:1;" d="M 189.667969 259.691406 C 186.824219 251.085938 179.191406 245.871094 172.617188 248.042969 C 166.042969 250.21875 163.019531 258.957031 165.867188 267.5625 C 168.710938 276.167969 176.34375 281.382812 182.917969 279.207031 C 189.488281 277.035156 192.511719 268.296875 189.667969 259.691406 Z M 189.667969 259.691406 "/>
<path style=" stroke:none;fill-rule:nonzero;fill:rgb(24.705882%,23.921569%,33.72549%);fill-opacity:1;" d="M 183.375 240.652344 C 180.53125 232.046875 172.898438 226.832031 166.324219 229.003906 C 159.753906 231.175781 156.730469 239.914062 159.574219 248.519531 C 162.417969 257.125 170.050781 262.339844 176.625 260.167969 C 183.199219 257.996094 186.222656 249.257812 183.375 240.652344 Z M 183.375 240.652344 "/>
<path style=" stroke:none;fill-rule:nonzero;fill:rgb(24.705882%,23.921569%,33.72549%);fill-opacity:1;" d="M 177.082031 221.613281 C 174.238281 213.007812 166.605469 207.792969 160.03125 209.964844 C 153.457031 212.136719 150.4375 220.875 153.28125 229.480469 C 156.125 238.085938 163.757812 243.300781 170.332031 241.128906 C 176.90625 238.957031 179.925781 230.21875 177.082031 221.613281 Z M 177.082031 221.613281 "/>
<path style=" stroke:none;fill-rule:nonzero;fill:rgb(18.039216%,64.313725%,38.039216%);fill-opacity:1;" d="M 166.667969 80.484375 C 167.613281 77.878906 168.378906 75.207031 168.960938 72.496094 L 135.992188 77.699219 L 169.894531 66.769531 C 171.730469 50.332031 166.722656 33.867188 156.046875 21.238281 L 118.460938 59.78125 L 150.132812 15.183594 C 133.34375 0.261719 109.628906 -4.042969 88.667969 4.03125 C 67.707031 12.105469 53.007812 31.207031 50.566406 53.539062 C 48.125 75.871094 58.351562 97.695312 77.074219 110.109375 C 75.601562 114.167969 74.574219 118.375 74.007812 122.65625 L 121.578125 130.328125 L 73.496094 130.109375 C 73.355469 150.402344 83.46875 169.394531 100.382812 180.601562 C 89.730469 210.050781 103.496094 242.738281 132.003906 255.691406 C 160.511719 268.644531 194.183594 257.507812 209.351562 230.113281 C 224.519531 202.71875 216.089844 168.265625 189.984375 150.972656 C 199.425781 124.910156 189.796875 95.773438 166.6875 80.46875 Z M 166.667969 80.484375 "/>
<use xlink:href="#surface9" mask="url(#mask2)"/>
</g>
<mask id="mask3">
  <g filter="url(#alpha)">
<rect x="0" y="0" width="568" height="458" style="fill:rgb(0%,0%,0%);fill-opacity:0.101961;stroke:none;"/>
  </g>
</mask>
<clipPath id="clip4">
  <rect x="0" y="0" width="568" height="458"/>
</clipPath>
<g id="surface14" clip-path="url(#clip4)">
<path style=" stroke:none;fill-rule:nonzero;fill:rgb(0%,0%,0%);fill-opacity:1;" d="M 263.648438 184.640625 C 262.035156 188.484375 258.574219 191.203125 255.152344 193.59375 C 251.730469 195.984375 248.082031 198.257812 243.960938 198.453125 C 251.222656 207.789062 261.152344 214.65625 270.863281 221.382812 C 275.386719 224.507812 279.96875 227.625 285.128906 229.390625 C 289.863281 231.007812 294.902344 231.40625 299.855469 232.082031 C 306.160156 232.949219 312.433594 234.285156 318.769531 234.019531 C 330.054688 233.550781 340.847656 227.859375 348.332031 219.398438 C 355.816406 210.9375 360.105469 199.910156 361.261719 188.65625 C 357.25 188.59375 353.546875 186.363281 350.308594 183.933594 C 346.347656 180.96875 342.632812 177.542969 340.078125 173.304688 C 337.308594 168.71875 336.066406 163.402344 334.804688 158.191406 C 321.445312 157.789062 308.085938 157.394531 294.71875 157.652344 C 289.851562 157.742188 284.972656 157.933594 280.230469 159.140625 C 275.707031 160.289062 266.261719 163.246094 263.503906 167.320312 C 261.917969 169.671875 263.503906 172.089844 264.078125 174.625 C 264.8125 177.953125 264.992188 181.433594 263.648438 184.640625 Z M 263.648438 184.640625 "/>
</g>
<mask id="mask4">
  <g filter="url(#alpha)">
<rect x="0" y="0" width="568" height="458" style="fill:rgb(0%,0%,0%);fill-opacity:0.2;stroke:none;"/>
  </g>
</mask>
<clipPath id="clip5">
  <rect x="0" y="0" width="568" height="458"/>
</clipPath>
<g id="surface17" clip-path="url(#clip5)">
<path style=" stroke:none;fill-rule:nonzero;fill:rgb(0%,0%,0%);fill-opacity:1;" d="M 229.832031 401.34375 C 229.785156 407.328125 213.511719 413.953125 194.683594 413.953125 C 175.855469 413.953125 160.140625 407.34375 159.886719 401.34375 C 159.011719 380.53125 175.851562 392.246094 194.683594 392.246094 C 213.519531 392.246094 230.003906 377.382812 229.832031 401.34375 Z M 229.832031 401.34375 "/>
</g>
<mask id="mask5">
  <g filter="url(#alpha)">
<rect x="0" y="0" width="568" height="458" style="fill:rgb(0%,0%,0%);fill-opacity:0.101961;stroke:none;"/>
  </g>
</mask>
<clipPath id="clip6">
  <rect x="0" y="0" width="568" height="458"/>
</clipPath>
<g id="surface20" clip-path="url(#clip6)">
<path style=" stroke:none;fill-rule:nonzero;fill:rgb(100%,100%,100%);fill-opacity:1;" d="M 228.78125 392.246094 C 228.78125 398.238281 213.511719 404.855469 194.683594 404.855469 C 175.855469 404.855469 160.585938 398.253906 160.585938 392.246094 C 160.585938 386.238281 175.851562 383.15625 194.683594 383.15625 C 213.519531 383.15625 228.78125 386.261719 228.78125 392.246094 Z M 228.78125 392.246094 "/>
</g>
<mask id="mask6">
  <g filter="url(#alpha)">
<rect x="0" y="0" width="568" height="458" style="fill:rgb(0%,0%,0%);fill-opacity:0.2;stroke:none;"/>
  </g>
</mask>
<clipPath id="clip7">
  <rect x="0" y="0" width="568" height="458"/>
</clipPath>
<g id="surface23" clip-path="url(#clip7)">
<path style=" stroke:none;fill-rule:nonzero;fill:rgb(0%,0%,0%);fill-opacity:1;" d="M 222.132812 389.882812 C 222.097656 394.554688 209.410156 399.703125 194.71875 399.703125 C 180.027344 399.703125 167.78125 394.546875 167.574219 389.882812 C 166.890625 373.652344 180.027344 382.789062 194.71875 382.789062 C 209.410156 382.789062 222.269531 371.199219 222.132812 389.882812 Z M 222.132812 389.882812 "/>
</g>
<mask id="mask7">
  <g filter="url(#alpha)">
<rect x="0" y="0" width="568" height="458" style="fill:rgb(0%,0%,0%);fill-opacity:0.101961;stroke:none;"/>
  </g>
</mask>
<clipPath id="clip8">
  <rect x="0" y="0" width="568" height="458"/>
</clipPath>
<g id="surface26" clip-path="url(#clip8)">
<path style=" stroke:none;fill-rule:nonzero;fill:rgb(100%,100%,100%);fill-opacity:1;" d="M 221.3125 381.636719 C 221.3125 386.859375 209.410156 392.613281 194.71875 392.613281 C 180.027344 392.613281 168.117188 386.882812 168.117188 381.636719 C 168.117188 376.390625 180.027344 373.714844 194.71875 373.714844 C 209.410156 373.714844 221.3125 376.410156 221.3125 381.636719 Z M 221.3125 381.636719 "/>
</g>
<mask id="mask8">
  <g filter="url(#alpha)">
<rect x="0" y="0" width="568" height="458" style="fill:rgb(0%,0%,0%);fill-opacity:0.2;stroke:none;"/>
  </g>
</mask>
<clipPath id="clip9">
  <rect x="0" y="0" width="568" height="458"/>
</clipPath>
<g id="surface29" clip-path="url(#clip9)">
<path style=" stroke:none;fill-rule:nonzero;fill:rgb(0%,0%,0%);fill-opacity:1;" d="M 130.976562 416.257812 C 130.976562 416.257812 136.011719 410.710938 136.875 404.472656 C 137.742188 398.238281 112.289062 388.65625 112.289062 388.65625 C 112.289062 388.65625 103.460938 393.816406 103.164062 398.648438 C 103.164062 398.648438 120.058594 416.808594 130.976562 416.257812 Z M 130.976562 416.257812 "/>
</g>
<mask id="mask9">
  <g filter="url(#alpha)">
<rect x="0" y="0" width="568" height="458" style="fill:rgb(0%,0%,0%);fill-opacity:0.101961;stroke:none;"/>
  </g>
</mask>
<clipPath id="clip10">
  <rect x="0" y="0" width="568" height="458"/>
</clipPath>
<g id="surface32" clip-path="url(#clip10)">
<path style=" stroke:none;fill-rule:nonzero;fill:rgb(100%,100%,100%);fill-opacity:1;" d="M 119.453125 403.273438 C 111.640625 398.585938 104.035156 396.910156 102.460938 399.53125 C 100.886719 402.15625 105.945312 408.082031 113.753906 412.769531 C 121.566406 417.457031 129.175781 419.132812 130.75 416.511719 C 132.320312 413.886719 127.265625 407.960938 119.453125 403.273438 Z M 119.453125 403.273438 "/>
</g>
<mask id="mask10">
  <g filter="url(#alpha)">
<rect x="0" y="0" width="568" height="458" style="fill:rgb(0%,0%,0%);fill-opacity:0.101961;stroke:none;"/>
  </g>
</mask>
<clipPath id="clip11">
  <rect x="0" y="0" width="568" height="458"/>
</clipPath>
<g id="surface35" clip-path="url(#clip11)">
<path style=" stroke:none;fill-rule:nonzero;fill:rgb(100%,100%,100%);fill-opacity:1;" d="M 137.230469 402.5625 L 151.710938 378.425781 L 136.984375 365.917969 L 125.503906 363.769531 L 121.921875 370.230469 L 111.847656 388.925781 Z M 137.230469 402.5625 "/>
</g>
<mask id="mask11">
  <g filter="url(#alpha)">
<rect x="0" y="0" width="568" height="458" style="fill:rgb(0%,0%,0%);fill-opacity:0.2;stroke:none;"/>
  </g>
</mask>
<clipPath id="clip12">
  <rect x="0" y="0" width="568" height="458"/>
</clipPath>
<g id="surface38" clip-path="url(#clip12)">
<path style=" stroke:none;fill-rule:nonzero;fill:rgb(0%,0%,0%);fill-opacity:1;" d="M 151.902344 380.804688 C 151.902344 380.804688 161.683594 370.414062 159.171875 364.796875 C 156.660156 359.175781 143.402344 347.917969 134.960938 349.632812 C 126.519531 351.347656 125.167969 363.796875 125.167969 363.796875 Z M 151.902344 380.804688 "/>
</g>
<mask id="mask12">
  <g filter="url(#alpha)">
<rect x="0" y="0" width="568" height="458" style="fill:rgb(0%,0%,0%);fill-opacity:0.2;stroke:none;"/>
  </g>
</mask>
<clipPath id="clip13">
  <rect x="0" y="0" width="568" height="458"/>
</clipPath>
<g id="surface41" clip-path="url(#clip13)">
<path style=" stroke:none;fill-rule:nonzero;fill:rgb(0%,0%,0%);fill-opacity:1;" d="M 40.683594 335.136719 L 115.578125 380.695312 C 115.578125 380.695312 122.695312 379.773438 121.921875 370.242188 L 47.742188 324.1875 C 46.234375 323.25 44.445312 322.863281 42.683594 323.097656 C 40.652344 323.375 38.253906 324.113281 37.472656 326.046875 C 37.273438 326.535156 37.136719 327.050781 37.058594 327.574219 C 36.632812 330.597656 38.0625 333.578125 40.683594 335.136719 Z M 40.683594 335.136719 "/>
</g>
<mask id="mask13">
  <g filter="url(#alpha)">
<rect x="0" y="0" width="568" height="458" style="fill:rgb(0%,0%,0%);fill-opacity:0.2;stroke:none;"/>
  </g>
</mask>
<clipPath id="clip14">
  <rect x="0" y="0" width="568" height="458"/>
</clipPath>
<g id="surface44" clip-path="url(#clip14)">
<path style=" stroke:none;fill-rule:nonzero;fill:rgb(0%,0%,0%);fill-opacity:1;" d="M 137.21875 405.964844 C 138.023438 405.917969 138.703125 405.355469 138.898438 404.578125 C 139.265625 403.285156 138.59375 402.046875 137.890625 401.015625 C 136.632812 399.175781 135.058594 397.570312 133.246094 396.269531 C 130.199219 394.0625 127.242188 391.574219 123.789062 389.964844 C 121.792969 389.074219 119.699219 388.417969 117.554688 388 C 115.945312 387.628906 114.300781 387.449219 112.648438 387.460938 C 112.046875 387.476562 111.523438 387.863281 111.324219 388.429688 C 111.125 388.996094 111.300781 389.625 111.761719 390.011719 C 112.523438 390.515625 113.375 390.875 114.269531 391.066406 C 118.734375 392.378906 122.867188 394.652344 126.738281 397.238281 C 128.820312 398.578125 130.773438 400.113281 132.566406 401.824219 C 133.757812 403.003906 135.28125 406.007812 137.21875 405.964844 Z M 137.21875 405.964844 "/>
</g>
<mask id="mask14">
  <g filter="url(#alpha)">
<rect x="0" y="0" width="568" height="458" style="fill:rgb(0%,0%,0%);fill-opacity:0.2;stroke:none;"/>
  </g>
</mask>
<clipPath id="clip15">
  <rect x="0" y="0" width="568" height="458"/>
</clipPath>
<g id="surface47" clip-path="url(#clip15)">
<path style=" stroke:none;fill-rule:nonzero;fill:rgb(0%,0%,0%);fill-opacity:1;" d="M 149.175781 382.652344 C 149.175781 382.652344 156.523438 382.828125 150.441406 375.441406 C 144.363281 368.050781 133.484375 360.71875 125.738281 362.375 C 125.738281 362.375 122.53125 365.035156 125.304688 365.496094 C 127.933594 365.929688 140.207031 368.359375 145.847656 375.199219 C 146.464844 375.941406 147.152344 376.621094 147.902344 377.226562 C 149.226562 378.304688 151.011719 380.347656 149.175781 382.652344 Z M 149.175781 382.652344 "/>
</g>
<mask id="mask15">
  <g filter="url(#alpha)">
<rect x="0" y="0" width="568" height="458" style="fill:rgb(0%,0%,0%);fill-opacity:0.101961;stroke:none;"/>
  </g>
</mask>
<clipPath id="clip16">
  <rect x="0" y="0" width="568" height="458"/>
</clipPath>
<g id="surface50" clip-path="url(#clip16)">
<path style=" stroke:none;fill-rule:nonzero;fill:rgb(100%,100%,100%);fill-opacity:1;" d="M 149.859375 353.132812 C 142.046875 348.445312 134.441406 346.769531 132.867188 349.390625 C 131.292969 352.011719 136.351562 357.941406 144.160156 362.628906 C 151.972656 367.316406 159.582031 368.992188 161.15625 366.371094 C 162.726562 363.746094 157.671875 357.820312 149.859375 353.132812 Z M 149.859375 353.132812 "/>
</g>
<mask id="mask16">
  <g filter="url(#alpha)">
<rect x="0" y="0" width="568" height="458" style="fill:rgb(0%,0%,0%);fill-opacity:0.101961;stroke:none;"/>
  </g>
</mask>
<clipPath id="clip17">
  <rect x="0" y="0" width="568" height="458"/>
</clipPath>
<g id="surface53" clip-path="url(#clip17)">
<path style=" stroke:none;fill-rule:nonzero;fill:rgb(0%,0%,0%);fill-opacity:1;" d="M 496.246094 294.242188 C 496.238281 298.332031 497.613281 302.300781 500.144531 305.511719 C 494.269531 312.988281 495.125 323.71875 502.105469 330.167969 C 509.089844 336.617188 519.855469 336.617188 526.839844 330.167969 C 533.820312 323.71875 534.675781 312.988281 528.800781 305.511719 C 531.238281 302.410156 496.246094 292.195312 496.246094 294.242188 Z M 496.246094 294.242188 "/>
</g>
</defs>
<g id="surface1">
<use xlink:href="#surface5" mask="url(#mask0)"/>
<use xlink:href="#surface11" mask="url(#mask1)"/>
<path style=" stroke:none;fill-rule:nonzero;fill:rgb(24.705882%,23.921569%,33.72549%);fill-opacity:1;" d="M 222.4375 143.417969 C 221.011719 140.507812 220.476562 137.222656 219.960938 134 C 216.933594 114.980469 214.101562 94.449219 222.324219 77.210938 C 223.617188 74.5 225.1875 71.863281 227.480469 70.011719 C 229.933594 68.035156 232.976562 67.09375 235.820312 65.8125 C 244.074219 62.097656 250.722656 55.429688 257.980469 49.898438 C 265.234375 44.367188 273.992188 39.753906 282.882812 41.164062 C 287.46875 41.890625 291.707031 44.183594 296.15625 45.621094 C 308.71875 49.691406 323.222656 47.039062 334.507812 54.09375 C 338.582031 56.644531 341.90625 60.285156 345.171875 63.886719 L 359.75 79.933594 C 363.699219 84.28125 367.722656 88.734375 370.109375 94.179688 C 372.5 99.625 373.003906 106.335938 369.960938 111.417969 C 368.433594 113.976562 366.011719 116.195312 365.75 119.207031 C 365.464844 122.472656 367.835938 125.28125 368.703125 128.433594 C 370.992188 136.765625 362.585938 143.910156 354.917969 147.203125 C 331.742188 157.117188 306.25 155.976562 281.71875 155.570312 C 263.453125 155.253906 232.972656 164.84375 222.4375 143.417969 Z M 222.4375 143.417969 "/>
<path style=" stroke:none;fill-rule:nonzero;fill:rgb(74.509804%,43.529412%,44.705882%);fill-opacity:1;" d="M 263.648438 184.640625 C 262.035156 188.484375 258.574219 191.203125 255.152344 193.59375 C 251.730469 195.984375 248.082031 198.257812 243.960938 198.453125 C 251.222656 207.789062 261.152344 214.65625 270.863281 221.382812 C 275.386719 224.507812 279.96875 227.625 285.128906 229.390625 C 289.863281 231.007812 294.902344 231.40625 299.855469 232.082031 C 306.160156 232.949219 312.433594 234.285156 318.769531 234.019531 C 330.054688 233.550781 340.847656 227.859375 348.332031 219.398438 C 355.816406 210.9375 360.105469 199.910156 361.261719 188.65625 C 357.25 188.59375 353.546875 186.363281 350.308594 183.933594 C 346.347656 180.96875 342.632812 177.542969 340.078125 173.304688 C 337.308594 168.71875 336.066406 163.402344 334.804688 158.191406 C 321.445312 157.789062 308.085938 157.394531 294.71875 157.652344 C 289.851562 157.742188 284.972656 157.933594 280.230469 159.140625 C 275.707031 160.289062 266.261719 163.246094 263.503906 167.320312 C 261.917969 169.671875 263.503906 172.089844 264.078125 174.625 C 264.8125 177.953125 264.992188 181.433594 263.648438 184.640625 Z M 263.648438 184.640625 "/>
<use xlink:href="#surface14" mask="url(#mask3)"/>
<path style=" stroke:none;fill-rule:nonzero;fill:rgb(89.019608%,90.980392%,95.686275%);fill-opacity:1;" d="M 278.761719 200.476562 C 282.585938 205.230469 286.523438 210.078125 291.761719 213.195312 C 293.359375 214.140625 295.148438 214.917969 297.003906 214.851562 C 299.757812 214.738281 302.03125 212.777344 304.050781 210.898438 C 314.121094 201.519531 323.6875 191.613281 332.707031 181.214844 C 335.53125 177.953125 338.4375 174.554688 342.308594 172.660156 C 345.804688 204.207031 346.714844 235.988281 345.035156 267.6875 C 345.054688 268.285156 344.914062 268.878906 344.632812 269.40625 C 344.03125 270.316406 342.773438 270.449219 341.675781 270.488281 C 309.320312 271.703125 275.671875 272.679688 246.039062 259.597656 C 248.097656 253.492188 247.757812 246.890625 247.960938 240.445312 C 248.285156 229.882812 250.121094 219.421875 252.652344 209.179688 C 253.898438 204.152344 255.3125 199.167969 256.816406 194.21875 C 258.066406 190.066406 259.015625 182.753906 261.808594 179.617188 C 268.226562 185.347656 273.367188 193.769531 278.761719 200.476562 Z M 278.761719 200.476562 "/>
<path style=" stroke:none;fill-rule:nonzero;fill:rgb(24.705882%,23.921569%,33.72549%);fill-opacity:1;" d="M 293.453125 215.839844 L 297.464844 215.839844 L 307.78125 233.035156 L 296.890625 259.976562 L 283.707031 233.609375 Z M 293.453125 215.839844 "/>
<path style=" stroke:none;fill-rule:nonzero;fill:rgb(18.039216%,64.313725%,38.039216%);fill-opacity:1;" d="M 293.089844 243.007812 C 289.359375 237.566406 286.789062 231.410156 285.535156 224.929688 C 285.136719 222.855469 284.867188 220.738281 284.132812 218.757812 C 283.042969 215.816406 280.992188 213.351562 279.140625 210.8125 C 272.273438 201.394531 267.855469 190.417969 266.273438 178.871094 C 265.5625 173.632812 265.085938 167.632812 260.855469 164.460938 C 258.195312 162.472656 254.652344 162.167969 251.328125 162.226562 C 238.472656 162.546875 226.160156 167.476562 216.632812 176.113281 C 215.046875 177.6875 213.371094 179.164062 211.617188 180.539062 C 209.816406 181.769531 207.894531 182.816406 205.882812 183.660156 C 200.804688 185.953125 195.5 187.855469 189.96875 188.433594 C 188.546875 188.492188 187.136719 188.726562 185.773438 189.128906 C 184.121094 189.699219 182.761719 190.910156 181.371094 191.992188 C 176.921875 195.421875 171.808594 197.886719 166.359375 199.238281 C 158.667969 217.101562 152.714844 235.667969 148.589844 254.675781 C 147.554688 259.402344 146.625 264.167969 145.210938 268.796875 C 143.253906 275.21875 140.378906 281.339844 138.457031 287.773438 C 130.824219 313.367188 138.84375 341.246094 133.699219 367.449219 L 409.425781 367.828125 C 405.089844 361.101562 406.648438 352.5625 406.277344 344.570312 C 405.929688 337.210938 404.058594 330.019531 402.765625 322.761719 C 400.597656 310.625 400.042969 298.257812 399.816406 285.933594 C 399.726562 280.726562 399.71875 275.351562 401.734375 270.550781 C 405.507812 261.546875 415.3125 256.796875 424.589844 253.738281 C 429.027344 252.285156 433.691406 250.953125 437.199219 247.839844 C 440.792969 244.625 442.660156 239.902344 443.808594 235.230469 C 437.554688 222.90625 429.425781 211.15625 419.164062 201.910156 C 415.304688 198.46875 411.183594 195.242188 407.929688 191.21875 C 405.945312 188.761719 404.300781 186.019531 402.109375 183.765625 C 396.632812 178.074219 388.355469 175.929688 380.46875 175.617188 C 378.03125 175.519531 375.5625 175.566406 373.199219 174.957031 C 366.425781 173.238281 362.109375 166.617188 356.007812 163.1875 C 351.757812 160.820312 346.800781 160.058594 342.039062 161.046875 C 338.597656 161.761719 335.078125 163.800781 334.304688 167.195312 C 333.875 169.105469 334.402344 171.078125 334.605469 173.019531 C 335.222656 179 332.742188 184.855469 329.738281 190.0625 C 318.945312 208.640625 301.296875 223.136719 293.089844 243.007812 Z M 293.089844 243.007812 "/>
<path style=" stroke:none;fill-rule:nonzero;fill:rgb(74.509804%,43.529412%,44.705882%);fill-opacity:1;" d="M 353.335938 128.421875 C 353.328125 154.851562 335.429688 177.921875 309.832031 184.492188 C 284.234375 191.058594 257.441406 179.457031 244.710938 156.292969 C 231.984375 133.132812 236.558594 104.292969 255.824219 86.203125 C 275.089844 68.113281 304.160156 65.371094 326.472656 79.535156 C 343.203125 90.15625 353.339844 108.601562 353.335938 128.421875 Z M 353.335938 128.421875 "/>
<path style=" stroke:none;fill-rule:nonzero;fill:rgb(24.705882%,23.921569%,33.72549%);fill-opacity:1;" d="M 548.78125 387.390625 L 548.78125 360.574219 L 41.34375 360.574219 C 42.292969 361.976562 43.257812 363.359375 44.238281 364.726562 C 44.976562 366.476562 45.988281 368.101562 47.234375 369.535156 C 47.898438 370.292969 48.625 370.996094 49.410156 371.628906 C 60.417969 385.644531 72.945312 397.542969 86.722656 406.546875 C 94.554688 411.679688 102.957031 415.875 111.765625 419.042969 L 532.832031 419.042969 Z M 548.78125 387.390625 "/>
<path style=" stroke:none;fill-rule:nonzero;fill:rgb(74.509804%,43.529412%,44.705882%);fill-opacity:1;" d="M 306.285156 329.910156 C 298.507812 329.289062 290.417969 327.351562 283.09375 330.035156 C 280.597656 331.03125 278.226562 332.324219 276.039062 333.886719 C 268.128906 339.199219 260.839844 345.386719 254.316406 352.332031 C 252.429688 354.332031 250.585938 356.441406 249.425781 358.941406 C 247.792969 362.46875 247.648438 366.484375 246.5625 370.21875 C 245.9375 372.355469 244.984375 374.523438 245.363281 376.71875 C 245.742188 378.914062 248.273438 380.878906 250.171875 379.710938 C 249.980469 380.949219 250.351562 382.210938 251.183594 383.148438 C 252.015625 384.085938 253.222656 384.601562 254.476562 384.558594 C 257.378906 384.460938 260.175781 383.472656 262.5 381.734375 C 262.65625 383.179688 263.917969 384.246094 265.367188 384.160156 C 270.335938 383.832031 275.070312 381.292969 279.324219 378.519531 C 284.316406 375.285156 289.273438 371.605469 295.121094 370.492188 C 291.523438 372.132812 288.355469 374.582031 285.863281 377.652344 C 284.90625 378.828125 284.011719 380.203125 285.066406 382.019531 C 285.695312 383.039062 286.667969 383.804688 287.804688 384.179688 C 294.351562 386.472656 301.464844 382.679688 305.832031 377.417969 C 307.589844 375.289062 309.144531 372.832031 311.5625 371.542969 C 315.453125 369.449219 320.253906 370.917969 324.632812 370.308594 C 329.492188 369.644531 333.578125 366.472656 338.042969 364.429688 C 343.988281 361.710938 350.613281 360.988281 356.957031 359.371094 C 357.71875 359.261719 358.421875 358.898438 358.953125 358.339844 C 359.347656 357.679688 359.519531 356.90625 359.4375 356.140625 C 359.410156 348.289062 358.820312 340.449219 357.667969 332.683594 C 357.574219 331.433594 357.191406 330.21875 356.550781 329.140625 C 355.300781 327.363281 352.929688 326.847656 350.789062 326.492188 C 347.351562 325.917969 343.492188 324.636719 340.03125 324.648438 C 336.707031 324.648438 333.503906 326.527344 330.335938 327.449219 C 322.53125 329.714844 314.382812 330.546875 306.285156 329.910156 Z M 306.285156 329.910156 "/>
<path style=" stroke:none;fill-rule:nonzero;fill:rgb(89.019608%,90.980392%,95.686275%);fill-opacity:1;" d="M 342.542969 319.574219 C 333.949219 320.476562 325.867188 324.089844 319.46875 329.890625 C 326.613281 328.085938 334.304688 326.304688 341.195312 328.917969 C 348.058594 331.523438 352.671875 338.011719 352.878906 345.347656 C 353.089844 352.6875 348.851562 359.425781 342.148438 362.417969 C 343.539062 363.980469 345.585938 364.75 347.621094 365.339844 C 362.320312 369.628906 378.0625 367.058594 393.09375 364.136719 C 395.847656 363.601562 398.828125 362.898438 400.507812 360.632812 C 402 358.585938 401.957031 355.828125 401.824219 353.289062 C 401.441406 345.960938 400.804688 338.386719 397.480469 331.859375 C 392.976562 322.996094 385.152344 319.695312 375.726562 320.71875 C 364.644531 321.902344 353.640625 318.449219 342.542969 319.574219 Z M 342.542969 319.574219 "/>
<path style=" stroke:none;fill-rule:nonzero;fill:rgb(18.039216%,64.313725%,38.039216%);fill-opacity:1;" d="M 436.082031 225.652344 C 440.832031 230.175781 444.261719 235.882812 447.40625 241.640625 C 458.066406 261.125 466.238281 281.875 471.722656 303.398438 C 472.257812 305.511719 472.792969 307.683594 474.054688 309.46875 C 475.886719 312.054688 479 313.480469 481 315.921875 C 483.402344 318.890625 483.867188 323.078125 483.074219 326.8125 C 482.285156 330.550781 480.398438 333.960938 478.488281 337.269531 C 473.269531 346.316406 467.105469 355.652344 457.519531 359.785156 C 453.507812 361.503906 449.121094 362.214844 444.78125 362.78125 C 428.484375 364.925781 412.019531 365.460938 395.617188 364.371094 C 398.484375 361.046875 398.757812 356.140625 397.742188 351.867188 C 396.730469 347.597656 394.613281 343.683594 393.15625 339.550781 C 392.011719 336.324219 391.203125 332.882812 389.191406 330.109375 C 387.710938 328.207031 385.882812 326.597656 383.804688 325.371094 C 379.085938 322.371094 373.773438 320.425781 368.238281 319.660156 C 372.347656 316.449219 377.671875 315.382812 382.679688 313.929688 C 387.691406 312.472656 392.929688 310.234375 395.554688 305.730469 C 397.128906 303.03125 397.566406 299.828125 397.777344 296.707031 C 398.417969 287.324219 397.320312 277.90625 394.546875 268.917969 C 392.699219 262.941406 390.085938 256.691406 391.679688 250.648438 C 392.492188 247.601562 394.320312 244.917969 396.117188 242.351562 C 399.613281 237.304688 403.234375 232.140625 408.335938 228.734375 C 412.738281 225.796875 417.96875 224.414062 423.207031 224.046875 C 427.136719 223.789062 433.101562 222.839844 436.082031 225.652344 Z M 436.082031 225.652344 "/>
<path style=" stroke:none;fill-rule:nonzero;fill:rgb(24.705882%,23.921569%,33.72549%);fill-opacity:1;" d="M 229.832031 401.34375 C 229.785156 407.328125 213.511719 413.953125 194.683594 413.953125 C 175.855469 413.953125 160.140625 407.34375 159.886719 401.34375 C 159.011719 380.53125 175.851562 392.246094 194.683594 392.246094 C 213.519531 392.246094 230.003906 377.382812 229.832031 401.34375 Z M 229.832031 401.34375 "/>
<use xlink:href="#surface17" mask="url(#mask4)"/>
<path style=" stroke:none;fill-rule:nonzero;fill:rgb(24.705882%,23.921569%,33.72549%);fill-opacity:1;" d="M 228.78125 392.246094 C 228.78125 398.238281 213.511719 404.855469 194.683594 404.855469 C 175.855469 404.855469 160.585938 398.253906 160.585938 392.246094 C 160.585938 386.238281 175.851562 383.15625 194.683594 383.15625 C 213.519531 383.15625 228.78125 386.261719 228.78125 392.246094 Z M 228.78125 392.246094 "/>
<use xlink:href="#surface20" mask="url(#mask5)"/>
<path style=" stroke:none;fill-rule:nonzero;fill:rgb(24.705882%,23.921569%,33.72549%);fill-opacity:1;" d="M 222.132812 389.882812 C 222.097656 394.554688 209.410156 399.703125 194.71875 399.703125 C 180.027344 399.703125 167.78125 394.546875 167.574219 389.882812 C 166.890625 373.652344 180.027344 382.789062 194.71875 382.789062 C 209.410156 382.789062 222.269531 371.199219 222.132812 389.882812 Z M 222.132812 389.882812 "/>
<use xlink:href="#surface23" mask="url(#mask6)"/>
<path style=" stroke:none;fill-rule:nonzero;fill:rgb(24.705882%,23.921569%,33.72549%);fill-opacity:1;" d="M 221.3125 381.636719 C 221.3125 386.859375 209.410156 392.613281 194.71875 392.613281 C 180.027344 392.613281 168.117188 386.882812 168.117188 381.636719 C 168.117188 376.390625 180.027344 373.714844 194.71875 373.714844 C 209.410156 373.714844 221.3125 376.410156 221.3125 381.636719 Z M 221.3125 381.636719 "/>
<use xlink:href="#surface26" mask="url(#mask7)"/>
<path style=" stroke:none;fill-rule:nonzero;fill:rgb(24.705882%,23.921569%,33.72549%);fill-opacity:1;" d="M 130.976562 416.257812 C 130.976562 416.257812 136.011719 410.710938 136.875 404.472656 C 137.742188 398.238281 112.289062 388.65625 112.289062 388.65625 C 112.289062 388.65625 103.460938 393.816406 103.164062 398.648438 C 103.164062 398.648438 120.058594 416.808594 130.976562 416.257812 Z M 130.976562 416.257812 "/>
<use xlink:href="#surface29" mask="url(#mask8)"/>
<path style=" stroke:none;fill-rule:nonzero;fill:rgb(24.705882%,23.921569%,33.72549%);fill-opacity:1;" d="M 119.453125 403.273438 C 111.640625 398.585938 104.035156 396.910156 102.460938 399.53125 C 100.886719 402.15625 105.945312 408.082031 113.753906 412.769531 C 121.566406 417.457031 129.175781 419.132812 130.75 416.511719 C 132.320312 413.886719 127.265625 407.960938 119.453125 403.273438 Z M 119.453125 403.273438 "/>
<use xlink:href="#surface32" mask="url(#mask9)"/>
<path style=" stroke:none;fill-rule:nonzero;fill:rgb(24.705882%,23.921569%,33.72549%);fill-opacity:1;" d="M 137.230469 402.5625 L 151.710938 378.425781 L 136.984375 365.917969 L 125.503906 363.769531 L 121.921875 370.230469 L 111.847656 388.925781 Z M 137.230469 402.5625 "/>
<use xlink:href="#surface35" mask="url(#mask10)"/>
<path style=" stroke:none;fill-rule:nonzero;fill:rgb(24.705882%,23.921569%,33.72549%);fill-opacity:1;" d="M 151.902344 380.804688 C 151.902344 380.804688 161.683594 370.414062 159.171875 364.796875 C 156.660156 359.175781 143.402344 347.917969 134.960938 349.632812 C 126.519531 351.347656 125.167969 363.796875 125.167969 363.796875 Z M 151.902344 380.804688 "/>
<use xlink:href="#surface38" mask="url(#mask11)"/>
<path style=" stroke:none;fill-rule:nonzero;fill:rgb(24.705882%,23.921569%,33.72549%);fill-opacity:1;" d="M 40.683594 335.136719 L 115.578125 380.695312 C 115.578125 380.695312 122.695312 379.773438 121.921875 370.242188 L 47.742188 324.1875 C 46.234375 323.25 44.445312 322.863281 42.683594 323.097656 C 40.652344 323.375 38.253906 324.113281 37.472656 326.046875 C 37.273438 326.535156 37.136719 327.050781 37.058594 327.574219 C 36.632812 330.597656 38.0625 333.578125 40.683594 335.136719 Z M 40.683594 335.136719 "/>
<use xlink:href="#surface41" mask="url(#mask12)"/>
<path style=" stroke:none;fill-rule:nonzero;fill:rgb(24.705882%,23.921569%,33.72549%);fill-opacity:1;" d="M 137.21875 405.964844 C 138.023438 405.917969 138.703125 405.355469 138.898438 404.578125 C 139.265625 403.285156 138.59375 402.046875 137.890625 401.015625 C 136.632812 399.175781 135.058594 397.570312 133.246094 396.269531 C 130.199219 394.0625 127.242188 391.574219 123.789062 389.964844 C 121.792969 389.074219 119.699219 388.417969 117.554688 388 C 115.945312 387.628906 114.300781 387.449219 112.648438 387.460938 C 112.046875 387.476562 111.523438 387.863281 111.324219 388.429688 C 111.125 388.996094 111.300781 389.625 111.761719 390.011719 C 112.523438 390.515625 113.375 390.875 114.269531 391.066406 C 118.734375 392.378906 122.867188 394.652344 126.738281 397.238281 C 128.820312 398.578125 130.773438 400.113281 132.566406 401.824219 C 133.757812 403.003906 135.28125 406.007812 137.21875 405.964844 Z M 137.21875 405.964844 "/>
<use xlink:href="#surface44" mask="url(#mask13)"/>
<path style=" stroke:none;fill-rule:nonzero;fill:rgb(24.705882%,23.921569%,33.72549%);fill-opacity:1;" d="M 149.175781 382.652344 C 149.175781 382.652344 156.523438 382.828125 150.441406 375.441406 C 144.363281 368.050781 133.484375 360.71875 125.738281 362.375 C 125.738281 362.375 122.53125 365.035156 125.304688 365.496094 C 127.933594 365.929688 140.207031 368.359375 145.847656 375.199219 C 146.464844 375.941406 147.152344 376.621094 147.902344 377.226562 C 149.226562 378.304688 151.011719 380.347656 149.175781 382.652344 Z M 149.175781 382.652344 "/>
<use xlink:href="#surface47" mask="url(#mask14)"/>
<path style=" stroke:none;fill-rule:nonzero;fill:rgb(24.705882%,23.921569%,33.72549%);fill-opacity:1;" d="M 149.859375 353.132812 C 142.046875 348.445312 134.441406 346.769531 132.867188 349.390625 C 131.292969 352.011719 136.351562 357.941406 144.160156 362.628906 C 151.972656 367.316406 159.582031 368.992188 161.15625 366.371094 C 162.726562 363.746094 157.671875 357.820312 149.859375 353.132812 Z M 149.859375 353.132812 "/>
<use xlink:href="#surface50" mask="url(#mask15)"/>
<path style=" stroke:none;fill-rule:nonzero;fill:rgb(74.509804%,43.529412%,44.705882%);fill-opacity:1;" d="M 112.648438 364.472656 C 112.445312 367.183594 110.914062 369.621094 108.554688 370.972656 C 104.710938 373.027344 99.3125 371.199219 97.5 367.230469 C 96.558594 365.167969 96.542969 362.851562 96.355469 360.574219 C 96.292969 359.832031 96.191406 359.09375 96.054688 358.363281 C 95.484375 355.410156 93.039062 352.277344 90.089844 352.859375 C 87.652344 353.335938 86.371094 356.070312 86.078125 358.535156 C 86 359.214844 85.964844 359.894531 85.960938 360.574219 C 85.960938 361.285156 85.992188 361.996094 86.03125 362.707031 C 86.109375 364.164062 86.238281 365.625 86.230469 367.082031 C 86.230469 369.949219 85.613281 372.992188 83.542969 374.957031 C 81.03125 377.347656 77.179688 377.457031 73.707031 377.417969 C 65.230469 377.332031 55.796875 376.84375 49.417969 371.628906 C 48.632812 370.996094 47.902344 370.292969 47.238281 369.535156 C 45.992188 368.101562 44.980469 366.476562 44.242188 364.726562 C 43.675781 363.390625 43.238281 362 42.941406 360.574219 C 41.988281 356.132812 42.203125 351.289062 42.980469 346.785156 C 43.484375 343.839844 44.460938 340.609375 46.613281 338.730469 C 47.128906 338.28125 47.707031 337.917969 48.335938 337.648438 C 49.367188 337.210938 50.535156 337.074219 51.433594 336.390625 C 52.335938 335.710938 52.917969 334.472656 53.871094 333.726562 C 55.78125 332.230469 58.679688 332.871094 60.914062 332.367188 L 61.011719 332.367188 L 61.132812 332.332031 C 63.546875 331.761719 65.777344 330.441406 68.050781 329.46875 C 69.03125 329.050781 70.011719 328.648438 70.996094 328.292969 C 73.453125 327.3125 76.101562 326.917969 78.734375 327.144531 C 87.332031 328.125 97.648438 333.34375 103.535156 339.601562 C 104.984375 341.042969 106.113281 342.773438 106.847656 344.679688 C 107.328125 346.28125 107.59375 347.9375 107.640625 349.605469 C 107.792969 351.960938 107.921875 354.3125 109.089844 356.324219 C 109.800781 357.539062 110.84375 358.53125 111.582031 359.761719 C 111.753906 360.039062 111.902344 360.328125 112.03125 360.628906 C 112.554688 361.835938 112.769531 363.160156 112.648438 364.472656 Z M 112.648438 364.472656 "/>
<path style=" stroke:none;fill-rule:nonzero;fill:rgb(89.019608%,90.980392%,95.686275%);fill-opacity:1;" d="M 93.738281 336.179688 C 97.242188 337.992188 100.6875 340.039062 103.4375 342.859375 C 106.1875 345.679688 108.21875 349.375 108.378906 353.320312 C 110.78125 350.410156 112.847656 347.234375 114.527344 343.855469 C 115.859375 341.191406 116.953125 338.039062 115.773438 335.296875 C 115.207031 334.136719 114.414062 333.105469 113.441406 332.257812 C 108.28125 327.375 101.347656 324.675781 94.332031 323.570312 C 86.746094 322.371094 71.597656 319.757812 70.433594 330.796875 C 78.929688 330.394531 86.152344 332.269531 93.738281 336.179688 Z M 93.738281 336.179688 "/>
<path style=" stroke:none;fill-rule:nonzero;fill:rgb(18.039216%,64.313725%,38.039216%);fill-opacity:1;" d="M 187.691406 195.019531 C 182.082031 197.445312 175.511719 195.730469 169.582031 197.199219 C 165.203125 198.28125 161.4375 201.027344 157.882812 203.808594 C 150.796875 209.34375 143.816406 215.535156 140.027344 223.691406 C 138.789062 226.363281 137.90625 229.199219 136.421875 231.71875 C 134.023438 235.820312 130.1875 238.875 126.191406 241.460938 C 115.984375 248.042969 104.132812 252.15625 95.046875 260.21875 C 91.160156 263.65625 87.886719 267.738281 84.84375 271.941406 C 81.269531 276.871094 77.847656 282.371094 77.777344 288.460938 C 77.777344 290.84375 78.246094 293.261719 77.777344 295.609375 C 76.769531 300.851562 71.472656 304.109375 69.082031 308.890625 C 66.789062 313.445312 67.335938 319.074219 64.785156 323.476562 C 63.109375 326.34375 60.078125 329.210938 61.035156 332.375 C 68.0625 327.09375 76.511719 324.921875 85.109375 326.640625 C 89.414062 327.496094 93.429688 329.417969 97.28125 331.519531 C 101.746094 333.960938 106.148438 336.734375 109.375 340.691406 C 112.601562 344.644531 114.535156 349.910156 113.386719 354.867188 C 118.035156 352.574219 120.789062 347.679688 122.695312 342.863281 C 124.605469 338.046875 126.058594 332.90625 129.230469 328.832031 C 130.863281 326.726562 132.890625 324.980469 134.824219 323.152344 C 145.546875 312.988281 153.28125 300.148438 160.867188 287.472656 C 168.695312 274.414062 176.515625 261.34375 184.332031 248.265625 C 186.5 244.636719 188.679688 240.984375 190.242188 237.066406 C 195.5 223.882812 192.09375 208.484375 187.691406 195.019531 Z M 187.691406 195.019531 "/>
<path style=" stroke:none;fill-rule:nonzero;fill:rgb(18.039216%,64.313725%,38.039216%);fill-opacity:1;" d="M 547.773438 363.835938 C 547.773438 360.367188 533.144531 357.554688 515.097656 357.554688 C 497.050781 357.554688 482.421875 360.367188 482.421875 363.835938 C 482.421875 367.308594 497.050781 370.121094 515.097656 370.121094 C 533.144531 370.121094 547.773438 367.308594 547.773438 363.835938 Z M 547.773438 363.835938 "/>
<path style=" stroke:none;fill-rule:nonzero;fill:rgb(24.705882%,23.921569%,33.72549%);fill-opacity:1;" d="M 518.351562 361.171875 C 518.351562 358.421875 516.648438 356.191406 514.546875 356.191406 C 512.445312 356.191406 510.742188 358.421875 510.742188 361.171875 C 510.742188 363.921875 512.445312 366.152344 514.546875 366.152344 C 516.648438 366.152344 518.351562 363.921875 518.351562 361.171875 Z M 518.351562 361.171875 "/>
<path style=" stroke:none;fill-rule:nonzero;fill:rgb(24.705882%,23.921569%,33.72549%);fill-opacity:1;" d="M 518.351562 355.078125 C 518.351562 352.328125 516.648438 350.097656 514.546875 350.097656 C 512.445312 350.097656 510.742188 352.328125 510.742188 355.078125 C 510.742188 357.828125 512.445312 360.058594 514.546875 360.058594 C 516.648438 360.058594 518.351562 357.828125 518.351562 355.078125 Z M 518.351562 355.078125 "/>
<path style=" stroke:none;fill-rule:nonzero;fill:rgb(24.705882%,23.921569%,33.72549%);fill-opacity:1;" d="M 518.351562 348.992188 C 518.351562 346.242188 516.648438 344.011719 514.546875 344.011719 C 512.445312 344.011719 510.742188 346.242188 510.742188 348.992188 C 510.742188 351.742188 512.445312 353.972656 514.546875 353.972656 C 516.648438 353.972656 518.351562 351.742188 518.351562 348.992188 Z M 518.351562 348.992188 "/>
<path style=" stroke:none;fill-rule:nonzero;fill:rgb(24.705882%,23.921569%,33.72549%);fill-opacity:1;" d="M 518.351562 342.902344 C 518.351562 340.152344 516.648438 337.921875 514.546875 337.921875 C 512.445312 337.921875 510.742188 340.152344 510.742188 342.902344 C 510.742188 345.65625 512.445312 347.886719 514.546875 347.886719 C 516.648438 347.886719 518.351562 345.65625 518.351562 342.902344 Z M 518.351562 342.902344 "/>
<path style=" stroke:none;fill-rule:nonzero;fill:rgb(24.705882%,23.921569%,33.72549%);fill-opacity:1;" d="M 518.351562 336.816406 C 518.351562 334.066406 516.648438 331.835938 514.546875 331.835938 C 512.445312 331.835938 510.742188 334.066406 510.742188 336.816406 C 510.742188 339.566406 512.445312 341.796875 514.546875 341.796875 C 516.648438 341.796875 518.351562 339.566406 518.351562 336.816406 Z M 518.351562 336.816406 "/>
<path style=" stroke:none;fill-rule:nonzero;fill:rgb(24.705882%,23.921569%,33.72549%);fill-opacity:1;" d="M 518.351562 330.730469 C 518.351562 327.976562 516.648438 325.746094 514.546875 325.746094 C 512.445312 325.746094 510.742188 327.976562 510.742188 330.730469 C 510.742188 333.480469 512.445312 335.710938 514.546875 335.710938 C 516.648438 335.710938 518.351562 333.480469 518.351562 330.730469 Z M 518.351562 330.730469 "/>
<path style=" stroke:none;fill-rule:nonzero;fill:rgb(24.705882%,23.921569%,33.72549%);fill-opacity:1;" d="M 518.351562 324.640625 C 518.351562 321.890625 516.648438 319.660156 514.546875 319.660156 C 512.445312 319.660156 510.742188 321.890625 510.742188 324.640625 C 510.742188 327.390625 512.445312 329.621094 514.546875 329.621094 C 516.648438 329.621094 518.351562 327.390625 518.351562 324.640625 Z M 518.351562 324.640625 "/>
<path style=" stroke:none;fill-rule:nonzero;fill:rgb(18.039216%,64.313725%,38.039216%);fill-opacity:1;" d="M 528.796875 282.972656 C 529.316406 282.3125 529.789062 281.617188 530.210938 280.894531 L 520.214844 279.25 L 531.027344 279.328125 C 533.121094 274.769531 533.246094 269.546875 531.375 264.890625 L 516.867188 272.414062 L 530.246094 262.578125 C 526.832031 256.671875 520.40625 253.164062 513.589844 253.492188 C 506.773438 253.816406 500.710938 257.925781 497.882812 264.132812 C 495.050781 270.34375 495.921875 277.613281 500.144531 282.972656 C 499.335938 284.007812 498.640625 285.121094 498.070312 286.296875 L 511.046875 293.046875 L 497.199219 288.398438 C 495.222656 294.230469 496.328125 300.667969 500.132812 305.511719 C 494.257812 312.988281 495.113281 323.71875 502.09375 330.167969 C 509.078125 336.617188 519.84375 336.617188 526.828125 330.167969 C 533.808594 323.71875 534.664062 312.988281 528.789062 305.511719 C 533.988281 298.898438 533.988281 289.589844 528.789062 282.972656 Z M 528.796875 282.972656 "/>
<use xlink:href="#surface53" mask="url(#mask16)"/>
<path style=" stroke:none;fill-rule:nonzero;fill:rgb(24.705882%,23.921569%,33.72549%);fill-opacity:1;" d="M 266.789062 103.144531 C 270.800781 104.691406 274.714844 106.917969 279.019531 107.207031 C 284.480469 107.574219 289.640625 104.789062 295.066406 104.023438 C 305.011719 102.617188 314.453125 108.035156 323.792969 111.714844 C 333.136719 115.394531 345.171875 116.917969 352.023438 109.574219 C 357.839844 103.332031 357.039062 92.953125 352.359375 85.84375 C 347.683594 78.738281 340.042969 74.140625 332.488281 70.179688 C 324.15625 65.8125 315.464844 61.839844 306.1875 60.296875 C 286.492188 57.035156 266.484375 65.179688 250.144531 76.652344 C 244.722656 80.457031 239.363281 84.898438 236.773438 90.980469 C 235.304688 94.421875 234.847656 98.824219 236.125 102.40625 C 238.222656 108.296875 239.597656 107.597656 243.949219 106.0625 C 252.257812 103.140625 257.171875 99.464844 266.789062 103.144531 Z M 266.789062 103.144531 "/>
</g>
</svg>
