<?xml version="1.0" encoding="UTF-8"?>
<svg xmlns="http://www.w3.org/2000/svg" xmlns:xlink="http://www.w3.org/1999/xlink" width="763px" height="458px" viewBox="0 0 458 458" version="1.1">
<defs>
<filter id="alpha" filterUnits="objectBoundingBox" x="0%" y="0%" width="100%" height="100%">
  <feColorMatrix type="matrix" in="SourceGraphic" values="0 0 0 0 1 0 0 0 0 1 0 0 0 0 1 0 0 0 1 0"/>
</filter>
<mask id="mask0">
  <g filter="url(#alpha)">
<rect x="0" y="0" width="458" height="458" style="fill:rgb(0%,0%,0%);fill-opacity:0.2;stroke:none;"/>
  </g>
</mask>
<clipPath id="clip1">
  <rect x="0" y="0" width="458" height="458"/>
</clipPath>
<g id="surface5" clip-path="url(#clip1)">
<path style=" stroke:none;fill-rule:nonzero;fill:rgb(0%,0%,0%);fill-opacity:1;" d="M 163.484375 376.617188 L 170.21875 350.632812 L 176.164062 373.054688 Z M 163.484375 376.617188 "/>
</g>
<mask id="mask1">
  <g filter="url(#alpha)">
<rect x="0" y="0" width="458" height="458" style="fill:rgb(0%,0%,0%);fill-opacity:0.2;stroke:none;"/>
  </g>
</mask>
<clipPath id="clip2">
  <rect x="0" y="0" width="458" height="458"/>
</clipPath>
<g id="surface8" clip-path="url(#clip2)">
<path style=" stroke:none;fill-rule:nonzero;fill:rgb(0%,0%,0%);fill-opacity:1;" d="M 342.644531 365.371094 C 342.769531 363.316406 342.90625 361.195312 343.066406 358.984375 C 335.03125 338.921875 119.429688 374.445312 115.792969 397.710938 C 115.804688 399.84375 115.894531 401.910156 116.050781 403.933594 C 124.855469 380.972656 329.679688 347.207031 342.644531 365.371094 Z M 342.644531 365.371094 "/>
</g>
</defs>
<g id="surface1">
<path style=" stroke:none;fill-rule:nonzero;fill:rgb(94.901961%,94.901961%,94.901961%);fill-opacity:1;" d="M 458 229 C 458.078125 283.054688 438.957031 335.382812 404.046875 376.652344 C 402.777344 378.160156 401.488281 379.640625 400.171875 381.113281 C 384.691406 398.523438 366.660156 413.480469 346.695312 425.480469 C 342.113281 428.230469 337.433594 430.820312 332.652344 433.253906 C 332.167969 433.5 331.675781 433.746094 331.195312 433.984375 C 330.617188 434.277344 330.03125 434.5625 329.441406 434.847656 C 317.34375 440.769531 304.742188 445.597656 291.789062 449.285156 C 290.441406 449.664062 289.09375 450.035156 287.738281 450.394531 C 270.699219 454.902344 253.191406 457.425781 235.570312 457.914062 C 234.648438 457.9375 233.746094 457.953125 232.875 457.96875 C 232.566406 457.976562 232.265625 457.984375 231.964844 457.984375 C 230.972656 457.992188 229.992188 458 229 458 C 210.429688 458.015625 191.925781 455.769531 173.898438 451.320312 C 172.089844 450.875 170.292969 450.410156 168.5 449.917969 C 159.066406 447.34375 149.8125 444.160156 140.792969 440.386719 C 136.035156 438.402344 131.367188 436.265625 126.78125 433.976562 C 125.742188 433.453125 124.707031 432.929688 123.683594 432.390625 C 123.246094 432.175781 122.820312 431.945312 122.390625 431.722656 C 97.953125 418.824219 76.039062 401.632812 57.695312 380.964844 C 56.425781 379.546875 55.183594 378.105469 53.953125 376.652344 C 13.101562 328.214844 -5.859375 265.015625 1.585938 202.085938 C 9.03125 139.160156 42.21875 82.128906 93.25 44.5625 C 94.546875 43.605469 95.855469 42.652344 97.179688 41.726562 C 97.441406 41.542969 97.703125 41.363281 97.960938 41.179688 C 121.214844 24.894531 147.3125 13.109375 174.902344 6.433594 C 176.472656 6.046875 178.042969 5.679688 179.625 5.339844 C 209.511719 -1.195312 240.398438 -1.738281 270.496094 3.746094 C 272.074219 4.042969 273.652344 4.34375 275.21875 4.667969 C 302.566406 10.277344 328.648438 20.867188 352.160156 35.910156 C 352.683594 36.242188 353.207031 36.578125 353.730469 36.925781 C 354.785156 37.605469 355.835938 38.304688 356.875 39.007812 C 420.132812 81.535156 458.050781 152.777344 458 229 Z M 458 229 "/>
<path style=" stroke:none;fill-rule:nonzero;fill:rgb(80%,80%,80%);fill-opacity:1;" d="M 171.15625 347.46875 L 97.960938 353.96875 L 97.179688 354.039062 L 97.179688 41.726562 C 97.441406 41.542969 97.703125 41.363281 97.960938 41.179688 C 113.21875 30.511719 129.71875 21.746094 147.097656 15.078125 L 150.839844 66.664062 L 151.179688 71.386719 L 154.878906 122.542969 L 156.019531 138.28125 L 171.019531 345.648438 Z M 171.15625 347.46875 "/>
<path style=" stroke:none;fill-rule:nonzero;fill:rgb(80%,80%,80%);fill-opacity:1;" d="M 352.160156 35.910156 C 352.683594 36.242188 353.207031 36.578125 353.730469 36.925781 L 353.730469 354.039062 L 352.160156 353.894531 L 279.761719 347.46875 L 279.894531 345.648438 L 294.894531 138.28125 L 296.035156 122.542969 L 299.738281 71.386719 L 300.078125 66.664062 L 304 12.566406 C 320.914062 18.429688 337.078125 26.265625 352.160156 35.910156 Z M 352.160156 35.910156 "/>
<path style=" stroke:none;fill-rule:nonzero;fill:rgb(80%,80%,80%);fill-opacity:1;" d="M 352.160156 35.910156 L 352.160156 358.363281 C 352.160156 364.554688 347.898438 369.585938 342.652344 369.585938 L 107.472656 369.585938 C 103.128906 369.585938 99.445312 366.128906 98.328125 361.414062 C 98.082031 360.417969 97.960938 359.394531 97.960938 358.363281 L 97.960938 41.179688 C 97.703125 41.363281 97.441406 41.542969 97.179688 41.726562 C 95.855469 42.652344 94.546875 43.605469 93.25 44.5625 L 93.25 358.363281 C 93.179688 363.066406 94.933594 367.609375 98.144531 371.042969 C 99.828125 372.808594 101.960938 374.082031 104.308594 374.734375 C 105.339844 375.015625 106.402344 375.15625 107.472656 375.15625 L 342.652344 375.15625 C 343.722656 375.15625 344.789062 375.015625 345.820312 374.734375 C 352.144531 373.03125 356.875 366.34375 356.875 358.363281 L 356.875 39.007812 C 355.835938 38.304688 354.785156 37.605469 353.730469 36.925781 C 353.207031 36.578125 352.683594 36.242188 352.160156 35.910156 Z M 352.160156 35.910156 "/>
<path style=" stroke:none;fill-rule:nonzero;fill:rgb(80%,80%,80%);fill-opacity:1;" d="M 95.605469 66.667969 L 354.519531 66.667969 L 354.519531 71.386719 L 95.605469 71.386719 Z M 95.605469 66.667969 "/>
<path style=" stroke:none;fill-rule:nonzero;fill:rgb(80%,80%,80%);fill-opacity:1;" d="M 174.902344 6.433594 C 176.472656 6.046875 178.042969 5.679688 179.625 5.339844 L 179.625 133.558594 L 174.902344 133.558594 Z M 174.902344 6.433594 "/>
<path style=" stroke:none;fill-rule:nonzero;fill:rgb(80%,80%,80%);fill-opacity:1;" d="M 270.496094 3.746094 C 272.074219 4.042969 273.652344 4.34375 275.21875 4.667969 L 275.21875 133.558594 L 270.496094 133.558594 Z M 270.496094 3.746094 "/>
<path style=" stroke:none;fill-rule:nonzero;fill:rgb(80%,80%,80%);fill-opacity:1;" d="M 384.03125 345.648438 L 73.960938 345.648438 C 62.222656 345.648438 52.710938 355.164062 52.710938 366.898438 C 52.710938 378.636719 62.222656 388.152344 73.960938 388.152344 L 384.03125 388.152344 C 390.136719 388.152344 395.945312 385.523438 399.972656 380.933594 C 400.875 379.90625 401.675781 378.796875 402.367188 377.621094 C 402.902344 376.71875 403.363281 375.773438 403.753906 374.800781 C 406.382812 368.253906 405.589844 360.828125 401.636719 354.984375 C 397.683594 349.140625 391.085938 345.644531 384.03125 345.648438 Z M 384.03125 345.648438 "/>
<path style=" stroke:none;fill-rule:nonzero;fill:rgb(80%,80%,80%);fill-opacity:1;" d="M 97.179688 122.542969 L 354.519531 122.542969 L 354.519531 138.28125 L 97.179688 138.28125 Z M 97.179688 122.542969 "/>
<path style=" stroke:none;fill-rule:nonzero;fill:rgb(80%,80%,80%);fill-opacity:1;" d="M 223.488281 117.820312 L 228.210938 117.820312 C 232.992188 117.820312 236.867188 121.695312 236.867188 126.476562 L 214.832031 126.476562 C 214.832031 121.695312 218.707031 117.820312 223.488281 117.820312 Z M 223.488281 117.820312 "/>
<path style=" stroke:none;fill-rule:nonzero;fill:rgb(24.705882%,23.921569%,33.72549%);fill-opacity:1;" d="M 404.046875 376.652344 C 397.164062 384.808594 389.71875 392.476562 381.765625 399.59375 L 76.234375 399.59375 C 68.28125 392.476562 60.835938 384.808594 53.953125 376.652344 Z M 404.046875 376.652344 "/>
<path style=" stroke:none;fill-rule:nonzero;fill:rgb(18.431373%,18.039216%,25.490196%);fill-opacity:1;" d="M 254.578125 297.199219 L 203.136719 297.199219 C 202.859375 297.199219 202.582031 297.242188 202.320312 297.328125 C 201.175781 297.683594 200.394531 298.742188 200.394531 299.941406 L 200.394531 381.210938 L 257.328125 381.210938 L 257.328125 299.941406 C 257.328125 298.425781 256.09375 297.199219 254.578125 297.199219 Z M 235.109375 337.296875 C 235.109375 338.613281 234.675781 339.894531 233.875 340.941406 C 232.300781 343.019531 229.578125 343.863281 227.105469 343.039062 C 224.632812 342.214844 222.960938 339.902344 222.953125 337.296875 L 222.953125 327.867188 C 222.984375 324.53125 225.695312 321.84375 229.03125 321.84375 C 232.367188 321.84375 235.078125 324.53125 235.109375 327.867188 Z M 235.109375 337.296875 "/>
<path style=" stroke:none;fill-rule:nonzero;fill:rgb(24.705882%,23.921569%,33.72549%);fill-opacity:1;" d="M 200.21875 378.609375 L 200.21875 386.449219 C 200.21875 387.292969 200.902344 387.980469 201.75 387.984375 L 255.972656 387.984375 C 256.816406 387.976562 257.5 387.292969 257.503906 386.449219 L 257.503906 378.609375 Z M 200.21875 378.609375 "/>
<path style=" stroke:none;fill-rule:nonzero;fill:rgb(24.705882%,23.921569%,33.72549%);fill-opacity:1;" d="M 339.761719 170.378906 L 119.871094 170.378906 C 115.9375 170.382812 112.75 173.570312 112.742188 177.503906 L 112.742188 325.886719 C 112.742188 329.824219 115.933594 333.011719 119.871094 333.015625 L 339.761719 333.015625 C 343.695312 333.011719 346.886719 329.824219 346.890625 325.886719 L 346.890625 177.503906 C 346.882812 173.570312 343.695312 170.382812 339.761719 170.378906 Z M 339.761719 170.378906 "/>
<path style=" stroke:none;fill-rule:nonzero;fill:rgb(18.039216%,64.313725%,38.039216%);fill-opacity:1;" d="M 337.921875 175.53125 L 121.703125 175.53125 C 119.597656 175.535156 117.890625 177.242188 117.890625 179.347656 L 117.890625 324.054688 C 117.894531 326.160156 119.597656 327.863281 121.703125 327.867188 L 337.921875 327.867188 C 340.023438 327.863281 341.730469 326.160156 341.734375 324.054688 L 341.734375 179.347656 C 341.734375 177.242188 340.027344 175.535156 337.921875 175.53125 Z M 337.921875 175.53125 "/>
<path style=" stroke:none;fill-rule:nonzero;fill:rgb(18.431373%,18.039216%,25.490196%);fill-opacity:1;" d="M 298.128906 387.859375 L 296.132812 378.371094 C 295.964844 377.585938 295.40625 376.941406 294.65625 376.652344 C 294.390625 376.546875 294.105469 376.496094 293.816406 376.496094 L 169.167969 376.496094 C 168.878906 376.496094 168.59375 376.546875 168.328125 376.652344 C 167.574219 376.941406 167.019531 377.585938 166.851562 378.371094 L 164.855469 387.859375 C 164.710938 388.554688 164.886719 389.28125 165.335938 389.835938 C 165.785156 390.386719 166.457031 390.710938 167.171875 390.710938 L 295.804688 390.710938 C 296.519531 390.714844 297.199219 390.390625 297.644531 389.832031 C 298.09375 389.28125 298.273438 388.554688 298.128906 387.859375 Z M 298.128906 387.859375 "/>
<path style=" stroke:none;fill-rule:nonzero;fill:rgb(24.705882%,23.921569%,33.72549%);fill-opacity:1;" d="M 170.46875 378.203125 L 173.65625 378.203125 C 173.871094 378.203125 174.042969 378.375 174.042969 378.589844 L 174.042969 380.195312 C 174.042969 380.40625 173.871094 380.582031 173.65625 380.582031 L 170.46875 380.582031 C 170.253906 380.582031 170.082031 380.40625 170.082031 380.195312 L 170.082031 378.589844 C 170.082031 378.375 170.253906 378.203125 170.46875 378.203125 Z M 170.46875 378.203125 "/>
<path style=" stroke:none;fill-rule:nonzero;fill:rgb(24.705882%,23.921569%,33.72549%);fill-opacity:1;" d="M 178.390625 378.203125 L 181.578125 378.203125 C 181.792969 378.203125 181.964844 378.375 181.964844 378.589844 L 181.964844 380.195312 C 181.964844 380.40625 181.792969 380.582031 181.578125 380.582031 L 178.390625 380.582031 C 178.175781 380.582031 178.003906 380.40625 178.003906 380.195312 L 178.003906 378.589844 C 178.003906 378.375 178.175781 378.203125 178.390625 378.203125 Z M 178.390625 378.203125 "/>
<path style=" stroke:none;fill-rule:nonzero;fill:rgb(24.705882%,23.921569%,33.72549%);fill-opacity:1;" d="M 186.316406 378.203125 L 189.503906 378.203125 C 189.71875 378.203125 189.890625 378.375 189.890625 378.589844 L 189.890625 380.195312 C 189.890625 380.40625 189.71875 380.582031 189.503906 380.582031 L 186.316406 380.582031 C 186.101562 380.582031 185.929688 380.40625 185.929688 380.195312 L 185.929688 378.589844 C 185.929688 378.375 186.101562 378.203125 186.316406 378.203125 Z M 186.316406 378.203125 "/>
<path style=" stroke:none;fill-rule:nonzero;fill:rgb(24.705882%,23.921569%,33.72549%);fill-opacity:1;" d="M 194.238281 378.203125 L 197.425781 378.203125 C 197.640625 378.203125 197.8125 378.375 197.8125 378.589844 L 197.8125 380.195312 C 197.8125 380.40625 197.640625 380.582031 197.425781 380.582031 L 194.238281 380.582031 C 194.023438 380.582031 193.851562 380.40625 193.851562 380.195312 L 193.851562 378.589844 C 193.851562 378.375 194.023438 378.203125 194.238281 378.203125 Z M 194.238281 378.203125 "/>
<path style=" stroke:none;fill-rule:nonzero;fill:rgb(24.705882%,23.921569%,33.72549%);fill-opacity:1;" d="M 202.164062 378.203125 L 205.351562 378.203125 C 205.566406 378.203125 205.738281 378.375 205.738281 378.589844 L 205.738281 380.195312 C 205.738281 380.40625 205.566406 380.582031 205.351562 380.582031 L 202.164062 380.582031 C 201.949219 380.582031 201.777344 380.40625 201.777344 380.195312 L 201.777344 378.589844 C 201.777344 378.375 201.949219 378.203125 202.164062 378.203125 Z M 202.164062 378.203125 "/>
<path style=" stroke:none;fill-rule:nonzero;fill:rgb(24.705882%,23.921569%,33.72549%);fill-opacity:1;" d="M 210.085938 378.203125 L 213.273438 378.203125 C 213.488281 378.203125 213.660156 378.375 213.660156 378.589844 L 213.660156 380.195312 C 213.660156 380.40625 213.488281 380.582031 213.273438 380.582031 L 210.085938 380.582031 C 209.871094 380.582031 209.699219 380.40625 209.699219 380.195312 L 209.699219 378.589844 C 209.699219 378.375 209.871094 378.203125 210.085938 378.203125 Z M 210.085938 378.203125 "/>
<path style=" stroke:none;fill-rule:nonzero;fill:rgb(24.705882%,23.921569%,33.72549%);fill-opacity:1;" d="M 218.011719 378.203125 L 221.199219 378.203125 C 221.414062 378.203125 221.585938 378.375 221.585938 378.589844 L 221.585938 380.195312 C 221.585938 380.40625 221.414062 380.582031 221.199219 380.582031 L 218.011719 380.582031 C 217.796875 380.582031 217.625 380.40625 217.625 380.195312 L 217.625 378.589844 C 217.625 378.375 217.796875 378.203125 218.011719 378.203125 Z M 218.011719 378.203125 "/>
<path style=" stroke:none;fill-rule:nonzero;fill:rgb(24.705882%,23.921569%,33.72549%);fill-opacity:1;" d="M 225.933594 378.203125 L 229.121094 378.203125 C 229.335938 378.203125 229.507812 378.375 229.507812 378.589844 L 229.507812 380.195312 C 229.507812 380.40625 229.335938 380.582031 229.121094 380.582031 L 225.933594 380.582031 C 225.722656 380.582031 225.546875 380.40625 225.546875 380.195312 L 225.546875 378.589844 C 225.546875 378.375 225.722656 378.203125 225.933594 378.203125 Z M 225.933594 378.203125 "/>
<path style=" stroke:none;fill-rule:nonzero;fill:rgb(24.705882%,23.921569%,33.72549%);fill-opacity:1;" d="M 233.859375 378.203125 L 237.046875 378.203125 C 237.261719 378.203125 237.433594 378.375 237.433594 378.589844 L 237.433594 380.195312 C 237.433594 380.40625 237.261719 380.582031 237.046875 380.582031 L 233.859375 380.582031 C 233.644531 380.582031 233.472656 380.40625 233.472656 380.195312 L 233.472656 378.589844 C 233.472656 378.375 233.644531 378.203125 233.859375 378.203125 Z M 233.859375 378.203125 "/>
<path style=" stroke:none;fill-rule:nonzero;fill:rgb(24.705882%,23.921569%,33.72549%);fill-opacity:1;" d="M 241.78125 378.203125 L 244.96875 378.203125 C 245.183594 378.203125 245.355469 378.375 245.355469 378.589844 L 245.355469 380.195312 C 245.355469 380.40625 245.183594 380.582031 244.96875 380.582031 L 241.78125 380.582031 C 241.570312 380.582031 241.394531 380.40625 241.394531 380.195312 L 241.394531 378.589844 C 241.394531 378.375 241.570312 378.203125 241.78125 378.203125 Z M 241.78125 378.203125 "/>
<path style=" stroke:none;fill-rule:nonzero;fill:rgb(24.705882%,23.921569%,33.72549%);fill-opacity:1;" d="M 249.707031 378.203125 L 252.894531 378.203125 C 253.109375 378.203125 253.28125 378.375 253.28125 378.589844 L 253.28125 380.195312 C 253.28125 380.40625 253.109375 380.582031 252.894531 380.582031 L 249.707031 380.582031 C 249.492188 380.582031 249.320312 380.40625 249.320312 380.195312 L 249.320312 378.589844 C 249.320312 378.375 249.492188 378.203125 249.707031 378.203125 Z M 249.707031 378.203125 "/>
<path style=" stroke:none;fill-rule:nonzero;fill:rgb(24.705882%,23.921569%,33.72549%);fill-opacity:1;" d="M 257.628906 378.203125 L 260.816406 378.203125 C 261.03125 378.203125 261.203125 378.375 261.203125 378.589844 L 261.203125 380.195312 C 261.203125 380.40625 261.03125 380.582031 260.816406 380.582031 L 257.628906 380.582031 C 257.417969 380.582031 257.242188 380.40625 257.242188 380.195312 L 257.242188 378.589844 C 257.242188 378.375 257.417969 378.203125 257.628906 378.203125 Z M 257.628906 378.203125 "/>
<path style=" stroke:none;fill-rule:nonzero;fill:rgb(24.705882%,23.921569%,33.72549%);fill-opacity:1;" d="M 265.554688 378.203125 L 268.742188 378.203125 C 268.957031 378.203125 269.128906 378.375 269.128906 378.589844 L 269.128906 380.195312 C 269.128906 380.40625 268.957031 380.582031 268.742188 380.582031 L 265.554688 380.582031 C 265.339844 380.582031 265.167969 380.40625 265.167969 380.195312 L 265.167969 378.589844 C 265.167969 378.375 265.339844 378.203125 265.554688 378.203125 Z M 265.554688 378.203125 "/>
<path style=" stroke:none;fill-rule:nonzero;fill:rgb(24.705882%,23.921569%,33.72549%);fill-opacity:1;" d="M 273.476562 378.203125 L 276.664062 378.203125 C 276.878906 378.203125 277.054688 378.375 277.054688 378.589844 L 277.054688 380.195312 C 277.054688 380.40625 276.878906 380.582031 276.664062 380.582031 L 273.476562 380.582031 C 273.265625 380.582031 273.089844 380.40625 273.089844 380.195312 L 273.089844 378.589844 C 273.089844 378.375 273.265625 378.203125 273.476562 378.203125 Z M 273.476562 378.203125 "/>
<path style=" stroke:none;fill-rule:nonzero;fill:rgb(24.705882%,23.921569%,33.72549%);fill-opacity:1;" d="M 281.402344 378.203125 L 284.589844 378.203125 C 284.804688 378.203125 284.976562 378.375 284.976562 378.589844 L 284.976562 380.195312 C 284.976562 380.40625 284.804688 380.582031 284.589844 380.582031 L 281.402344 380.582031 C 281.1875 380.582031 281.015625 380.40625 281.015625 380.195312 L 281.015625 378.589844 C 281.015625 378.375 281.1875 378.203125 281.402344 378.203125 Z M 281.402344 378.203125 "/>
<path style=" stroke:none;fill-rule:nonzero;fill:rgb(24.705882%,23.921569%,33.72549%);fill-opacity:1;" d="M 289.324219 378.203125 L 292.515625 378.203125 C 292.726562 378.203125 292.902344 378.375 292.902344 378.589844 L 292.902344 380.195312 C 292.902344 380.40625 292.726562 380.582031 292.515625 380.582031 L 289.324219 380.582031 C 289.113281 380.582031 288.9375 380.40625 288.9375 380.195312 L 288.9375 378.589844 C 288.9375 378.375 289.113281 378.203125 289.324219 378.203125 Z M 289.324219 378.203125 "/>
<path style=" stroke:none;fill-rule:nonzero;fill:rgb(24.705882%,23.921569%,33.72549%);fill-opacity:1;" d="M 170.375 382.164062 L 173.5625 382.164062 C 173.777344 382.164062 173.949219 382.339844 173.949219 382.550781 L 173.949219 384.15625 C 173.949219 384.367188 173.777344 384.542969 173.5625 384.542969 L 170.375 384.542969 C 170.160156 384.542969 169.988281 384.367188 169.988281 384.15625 L 169.988281 382.550781 C 169.988281 382.339844 170.160156 382.164062 170.375 382.164062 Z M 170.375 382.164062 "/>
<path style=" stroke:none;fill-rule:nonzero;fill:rgb(24.705882%,23.921569%,33.72549%);fill-opacity:1;" d="M 178.296875 382.164062 L 181.484375 382.164062 C 181.699219 382.164062 181.871094 382.339844 181.871094 382.550781 L 181.871094 384.15625 C 181.871094 384.367188 181.699219 384.542969 181.484375 384.542969 L 178.296875 384.542969 C 178.082031 384.542969 177.910156 384.367188 177.910156 384.15625 L 177.910156 382.550781 C 177.910156 382.339844 178.082031 382.164062 178.296875 382.164062 Z M 178.296875 382.164062 "/>
<path style=" stroke:none;fill-rule:nonzero;fill:rgb(24.705882%,23.921569%,33.72549%);fill-opacity:1;" d="M 186.222656 382.164062 L 189.410156 382.164062 C 189.625 382.164062 189.796875 382.339844 189.796875 382.550781 L 189.796875 384.15625 C 189.796875 384.367188 189.625 384.542969 189.410156 384.542969 L 186.222656 384.542969 C 186.007812 384.542969 185.835938 384.367188 185.835938 384.15625 L 185.835938 382.550781 C 185.835938 382.339844 186.007812 382.164062 186.222656 382.164062 Z M 186.222656 382.164062 "/>
<path style=" stroke:none;fill-rule:nonzero;fill:rgb(24.705882%,23.921569%,33.72549%);fill-opacity:1;" d="M 194.144531 382.164062 L 197.332031 382.164062 C 197.546875 382.164062 197.71875 382.339844 197.71875 382.550781 L 197.71875 384.15625 C 197.71875 384.367188 197.546875 384.542969 197.332031 384.542969 L 194.144531 384.542969 C 193.929688 384.542969 193.757812 384.367188 193.757812 384.15625 L 193.757812 382.550781 C 193.757812 382.339844 193.929688 382.164062 194.144531 382.164062 Z M 194.144531 382.164062 "/>
<path style=" stroke:none;fill-rule:nonzero;fill:rgb(24.705882%,23.921569%,33.72549%);fill-opacity:1;" d="M 202.070312 382.164062 L 205.257812 382.164062 C 205.472656 382.164062 205.644531 382.339844 205.644531 382.550781 L 205.644531 384.15625 C 205.644531 384.367188 205.472656 384.542969 205.257812 384.542969 L 202.070312 384.542969 C 201.855469 384.542969 201.683594 384.367188 201.683594 384.15625 L 201.683594 382.550781 C 201.683594 382.339844 201.855469 382.164062 202.070312 382.164062 Z M 202.070312 382.164062 "/>
<path style=" stroke:none;fill-rule:nonzero;fill:rgb(24.705882%,23.921569%,33.72549%);fill-opacity:1;" d="M 209.992188 382.164062 L 213.179688 382.164062 C 213.394531 382.164062 213.566406 382.339844 213.566406 382.550781 L 213.566406 384.15625 C 213.566406 384.367188 213.394531 384.542969 213.179688 384.542969 L 209.992188 384.542969 C 209.78125 384.542969 209.605469 384.367188 209.605469 384.15625 L 209.605469 382.550781 C 209.605469 382.339844 209.78125 382.164062 209.992188 382.164062 Z M 209.992188 382.164062 "/>
<path style=" stroke:none;fill-rule:nonzero;fill:rgb(24.705882%,23.921569%,33.72549%);fill-opacity:1;" d="M 217.917969 382.164062 L 221.105469 382.164062 C 221.320312 382.164062 221.492188 382.339844 221.492188 382.550781 L 221.492188 384.15625 C 221.492188 384.367188 221.320312 384.542969 221.105469 384.542969 L 217.917969 384.542969 C 217.703125 384.542969 217.53125 384.367188 217.53125 384.15625 L 217.53125 382.550781 C 217.53125 382.339844 217.703125 382.164062 217.917969 382.164062 Z M 217.917969 382.164062 "/>
<path style=" stroke:none;fill-rule:nonzero;fill:rgb(24.705882%,23.921569%,33.72549%);fill-opacity:1;" d="M 225.839844 382.164062 L 229.027344 382.164062 C 229.242188 382.164062 229.414062 382.339844 229.414062 382.550781 L 229.414062 384.15625 C 229.414062 384.367188 229.242188 384.542969 229.027344 384.542969 L 225.839844 384.542969 C 225.628906 384.542969 225.453125 384.367188 225.453125 384.15625 L 225.453125 382.550781 C 225.453125 382.339844 225.628906 382.164062 225.839844 382.164062 Z M 225.839844 382.164062 "/>
<path style=" stroke:none;fill-rule:nonzero;fill:rgb(24.705882%,23.921569%,33.72549%);fill-opacity:1;" d="M 233.765625 382.164062 L 236.953125 382.164062 C 237.167969 382.164062 237.339844 382.339844 237.339844 382.550781 L 237.339844 384.15625 C 237.339844 384.367188 237.167969 384.542969 236.953125 384.542969 L 233.765625 384.542969 C 233.550781 384.542969 233.378906 384.367188 233.378906 384.15625 L 233.378906 382.550781 C 233.378906 382.339844 233.550781 382.164062 233.765625 382.164062 Z M 233.765625 382.164062 "/>
<path style=" stroke:none;fill-rule:nonzero;fill:rgb(24.705882%,23.921569%,33.72549%);fill-opacity:1;" d="M 241.6875 382.164062 L 244.875 382.164062 C 245.089844 382.164062 245.261719 382.339844 245.261719 382.550781 L 245.261719 384.15625 C 245.261719 384.367188 245.089844 384.542969 244.875 384.542969 L 241.6875 384.542969 C 241.476562 384.542969 241.300781 384.367188 241.300781 384.15625 L 241.300781 382.550781 C 241.300781 382.339844 241.476562 382.164062 241.6875 382.164062 Z M 241.6875 382.164062 "/>
<path style=" stroke:none;fill-rule:nonzero;fill:rgb(24.705882%,23.921569%,33.72549%);fill-opacity:1;" d="M 249.613281 382.164062 L 252.800781 382.164062 C 253.015625 382.164062 253.1875 382.339844 253.1875 382.550781 L 253.1875 384.15625 C 253.1875 384.367188 253.015625 384.542969 252.800781 384.542969 L 249.613281 384.542969 C 249.398438 384.542969 249.226562 384.367188 249.226562 384.15625 L 249.226562 382.550781 C 249.226562 382.339844 249.398438 382.164062 249.613281 382.164062 Z M 249.613281 382.164062 "/>
<path style=" stroke:none;fill-rule:nonzero;fill:rgb(24.705882%,23.921569%,33.72549%);fill-opacity:1;" d="M 257.535156 382.164062 L 260.722656 382.164062 C 260.9375 382.164062 261.113281 382.339844 261.113281 382.550781 L 261.113281 384.15625 C 261.113281 384.367188 260.9375 384.542969 260.722656 384.542969 L 257.535156 384.542969 C 257.324219 384.542969 257.148438 384.367188 257.148438 384.15625 L 257.148438 382.550781 C 257.148438 382.339844 257.324219 382.164062 257.535156 382.164062 Z M 257.535156 382.164062 "/>
<path style=" stroke:none;fill-rule:nonzero;fill:rgb(24.705882%,23.921569%,33.72549%);fill-opacity:1;" d="M 265.460938 382.164062 L 268.648438 382.164062 C 268.863281 382.164062 269.035156 382.339844 269.035156 382.550781 L 269.035156 384.15625 C 269.035156 384.367188 268.863281 384.542969 268.648438 384.542969 L 265.460938 384.542969 C 265.246094 384.542969 265.074219 384.367188 265.074219 384.15625 L 265.074219 382.550781 C 265.074219 382.339844 265.246094 382.164062 265.460938 382.164062 Z M 265.460938 382.164062 "/>
<path style=" stroke:none;fill-rule:nonzero;fill:rgb(24.705882%,23.921569%,33.72549%);fill-opacity:1;" d="M 273.382812 382.164062 L 276.574219 382.164062 C 276.785156 382.164062 276.960938 382.339844 276.960938 382.550781 L 276.960938 384.15625 C 276.960938 384.367188 276.785156 384.542969 276.574219 384.542969 L 273.382812 384.542969 C 273.171875 384.542969 272.996094 384.367188 272.996094 384.15625 L 272.996094 382.550781 C 272.996094 382.339844 273.171875 382.164062 273.382812 382.164062 Z M 273.382812 382.164062 "/>
<path style=" stroke:none;fill-rule:nonzero;fill:rgb(24.705882%,23.921569%,33.72549%);fill-opacity:1;" d="M 281.308594 382.164062 L 284.496094 382.164062 C 284.710938 382.164062 284.882812 382.339844 284.882812 382.550781 L 284.882812 384.15625 C 284.882812 384.367188 284.710938 384.542969 284.496094 384.542969 L 281.308594 384.542969 C 281.09375 384.542969 280.921875 384.367188 280.921875 384.15625 L 280.921875 382.550781 C 280.921875 382.339844 281.09375 382.164062 281.308594 382.164062 Z M 281.308594 382.164062 "/>
<path style=" stroke:none;fill-rule:nonzero;fill:rgb(24.705882%,23.921569%,33.72549%);fill-opacity:1;" d="M 289.230469 382.164062 L 292.421875 382.164062 C 292.632812 382.164062 292.808594 382.339844 292.808594 382.550781 L 292.808594 384.15625 C 292.808594 384.367188 292.632812 384.542969 292.421875 384.542969 L 289.230469 384.542969 C 289.019531 384.542969 288.84375 384.367188 288.84375 384.15625 L 288.84375 382.550781 C 288.84375 382.339844 289.019531 382.164062 289.230469 382.164062 Z M 289.230469 382.164062 "/>
<path style=" stroke:none;fill-rule:nonzero;fill:rgb(24.705882%,23.921569%,33.72549%);fill-opacity:1;" d="M 208.410156 386.917969 L 239.332031 386.917969 C 239.542969 386.917969 239.71875 387.09375 239.71875 387.304688 L 239.71875 388.910156 C 239.71875 389.125 239.542969 389.296875 239.332031 389.296875 L 208.410156 389.296875 C 208.195312 389.296875 208.019531 389.125 208.019531 388.910156 L 208.019531 387.304688 C 208.019531 387.09375 208.195312 386.917969 208.410156 386.917969 Z M 208.410156 386.917969 "/>
<path style=" stroke:none;fill-rule:nonzero;fill:rgb(24.705882%,23.921569%,33.72549%);fill-opacity:1;" d="M 327.054688 195.464844 L 124.742188 195.464844 C 124.304688 195.453125 123.953125 195.097656 123.953125 194.660156 C 123.953125 194.222656 124.304688 193.863281 124.742188 193.855469 L 327.054688 193.855469 C 327.492188 193.863281 327.84375 194.222656 327.84375 194.660156 C 327.84375 195.097656 327.492188 195.453125 327.054688 195.464844 Z M 327.054688 195.464844 "/>
<path style=" stroke:none;fill-rule:nonzero;fill:rgb(24.705882%,23.921569%,33.72549%);fill-opacity:1;" d="M 143.226562 184.925781 C 143.226562 182.265625 141.117188 180.105469 138.511719 180.105469 C 135.910156 180.105469 133.796875 182.265625 133.796875 184.925781 C 133.796875 187.589844 135.910156 189.746094 138.511719 189.746094 C 141.117188 189.746094 143.226562 187.589844 143.226562 184.925781 Z M 143.226562 184.925781 "/>
<path style=" stroke:none;fill-rule:nonzero;fill:rgb(24.705882%,23.921569%,33.72549%);fill-opacity:1;" d="M 159.515625 184.925781 C 159.515625 182.265625 157.40625 180.105469 154.800781 180.105469 C 152.199219 180.105469 150.085938 182.265625 150.085938 184.925781 C 150.085938 187.589844 152.199219 189.746094 154.800781 189.746094 C 157.40625 189.746094 159.515625 187.589844 159.515625 184.925781 Z M 159.515625 184.925781 "/>
<path style=" stroke:none;fill-rule:nonzero;fill:rgb(24.705882%,23.921569%,33.72549%);fill-opacity:1;" d="M 175.804688 184.925781 C 175.804688 182.265625 173.695312 180.105469 171.089844 180.105469 C 168.484375 180.105469 166.375 182.265625 166.375 184.925781 C 166.375 187.589844 168.484375 189.746094 171.089844 189.746094 C 173.695312 189.746094 175.804688 187.589844 175.804688 184.925781 Z M 175.804688 184.925781 "/>
<path style=" stroke:none;fill-rule:nonzero;fill:rgb(24.705882%,23.921569%,33.72549%);fill-opacity:1;" d="M 317.25 181.296875 L 305.679688 181.296875 C 305.203125 181.308594 304.824219 181.699219 304.824219 182.175781 C 304.824219 182.648438 305.203125 183.039062 305.679688 183.050781 L 317.25 183.050781 C 317.726562 183.042969 318.113281 182.652344 318.113281 182.175781 C 318.113281 181.695312 317.726562 181.304688 317.25 181.296875 Z M 317.25 181.296875 "/>
<path style=" stroke:none;fill-rule:nonzero;fill:rgb(24.705882%,23.921569%,33.72549%);fill-opacity:1;" d="M 317.25 184.585938 L 305.679688 184.585938 C 305.203125 184.597656 304.824219 184.984375 304.824219 185.460938 C 304.824219 185.9375 305.203125 186.328125 305.679688 186.335938 L 317.25 186.335938 C 317.726562 186.332031 318.113281 185.941406 318.113281 185.460938 C 318.113281 184.984375 317.726562 184.59375 317.25 184.585938 Z M 317.25 184.585938 "/>
<path style=" stroke:none;fill-rule:nonzero;fill:rgb(24.705882%,23.921569%,33.72549%);fill-opacity:1;" d="M 317.25 187.875 L 305.679688 187.875 C 305.203125 187.886719 304.824219 188.273438 304.824219 188.75 C 304.824219 189.226562 305.203125 189.613281 305.679688 189.625 L 317.25 189.625 C 317.726562 189.621094 318.113281 189.230469 318.113281 188.75 C 318.113281 188.273438 317.726562 187.882812 317.25 187.875 Z M 317.25 187.875 "/>
<path style=" stroke:none;fill-rule:nonzero;fill:rgb(90.196078%,90.196078%,90.196078%);fill-opacity:1;" d="M 138.027344 214.160156 L 142.1875 214.160156 C 143.445312 214.160156 144.46875 215.183594 144.46875 216.441406 C 144.46875 217.703125 143.445312 218.726562 142.1875 218.726562 L 138.027344 218.726562 C 136.769531 218.726562 135.746094 217.703125 135.746094 216.441406 C 135.746094 215.183594 136.769531 214.160156 138.027344 214.160156 Z M 138.027344 214.160156 "/>
<path style=" stroke:none;fill-rule:nonzero;fill:rgb(90.196078%,90.196078%,90.196078%);fill-opacity:1;" d="M 185.574219 214.160156 L 189.730469 214.160156 C 190.988281 214.160156 192.011719 215.183594 192.011719 216.441406 C 192.011719 217.703125 190.988281 218.726562 189.730469 218.726562 L 185.574219 218.726562 C 184.3125 218.726562 183.289062 217.703125 183.289062 216.441406 C 183.289062 215.183594 184.3125 214.160156 185.574219 214.160156 Z M 185.574219 214.160156 "/>
<path style=" stroke:none;fill-rule:nonzero;fill:rgb(90.196078%,90.196078%,90.196078%);fill-opacity:1;" d="M 199.042969 214.160156 L 203.199219 214.160156 C 204.460938 214.160156 205.480469 215.183594 205.480469 216.441406 C 205.480469 217.703125 204.460938 218.726562 203.199219 218.726562 L 199.042969 218.726562 C 197.78125 218.726562 196.761719 217.703125 196.761719 216.441406 C 196.761719 215.183594 197.78125 214.160156 199.042969 214.160156 Z M 199.042969 214.160156 "/>
<path style=" stroke:none;fill-rule:nonzero;fill:rgb(90.196078%,90.196078%,90.196078%);fill-opacity:1;" d="M 150.960938 213.78125 L 176.796875 213.78125 C 178.058594 213.78125 179.078125 214.800781 179.078125 216.0625 C 179.078125 217.324219 178.058594 218.34375 176.796875 218.34375 L 150.960938 218.34375 C 149.699219 218.34375 148.679688 217.324219 148.679688 216.0625 C 148.679688 214.800781 149.699219 213.78125 150.960938 213.78125 Z M 150.960938 213.78125 "/>
<path style=" stroke:none;fill-rule:nonzero;fill:rgb(90.196078%,90.196078%,90.196078%);fill-opacity:1;" d="M 214.351562 213.78125 L 240.1875 213.78125 C 241.449219 213.78125 242.46875 214.800781 242.46875 216.0625 C 242.46875 217.324219 241.449219 218.34375 240.1875 218.34375 L 214.351562 218.34375 C 213.089844 218.34375 212.070312 217.324219 212.070312 216.0625 C 212.070312 214.800781 213.089844 213.78125 214.351562 213.78125 Z M 214.351562 213.78125 "/>
<path style=" stroke:none;fill-rule:nonzero;fill:rgb(90.196078%,90.196078%,90.196078%);fill-opacity:1;" d="M 150.707031 224.460938 L 154.863281 224.460938 C 156.125 224.460938 157.144531 225.484375 157.144531 226.746094 C 157.144531 228.003906 156.125 229.027344 154.863281 229.027344 L 150.707031 229.027344 C 149.445312 229.027344 148.425781 228.003906 148.425781 226.746094 C 148.425781 225.484375 149.445312 224.460938 150.707031 224.460938 Z M 150.707031 224.460938 "/>
<path style=" stroke:none;fill-rule:nonzero;fill:rgb(90.196078%,90.196078%,90.196078%);fill-opacity:1;" d="M 198.25 224.460938 L 202.40625 224.460938 C 203.667969 224.460938 204.691406 225.484375 204.691406 226.746094 C 204.691406 228.003906 203.667969 229.027344 202.40625 229.027344 L 198.25 229.027344 C 196.992188 229.027344 195.96875 228.003906 195.96875 226.746094 C 195.96875 225.484375 196.992188 224.460938 198.25 224.460938 Z M 198.25 224.460938 "/>
<path style=" stroke:none;fill-rule:nonzero;fill:rgb(90.196078%,90.196078%,90.196078%);fill-opacity:1;" d="M 211.722656 224.460938 L 215.878906 224.460938 C 217.136719 224.460938 218.160156 225.484375 218.160156 226.746094 C 218.160156 228.003906 217.136719 229.027344 215.878906 229.027344 L 211.722656 229.027344 C 210.460938 229.027344 209.4375 228.003906 209.4375 226.746094 C 209.4375 225.484375 210.460938 224.460938 211.722656 224.460938 Z M 211.722656 224.460938 "/>
<path style=" stroke:none;fill-rule:nonzero;fill:rgb(90.196078%,90.196078%,90.196078%);fill-opacity:1;" d="M 163.640625 224.082031 L 189.476562 224.082031 C 190.734375 224.082031 191.757812 225.101562 191.757812 226.363281 C 191.757812 227.625 190.734375 228.644531 189.476562 228.644531 L 163.640625 228.644531 C 162.378906 228.644531 161.355469 227.625 161.355469 226.363281 C 161.355469 225.101562 162.378906 224.082031 163.640625 224.082031 Z M 163.640625 224.082031 "/>
<path style=" stroke:none;fill-rule:nonzero;fill:rgb(90.196078%,90.196078%,90.196078%);fill-opacity:1;" d="M 227.03125 224.082031 L 252.867188 224.082031 C 254.128906 224.082031 255.148438 225.101562 255.148438 226.363281 C 255.148438 227.625 254.128906 228.644531 252.867188 228.644531 L 227.03125 228.644531 C 225.769531 228.644531 224.75 227.625 224.75 226.363281 C 224.75 225.101562 225.769531 224.082031 227.03125 224.082031 Z M 227.03125 224.082031 "/>
<path style=" stroke:none;fill-rule:nonzero;fill:rgb(90.196078%,90.196078%,90.196078%);fill-opacity:1;" d="M 163.386719 234.761719 L 167.542969 234.761719 C 168.804688 234.761719 169.824219 235.785156 169.824219 237.046875 C 169.824219 238.304688 168.804688 239.328125 167.542969 239.328125 L 163.386719 239.328125 C 162.125 239.328125 161.105469 238.304688 161.105469 237.046875 C 161.105469 235.785156 162.125 234.761719 163.386719 234.761719 Z M 163.386719 234.761719 "/>
<path style=" stroke:none;fill-rule:nonzero;fill:rgb(90.196078%,90.196078%,90.196078%);fill-opacity:1;" d="M 210.929688 234.761719 L 215.085938 234.761719 C 216.347656 234.761719 217.367188 235.785156 217.367188 237.046875 C 217.367188 238.304688 216.347656 239.328125 215.085938 239.328125 L 210.929688 239.328125 C 209.667969 239.328125 208.648438 238.304688 208.648438 237.046875 C 208.648438 235.785156 209.667969 234.761719 210.929688 234.761719 Z M 210.929688 234.761719 "/>
<path style=" stroke:none;fill-rule:nonzero;fill:rgb(90.196078%,90.196078%,90.196078%);fill-opacity:1;" d="M 224.398438 234.761719 L 228.554688 234.761719 C 229.816406 234.761719 230.839844 235.785156 230.839844 237.046875 C 230.839844 238.304688 229.816406 239.328125 228.554688 239.328125 L 224.398438 239.328125 C 223.140625 239.328125 222.117188 238.304688 222.117188 237.046875 C 222.117188 235.785156 223.140625 234.761719 224.398438 234.761719 Z M 224.398438 234.761719 "/>
<path style=" stroke:none;fill-rule:nonzero;fill:rgb(90.196078%,90.196078%,90.196078%);fill-opacity:1;" d="M 176.316406 234.382812 L 202.152344 234.382812 C 203.414062 234.382812 204.4375 235.40625 204.4375 236.664062 C 204.4375 237.925781 203.414062 238.945312 202.152344 238.945312 L 176.316406 238.945312 C 175.058594 238.945312 174.035156 237.925781 174.035156 236.664062 C 174.035156 235.40625 175.058594 234.382812 176.316406 234.382812 Z M 176.316406 234.382812 "/>
<path style=" stroke:none;fill-rule:nonzero;fill:rgb(90.196078%,90.196078%,90.196078%);fill-opacity:1;" d="M 239.707031 234.382812 L 265.546875 234.382812 C 266.804688 234.382812 267.828125 235.40625 267.828125 236.664062 C 267.828125 237.925781 266.804688 238.945312 265.546875 238.945312 L 239.707031 238.945312 C 238.449219 238.945312 237.425781 237.925781 237.425781 236.664062 C 237.425781 235.40625 238.449219 234.382812 239.707031 234.382812 Z M 239.707031 234.382812 "/>
<path style=" stroke:none;fill-rule:nonzero;fill:rgb(90.196078%,90.196078%,90.196078%);fill-opacity:1;" d="M 176.0625 245.0625 L 180.222656 245.0625 C 181.480469 245.0625 182.503906 246.085938 182.503906 247.347656 C 182.503906 248.605469 181.480469 249.628906 180.222656 249.628906 L 176.0625 249.628906 C 174.804688 249.628906 173.78125 248.605469 173.78125 247.347656 C 173.78125 246.085938 174.804688 245.0625 176.0625 245.0625 Z M 176.0625 245.0625 "/>
<path style=" stroke:none;fill-rule:nonzero;fill:rgb(90.196078%,90.196078%,90.196078%);fill-opacity:1;" d="M 223.605469 245.0625 L 227.765625 245.0625 C 229.023438 245.0625 230.046875 246.085938 230.046875 247.347656 C 230.046875 248.605469 229.023438 249.628906 227.765625 249.628906 L 223.605469 249.628906 C 222.347656 249.628906 221.324219 248.605469 221.324219 247.347656 C 221.324219 246.085938 222.347656 245.0625 223.605469 245.0625 Z M 223.605469 245.0625 "/>
<path style=" stroke:none;fill-rule:nonzero;fill:rgb(90.196078%,90.196078%,90.196078%);fill-opacity:1;" d="M 237.078125 245.0625 L 241.234375 245.0625 C 242.496094 245.0625 243.515625 246.085938 243.515625 247.347656 C 243.515625 248.605469 242.496094 249.628906 241.234375 249.628906 L 237.078125 249.628906 C 235.816406 249.628906 234.796875 248.605469 234.796875 247.347656 C 234.796875 246.085938 235.816406 245.0625 237.078125 245.0625 Z M 237.078125 245.0625 "/>
<path style=" stroke:none;fill-rule:nonzero;fill:rgb(90.196078%,90.196078%,90.196078%);fill-opacity:1;" d="M 188.996094 244.683594 L 214.832031 244.683594 C 216.09375 244.683594 217.113281 245.707031 217.113281 246.964844 C 217.113281 248.226562 216.09375 249.246094 214.832031 249.246094 L 188.996094 249.246094 C 187.734375 249.246094 186.714844 248.226562 186.714844 246.964844 C 186.714844 245.707031 187.734375 244.683594 188.996094 244.683594 Z M 188.996094 244.683594 "/>
<path style=" stroke:none;fill-rule:nonzero;fill:rgb(90.196078%,90.196078%,90.196078%);fill-opacity:1;" d="M 185.574219 286.027344 L 189.730469 286.027344 C 190.988281 286.027344 192.011719 287.046875 192.011719 288.308594 C 192.011719 289.566406 190.988281 290.589844 189.730469 290.589844 L 185.574219 290.589844 C 184.3125 290.589844 183.289062 289.566406 183.289062 288.308594 C 183.289062 287.046875 184.3125 286.027344 185.574219 286.027344 Z M 185.574219 286.027344 "/>
<path style=" stroke:none;fill-rule:nonzero;fill:rgb(90.196078%,90.196078%,90.196078%);fill-opacity:1;" d="M 199.042969 286.027344 L 203.199219 286.027344 C 204.460938 286.027344 205.480469 287.046875 205.480469 288.308594 C 205.480469 289.566406 204.460938 290.589844 203.199219 290.589844 L 199.042969 290.589844 C 197.78125 290.589844 196.761719 289.566406 196.761719 288.308594 C 196.761719 287.046875 197.78125 286.027344 199.042969 286.027344 Z M 199.042969 286.027344 "/>
<path style=" stroke:none;fill-rule:nonzero;fill:rgb(90.196078%,90.196078%,90.196078%);fill-opacity:1;" d="M 214.351562 286.40625 L 240.1875 286.40625 C 241.449219 286.40625 242.46875 287.429688 242.46875 288.6875 C 242.46875 289.949219 241.449219 290.96875 240.1875 290.96875 L 214.351562 290.96875 C 213.089844 290.96875 212.070312 289.949219 212.070312 288.6875 C 212.070312 287.429688 213.089844 286.40625 214.351562 286.40625 Z M 214.351562 286.40625 "/>
<path style=" stroke:none;fill-rule:nonzero;fill:rgb(90.196078%,90.196078%,90.196078%);fill-opacity:1;" d="M 138.027344 286.027344 L 142.1875 286.027344 C 143.445312 286.027344 144.46875 287.046875 144.46875 288.308594 C 144.46875 289.566406 143.445312 290.589844 142.1875 290.589844 L 138.027344 290.589844 C 136.769531 290.589844 135.746094 289.566406 135.746094 288.308594 C 135.746094 287.046875 136.769531 286.027344 138.027344 286.027344 Z M 138.027344 286.027344 "/>
<path style=" stroke:none;fill-rule:nonzero;fill:rgb(90.196078%,90.196078%,90.196078%);fill-opacity:1;" d="M 150.960938 286.40625 L 176.796875 286.40625 C 178.058594 286.40625 179.078125 287.429688 179.078125 288.6875 C 179.078125 289.949219 178.058594 290.96875 176.796875 290.96875 L 150.960938 290.96875 C 149.699219 290.96875 148.679688 289.949219 148.679688 288.6875 C 148.679688 287.429688 149.699219 286.40625 150.960938 286.40625 Z M 150.960938 286.40625 "/>
<path style=" stroke:none;fill-rule:nonzero;fill:rgb(90.196078%,90.196078%,90.196078%);fill-opacity:1;" d="M 150.707031 275.722656 L 154.863281 275.722656 C 156.125 275.722656 157.144531 276.746094 157.144531 278.007812 C 157.144531 279.265625 156.125 280.289062 154.863281 280.289062 L 150.707031 280.289062 C 149.445312 280.289062 148.425781 279.265625 148.425781 278.007812 C 148.425781 276.746094 149.445312 275.722656 150.707031 275.722656 Z M 150.707031 275.722656 "/>
<path style=" stroke:none;fill-rule:nonzero;fill:rgb(90.196078%,90.196078%,90.196078%);fill-opacity:1;" d="M 198.25 275.722656 L 202.40625 275.722656 C 203.667969 275.722656 204.691406 276.746094 204.691406 278.007812 C 204.691406 279.265625 203.667969 280.289062 202.40625 280.289062 L 198.25 280.289062 C 196.992188 280.289062 195.96875 279.265625 195.96875 278.007812 C 195.96875 276.746094 196.992188 275.722656 198.25 275.722656 Z M 198.25 275.722656 "/>
<path style=" stroke:none;fill-rule:nonzero;fill:rgb(90.196078%,90.196078%,90.196078%);fill-opacity:1;" d="M 211.722656 275.722656 L 215.878906 275.722656 C 217.136719 275.722656 218.160156 276.746094 218.160156 278.007812 C 218.160156 279.265625 217.136719 280.289062 215.878906 280.289062 L 211.722656 280.289062 C 210.460938 280.289062 209.4375 279.265625 209.4375 278.007812 C 209.4375 276.746094 210.460938 275.722656 211.722656 275.722656 Z M 211.722656 275.722656 "/>
<path style=" stroke:none;fill-rule:nonzero;fill:rgb(90.196078%,90.196078%,90.196078%);fill-opacity:1;" d="M 163.640625 276.105469 L 189.476562 276.105469 C 190.734375 276.105469 191.757812 277.125 191.757812 278.386719 C 191.757812 279.648438 190.734375 280.667969 189.476562 280.667969 L 163.640625 280.667969 C 162.378906 280.667969 161.355469 279.648438 161.355469 278.386719 C 161.355469 277.125 162.378906 276.105469 163.640625 276.105469 Z M 163.640625 276.105469 "/>
<path style=" stroke:none;fill-rule:nonzero;fill:rgb(90.196078%,90.196078%,90.196078%);fill-opacity:1;" d="M 163.386719 265.421875 L 167.542969 265.421875 C 168.804688 265.421875 169.824219 266.445312 169.824219 267.707031 C 169.824219 268.964844 168.804688 269.988281 167.542969 269.988281 L 163.386719 269.988281 C 162.125 269.988281 161.105469 268.964844 161.105469 267.707031 C 161.105469 266.445312 162.125 265.421875 163.386719 265.421875 Z M 163.386719 265.421875 "/>
<path style=" stroke:none;fill-rule:nonzero;fill:rgb(90.196078%,90.196078%,90.196078%);fill-opacity:1;" d="M 210.929688 265.421875 L 215.085938 265.421875 C 216.347656 265.421875 217.367188 266.445312 217.367188 267.707031 C 217.367188 268.964844 216.347656 269.988281 215.085938 269.988281 L 210.929688 269.988281 C 209.667969 269.988281 208.648438 268.964844 208.648438 267.707031 C 208.648438 266.445312 209.667969 265.421875 210.929688 265.421875 Z M 210.929688 265.421875 "/>
<path style=" stroke:none;fill-rule:nonzero;fill:rgb(90.196078%,90.196078%,90.196078%);fill-opacity:1;" d="M 224.398438 265.421875 L 228.554688 265.421875 C 229.816406 265.421875 230.839844 266.445312 230.839844 267.707031 C 230.839844 268.964844 229.816406 269.988281 228.554688 269.988281 L 224.398438 269.988281 C 223.140625 269.988281 222.117188 268.964844 222.117188 267.707031 C 222.117188 266.445312 223.140625 265.421875 224.398438 265.421875 Z M 224.398438 265.421875 "/>
<path style=" stroke:none;fill-rule:nonzero;fill:rgb(90.196078%,90.196078%,90.196078%);fill-opacity:1;" d="M 176.316406 265.804688 L 202.152344 265.804688 C 203.414062 265.804688 204.4375 266.824219 204.4375 268.085938 C 204.4375 269.347656 203.414062 270.367188 202.152344 270.367188 L 176.316406 270.367188 C 175.058594 270.367188 174.035156 269.347656 174.035156 268.085938 C 174.035156 266.824219 175.058594 265.804688 176.316406 265.804688 Z M 176.316406 265.804688 "/>
<path style=" stroke:none;fill-rule:nonzero;fill:rgb(90.196078%,90.196078%,90.196078%);fill-opacity:1;" d="M 176.0625 255.121094 L 180.222656 255.121094 C 181.480469 255.121094 182.503906 256.144531 182.503906 257.40625 C 182.503906 258.664062 181.480469 259.6875 180.222656 259.6875 L 176.0625 259.6875 C 174.804688 259.6875 173.78125 258.664062 173.78125 257.40625 C 173.78125 256.144531 174.804688 255.121094 176.0625 255.121094 Z M 176.0625 255.121094 "/>
<path style=" stroke:none;fill-rule:nonzero;fill:rgb(90.196078%,90.196078%,90.196078%);fill-opacity:1;" d="M 223.605469 255.121094 L 227.765625 255.121094 C 229.023438 255.121094 230.046875 256.144531 230.046875 257.40625 C 230.046875 258.664062 229.023438 259.6875 227.765625 259.6875 L 223.605469 259.6875 C 222.347656 259.6875 221.324219 258.664062 221.324219 257.40625 C 221.324219 256.144531 222.347656 255.121094 223.605469 255.121094 Z M 223.605469 255.121094 "/>
<path style=" stroke:none;fill-rule:nonzero;fill:rgb(90.196078%,90.196078%,90.196078%);fill-opacity:1;" d="M 237.078125 255.121094 L 241.234375 255.121094 C 242.496094 255.121094 243.515625 256.144531 243.515625 257.40625 C 243.515625 258.664062 242.496094 259.6875 241.234375 259.6875 L 237.078125 259.6875 C 235.816406 259.6875 234.796875 258.664062 234.796875 257.40625 C 234.796875 256.144531 235.816406 255.121094 237.078125 255.121094 Z M 237.078125 255.121094 "/>
<path style=" stroke:none;fill-rule:nonzero;fill:rgb(90.196078%,90.196078%,90.196078%);fill-opacity:1;" d="M 188.996094 255.503906 L 214.832031 255.503906 C 216.09375 255.503906 217.113281 256.523438 217.113281 257.785156 C 217.113281 259.046875 216.09375 260.066406 214.832031 260.066406 L 188.996094 260.066406 C 187.734375 260.066406 186.714844 259.046875 186.714844 257.785156 C 186.714844 256.523438 187.734375 255.503906 188.996094 255.503906 Z M 188.996094 255.503906 "/>
<path style=" stroke:none;fill-rule:nonzero;fill:rgb(24.705882%,23.921569%,33.72549%);fill-opacity:1;" d="M 329.484375 434.839844 C 329 435.085938 328.507812 435.328125 328.023438 435.566406 C 315.503906 441.828125 305.488281 445.386719 291.789062 449.285156 C 290.632812 436.367188 289.515625 413.664062 288.429688 399.59375 C 288.144531 395.941406 287.859375 392.875 287.582031 390.710938 C 287.511719 389.558594 287.277344 388.425781 286.882812 387.34375 L 286.929688 390.710938 L 287.050781 399.59375 L 287.738281 450.394531 C 270.699219 454.902344 253.191406 457.425781 235.570312 457.914062 C 234.648438 457.9375 233.746094 457.953125 232.875 457.96875 C 232.566406 457.976562 232.265625 457.984375 231.964844 457.984375 C 230.972656 457.992188 229.992188 458 229 458 C 210.429688 458.015625 191.925781 455.769531 173.898438 451.320312 C 174.285156 438.539062 174.675781 416.089844 175.046875 399.59375 C 175.125 396.367188 175.195312 393.363281 175.277344 390.710938 C 175.425781 385.035156 175.585938 380.949219 175.734375 379.578125 C 175.601562 379.820312 175.5 380.078125 175.425781 380.347656 C 174.691406 383.761719 174.191406 387.226562 173.929688 390.710938 C 173.652344 393.363281 173.375 396.367188 173.097656 399.59375 C 171.625 416.734375 170.085938 440.035156 168.5 449.917969 C 159.066406 447.34375 149.8125 444.160156 140.792969 440.386719 C 136.035156 438.402344 131.367188 436.265625 126.78125 433.976562 C 127.652344 428.269531 128.566406 421.875 129.5 415.242188 C 130.230469 410.101562 130.980469 404.816406 131.75 399.59375 C 132.9375 391.527344 134.160156 383.617188 135.394531 376.652344 C 137.203125 366.480469 139.054688 358.300781 140.894531 354.546875 C 142.636719 350.980469 144.382812 347.460938 146.070312 344.09375 C 146.65625 342.914062 147.242188 341.75 147.8125 340.617188 C 147.945312 340.347656 148.082031 340.085938 148.214844 339.824219 C 149.429688 337.4375 150.601562 335.15625 151.71875 333.015625 C 152.675781 331.1875 153.589844 329.457031 154.453125 327.867188 C 156.542969 324 158.320312 320.917969 159.632812 318.96875 C 165.132812 310.625 173.320312 304.417969 182.835938 301.367188 L 183.074219 301.304688 L 183.238281 301.375 L 199.445312 296.402344 L 201.8125 295.671875 L 203.40625 295.179688 L 209.015625 290.910156 L 212.066406 288.585938 L 214.925781 286.410156 L 220.519531 282.152344 L 255.15625 284.285156 L 261.898438 300.519531 L 277.003906 306.042969 L 277.265625 305.925781 L 277.492188 305.828125 L 277.730469 305.894531 C 287.246094 308.945312 295.429688 315.152344 300.933594 323.492188 C 301.679688 324.609375 302.582031 326.082031 303.601562 327.867188 C 304.476562 329.378906 305.425781 331.105469 306.457031 333.015625 C 307.921875 335.734375 309.523438 338.800781 311.21875 342.121094 C 311.589844 342.851562 311.972656 343.59375 312.351562 344.347656 C 313.054688 345.742188 313.773438 347.167969 314.5 348.617188 C 316.1875 351.988281 317.929688 355.503906 319.671875 359.078125 C 321.1875 362.175781 322.714844 368.546875 324.222656 376.652344 C 325.464844 383.390625 326.703125 391.328125 327.898438 399.59375 C 329.46875 410.304688 327.792969 423.136719 329.214844 432.992188 C 329.300781 433.617188 329.394531 434.226562 329.484375 434.839844 Z M 329.484375 434.839844 "/>
<path style=" stroke:none;fill-rule:nonzero;fill:rgb(62.745098%,38.039216%,41.568627%);fill-opacity:1;" d="M 269.769531 228.910156 C 269.769531 251.160156 251.734375 269.195312 229.488281 269.195312 C 207.238281 269.195312 189.207031 251.160156 189.207031 228.910156 C 189.207031 206.664062 207.238281 188.628906 229.488281 188.628906 C 251.734375 188.628906 269.769531 206.664062 269.769531 228.910156 Z M 269.769531 228.910156 "/>
<path style=" stroke:none;fill-rule:nonzero;fill:rgb(18.431373%,18.039216%,25.490196%);fill-opacity:1;" d="M 295.917969 175.53125 C 295.121094 173.671875 294.0625 171.9375 292.769531 170.378906 C 286.652344 162.90625 275.527344 159.617188 264.109375 168.460938 C 261.914062 167.96875 259.621094 168.101562 257.496094 168.84375 C 256.488281 169.207031 255.550781 169.722656 254.703125 170.378906 C 252.976562 171.726562 251.628906 173.503906 250.789062 175.53125 C 250.34375 176.601562 250.050781 177.730469 249.917969 178.882812 C 247.097656 177.414062 244.109375 176.289062 241.019531 175.53125 C 233.441406 173.644531 225.515625 173.644531 217.9375 175.53125 C 215.507812 176.144531 213.171875 177.070312 210.980469 178.289062 C 207.273438 180.425781 205.140625 183.128906 204.761719 186.132812 C 199.414062 186.433594 193.851562 189.246094 189.707031 193.859375 C 189.238281 194.371094 188.785156 194.910156 188.367188 195.464844 C 184.882812 200.027344 183.007812 205.613281 183.042969 211.355469 L 183.042969 212.359375 L 184.046875 212.359375 C 186.804688 212.355469 189.535156 212.890625 192.089844 213.929688 C 193.746094 214.59375 195.3125 215.457031 196.757812 216.503906 C 197.703125 217.175781 198.59375 217.917969 199.429688 218.722656 C 201.359375 220.589844 202.992188 222.742188 204.277344 225.101562 C 207.570312 231.0625 208.710938 237.976562 207.511719 244.679688 C 207.234375 246.234375 206.832031 247.761719 206.304688 249.246094 C 205.558594 251.367188 204.570312 253.394531 203.367188 255.292969 C 203.320312 255.363281 203.277344 255.433594 203.230469 255.503906 C 202.699219 256.351562 202.195312 257.21875 201.71875 258.089844 C 201.363281 258.738281 201.027344 259.402344 200.71875 260.070312 C 199.816406 261.921875 199.054688 263.839844 198.4375 265.804688 C 197.335938 269.285156 196.683594 272.890625 196.503906 276.535156 C 196.449219 277.503906 196.433594 278.46875 196.464844 279.433594 C 196.511719 281.925781 196.785156 284.410156 197.28125 286.851562 C 197.351562 287.183594 197.421875 287.511719 197.496094 287.84375 L 198.074219 290.371094 L 199.445312 296.402344 L 200.394531 300.550781 L 201.273438 304.402344 L 202.574219 302.542969 C 203.019531 301.90625 204.136719 299.957031 205.632812 297.199219 C 206.621094 295.402344 207.773438 293.253906 209.015625 290.910156 C 210.75 287.621094 212.652344 283.953125 214.515625 280.292969 C 215.269531 278.808594 216.011719 277.335938 216.734375 275.894531 C 218.097656 273.160156 219.378906 270.519531 220.480469 268.175781 C 221.496094 266.011719 222.359375 264.09375 223 262.558594 C 223.199219 263.5625 223.367188 264.585938 223.492188 265.617188 C 223.636719 266.664062 223.738281 267.722656 223.792969 268.785156 C 223.808594 268.945312 223.816406 269.109375 223.824219 269.269531 L 223.855469 269.917969 L 223.867188 270.109375 L 224.707031 270.21875 C 229.550781 270.738281 234.433594 270.777344 239.285156 270.332031 L 239.292969 270.332031 C 245.71875 269.847656 252.027344 268.320312 257.960938 265.804688 C 261.332031 264.34375 264.480469 262.414062 267.3125 260.070312 C 268.636719 258.972656 269.871094 257.777344 271.003906 256.488281 C 271.289062 256.164062 271.566406 255.839844 271.835938 255.503906 C 273.40625 253.578125 274.746094 251.476562 275.839844 249.246094 C 276.570312 247.773438 277.1875 246.246094 277.691406 244.679688 C 280.734375 235.464844 280.5625 223.96875 277.167969 210.308594 C 278.085938 210.132812 278.960938 209.792969 279.761719 209.308594 C 282.25 207.8125 283.976562 204.839844 284.515625 201.210938 L 285.371094 201.441406 C 288.402344 200.027344 291.105469 197.992188 293.300781 195.464844 C 293.738281 194.953125 294.144531 194.414062 294.523438 193.859375 C 298.398438 188.152344 298.429688 181.304688 295.917969 175.53125 Z M 295.917969 175.53125 "/>
<use xlink:href="#surface5" mask="url(#mask0)"/>
<path style=" stroke:none;fill-rule:nonzero;fill:rgb(18.431373%,18.039216%,25.490196%);fill-opacity:1;" d="M 342.652344 359.6875 C 340.242188 392.875 342.738281 407.484375 329.441406 434.847656 C 317.34375 440.769531 304.742188 445.597656 291.789062 449.285156 C 290.441406 449.664062 289.09375 450.035156 287.738281 450.394531 C 270.699219 454.902344 253.191406 457.425781 235.570312 457.914062 C 234.648438 457.9375 233.746094 457.953125 232.875 457.96875 C 232.566406 457.976562 232.265625 457.984375 231.964844 457.984375 C 230.972656 457.992188 229.992188 458 229 458 C 210.429688 458.015625 191.925781 455.769531 173.898438 451.320312 C 172.089844 450.875 170.292969 450.410156 168.5 449.917969 C 159.066406 447.34375 149.8125 444.160156 140.792969 440.386719 C 136.035156 438.402344 131.367188 436.265625 126.78125 433.976562 C 125.742188 433.453125 124.707031 432.929688 123.683594 432.390625 C 118.429688 423.152344 115.441406 411.914062 115.378906 398.414062 C 119.015625 375.148438 334.617188 339.625 342.652344 359.6875 Z M 342.652344 359.6875 "/>
<use xlink:href="#surface8" mask="url(#mask1)"/>
<path style=" stroke:none;fill-rule:nonzero;fill:rgb(18.431373%,18.039216%,25.490196%);fill-opacity:1;" d="M 129.234375 271.117188 C 129.339844 269.664062 128.8125 268.234375 127.789062 267.199219 C 126.761719 266.164062 125.339844 265.625 123.882812 265.714844 C 123.617188 265.726562 123.351562 265.757812 123.085938 265.816406 L 91.582031 272.933594 C 90.15625 273.277344 88.945312 274.210938 88.246094 275.496094 C 87.785156 275.515625 87.324219 275.582031 86.878906 275.695312 C 82.753906 276.628906 80.167969 280.730469 81.101562 284.855469 C 82.039062 288.976562 86.136719 291.5625 90.261719 290.628906 C 91.390625 290.367188 92.441406 289.855469 93.347656 289.136719 L 104.023438 319.199219 C 105.121094 321.132812 107.359375 322.117188 109.523438 321.613281 L 130.007812 316.984375 C 132.152344 316.480469 133.730469 314.652344 133.914062 312.453125 Z M 89.789062 288.488281 C 86.84375 289.152344 83.917969 287.308594 83.246094 284.367188 C 82.574219 281.421875 84.410156 278.492188 87.351562 277.8125 C 87.449219 277.785156 87.550781 277.8125 87.648438 277.785156 C 87.640625 278.691406 87.871094 279.585938 88.320312 280.375 L 92.226562 287.195312 C 91.546875 287.839844 90.703125 288.285156 89.789062 288.488281 Z M 89.789062 288.488281 "/>
<path style=" stroke:none;fill-rule:nonzero;fill:rgb(24.705882%,23.921569%,33.72549%);fill-opacity:1;" d="M 123.882812 265.714844 C 124.183594 269.699219 117.363281 274.277344 108.230469 276.09375 C 99.84375 277.8125 92.328125 276.617188 90.210938 273.480469 C 90.636719 273.230469 91.097656 273.042969 91.582031 272.933594 L 123.085938 265.816406 C 123.351562 265.757812 123.617188 265.726562 123.882812 265.714844 Z M 123.882812 265.714844 "/>
<path style=" stroke:none;fill-rule:nonzero;fill:rgb(62.745098%,38.039216%,41.568627%);fill-opacity:1;" d="M 102.09375 366.800781 L 119.789062 357.953125 L 105.042969 318.132812 L 101.15625 298.054688 C 100.128906 292.742188 96.355469 288.382812 91.25 286.601562 C 86.144531 284.820312 80.476562 285.890625 76.367188 289.410156 C 70.15625 294.738281 69.28125 304.03125 74.394531 310.421875 L 88.820312 328.457031 Z M 102.09375 366.800781 "/>
<path style=" stroke:none;fill-rule:nonzero;fill:rgb(24.705882%,23.921569%,33.72549%);fill-opacity:1;" d="M 119.789062 350.578125 L 96.195312 362.375 L 114.101562 418.484375 C 116.71875 426.679688 123.433594 432.90625 131.800781 434.898438 C 142.210938 437.378906 153.027344 432.828125 158.535156 423.648438 L 206.015625 342.261719 C 213.015625 330.597656 209.429688 315.480469 197.9375 308.203125 C 191.929688 304.394531 184.582031 303.324219 177.734375 305.253906 C 170.886719 307.183594 165.183594 311.933594 162.046875 318.316406 L 133.0625 380.074219 Z M 119.789062 350.578125 "/>
<path style=" stroke:none;fill-rule:nonzero;fill:rgb(18.039216%,64.313725%,38.039216%);fill-opacity:1;" d="M 112.492188 299.871094 C 112.449219 299.871094 112.40625 299.863281 112.363281 299.851562 L 107.210938 298.078125 C 107.085938 298.035156 106.988281 297.929688 106.957031 297.800781 C 106.925781 297.671875 106.957031 297.53125 107.050781 297.433594 L 110.882812 293.261719 C 110.976562 293.15625 111.121094 293.113281 111.257812 293.144531 C 111.398438 293.171875 111.507812 293.277344 111.550781 293.410156 C 111.59375 293.546875 111.5625 293.695312 111.464844 293.796875 L 108.042969 297.523438 L 112.621094 299.101562 C 112.804688 299.164062 112.914062 299.351562 112.882812 299.542969 C 112.851562 299.730469 112.6875 299.871094 112.492188 299.871094 Z M 112.492188 299.871094 "/>
<path style=" stroke:none;fill-rule:nonzero;fill:rgb(18.039216%,64.313725%,38.039216%);fill-opacity:1;" d="M 119.554688 298.425781 C 119.394531 298.425781 119.246094 298.328125 119.1875 298.179688 C 119.125 298.03125 119.164062 297.859375 119.277344 297.746094 L 122.761719 294.378906 L 118.082031 292.453125 C 117.953125 292.398438 117.859375 292.277344 117.839844 292.136719 C 117.820312 291.996094 117.878906 291.859375 117.992188 291.769531 C 118.105469 291.683594 118.253906 291.664062 118.386719 291.71875 L 123.621094 293.878906 C 123.746094 293.929688 123.835938 294.039062 123.859375 294.167969 C 123.886719 294.300781 123.84375 294.433594 123.746094 294.527344 L 119.828125 298.316406 C 119.753906 298.386719 119.65625 298.425781 119.554688 298.425781 Z M 119.554688 298.425781 "/>
<path style=" stroke:none;fill-rule:nonzero;fill:rgb(18.039216%,64.313725%,38.039216%);fill-opacity:1;" d="M 113.574219 302.296875 C 113.535156 302.296875 113.496094 302.289062 113.457031 302.277344 C 113.355469 302.246094 113.273438 302.175781 113.222656 302.085938 C 113.175781 301.992188 113.164062 301.882812 113.195312 301.78125 L 116.851562 289.898438 C 116.917969 289.6875 117.136719 289.570312 117.347656 289.636719 C 117.554688 289.699219 117.671875 289.921875 117.609375 290.128906 L 113.953125 302.015625 C 113.902344 302.183594 113.746094 302.296875 113.574219 302.296875 Z M 113.574219 302.296875 "/>
</g>
</svg>
