<?xml version="1.0" encoding="UTF-8"?>
<svg xmlns="http://www.w3.org/2000/svg" xmlns:xlink="http://www.w3.org/1999/xlink" width="763px" height="458px" viewBox="0 0 658 458" version="1.1">
<defs>
<filter id="alpha" filterUnits="objectBoundingBox" x="0%" y="0%" width="100%" height="100%">
  <feColorMatrix type="matrix" in="SourceGraphic" values="0 0 0 0 1 0 0 0 0 1 0 0 0 0 1 0 0 0 1 0"/>
</filter>
<mask id="mask0">
  <g filter="url(#alpha)">
<rect x="0" y="0" width="658" height="458" style="fill:rgb(0%,0%,0%);fill-opacity:0.2;stroke:none;"/>
  </g>
</mask>
<clipPath id="clip1">
  <rect x="0" y="0" width="658" height="458"/>
</clipPath>
<g id="surface5" clip-path="url(#clip1)">
<path style=" stroke:none;fill-rule:nonzero;fill:rgb(0%,0%,0%);fill-opacity:1;" d="M 311.359375 429.203125 C 312.4375 430.433594 313.027344 432.011719 313.03125 433.648438 C 313.019531 437.410156 309.972656 440.453125 306.214844 440.464844 L 294.507812 440.464844 L 294.507812 441.164062 L 306.914062 441.164062 C 310.671875 441.152344 313.71875 438.109375 313.730469 434.347656 C 313.726562 432.371094 312.859375 430.492188 311.359375 429.203125 Z M 311.359375 429.203125 "/>
</g>
<mask id="mask1">
  <g filter="url(#alpha)">
<rect x="0" y="0" width="658" height="458" style="fill:rgb(0%,0%,0%);fill-opacity:0.2;stroke:none;"/>
  </g>
</mask>
<clipPath id="clip2">
  <rect x="0" y="0" width="658" height="458"/>
</clipPath>
<g id="surface8" clip-path="url(#clip2)">
<path style=" stroke:none;fill-rule:nonzero;fill:rgb(0%,0%,0%);fill-opacity:1;" d="M 358.628906 347.054688 C 358.46875 348.683594 357.726562 350.199219 356.535156 351.320312 C 353.792969 353.890625 349.488281 353.765625 346.902344 351.035156 L 338.875 342.515625 L 338.363281 342.996094 L 346.875 352.023438 C 349.460938 354.753906 353.765625 354.878906 356.507812 352.308594 C 357.945312 350.949219 358.71875 349.03125 358.628906 347.054688 Z M 358.628906 347.054688 "/>
</g>
<mask id="mask2">
  <g filter="url(#alpha)">
<rect x="0" y="0" width="658" height="458" style="fill:rgb(0%,0%,0%);fill-opacity:0.2;stroke:none;"/>
  </g>
</mask>
<clipPath id="clip3">
  <rect x="0" y="0" width="658" height="458"/>
</clipPath>
<g id="surface11" clip-path="url(#clip3)">
<path style=" stroke:none;fill-rule:nonzero;fill:rgb(0%,0%,0%);fill-opacity:1;" d="M 322.320312 368.546875 C 322.160156 370.175781 321.417969 371.691406 320.226562 372.8125 C 317.484375 375.382812 313.179688 375.257812 310.59375 372.527344 L 302.566406 364.007812 L 302.054688 364.488281 L 310.566406 373.515625 C 313.152344 376.246094 317.457031 376.371094 320.199219 373.800781 C 321.636719 372.441406 322.410156 370.523438 322.320312 368.546875 Z M 322.320312 368.546875 "/>
</g>
<mask id="mask3">
  <g filter="url(#alpha)">
<rect x="0" y="0" width="658" height="458" style="fill:rgb(0%,0%,0%);fill-opacity:0.2;stroke:none;"/>
  </g>
</mask>
<clipPath id="clip4">
  <rect x="0" y="0" width="658" height="458"/>
</clipPath>
<g id="surface14" clip-path="url(#clip4)">
<path style=" stroke:none;fill-rule:nonzero;fill:rgb(0%,0%,0%);fill-opacity:1;" d="M 358.628906 388.558594 C 358.46875 390.183594 357.726562 391.699219 356.535156 392.820312 C 353.792969 395.394531 349.488281 395.265625 346.902344 392.539062 L 338.875 384.015625 L 338.363281 384.496094 L 346.875 393.527344 C 349.460938 396.253906 353.765625 396.382812 356.507812 393.808594 C 357.945312 392.449219 358.71875 390.53125 358.628906 388.558594 Z M 358.628906 388.558594 "/>
</g>
<mask id="mask4">
  <g filter="url(#alpha)">
<rect x="0" y="0" width="658" height="458" style="fill:rgb(0%,0%,0%);fill-opacity:0.2;stroke:none;"/>
  </g>
</mask>
<clipPath id="clip5">
  <rect x="0" y="0" width="658" height="458"/>
</clipPath>
<g id="surface17" clip-path="url(#clip5)">
<path style=" stroke:none;fill-rule:nonzero;fill:rgb(0%,0%,0%);fill-opacity:1;" d="M 340.207031 427.847656 C 338.578125 427.707031 337.054688 426.984375 335.917969 425.808594 C 333.316406 423.097656 333.390625 418.789062 336.085938 416.171875 L 344.507812 408.035156 L 344.023438 407.535156 L 335.097656 416.152344 C 332.402344 418.773438 332.328125 423.078125 334.929688 425.792969 C 336.308594 427.210938 338.234375 427.960938 340.207031 427.847656 Z M 340.207031 427.847656 "/>
</g>
<mask id="mask5">
  <g filter="url(#alpha)">
<rect x="0" y="0" width="658" height="458" style="fill:rgb(0%,0%,0%);fill-opacity:0.2;stroke:none;"/>
  </g>
</mask>
<clipPath id="clip6">
  <rect x="0" y="0" width="658" height="458"/>
</clipPath>
<g id="surface20" clip-path="url(#clip6)">
<path style=" stroke:none;fill-rule:nonzero;fill:rgb(0%,0%,0%);fill-opacity:1;" d="M 291.304688 406.355469 C 289.675781 406.214844 288.152344 405.492188 287.015625 404.316406 C 284.410156 401.605469 284.484375 397.300781 287.179688 394.679688 L 295.601562 386.542969 L 295.117188 386.042969 L 286.191406 394.660156 C 283.496094 397.28125 283.421875 401.585938 286.027344 404.300781 C 287.402344 405.71875 289.328125 406.46875 291.304688 406.355469 Z M 291.304688 406.355469 "/>
</g>
<mask id="mask6">
  <g filter="url(#alpha)">
<rect x="0" y="0" width="658" height="458" style="fill:rgb(0%,0%,0%);fill-opacity:0.2;stroke:none;"/>
  </g>
</mask>
<clipPath id="clip7">
  <rect x="0" y="0" width="658" height="458"/>
</clipPath>
<g id="surface23" clip-path="url(#clip7)">
<path style=" stroke:none;fill-rule:nonzero;fill:rgb(0%,0%,0%);fill-opacity:1;" d="M 360.957031 380.417969 C 359.328125 380.277344 357.804688 379.554688 356.667969 378.378906 C 354.0625 375.667969 354.136719 371.359375 356.835938 368.742188 L 365.253906 360.605469 L 364.769531 360.101562 L 355.847656 368.722656 C 353.148438 371.34375 353.074219 375.648438 355.679688 378.359375 C 357.054688 379.78125 358.980469 380.53125 360.957031 380.417969 Z M 360.957031 380.417969 "/>
</g>
<mask id="mask7">
  <g filter="url(#alpha)">
<rect x="0" y="0" width="658" height="458" style="fill:rgb(0%,0%,0%);fill-opacity:0.2;stroke:none;"/>
  </g>
</mask>
<clipPath id="clip8">
  <rect x="0" y="0" width="658" height="458"/>
</clipPath>
<g id="surface26" clip-path="url(#clip8)">
<path style=" stroke:none;fill-rule:nonzero;fill:rgb(0%,0%,0%);fill-opacity:1;" d="M 386.042969 437.46875 C 385.886719 439.097656 385.140625 440.613281 383.953125 441.734375 C 381.210938 444.304688 376.90625 444.179688 374.320312 441.449219 L 366.289062 432.929688 L 365.78125 433.410156 L 374.292969 442.4375 C 376.878906 445.167969 381.179688 445.292969 383.925781 442.722656 C 385.363281 441.363281 386.136719 439.445312 386.042969 437.46875 Z M 386.042969 437.46875 "/>
</g>
<mask id="mask8">
  <g filter="url(#alpha)">
<rect x="0" y="0" width="658" height="458" style="fill:rgb(0%,0%,0%);fill-opacity:0.2;stroke:none;"/>
  </g>
</mask>
<clipPath id="clip9">
  <rect x="0" y="0" width="658" height="458"/>
</clipPath>
<g id="surface29" clip-path="url(#clip9)">
<path style=" stroke:none;fill-rule:nonzero;fill:rgb(0%,0%,0%);fill-opacity:1;" d="M 337.878906 436.726562 C 337.71875 438.355469 336.976562 439.871094 335.789062 440.992188 C 333.046875 443.5625 328.742188 443.4375 326.15625 440.710938 L 318.125 432.1875 L 317.617188 432.667969 L 326.125 441.699219 C 328.714844 444.425781 333.015625 444.550781 335.761719 441.980469 C 337.195312 440.621094 337.972656 438.703125 337.878906 436.726562 Z M 337.878906 436.726562 "/>
</g>
<mask id="mask9">
  <g filter="url(#alpha)">
<rect x="0" y="0" width="658" height="458" style="fill:rgb(0%,0%,0%);fill-opacity:0.2;stroke:none;"/>
  </g>
</mask>
<clipPath id="clip10">
  <rect x="0" y="0" width="658" height="458"/>
</clipPath>
<g id="surface32" clip-path="url(#clip10)">
<path style=" stroke:none;fill-rule:nonzero;fill:rgb(0%,0%,0%);fill-opacity:1;" d="M 324.960938 380.460938 L 324.960938 399.726562 C 323.664062 399.988281 322.324219 399.988281 321.027344 399.726562 L 321.027344 380.460938 C 322.324219 380.199219 323.664062 380.199219 324.960938 380.460938 Z M 324.960938 380.460938 "/>
</g>
<mask id="mask10">
  <g filter="url(#alpha)">
<rect x="0" y="0" width="658" height="458" style="fill:rgb(0%,0%,0%);fill-opacity:0.2;stroke:none;"/>
  </g>
</mask>
<clipPath id="clip11">
  <rect x="0" y="0" width="658" height="458"/>
</clipPath>
<g id="surface35" clip-path="url(#clip11)">
<path style=" stroke:none;fill-rule:nonzero;fill:rgb(0%,0%,0%);fill-opacity:1;" d="M 329.40625 341.179688 L 329.40625 360.445312 C 328.109375 360.707031 326.773438 360.707031 325.472656 360.445312 L 325.472656 341.179688 C 326.773438 340.917969 328.109375 340.917969 329.40625 341.179688 Z M 329.40625 341.179688 "/>
</g>
<mask id="mask11">
  <g filter="url(#alpha)">
<rect x="0" y="0" width="658" height="458" style="fill:rgb(0%,0%,0%);fill-opacity:0.2;stroke:none;"/>
  </g>
</mask>
<clipPath id="clip12">
  <rect x="0" y="0" width="658" height="458"/>
</clipPath>
<g id="surface38" clip-path="url(#clip12)">
<path style=" stroke:none;fill-rule:nonzero;fill:rgb(0%,0%,0%);fill-opacity:1;" d="M 329.40625 397.503906 L 329.40625 416.769531 C 328.109375 417.03125 326.773438 417.03125 325.472656 416.769531 L 325.472656 397.503906 C 326.773438 397.242188 328.109375 397.242188 329.40625 397.503906 Z M 329.40625 397.503906 "/>
</g>
<mask id="mask12">
  <g filter="url(#alpha)">
<rect x="0" y="0" width="658" height="458" style="fill:rgb(0%,0%,0%);fill-opacity:0.2;stroke:none;"/>
  </g>
</mask>
<clipPath id="clip13">
  <rect x="0" y="0" width="658" height="458"/>
</clipPath>
<g id="surface41" clip-path="url(#clip13)">
<path style=" stroke:none;fill-rule:nonzero;fill:rgb(0%,0%,0%);fill-opacity:1;" d="M 353.859375 424.925781 L 353.859375 444.191406 C 352.5625 444.453125 351.222656 444.453125 349.925781 444.191406 L 349.925781 424.925781 C 351.222656 424.664062 352.5625 424.664062 353.859375 424.925781 Z M 353.859375 424.925781 "/>
</g>
<mask id="mask13">
  <g filter="url(#alpha)">
<rect x="0" y="0" width="658" height="458" style="fill:rgb(0%,0%,0%);fill-opacity:0.2;stroke:none;"/>
  </g>
</mask>
<clipPath id="clip14">
  <rect x="0" y="0" width="658" height="458"/>
</clipPath>
<g id="surface44" clip-path="url(#clip14)">
<path style=" stroke:none;fill-rule:nonzero;fill:rgb(0%,0%,0%);fill-opacity:1;" d="M 370.929688 383.085938 L 384.800781 396.453125 C 384.089844 397.570312 383.160156 398.53125 382.070312 399.285156 L 368.203125 385.914062 C 368.914062 384.800781 369.84375 383.835938 370.929688 383.085938 Z M 370.929688 383.085938 "/>
</g>
<mask id="mask14">
  <g filter="url(#alpha)">
<rect x="0" y="0" width="658" height="458" style="fill:rgb(0%,0%,0%);fill-opacity:0.2;stroke:none;"/>
  </g>
</mask>
<clipPath id="clip15">
  <rect x="0" y="0" width="658" height="458"/>
</clipPath>
<g id="surface47" clip-path="url(#clip15)">
<path style=" stroke:none;fill-rule:nonzero;fill:rgb(0%,0%,0%);fill-opacity:1;" d="M 373.894531 404.574219 L 387.765625 417.945312 C 387.050781 419.0625 386.125 420.023438 385.035156 420.777344 L 371.167969 407.40625 C 371.878906 406.289062 372.804688 405.328125 373.894531 404.574219 Z M 373.894531 404.574219 "/>
</g>
<mask id="mask15">
  <g filter="url(#alpha)">
<rect x="0" y="0" width="658" height="458" style="fill:rgb(0%,0%,0%);fill-opacity:0.2;stroke:none;"/>
  </g>
</mask>
<clipPath id="clip16">
  <rect x="0" y="0" width="658" height="458"/>
</clipPath>
<g id="surface50" clip-path="url(#clip16)">
<path style=" stroke:none;fill-rule:nonzero;fill:rgb(0%,0%,0%);fill-opacity:1;" d="M 285.71875 409.765625 L 299.585938 423.132812 C 298.875 424.25 297.945312 425.210938 296.859375 425.964844 L 282.988281 412.59375 C 283.699219 411.480469 284.628906 410.515625 285.71875 409.765625 Z M 285.71875 409.765625 "/>
</g>
<mask id="mask16">
  <g filter="url(#alpha)">
<rect x="0" y="0" width="658" height="458" style="fill:rgb(0%,0%,0%);fill-opacity:0.2;stroke:none;"/>
  </g>
</mask>
<clipPath id="clip17">
  <rect x="0" y="0" width="658" height="458"/>
</clipPath>
<g id="surface53" clip-path="url(#clip17)">
<path style=" stroke:none;fill-rule:nonzero;fill:rgb(0%,0%,0%);fill-opacity:1;" d="M 262.679688 234.265625 L 266.386719 234.265625 L 266.386719 261.6875 L 262.679688 261.6875 Z M 262.679688 234.265625 "/>
</g>
<mask id="mask17">
  <g filter="url(#alpha)">
<rect x="0" y="0" width="658" height="458" style="fill:rgb(0%,0%,0%);fill-opacity:0.2;stroke:none;"/>
  </g>
</mask>
<clipPath id="clip18">
  <rect x="0" y="0" width="658" height="458"/>
</clipPath>
<g id="surface56" clip-path="url(#clip18)">
<path style=" stroke:none;fill-rule:nonzero;fill:rgb(0%,0%,0%);fill-opacity:1;" d="M 284.171875 234.265625 L 287.875 234.265625 L 287.875 261.6875 L 284.171875 261.6875 Z M 284.171875 234.265625 "/>
</g>
<mask id="mask18">
  <g filter="url(#alpha)">
<rect x="0" y="0" width="658" height="458" style="fill:rgb(0%,0%,0%);fill-opacity:0.2;stroke:none;"/>
  </g>
</mask>
<clipPath id="clip19">
  <rect x="0" y="0" width="658" height="458"/>
</clipPath>
<g id="surface59" clip-path="url(#clip19)">
<path style=" stroke:none;fill-rule:nonzero;fill:rgb(0%,0%,0%);fill-opacity:1;" d="M 305.660156 234.265625 L 309.363281 234.265625 L 309.363281 261.6875 L 305.660156 261.6875 Z M 305.660156 234.265625 "/>
</g>
<mask id="mask19">
  <g filter="url(#alpha)">
<rect x="0" y="0" width="658" height="458" style="fill:rgb(0%,0%,0%);fill-opacity:0.2;stroke:none;"/>
  </g>
</mask>
<clipPath id="clip20">
  <rect x="0" y="0" width="658" height="458"/>
</clipPath>
<g id="surface62" clip-path="url(#clip20)">
<path style=" stroke:none;fill-rule:nonzero;fill:rgb(0%,0%,0%);fill-opacity:1;" d="M 327.148438 234.265625 L 330.851562 234.265625 L 330.851562 261.6875 L 327.148438 261.6875 Z M 327.148438 234.265625 "/>
</g>
<mask id="mask20">
  <g filter="url(#alpha)">
<rect x="0" y="0" width="658" height="458" style="fill:rgb(0%,0%,0%);fill-opacity:0.2;stroke:none;"/>
  </g>
</mask>
<clipPath id="clip21">
  <rect x="0" y="0" width="658" height="458"/>
</clipPath>
<g id="surface65" clip-path="url(#clip21)">
<path style=" stroke:none;fill-rule:nonzero;fill:rgb(0%,0%,0%);fill-opacity:1;" d="M 348.636719 234.265625 L 352.339844 234.265625 L 352.339844 261.6875 L 348.636719 261.6875 Z M 348.636719 234.265625 "/>
</g>
<mask id="mask21">
  <g filter="url(#alpha)">
<rect x="0" y="0" width="658" height="458" style="fill:rgb(0%,0%,0%);fill-opacity:0.2;stroke:none;"/>
  </g>
</mask>
<clipPath id="clip22">
  <rect x="0" y="0" width="658" height="458"/>
</clipPath>
<g id="surface68" clip-path="url(#clip22)">
<path style=" stroke:none;fill-rule:nonzero;fill:rgb(0%,0%,0%);fill-opacity:1;" d="M 370.125 234.265625 L 373.828125 234.265625 L 373.828125 261.6875 L 370.125 261.6875 Z M 370.125 234.265625 "/>
</g>
<mask id="mask22">
  <g filter="url(#alpha)">
<rect x="0" y="0" width="658" height="458" style="fill:rgb(0%,0%,0%);fill-opacity:0.2;stroke:none;"/>
  </g>
</mask>
<clipPath id="clip23">
  <rect x="0" y="0" width="658" height="458"/>
</clipPath>
<g id="surface71" clip-path="url(#clip23)">
<path style=" stroke:none;fill-rule:nonzero;fill:rgb(0%,0%,0%);fill-opacity:1;" d="M 391.613281 234.265625 L 395.320312 234.265625 L 395.320312 261.6875 L 391.613281 261.6875 Z M 391.613281 234.265625 "/>
</g>
</defs>
<g id="surface1">
<path style=" stroke:none;fill-rule:nonzero;fill:rgb(18.431373%,18.039216%,25.490196%);fill-opacity:1;" d="M 549.78125 70.4375 L 499.023438 70.929688 C 496.636719 59.183594 488.621094 28.359375 495.839844 19.953125 C 496.523438 13.378906 502.257812 8.507812 508.855469 8.894531 C 516.722656 -3.421875 529.828125 -1.574219 538.683594 6.121094 C 547.597656 9.195312 550.957031 14.660156 549.78125 22.078125 C 556.382812 27.855469 557.601562 34.886719 554.640625 42.890625 Z M 549.78125 70.4375 "/>
<path style=" stroke:none;fill-rule:nonzero;fill:rgb(100%,72.54902%,72.54902%);fill-opacity:1;" d="M 544.898438 101.710938 L 508.273438 96.640625 L 500.949219 85.933594 C 511.039062 79.238281 514.609375 69.890625 509.964844 57.195312 L 535.320312 56.632812 C 534.128906 67.9375 537.867188 76.691406 548.277344 81.988281 Z M 544.898438 101.710938 "/>
<path style=" stroke:none;fill-rule:nonzero;fill:rgb(90.196078%,90.196078%,90.196078%);fill-opacity:1;" d="M 499.617188 432.074219 L 498.214844 451.222656 C 498.089844 452.976562 498.722656 454.699219 499.957031 455.949219 C 501.195312 457.199219 502.910156 457.855469 504.664062 457.75 L 514.496094 457.15625 C 515.417969 457.097656 516.269531 456.636719 516.8125 455.890625 C 517.359375 455.144531 517.546875 454.195312 517.324219 453.296875 L 511.863281 431.464844 Z M 499.617188 432.074219 "/>
<path style=" stroke:none;fill-rule:nonzero;fill:rgb(90.196078%,90.196078%,90.196078%);fill-opacity:1;" d="M 531.449219 431.464844 L 525.992188 453.296875 C 525.769531 454.195312 525.953125 455.144531 526.5 455.890625 C 527.046875 456.636719 527.898438 457.097656 528.820312 457.15625 L 538.652344 457.75 C 540.40625 457.855469 542.121094 457.199219 543.355469 455.949219 C 544.59375 454.699219 545.226562 452.976562 545.097656 451.222656 L 543.699219 432.074219 Z M 531.449219 431.464844 "/>
<path style=" stroke:none;fill-rule:nonzero;fill:rgb(18.039216%,64.313725%,38.039216%);fill-opacity:1;" d="M 544.332031 434.734375 L 531.0625 433.402344 L 517.851562 292.171875 L 512.859375 432.945312 L 499.824219 432.480469 L 477.851562 237.511719 L 561.796875 237.511719 Z M 544.332031 434.734375 "/>
<path style=" stroke:none;fill-rule:nonzero;fill:rgb(100%,72.54902%,72.54902%);fill-opacity:1;" d="M 549.402344 40.851562 C 549.402344 54.859375 538.054688 66.210938 524.050781 66.210938 C 510.046875 66.210938 498.695312 54.859375 498.695312 40.851562 C 498.695312 26.847656 510.046875 15.496094 524.050781 15.496094 C 538.054688 15.496094 549.402344 26.847656 549.402344 40.851562 Z M 549.402344 40.851562 "/>
<path style=" stroke:none;fill-rule:nonzero;fill:rgb(18.039216%,64.313725%,38.039216%);fill-opacity:1;" d="M 574.195312 242.019531 L 471.652344 243.148438 C 486.871094 185.207031 495.972656 131.386719 480.105469 94.386719 L 505.457031 81.988281 C 517.683594 94.742188 531.296875 93.425781 546.023438 80.859375 L 570.25 87.058594 C 566.101562 135.582031 567.960938 187.546875 574.195312 242.019531 Z M 574.195312 242.019531 "/>
<path style=" stroke:none;fill-rule:nonzero;fill:rgb(100%,72.54902%,72.54902%);fill-opacity:1;" d="M 443.484375 182.289062 L 507.148438 207.648438 L 521.382812 211.832031 C 522.667969 212.210938 524.054688 212.050781 525.21875 211.382812 C 526.382812 210.71875 527.222656 209.605469 527.546875 208.304688 C 528.132812 205.972656 526.945312 203.5625 524.746094 202.597656 L 509.964844 198.066406 L 465.457031 172.148438 L 474.753906 147.636719 L 455.316406 137.210938 Z M 443.484375 182.289062 "/>
<path style=" stroke:none;fill-rule:nonzero;fill:rgb(18.039216%,64.313725%,38.039216%);fill-opacity:1;" d="M 444.046875 136.082031 C 456.160156 140.808594 465.792969 148.875 473.34375 159.75 L 497.007812 125.375 L 480.105469 94.386719 Z M 444.046875 136.082031 "/>
<path style=" stroke:none;fill-rule:nonzero;fill:rgb(18.431373%,18.039216%,25.490196%);fill-opacity:1;" d="M 552.625 36.742188 C 542.335938 34.09375 532.21875 33.726562 522.382812 37.089844 C 516.117188 40.125 508.59375 39.847656 500.226562 37.347656 L 500.226562 12.046875 L 545.398438 13.25 Z M 552.625 36.742188 "/>
<path style=" stroke:none;fill-rule:nonzero;fill:rgb(24.705882%,23.921569%,33.72549%);fill-opacity:1;" d="M 506.9375 152.746094 C 502.792969 152.75 499.433594 156.109375 499.429688 160.253906 L 502.390625 222.308594 C 502.398438 226.457031 505.753906 229.816406 509.902344 229.820312 L 543.789062 229.820312 C 547.933594 229.816406 551.292969 226.457031 551.296875 222.308594 L 554.261719 160.253906 C 554.257812 156.109375 550.898438 152.75 546.753906 152.746094 Z M 506.9375 152.746094 "/>
<path style=" stroke:none;fill-rule:nonzero;fill:rgb(100%,72.54902%,72.54902%);fill-opacity:1;" d="M 603.085938 177.601562 L 547.59375 199.703125 L 543.40625 201.367188 C 543.273438 201.421875 543.140625 201.464844 543 201.507812 L 528.972656 205.636719 C 527.179688 206.164062 524.695312 203.746094 523.242188 202.082031 C 521.757812 200.417969 521.707031 197.921875 523.125 196.203125 C 523.320312 195.980469 523.53125 195.773438 523.761719 195.589844 C 524.300781 195.167969 524.9375 194.886719 525.613281 194.773438 L 539.625 192.015625 C 540.128906 191.917969 540.613281 191.738281 541.058594 191.484375 L 547.59375 187.671875 L 581.523438 167.914062 C 583.472656 166.78125 584.3125 164.40625 583.515625 162.296875 L 577.039062 145.214844 C 576.21875 143.054688 577.128906 140.617188 579.164062 139.523438 L 589.894531 133.773438 C 591.136719 133.105469 592.617188 133.046875 593.910156 133.609375 C 595.203125 134.171875 596.164062 135.300781 596.519531 136.664062 L 605.835938 172.148438 C 606.425781 174.398438 605.246094 176.738281 603.085938 177.601562 Z M 603.085938 177.601562 "/>
<path style=" stroke:none;fill-rule:nonzero;fill:rgb(18.039216%,64.313725%,38.039216%);fill-opacity:1;" d="M 606.308594 129.886719 C 594.195312 134.609375 584.5625 142.675781 577.011719 153.550781 L 553.347656 119.179688 L 570.25 87.058594 Z M 606.308594 129.886719 "/>
<path style=" stroke:none;fill-rule:nonzero;fill:rgb(100%,100%,100%);fill-opacity:1;" d="M 540.921875 63.421875 C 529.832031 68.035156 518.203125 67.847656 506.097656 63.421875 C 509.621094 57.410156 504.355469 52.699219 501.652344 46.628906 L 546.851562 45.285156 C 543.394531 50.558594 538.292969 56.789062 540.921875 63.421875 Z M 540.921875 63.421875 "/>
<path style=" stroke:none;fill-rule:nonzero;fill:rgb(100%,100%,100%);fill-opacity:1;" d="M 546.371094 46.289062 L 545.847656 45.765625 L 546.589844 45.023438 L 551.015625 39.855469 L 551.578125 40.339844 L 547.132812 45.527344 Z M 546.371094 46.289062 "/>
<path style=" stroke:none;fill-rule:nonzero;fill:rgb(100%,100%,100%);fill-opacity:1;" d="M 498.078125 43.71875 L 498.554688 43.148438 L 503 46.855469 L 502.523438 47.421875 Z M 498.078125 43.71875 "/>
<path style=" stroke:none;fill-rule:nonzero;fill:rgb(100%,100%,100%);fill-opacity:1;" d="M 539.867188 62.875 L 547.648438 50.644531 L 548.273438 51.042969 L 540.492188 63.269531 Z M 539.867188 62.875 "/>
<path style=" stroke:none;fill-rule:nonzero;fill:rgb(100%,100%,100%);fill-opacity:1;" d="M 498.746094 51.042969 L 499.371094 50.644531 L 507.152344 62.875 L 506.523438 63.269531 Z M 498.746094 51.042969 "/>
<path style=" stroke:none;fill-rule:nonzero;fill:rgb(100%,100%,100%);fill-opacity:1;" d="M 549.074219 186.625 L 549.074219 200.050781 L 544.402344 201.914062 C 544.253906 201.96875 544.101562 202.019531 543.945312 202.070312 L 528.289062 206.675781 C 526.289062 207.265625 523.515625 204.566406 521.894531 202.707031 C 520.238281 200.851562 520.179688 198.066406 521.761719 196.148438 C 521.980469 195.898438 522.21875 195.667969 522.472656 195.460938 C 523.078125 194.988281 523.789062 194.675781 524.542969 194.550781 L 540.183594 191.472656 C 540.742188 191.363281 541.28125 191.160156 541.777344 190.878906 Z M 549.074219 186.625 "/>
<path style=" stroke:none;fill-rule:nonzero;fill:rgb(24.705882%,23.921569%,33.72549%);fill-opacity:1;" d="M 555.847656 138.734375 L 553.167969 138.734375 C 553.167969 100.855469 545.371094 74.460938 537.773438 74.460938 L 537.101562 71.78125 C 543.917969 71.78125 548.261719 82.769531 550.707031 91.984375 C 554.023438 104.480469 555.847656 121.082031 555.847656 138.734375 Z M 555.847656 138.734375 "/>
<path style=" stroke:none;fill-rule:nonzero;fill:rgb(24.705882%,23.921569%,33.72549%);fill-opacity:1;" d="M 494.257812 129.363281 L 491.582031 129.363281 C 491.582031 94.671875 499.433594 73.121094 510.996094 73.121094 L 510.324219 75.800781 C 502.328125 75.800781 494.257812 92.363281 494.257812 129.363281 Z M 494.257812 129.363281 "/>
<path style=" stroke:none;fill-rule:nonzero;fill:rgb(24.705882%,23.921569%,33.72549%);fill-opacity:1;" d="M 561.203125 139.40625 C 561.203125 143.101562 558.207031 146.101562 554.507812 146.101562 C 550.8125 146.101562 547.8125 143.101562 547.8125 139.40625 C 547.8125 135.707031 550.8125 132.710938 554.507812 132.710938 C 558.207031 132.710938 561.203125 135.707031 561.203125 139.40625 Z M 561.203125 139.40625 "/>
<path style=" stroke:none;fill-rule:nonzero;fill:rgb(24.705882%,23.921569%,33.72549%);fill-opacity:1;" d="M 483.546875 145.429688 L 480.871094 145.429688 C 480.871094 135.832031 486.277344 128.023438 492.921875 128.023438 L 492.921875 130.699219 C 487.753906 130.699219 483.546875 137.308594 483.546875 145.429688 Z M 483.546875 145.429688 "/>
<path style=" stroke:none;fill-rule:nonzero;fill:rgb(24.705882%,23.921569%,33.72549%);fill-opacity:1;" d="M 504.96875 145.429688 L 502.292969 145.429688 C 502.292969 137.308594 498.089844 130.699219 492.921875 130.699219 L 492.921875 128.023438 C 499.566406 128.023438 504.96875 135.832031 504.96875 145.429688 Z M 504.96875 145.429688 "/>
<path style=" stroke:none;fill-rule:nonzero;fill:rgb(24.705882%,23.921569%,33.72549%);fill-opacity:1;" d="M 506.308594 146.101562 C 506.308594 147.578125 505.109375 148.777344 503.632812 148.777344 C 502.152344 148.777344 500.953125 147.578125 500.953125 146.101562 C 500.953125 144.621094 502.152344 143.421875 503.632812 143.421875 C 505.109375 143.421875 506.308594 144.621094 506.308594 146.101562 Z M 506.308594 146.101562 "/>
<path style=" stroke:none;fill-rule:nonzero;fill:rgb(24.705882%,23.921569%,33.72549%);fill-opacity:1;" d="M 484.886719 146.101562 C 484.886719 147.578125 483.6875 148.777344 482.210938 148.777344 C 480.730469 148.777344 479.53125 147.578125 479.53125 146.101562 C 479.53125 144.621094 480.730469 143.421875 482.210938 143.421875 C 483.6875 143.421875 484.886719 144.621094 484.886719 146.101562 Z M 484.886719 146.101562 "/>
<path style=" stroke:none;fill-rule:nonzero;fill:rgb(18.431373%,18.039216%,25.490196%);fill-opacity:1;" d="M 159.511719 56.097656 L 112.484375 64.0625 C 110.078125 64.476562 107.753906 63 107.097656 60.644531 C 103.699219 48.382812 96.597656 32.382812 103.496094 24.347656 C 104.222656 17.328125 110.347656 12.128906 117.390625 12.542969 C 125.792969 -0.609375 139.785156 1.363281 149.242188 9.578125 C 158.761719 12.863281 162.351562 18.699219 161.097656 26.617188 C 165.207031 30.21875 167.363281 34.273438 167.820312 38.722656 C 168.253906 43.734375 166.511719 48.6875 163.035156 52.324219 Z M 159.511719 56.097656 "/>
<path style=" stroke:none;fill-rule:nonzero;fill:rgb(62.352941%,38.039216%,41.568627%);fill-opacity:1;" d="M 152.203125 93.128906 L 115.746094 90.984375 C 119.316406 82.78125 120.746094 74.882812 119.320312 67.390625 L 146.484375 67.390625 C 146.421875 73.144531 149.285156 83.097656 152.203125 93.128906 Z M 152.203125 93.128906 "/>
<path style=" stroke:none;fill-rule:nonzero;fill:rgb(90.196078%,90.196078%,90.196078%);fill-opacity:1;" d="M 108.316406 430.050781 L 106.824219 450.496094 C 106.683594 452.371094 107.363281 454.210938 108.683594 455.546875 C 110 456.882812 111.832031 457.582031 113.707031 457.46875 L 124.207031 456.832031 C 125.191406 456.773438 126.097656 456.277344 126.683594 455.480469 C 127.265625 454.6875 127.464844 453.671875 127.226562 452.714844 L 121.398438 429.398438 Z M 108.316406 430.050781 "/>
<path style=" stroke:none;fill-rule:nonzero;fill:rgb(90.196078%,90.196078%,90.196078%);fill-opacity:1;" d="M 142.3125 429.398438 L 136.484375 452.714844 C 136.242188 453.671875 136.441406 454.6875 137.027344 455.480469 C 137.609375 456.277344 138.515625 456.773438 139.5 456.832031 L 150 457.46875 C 151.875 457.582031 153.707031 456.882812 155.023438 455.546875 C 156.34375 454.210938 157.023438 452.371094 156.886719 450.496094 L 155.390625 430.050781 Z M 142.3125 429.398438 "/>
<path style=" stroke:none;fill-rule:nonzero;fill:rgb(18.039216%,64.313725%,38.039216%);fill-opacity:1;" d="M 156.066406 432.890625 L 141.898438 431.46875 L 127.792969 280.65625 L 122.460938 430.984375 L 108.539062 430.484375 L 85.074219 222.289062 L 174.71875 222.289062 Z M 156.066406 432.890625 "/>
<path style=" stroke:none;fill-rule:nonzero;fill:rgb(62.352941%,38.039216%,41.568627%);fill-opacity:1;" d="M 160.691406 48.992188 C 160.691406 63.945312 148.570312 76.070312 133.617188 76.070312 C 118.664062 76.070312 106.542969 63.945312 106.542969 48.992188 C 106.542969 34.039062 118.664062 21.914062 133.617188 21.914062 C 148.570312 21.914062 160.691406 34.039062 160.691406 48.992188 Z M 160.691406 48.992188 "/>
<path style=" stroke:none;fill-rule:nonzero;fill:rgb(18.431373%,18.039216%,25.490196%);fill-opacity:1;" d="M 164.132812 36.058594 C 153.144531 34.144531 142.339844 33.878906 131.835938 36.308594 C 125.148438 38.496094 117.113281 38.296875 108.179688 36.492188 L 108.179688 18.230469 L 156.414062 19.101562 Z M 164.132812 36.058594 "/>
<path style=" stroke:none;fill-rule:nonzero;fill:rgb(100%,100%,100%);fill-opacity:1;" d="M 151.636719 70.71875 C 139.792969 75.644531 127.371094 75.445312 114.445312 70.71875 C 118.207031 64.296875 112.585938 59.269531 109.699219 52.785156 L 157.964844 51.351562 C 154.273438 56.980469 148.828125 63.636719 151.636719 70.71875 Z M 151.636719 70.71875 "/>
<path style=" stroke:none;fill-rule:nonzero;fill:rgb(100%,100%,100%);fill-opacity:1;" d="M 105.902344 49.65625 L 106.375 49.089844 L 111.121094 53.042969 L 110.648438 53.613281 Z M 105.902344 49.65625 "/>
<path style=" stroke:none;fill-rule:nonzero;fill:rgb(100%,100%,100%);fill-opacity:1;" d="M 150.53125 70.144531 L 158.839844 57.089844 L 159.464844 57.484375 L 151.15625 70.542969 Z M 150.53125 70.144531 "/>
<path style=" stroke:none;fill-rule:nonzero;fill:rgb(100%,100%,100%);fill-opacity:1;" d="M 106.617188 57.484375 L 107.242188 57.085938 L 115.550781 70.144531 L 114.921875 70.542969 Z M 106.617188 57.484375 "/>
<path style=" stroke:none;fill-rule:nonzero;fill:rgb(18.039216%,64.313725%,38.039216%);fill-opacity:1;" d="M 82.148438 172.488281 L 61.417969 159.617188 L 79.097656 107.832031 C 81.066406 102.488281 84.84375 98 89.773438 95.148438 L 95.730469 91.699219 L 96.246094 143.941406 Z M 82.148438 172.488281 "/>
<path style=" stroke:none;fill-rule:nonzero;fill:rgb(18.039216%,64.313725%,38.039216%);fill-opacity:1;" d="M 171.753906 197.640625 L 168.6875 171.367188 C 168.523438 157.496094 170.882812 144.089844 176.507812 131.734375 L 179.367188 93.128906 L 147.914062 80.257812 C 147.816406 80.902344 147.734375 81.542969 147.640625 82.183594 L 132.902344 89.554688 L 118.523438 86.285156 L 118.605469 81.6875 L 90.011719 94.558594 C 99.464844 138.527344 94.308594 184.183594 78.046875 238.117188 L 115.71875 248.417969 L 116.03125 230.328125 L 149.601562 227.929688 C 149.949219 233.796875 150.226562 239.5625 150.386719 245.199219 C 169.332031 252.175781 169.980469 252.058594 187.242188 242.074219 C 180.367188 227.621094 174.925781 212.578125 171.753906 197.640625 Z M 171.753906 197.640625 "/>
<path style=" stroke:none;fill-rule:nonzero;fill:rgb(18.039216%,64.313725%,38.039216%);fill-opacity:1;" d="M 220.113281 166.054688 L 200.8125 159.617188 L 169.9375 123.671875 L 179.367188 93.128906 L 222.257812 153.183594 Z M 220.113281 166.054688 "/>
<path style=" stroke:none;fill-rule:nonzero;fill:rgb(90.196078%,90.196078%,90.196078%);fill-opacity:1;" d="M 159.625 193.882812 C 160.28125 196.769531 163.148438 198.578125 166.035156 197.925781 L 182.421875 194.214844 L 180.054688 183.757812 L 163.667969 187.46875 C 160.78125 188.121094 158.96875 190.992188 159.625 193.882812 Z M 159.625 193.882812 "/>
<path style=" stroke:none;fill-rule:nonzero;fill:rgb(18.039216%,64.313725%,38.039216%);fill-opacity:1;" d="M 174.363281 181.78125 L 183.65625 198.941406 C 199.285156 194.582031 212.832031 180.835938 225.832031 164.625 L 222.257812 153.183594 L 200.097656 158.902344 Z M 174.363281 181.78125 "/>
<path style=" stroke:none;fill-rule:nonzero;fill:rgb(90.196078%,90.196078%,90.196078%);fill-opacity:1;" d="M 53.195312 127.960938 L 71.035156 131.144531 L 111.8125 189.132812 L 90.152344 184.035156 Z M 53.195312 127.960938 "/>
<path style=" stroke:none;fill-rule:nonzero;fill:rgb(24.705882%,23.921569%,33.72549%);fill-opacity:1;" d="M 50.03125 127.25 C 49.476562 127.257812 48.972656 127.566406 48.714844 128.054688 C 48.453125 128.546875 48.480469 129.136719 48.785156 129.601562 L 86.902344 187.441406 C 87.117188 187.765625 87.445312 187.992188 87.820312 188.082031 L 105.554688 192.253906 C 106.167969 192.398438 106.804688 192.148438 107.15625 191.628906 C 107.507812 191.109375 107.503906 190.421875 107.140625 189.910156 L 65.292969 130.394531 C 65.0625 130.066406 64.710938 129.84375 64.320312 129.777344 L 50.316406 127.273438 C 50.222656 127.257812 50.128906 127.25 50.03125 127.25 Z M 50.03125 127.25 "/>
<path style=" stroke:none;fill-rule:nonzero;fill:rgb(90.196078%,90.196078%,90.196078%);fill-opacity:1;" d="M 73.808594 168.605469 L 74.867188 179.277344 L 91.585938 177.617188 C 94.53125 177.324219 96.683594 174.699219 96.390625 171.75 C 96.097656 168.804688 93.472656 166.652344 90.523438 166.945312 Z M 73.808594 168.605469 "/>
<path style=" stroke:none;fill-rule:nonzero;fill:rgb(18.039216%,64.313725%,38.039216%);fill-opacity:1;" d="M 59.273438 167.367188 C 59.324219 174.941406 65.472656 181.058594 73.046875 181.066406 L 75.792969 181.066406 L 77.796875 164.386719 L 61.226562 158.421875 Z M 59.273438 167.367188 "/>
<path style=" stroke:none;fill-rule:nonzero;fill:rgb(100%,100%,100%);fill-opacity:1;" d="M 156.644531 53.195312 L 156.121094 52.671875 L 156.914062 51.878906 L 161.640625 46.363281 L 162.203125 46.84375 L 157.457031 52.382812 Z M 156.644531 53.195312 "/>
<path style=" stroke:none;fill-rule:nonzero;fill:rgb(24.705882%,23.921569%,33.72549%);fill-opacity:1;" d="M 0 456.597656 L 658 456.597656 L 658 458.078125 L 0 458.078125 Z M 0 456.597656 "/>
<path style=" stroke:none;fill-rule:nonzero;fill:rgb(90.196078%,90.196078%,90.196078%);fill-opacity:1;" d="M 251.195312 455.855469 L 406.804688 455.855469 L 406.804688 267.085938 C 406.804688 257.089844 396.960938 248.957031 384.859375 248.957031 L 273.140625 248.957031 C 261.039062 248.957031 251.195312 257.089844 251.195312 267.085938 Z M 251.195312 455.855469 "/>
<path style=" stroke:none;fill-rule:nonzero;fill:rgb(100%,100%,100%);fill-opacity:1;" d="M 263.050781 448.050781 L 394.949219 448.050781 L 394.949219 288.042969 C 394.949219 279.570312 386.605469 272.679688 376.347656 272.679688 L 281.652344 272.679688 C 271.394531 272.679688 263.050781 279.570312 263.050781 288.042969 Z M 263.050781 448.050781 "/>
<path style=" stroke:none;fill-rule:nonzero;fill:rgb(24.705882%,23.921569%,33.72549%);fill-opacity:1;" d="M 250.019531 234.265625 C 246.175781 234.265625 243.046875 236.851562 243.046875 240.027344 L 243.046875 256.660156 C 243.046875 259.839844 246.175781 262.425781 250.019531 262.425781 L 407.980469 262.425781 C 411.824219 262.425781 414.953125 259.839844 414.953125 256.660156 L 414.953125 240.027344 C 414.953125 236.851562 411.824219 234.265625 407.980469 234.265625 Z M 250.019531 234.265625 "/>
<path style=" stroke:none;fill-rule:nonzero;fill:rgb(24.705882%,23.921569%,33.72549%);fill-opacity:1;" d="M 282.453125 427.53125 C 278.691406 427.542969 275.648438 430.589844 275.636719 434.347656 C 275.648438 438.109375 278.691406 441.152344 282.453125 441.164062 L 295.207031 441.164062 L 295.207031 427.53125 Z M 282.453125 427.53125 "/>
<path style=" stroke:none;fill-rule:nonzero;fill:rgb(18.039216%,64.313725%,38.039216%);fill-opacity:1;" d="M 306.914062 427.53125 L 294.507812 427.53125 L 294.507812 441.164062 L 306.914062 441.164062 C 310.671875 441.152344 313.71875 438.109375 313.730469 434.347656 C 313.71875 430.589844 310.671875 427.542969 306.914062 427.53125 Z M 306.914062 427.53125 "/>
<use xlink:href="#surface5" mask="url(#mask0)"/>
<path style=" stroke:none;fill-rule:nonzero;fill:rgb(24.705882%,23.921569%,33.72549%);fill-opacity:1;" d="M 340.011719 324.871094 C 337.425781 322.140625 333.121094 322.015625 330.378906 324.585938 C 327.652344 327.171875 327.523438 331.476562 330.09375 334.222656 L 338.84375 343.503906 L 348.761719 334.152344 Z M 340.011719 324.871094 "/>
<path style=" stroke:none;fill-rule:nonzero;fill:rgb(18.039216%,64.313725%,38.039216%);fill-opacity:1;" d="M 356.792969 342.675781 L 348.28125 333.644531 L 338.363281 342.996094 L 346.875 352.023438 C 349.460938 354.753906 353.765625 354.878906 356.507812 352.308594 C 359.234375 349.722656 359.363281 345.417969 356.792969 342.675781 Z M 356.792969 342.675781 "/>
<use xlink:href="#surface8" mask="url(#mask1)"/>
<path style=" stroke:none;fill-rule:nonzero;fill:rgb(24.705882%,23.921569%,33.72549%);fill-opacity:1;" d="M 303.703125 346.363281 C 301.117188 343.632812 296.8125 343.507812 294.070312 346.078125 C 291.34375 348.664062 291.214844 352.96875 293.785156 355.710938 L 302.535156 364.996094 L 312.453125 355.644531 Z M 303.703125 346.363281 "/>
<path style=" stroke:none;fill-rule:nonzero;fill:rgb(18.039216%,64.313725%,38.039216%);fill-opacity:1;" d="M 320.484375 364.164062 L 311.972656 355.136719 L 302.054688 364.488281 L 310.566406 373.515625 C 313.152344 376.246094 317.457031 376.371094 320.199219 373.800781 C 322.925781 371.214844 323.054688 366.910156 320.484375 364.164062 Z M 320.484375 364.164062 "/>
<use xlink:href="#surface11" mask="url(#mask2)"/>
<path style=" stroke:none;fill-rule:nonzero;fill:rgb(24.705882%,23.921569%,33.72549%);fill-opacity:1;" d="M 340.011719 366.371094 C 337.425781 363.644531 333.121094 363.515625 330.378906 366.085938 C 327.652344 368.675781 327.523438 372.980469 330.09375 375.722656 L 338.84375 385.003906 L 348.761719 375.65625 Z M 340.011719 366.371094 "/>
<path style=" stroke:none;fill-rule:nonzero;fill:rgb(18.039216%,64.313725%,38.039216%);fill-opacity:1;" d="M 356.792969 384.175781 L 348.28125 375.148438 L 338.363281 384.496094 L 346.875 393.527344 C 349.460938 396.253906 353.765625 396.382812 356.507812 393.808594 C 359.234375 391.222656 359.363281 386.917969 356.792969 384.175781 Z M 356.792969 384.175781 "/>
<use xlink:href="#surface14" mask="url(#mask3)"/>
<path style=" stroke:none;fill-rule:nonzero;fill:rgb(24.705882%,23.921569%,33.72549%);fill-opacity:1;" d="M 362.164062 408.960938 C 364.859375 406.339844 364.933594 402.035156 362.328125 399.324219 C 359.710938 396.628906 355.40625 396.550781 352.695312 399.15625 L 343.519531 408.019531 L 352.988281 417.824219 Z M 362.164062 408.960938 "/>
<path style=" stroke:none;fill-rule:nonzero;fill:rgb(18.039216%,64.313725%,38.039216%);fill-opacity:1;" d="M 344.566406 425.957031 L 353.488281 417.339844 L 344.023438 407.535156 L 335.097656 416.152344 C 332.402344 418.773438 332.328125 423.078125 334.929688 425.792969 C 337.550781 428.488281 341.855469 428.5625 344.566406 425.957031 Z M 344.566406 425.957031 "/>
<use xlink:href="#surface17" mask="url(#mask4)"/>
<path style=" stroke:none;fill-rule:nonzero;fill:rgb(24.705882%,23.921569%,33.72549%);fill-opacity:1;" d="M 313.257812 387.46875 C 315.953125 384.847656 316.027344 380.542969 313.425781 377.832031 C 310.804688 375.136719 306.5 375.058594 303.789062 377.664062 L 294.613281 386.527344 L 304.082031 396.332031 Z M 313.257812 387.46875 "/>
<path style=" stroke:none;fill-rule:nonzero;fill:rgb(18.039216%,64.313725%,38.039216%);fill-opacity:1;" d="M 295.660156 404.464844 L 304.585938 395.847656 L 295.117188 386.042969 L 286.191406 394.660156 C 283.496094 397.28125 283.421875 401.585938 286.027344 404.300781 C 288.644531 406.996094 292.949219 407.070312 295.660156 404.464844 Z M 295.660156 404.464844 "/>
<use xlink:href="#surface20" mask="url(#mask5)"/>
<path style=" stroke:none;fill-rule:nonzero;fill:rgb(24.705882%,23.921569%,33.72549%);fill-opacity:1;" d="M 382.910156 361.53125 C 385.605469 358.910156 385.679688 354.605469 383.078125 351.894531 C 380.457031 349.195312 376.152344 349.121094 373.441406 351.726562 L 364.265625 360.589844 L 373.734375 370.394531 Z M 382.910156 361.53125 "/>
<path style=" stroke:none;fill-rule:nonzero;fill:rgb(18.039216%,64.313725%,38.039216%);fill-opacity:1;" d="M 365.316406 378.527344 L 374.238281 369.90625 L 364.769531 360.101562 L 355.847656 368.722656 C 353.148438 371.34375 353.074219 375.648438 355.679688 378.359375 C 358.296875 381.058594 362.601562 381.132812 365.316406 378.527344 Z M 365.316406 378.527344 "/>
<use xlink:href="#surface23" mask="url(#mask6)"/>
<path style=" stroke:none;fill-rule:nonzero;fill:rgb(24.705882%,23.921569%,33.72549%);fill-opacity:1;" d="M 367.429688 415.285156 C 364.84375 412.558594 360.539062 412.429688 357.796875 415 C 355.066406 417.585938 354.941406 421.890625 357.511719 424.636719 L 366.261719 433.917969 L 376.179688 424.566406 Z M 367.429688 415.285156 "/>
<path style=" stroke:none;fill-rule:nonzero;fill:rgb(18.039216%,64.313725%,38.039216%);fill-opacity:1;" d="M 384.207031 433.089844 L 375.699219 424.058594 L 365.78125 433.410156 L 374.292969 442.4375 C 376.878906 445.167969 381.179688 445.292969 383.925781 442.722656 C 386.652344 440.136719 386.777344 435.832031 384.207031 433.089844 Z M 384.207031 433.089844 "/>
<use xlink:href="#surface26" mask="url(#mask7)"/>
<path style=" stroke:none;fill-rule:nonzero;fill:rgb(24.705882%,23.921569%,33.72549%);fill-opacity:1;" d="M 319.265625 414.542969 C 316.679688 411.816406 312.375 411.6875 309.632812 414.257812 C 306.902344 416.847656 306.777344 421.152344 309.347656 423.894531 L 318.097656 433.175781 L 328.015625 423.828125 Z M 319.265625 414.542969 "/>
<path style=" stroke:none;fill-rule:nonzero;fill:rgb(18.039216%,64.313725%,38.039216%);fill-opacity:1;" d="M 336.042969 432.347656 L 327.535156 423.316406 L 317.617188 432.667969 L 326.125 441.699219 C 328.714844 444.425781 333.015625 444.550781 335.761719 441.980469 C 338.488281 439.394531 338.613281 435.089844 336.042969 432.347656 Z M 336.042969 432.347656 "/>
<use xlink:href="#surface29" mask="url(#mask8)"/>
<path style=" stroke:none;fill-rule:nonzero;fill:rgb(18.039216%,64.313725%,38.039216%);fill-opacity:1;" d="M 332.820312 390.09375 C 332.824219 394.765625 329.535156 398.789062 324.960938 399.726562 C 323.664062 399.988281 322.324219 399.988281 321.027344 399.726562 C 316.453125 398.789062 313.167969 394.761719 313.167969 390.09375 C 313.167969 385.421875 316.453125 381.394531 321.027344 380.460938 C 322.324219 380.199219 323.664062 380.199219 324.960938 380.460938 C 329.535156 381.394531 332.824219 385.421875 332.820312 390.09375 Z M 332.820312 390.09375 "/>
<use xlink:href="#surface32" mask="url(#mask9)"/>
<path style=" stroke:none;fill-rule:nonzero;fill:rgb(18.039216%,64.313725%,38.039216%);fill-opacity:1;" d="M 337.269531 350.8125 C 337.269531 355.484375 333.980469 359.511719 329.40625 360.445312 C 328.109375 360.707031 326.773438 360.707031 325.472656 360.445312 C 320.898438 359.511719 317.613281 355.484375 317.613281 350.8125 C 317.613281 346.144531 320.898438 342.117188 325.472656 341.179688 C 326.773438 340.917969 328.109375 340.917969 329.40625 341.179688 C 333.980469 342.117188 337.269531 346.140625 337.269531 350.8125 Z M 337.269531 350.8125 "/>
<use xlink:href="#surface35" mask="url(#mask10)"/>
<path style=" stroke:none;fill-rule:nonzero;fill:rgb(18.039216%,64.313725%,38.039216%);fill-opacity:1;" d="M 337.269531 407.136719 C 337.269531 411.808594 333.980469 415.835938 329.40625 416.769531 C 328.109375 417.03125 326.773438 417.03125 325.472656 416.769531 C 320.898438 415.835938 317.613281 411.808594 317.613281 407.136719 C 317.613281 402.464844 320.898438 398.441406 325.472656 397.503906 C 326.773438 397.242188 328.109375 397.242188 329.40625 397.503906 C 333.980469 398.4375 337.269531 402.464844 337.269531 407.136719 Z M 337.269531 407.136719 "/>
<use xlink:href="#surface38" mask="url(#mask11)"/>
<path style=" stroke:none;fill-rule:nonzero;fill:rgb(18.039216%,64.313725%,38.039216%);fill-opacity:1;" d="M 361.71875 434.558594 C 361.722656 439.230469 358.433594 443.257812 353.859375 444.191406 C 352.5625 444.453125 351.222656 444.453125 349.925781 444.191406 C 345.351562 443.257812 342.066406 439.230469 342.066406 434.558594 C 342.066406 429.886719 345.351562 425.859375 349.925781 424.925781 C 351.222656 424.664062 352.5625 424.664062 353.859375 424.925781 C 358.433594 425.859375 361.722656 429.886719 361.71875 434.558594 Z M 361.71875 434.558594 "/>
<use xlink:href="#surface41" mask="url(#mask12)"/>
<path style=" stroke:none;fill-rule:nonzero;fill:rgb(18.039216%,64.313725%,38.039216%);fill-opacity:1;" d="M 383.320312 384.105469 C 386.683594 387.347656 387.304688 392.511719 384.800781 396.453125 C 384.089844 397.570312 383.160156 398.53125 382.070312 399.285156 C 378.222656 401.929688 373.042969 401.503906 369.679688 398.261719 C 366.316406 395.019531 365.699219 389.859375 368.203125 385.914062 C 368.914062 384.800781 369.84375 383.835938 370.929688 383.085938 C 374.78125 380.4375 379.960938 380.863281 383.320312 384.105469 Z M 383.320312 384.105469 "/>
<use xlink:href="#surface44" mask="url(#mask13)"/>
<path style=" stroke:none;fill-rule:nonzero;fill:rgb(18.039216%,64.313725%,38.039216%);fill-opacity:1;" d="M 386.285156 405.597656 C 389.648438 408.839844 390.265625 414 387.765625 417.945312 C 387.050781 419.0625 386.125 420.023438 385.035156 420.777344 C 381.1875 423.421875 376.007812 422.996094 372.644531 419.753906 C 369.28125 416.511719 368.664062 411.351562 371.167969 407.40625 C 371.878906 406.289062 372.804688 405.328125 373.894531 404.574219 C 377.742188 401.929688 382.921875 402.355469 386.285156 405.597656 Z M 386.285156 405.597656 "/>
<use xlink:href="#surface47" mask="url(#mask14)"/>
<path style=" stroke:none;fill-rule:nonzero;fill:rgb(18.039216%,64.313725%,38.039216%);fill-opacity:1;" d="M 298.109375 410.785156 C 301.472656 414.027344 302.089844 419.191406 299.585938 423.132812 C 298.875 424.25 297.945312 425.210938 296.859375 425.964844 C 293.007812 428.609375 287.828125 428.183594 284.46875 424.941406 C 281.105469 421.699219 280.488281 416.539062 282.988281 412.59375 C 283.699219 411.480469 284.628906 410.515625 285.71875 409.765625 C 289.566406 407.117188 294.746094 407.542969 298.109375 410.785156 Z M 298.109375 410.785156 "/>
<use xlink:href="#surface50" mask="url(#mask15)"/>
<use xlink:href="#surface53" mask="url(#mask16)"/>
<use xlink:href="#surface56" mask="url(#mask17)"/>
<use xlink:href="#surface59" mask="url(#mask18)"/>
<use xlink:href="#surface62" mask="url(#mask19)"/>
<use xlink:href="#surface65" mask="url(#mask20)"/>
<use xlink:href="#surface68" mask="url(#mask21)"/>
<use xlink:href="#surface71" mask="url(#mask22)"/>
</g>
</svg>
