<?xml version="1.0" encoding="UTF-8"?>
<svg xmlns="http://www.w3.org/2000/svg" xmlns:xlink="http://www.w3.org/1999/xlink" width="763px" height="458px" viewBox="0 0 711 458" version="1.1">
<defs>
<filter id="alpha" filterUnits="objectBoundingBox" x="0%" y="0%" width="100%" height="100%">
  <feColorMatrix type="matrix" in="SourceGraphic" values="0 0 0 0 1 0 0 0 0 1 0 0 0 0 1 0 0 0 1 0"/>
</filter>
<mask id="mask0">
  <g filter="url(#alpha)">
<rect x="0" y="0" width="711" height="458" style="fill:rgb(0%,0%,0%);fill-opacity:0.101961;stroke:none;"/>
  </g>
</mask>
<clipPath id="clip1">
  <rect x="0" y="0" width="711" height="458"/>
</clipPath>
<g id="surface5" clip-path="url(#clip1)">
<path style=" stroke:none;fill-rule:nonzero;fill:rgb(0%,0%,0%);fill-opacity:1;" d="M 108.394531 278.289062 L 109.449219 239.238281 C 109.449219 239.238281 84.515625 249.851562 82.242188 295.347656 C 79.96875 340.847656 86.03125 426.53125 94.371094 427.289062 C 102.707031 428.046875 142.125 418.949219 142.125 418.949219 C 142.125 418.949219 148.1875 309 145.914062 294.589844 C 143.640625 280.183594 108.394531 278.289062 108.394531 278.289062 Z M 108.394531 278.289062 "/>
</g>
</defs>
<g id="surface1">
<path style=" stroke:none;fill-rule:nonzero;fill:rgb(94.901961%,94.901961%,94.901961%);fill-opacity:1;" d="M 515.878906 429.683594 L 512.1875 383.75 L 501.628906 432.324219 C 501.628906 432.324219 501.769531 444.578125 502.121094 458 L 515.640625 458 C 516.097656 442.65625 515.878906 429.683594 515.878906 429.683594 Z M 515.878906 429.683594 "/>
<path style=" stroke:none;fill-rule:nonzero;fill:rgb(94.901961%,94.901961%,94.901961%);fill-opacity:1;" d="M 325.929688 446.019531 C 324.890625 441.722656 324.15625 437.359375 323.734375 432.960938 L 322.257812 417.070312 C 321.636719 412.71875 320.996094 408.886719 320.355469 405.5 C 315.648438 381.371094 310.792969 380.496094 310.792969 380.496094 C 310.582031 380.65625 310.378906 380.835938 310.171875 381.015625 C 309.601562 381.535156 309.070312 382.097656 308.582031 382.695312 C 300.84375 392.53125 295.597656 418.046875 292.839844 434.96875 C 291.316406 444.320312 290.558594 451.046875 290.558594 451.046875 C 290.558594 451.046875 291.246094 453.914062 292.1875 458 L 327.492188 458 C 327.355469 453.964844 326.835938 449.953125 325.929688 446.019531 Z M 325.929688 446.019531 "/>
<path style=" stroke:none;fill-rule:nonzero;fill:rgb(94.901961%,94.901961%,94.901961%);fill-opacity:1;" d="M 603.53125 0 L 107.46875 0 C 48.359375 0 0 48.378906 0 107.507812 L 0 350.492188 C 0 409.621094 48.359375 458 107.46875 458 L 264.695312 458 L 262.664062 448.445312 C 262.664062 448.445312 257.445312 414.757812 262.664062 388.492188 C 264.351562 380.25 265.507812 371.910156 266.125 363.523438 C 266.777344 354.050781 268.328125 344.664062 270.746094 335.488281 C 270.886719 334.957031 271.039062 334.429688 271.183594 333.902344 C 269.910156 333.558594 269.328125 333.28125 269.621094 333.105469 C 270.4375 332.625 270.886719 331.148438 271.109375 329.277344 C 272.5 316.882812 275.152344 304.664062 279.019531 292.808594 C 273.75 296.117188 270.246094 296.46875 267.957031 295.1875 C 259.902344 292.988281 263.246094 274.867188 263.246094 274.867188 C 263.246094 274.867188 268.25 235.671875 269.914062 221.476562 C 270.867188 213.320312 283.117188 208.699219 293.957031 206.1875 C 295.101562 203.738281 295.925781 201.265625 295.402344 198.675781 C 295.367188 198.5 295.316406 198.332031 295.269531 198.160156 C 293.890625 195.097656 291.089844 192.578125 290.035156 189.40625 C 289.570312 188.550781 289.242188 187.628906 289.0625 186.675781 C 288.132812 181.234375 293.214844 176.539062 294.683594 171.308594 C 293.1875 169.863281 292.070312 168.070312 291.429688 166.09375 C 289.199219 161.511719 290.285156 156.011719 297.460938 151.761719 C 298.890625 150.914062 300.410156 150.167969 301.949219 149.449219 C 302.515625 149.085938 303.128906 148.804688 303.773438 148.613281 C 308.90625 146.292969 314.0625 144.042969 317.132812 139.523438 C 317.925781 138.359375 318.617188 137.007812 319.898438 136.394531 C 320.5 136.136719 321.144531 135.992188 321.800781 135.96875 C 331.691406 135.210938 340.644531 143.691406 350.484375 142.476562 C 353.464844 142.109375 356.507812 140.855469 359.371094 141.757812 C 361.25 142.351562 362.71875 143.796875 363.984375 145.289062 C 370.945312 153.605469 373.839844 164.59375 371.875 175.265625 C 370.625 181.75 367.589844 188.433594 369.777344 194.675781 C 371.382812 199.257812 375.6875 202.980469 375.714844 207.828125 C 375.742188 211.820312 372.910156 215.003906 370.171875 218.109375 C 370.53125 218.472656 370.875 218.847656 371.214844 219.230469 C 377.898438 226.851562 376.636719 233.355469 375.695312 235.960938 L 372.253906 269.15625 L 369.355469 291.421875 C 369.355469 291.421875 368.640625 300.5625 361.886719 302.566406 C 359.917969 303.476562 357.34375 303.71875 353.957031 302.6875 C 351.757812 302.015625 349.90625 301.347656 348.332031 300.699219 C 349.820312 305.445312 352.375 315.136719 351.960938 324.539062 C 351.382812 337.671875 353.121094 338.816406 353.121094 338.816406 C 353.011719 338.949219 352.886719 339.074219 352.75 339.179688 C 359.640625 354.402344 359.703125 370.023438 352.539062 385.636719 C 344.421875 403.335938 353.121094 444.449219 353.121094 444.449219 C 353.121094 444.449219 353.738281 450.859375 354.019531 458 L 478.546875 458 C 476.566406 439.101562 474.1875 420.183594 473.128906 418.066406 C 471.386719 414.582031 473.601562 357.144531 474.425781 337.191406 C 474.058594 337.101562 473.699219 337.003906 473.363281 336.910156 C 472.773438 336.738281 472.246094 336.5625 471.757812 336.382812 C 471.730469 337.398438 471.839844 338.414062 472.074219 339.398438 C 472.808594 341.109375 471.050781 342.367188 468.0625 343.226562 C 469.800781 351.707031 471.945312 367.492188 464.6875 370.550781 C 457.21875 373.695312 457.066406 354.585938 457.476562 344.625 C 456.535156 344.660156 455.59375 344.679688 454.660156 344.679688 C 445.6875 344.679688 457.296875 240.671875 456.769531 233.808594 C 456.242188 226.941406 460.992188 198.960938 460.992188 198.960938 C 460.992188 198.960938 462.574219 193.152344 467.324219 192.097656 C 472.074219 191.042969 494.769531 177.84375 494.769531 177.84375 C 496.046875 176.046875 497.660156 174.519531 499.519531 173.34375 L 499.519531 172.5625 C 500.109375 172.011719 500.738281 171.5 501.402344 171.039062 C 501.125 166.425781 500.503906 160.472656 500.046875 156.453125 C 497.496094 153.851562 495.773438 150.554688 495.09375 146.972656 C 494.125 146.214844 493.199219 145.394531 492.332031 144.515625 C 490.152344 142.019531 488.902344 138.84375 488.792969 135.527344 C 488.695312 132.234375 489.171875 128.949219 490.199219 125.820312 C 490.46875 124.78125 490.878906 123.785156 491.421875 122.859375 C 492.167969 121.785156 493.105469 120.855469 494.183594 120.117188 C 494.507812 119.878906 494.835938 119.65625 495.167969 119.433594 C 495.867188 118.074219 496.890625 116.90625 498.152344 116.042969 C 500.847656 114.273438 504.3125 114.417969 507.535156 114.496094 C 507.582031 114.5 507.632812 114.5 507.679688 114.5 C 508.277344 114.402344 508.878906 114.324219 509.480469 114.261719 C 510.199219 114.117188 510.765625 113.5625 510.921875 112.847656 C 511.359375 113.265625 511.792969 113.683594 512.230469 114.101562 C 512.882812 114.09375 513.539062 114.105469 514.191406 114.136719 C 514.480469 113.472656 514.820312 112.835938 515.207031 112.226562 C 515.449219 112.90625 515.6875 113.589844 515.925781 114.269531 C 516.582031 114.339844 517.234375 114.429688 517.886719 114.542969 C 518.398438 114.132812 518.914062 113.726562 519.425781 113.320312 C 519.539062 113.226562 519.949219 114.566406 520.152344 115.023438 C 520.507812 115.113281 520.859375 115.210938 521.207031 115.320312 C 521.753906 115.292969 522.359375 115.191406 522.695312 115.195312 C 524.550781 115.132812 526.390625 115.59375 528 116.519531 C 529.40625 117.542969 530.558594 118.875 531.371094 120.414062 C 533.445312 123.695312 534.730469 127.410156 535.132812 131.273438 C 536.140625 132.667969 536.851562 134.257812 537.222656 135.9375 C 538.09375 141.238281 533.058594 145.667969 532.058594 150.945312 C 531.527344 153.761719 532.136719 156.878906 530.703125 159.359375 C 530.074219 160.359375 529.25 161.222656 528.285156 161.894531 C 527.710938 162.324219 527.113281 162.714844 526.496094 163.074219 C 526.53125 166.265625 526.894531 169.445312 527.589844 172.5625 L 528.269531 175.167969 C 529.324219 175.929688 530.464844 176.808594 531.714844 177.84375 C 531.714844 177.84375 546.492188 184.179688 551.769531 187.34375 C 556.40625 190.128906 561.453125 190.46875 562.964844 194.097656 L 563.378906 194.210938 C 563.378906 194.210938 568.65625 252.8125 569.183594 262.84375 C 569.710938 272.875 576.046875 334.648438 574.992188 337.289062 C 574.601562 338.265625 572.109375 339.386719 569.105469 340.277344 C 570.859375 348.296875 573.691406 365.734375 566.019531 368.964844 C 558.238281 372.242188 558.402344 351.378906 558.863281 341.851562 C 557.828125 341.757812 557.148438 341.488281 557.046875 340.984375 C 556.960938 340.554688 556.683594 338.617188 556.289062 335.660156 C 555.628906 335.761719 554.949219 335.867188 554.222656 335.980469 C 554.078125 336 553.921875 336.023438 553.773438 336.046875 C 560.464844 357.101562 545.648438 412.945312 542.796875 423.875 C 541.308594 429.585938 539.699219 443.710938 538.253906 458 L 603.53125 458 C 662.640625 458 711 409.621094 711 350.492188 L 711 107.507812 C 711 48.378906 662.640625 0 603.53125 0 Z M 603.53125 0 "/>
<path style=" stroke:none;fill-rule:nonzero;fill:rgb(24.705882%,23.921569%,33.72549%);fill-opacity:1;" d="M 231.1875 128.148438 C 231.1875 91.945312 198.949219 62.597656 159.179688 62.597656 C 119.410156 62.597656 87.167969 91.945312 87.167969 128.148438 C 87.167969 164.351562 119.410156 193.703125 159.179688 193.703125 C 198.949219 193.703125 231.1875 164.351562 231.1875 128.148438 Z M 231.1875 128.148438 "/>
<path style=" stroke:none;fill-rule:nonzero;fill:rgb(100%,72.54902%,72.54902%);fill-opacity:1;" d="M 277.804688 342.363281 C 277.804688 342.363281 302.0625 325.679688 302.0625 318.097656 C 302.0625 310.515625 318.738281 261.226562 327.832031 283.21875 C 336.929688 305.207031 314.945312 336.296875 314.945312 336.296875 C 314.945312 336.296875 290.691406 380.277344 276.289062 387.859375 C 261.886719 395.441406 249.757812 390.890625 249.757812 390.890625 L 249.757812 370.417969 L 263.617188 349.902344 C 266.800781 345.1875 272.117188 342.363281 277.804688 342.363281 Z M 277.804688 342.363281 "/>
<path style=" stroke:none;fill-rule:nonzero;fill:rgb(34.117647%,35.294118%,53.72549%);fill-opacity:1;" d="M 208.859375 226.222656 C 208.859375 226.222656 245.210938 237.71875 249 243.027344 C 252.792969 248.335938 254.308594 239.238281 264.917969 274.117188 C 275.53125 309 278.183594 342.742188 278.183594 342.742188 C 278.183594 342.742188 252.035156 351.460938 255.066406 385.585938 C 258.097656 419.707031 250.519531 456.863281 250.519531 456.863281 L 241.054688 456.863281 L 220.199219 392.410156 L 245.210938 294.589844 C 245.210938 294.589844 209.652344 234.4375 208.859375 226.222656 Z M 208.859375 226.222656 "/>
<path style=" stroke:none;fill-rule:nonzero;fill:rgb(100%,72.54902%,72.54902%);fill-opacity:1;" d="M 242.179688 149 C 242.179688 174.128906 221.816406 194.5 196.699219 194.5 C 171.582031 194.5 151.21875 174.128906 151.21875 149 C 151.21875 123.875 171.582031 103.503906 196.699219 103.503906 C 221.816406 103.503906 242.179688 123.875 242.179688 149 Z M 242.179688 149 "/>
<path style=" stroke:none;fill-rule:nonzero;fill:rgb(100%,72.54902%,72.54902%);fill-opacity:1;" d="M 214.132812 183.125 C 214.132812 183.125 201.246094 225.585938 212.617188 231.652344 C 223.988281 237.71875 236.875 265.019531 236.875 265.019531 L 217.164062 287.007812 L 171.6875 287.007812 L 151.21875 264.261719 L 142.882812 225.585938 L 154.253906 216.488281 C 154.253906 216.488281 166.378906 186.15625 166.378906 170.234375 C 166.378906 154.308594 214.132812 183.125 214.132812 183.125 Z M 214.132812 183.125 "/>
<path style=" stroke:none;fill-rule:nonzero;fill:rgb(18.039216%,64.313725%,38.039216%);fill-opacity:1;" d="M 217.921875 230.136719 C 217.921875 230.136719 208.828125 227.863281 214.132812 236.960938 C 219.441406 246.0625 224.746094 262.742188 205.796875 263.5 C 186.847656 264.261719 167.894531 254.402344 161.832031 233.929688 C 155.769531 213.457031 153.492188 214.972656 151.21875 215.730469 C 148.945312 216.488281 124.691406 241.511719 124.691406 241.511719 L 133.027344 288.523438 L 136.058594 456.863281 L 246.726562 456.863281 C 246.726562 456.863281 251.277344 408.332031 243.695312 396.957031 C 236.117188 385.585938 250.519531 356.769531 250.519531 356.769531 C 250.519531 356.769531 263.402344 337.054688 253.550781 299.140625 C 243.695312 261.226562 221.714844 230.136719 217.921875 230.136719 Z M 217.921875 230.136719 "/>
<path style=" stroke:none;fill-rule:nonzero;fill:rgb(34.117647%,35.294118%,53.72549%);fill-opacity:1;" d="M 156.527344 215.730469 C 156.527344 215.730469 145.15625 210.421875 135.300781 219.523438 C 125.449219 228.621094 103.464844 236.203125 103.464844 240.753906 C 103.464844 245.304688 122.417969 374.96875 109.53125 397.71875 C 96.644531 420.464844 83 456.863281 83 456.863281 L 146.226562 456.863281 C 146.226562 456.863281 156.527344 418.949219 167.136719 398.476562 C 177.75 378 176.992188 320.371094 173.960938 302.933594 C 170.929688 285.492188 156.527344 215.730469 156.527344 215.730469 Z M 156.527344 215.730469 "/>
<path style=" stroke:none;fill-rule:nonzero;fill:rgb(100%,72.54902%,72.54902%);fill-opacity:1;" d="M 89.824219 416.675781 L 93.515625 456.863281 L 134.480469 456.863281 L 130.753906 406.816406 Z M 89.824219 416.675781 "/>
<path style=" stroke:none;fill-rule:nonzero;fill:rgb(24.705882%,23.921569%,33.72549%);fill-opacity:1;" d="M 276.289062 395.441406 L 286.144531 456.863281 L 505.203125 456.863281 L 524.152344 333.261719 Z M 276.289062 395.441406 "/>
<path style=" stroke:none;fill-rule:nonzero;fill:rgb(24.705882%,23.921569%,33.72549%);fill-opacity:1;" d="M 532.492188 324.921875 L 534.765625 336.296875 L 251.277344 404.542969 L 251.277344 394.683594 Z M 532.492188 324.921875 "/>
<path style=" stroke:none;fill-rule:nonzero;fill:rgb(24.705882%,23.921569%,33.72549%);fill-opacity:1;" d="M 412.730469 345.394531 L 411.210938 358.285156 L 427.886719 356.011719 L 421.066406 343.121094 Z M 412.730469 345.394531 "/>
<path style="fill:none;stroke-width:5;stroke-linecap:butt;stroke-linejoin:miter;stroke:rgb(24.705882%,23.921569%,33.72549%);stroke-opacity:1;stroke-miterlimit:10;" d="M 554.500692 431.501058 C 554.500692 431.501058 598.500363 428.497748 610.497462 462.497475 C 622.499714 496.502354 650.498099 557.500955 661.500593 566.50058 C 672.497934 575.500205 684.500187 599.500921 682.50067 607.50116 " transform="matrix(0.757996,0,0,0.758278,-99.297441,-112.225166)"/>
<path style=" stroke:none;fill-rule:nonzero;fill:rgb(18.039216%,64.313725%,38.039216%);fill-opacity:1;" d="M 325.9375 214.59375 C 325.9375 218.152344 322.15625 221.039062 316.085938 221.039062 C 310.015625 221.039062 306.988281 218.152344 306.988281 214.59375 C 306.988281 211.03125 310.015625 208.148438 316.085938 208.148438 C 322.15625 208.148438 325.9375 211.03125 325.9375 214.59375 Z M 325.9375 214.59375 "/>
<path style=" stroke:none;fill-rule:nonzero;fill:rgb(34.117647%,35.294118%,53.72549%);fill-opacity:1;" d="M 269.847656 332.882812 C 269.847656 332.882812 275.53125 309 264.917969 274.117188 C 254.308594 239.238281 252.792969 248.335938 249 243.027344 C 245.210938 237.71875 208.859375 226.222656 208.859375 226.222656 C 209.121094 228.921875 213.136719 237.230469 218.40625 247.167969 C 217.457031 243.585938 216.019531 240.152344 214.132812 236.960938 C 208.828125 227.863281 217.921875 230.136719 217.921875 230.136719 C 221.714844 230.136719 243.695312 261.226562 253.550781 299.140625 C 263.402344 337.054688 250.519531 356.769531 250.519531 356.769531 Z M 269.847656 332.882812 "/>
<path style=" stroke:none;fill-rule:nonzero;fill:rgb(34.117647%,35.294118%,53.72549%);fill-opacity:1;" d="M 209.207031 225.96875 C 209.207031 225.96875 213.695312 242.996094 217.515625 245.476562 C 221.335938 247.957031 243.992188 271.503906 243.992188 271.503906 L 241.042969 252.507812 L 228.914062 234.308594 L 225.6875 231.964844 Z M 209.207031 225.96875 "/>
<use xlink:href="#surface5" mask="url(#mask0)"/>
<path style=" stroke:none;fill-rule:nonzero;fill:rgb(34.117647%,35.294118%,53.72549%);fill-opacity:1;" d="M 110.289062 239.238281 L 104.144531 239.238281 C 104.144531 239.238281 79.210938 249.851562 76.9375 295.347656 C 74.664062 340.847656 80.726562 426.53125 89.066406 427.289062 C 97.402344 428.046875 136.816406 418.949219 136.816406 418.949219 C 136.816406 418.949219 142.882812 309 140.609375 294.589844 C 138.335938 280.183594 110.289062 239.238281 110.289062 239.238281 Z M 110.289062 239.238281 "/>
<path style=" stroke:none;fill-rule:nonzero;fill:rgb(24.705882%,23.921569%,33.72549%);fill-opacity:1;" d="M 189.5 136.871094 C 189.5 107.761719 168.457031 84.167969 142.503906 84.167969 C 116.546875 84.167969 95.507812 107.761719 95.507812 136.871094 C 95.507812 165.976562 116.546875 189.570312 142.503906 189.570312 C 168.457031 189.570312 189.5 165.976562 189.5 136.871094 Z M 189.5 136.871094 "/>
<path style=" stroke:none;fill-rule:nonzero;fill:rgb(100%,72.54902%,72.54902%);fill-opacity:1;" d="M 185.707031 165.683594 C 185.707031 157.9375 181.46875 151.65625 176.234375 151.65625 C 171 151.65625 166.757812 157.9375 166.757812 165.683594 C 166.757812 173.429688 171 179.710938 176.234375 179.710938 C 181.46875 179.710938 185.707031 173.429688 185.707031 165.683594 Z M 185.707031 165.683594 "/>
<path style=" stroke:none;fill-rule:nonzero;fill:rgb(24.705882%,23.921569%,33.72549%);fill-opacity:1;" d="M 134.164062 84.167969 C 134.164062 105.527344 116.859375 122.839844 95.507812 122.839844 C 74.15625 122.839844 56.851562 105.527344 56.851562 84.167969 C 56.851562 62.8125 74.15625 45.496094 95.507812 45.496094 C 116.859375 45.496094 134.164062 62.8125 134.164062 84.167969 Z M 134.164062 84.167969 "/>
<path style=" stroke:none;fill-rule:nonzero;fill:rgb(24.705882%,23.921569%,33.72549%);fill-opacity:1;" d="M 100.503906 115.148438 C 89.101562 120.953125 75.566406 120.738281 64.355469 114.574219 C 53.144531 108.410156 45.707031 97.09375 44.492188 84.355469 C 42.242188 99.140625 48.710938 113.898438 61.113281 122.253906 C 73.511719 130.609375 89.617188 131.0625 102.46875 123.414062 C 115.316406 115.769531 122.605469 101.394531 121.183594 86.507812 C 119.320312 98.835938 111.617188 109.503906 100.503906 115.148438 Z M 100.503906 115.148438 "/>
<path style=" stroke:none;fill-rule:nonzero;fill:rgb(24.705882%,23.921569%,33.72549%);fill-opacity:1;" d="M 74.300781 90.5625 C 66.417969 80.480469 64.03125 67.148438 67.929688 54.960938 C 71.828125 42.769531 81.5 33.296875 93.765625 29.664062 C 78.828125 30.285156 65.589844 39.472656 59.773438 53.25 C 53.953125 67.027344 56.601562 82.925781 66.566406 94.074219 C 76.535156 105.222656 92.035156 109.621094 106.367188 105.371094 C 93.914062 105.902344 81.972656 100.386719 74.300781 90.5625 Z M 74.300781 90.5625 "/>
<path style=" stroke:none;fill-rule:nonzero;fill:rgb(24.705882%,23.921569%,33.72549%);fill-opacity:1;" d="M 226.640625 113.742188 C 226.640625 102.851562 214.421875 94.027344 199.351562 94.027344 C 184.28125 94.027344 172.066406 102.851562 172.066406 113.742188 C 172.066406 124.628906 184.28125 133.457031 199.351562 133.457031 C 214.421875 133.457031 226.640625 124.628906 226.640625 113.742188 Z M 226.640625 113.742188 "/>
</g>
</svg>
